<svg xmlns="http://www.w3.org/2000/svg" width="455" height="453.527" viewBox="0 0 455 453.527">
  <g id="Grupo_24752" data-name="Grupo 24752" transform="translate(-243 -225.292)">
    <g id="Grupo_24751" data-name="Grupo 24751" transform="translate(243 225.292)">
      <g id="Grupo_24730" data-name="Grupo 24730" transform="translate(76.186 422.921)">
        <ellipse id="Elipse_1368" data-name="Elipse 1368" cx="163.29" cy="15.303" rx="163.29" ry="15.303" fill="#ef3cae"/>
      </g>
      <g id="Grupo_24732" data-name="Grupo 24732" transform="translate(141.785)">
        <g id="Grupo_24731" data-name="Grupo 24731">
          <path id="Trazado_53279" data-name="Trazado 53279" d="M454.454,490.768s12.469-36.754,9.227-40-13.716,21.7-13.716,21.7,15.213-45.638,8.229-47.883-12.72,39.654-12.72,39.654,1.748-54.122-1.744-57.614-4.491,36.417-4.491,36.417-.746-25.688-6.484-25.688-1.493,40.651-1.493,40.651-5.739-31.926-8.98-28.68,0,36.911,0,36.911-5.488-20.417-9.979-18.318,4.742,35.776,4.742,35.776-4.244-15.215-7.73-15.215,0,21.763,0,21.763Z" transform="translate(-233.737 -59.249)" fill="#8da408"/>
          <path id="Trazado_53280" data-name="Trazado 53280" d="M498.657,477.6a3.919,3.919,0,0,0-3.855-3.18,5.383,5.383,0,0,0-5.292,2.653c.926-2.21,2.751-7.266.151-7.266-1.748,0-3.887,2.21-5.522,4.305.291-2.785.211-5.768-1.112-7.094-2.214-2.22-3.724,3.778-4.267,6.444.594-3.37,2.02-12.8-.222-15.048-2.747-2.753-5.988,9-5.988,9s3.839-18.9,2.243-20.5-7.171,11.746-7.171,11.746,2.933-20.73,0-20.73-5.539,21.98-5.539,21.98-1.877-22.873-5.493-26.493,3.241,41.5,2.5,42.245c0,0-5.735-54.748-9.48-53.5-1.677.562-.64,10.049,1.008,20.333-.976-2.751-2.068-4.566-3.251-4.566-4.89,0,3.991,34.23,3.991,35.732s-4.989-28-9.982-25.907c-3.582,1.507.932,16.944,3.768,25.541a6,6,0,0,0-6.116,2.551c.928-2.214,2.753-7.265.153-7.265-1.75,0-3.887,2.208-5.522,4.305.289-2.791.209-5.769-1.116-7.094-2.216-2.22-3.72,3.776-4.263,6.438.594-3.366,2.018-12.8-.224-15.045-2.747-2.751-5.986,9-5.986,9s3.839-18.9,2.246-20.5-7.174,11.752-7.174,11.752,2.933-20.732,0-20.732-5.539,21.981-5.539,21.981-1.878-22.875-5.493-26.5,3.241,41.5,2.494,42.251c0,0-5.735-54.749-9.478-53.5-1.677.56-.642,10.05,1.006,20.327-.974-2.747-2.066-4.562-3.249-4.562-4.9,0,3.991,34.231,3.991,35.732s-4.989-28-9.982-25.905c-1.712.717-1.574,4.608-.661,9.408a4.058,4.058,0,0,0-2.181-1.125,3.359,3.359,0,0,0-2.994-.751c-7,1.767,10.046,21.891,11.453,23.54Z" transform="translate(-256.1 -45.947)" fill="#505c05"/>
          <path id="Trazado_53281" data-name="Trazado 53281" d="M419.639,322.245s-5.963,83.49-21.631,94.7l-1.5,10.835,5.969,7.088s9.323-30.21,13.053-41.772l48.111-38.782-2.615-2.239s-39.524,33.191-44.751,33.191c0,0,9.323-54.819,7.46-60.412S419.639,322.245,419.639,322.245Z" transform="translate(-244.052 -137.137)" fill="#32213d"/>
          <path id="Trazado_53282" data-name="Trazado 53282" d="M409.584,456.667c1.94,7.769-2.528,96.72-3.743,120.106h15.894c-.5-24.736,2.018-117.494,2.018-117.494l-1.116-8.206.556-16.407s-14.73-16.407-19.2-26.106-16.783-90.247-16.783-90.247L379,312.72s14.46,80.92,17.529,95.094c3.45,15.942,10.255,29.091,10.255,33.936S407.347,447.719,409.584,456.667Z" transform="translate(-260.103 -145.141)" fill="#432b48"/>
          <path id="Trazado_53283" data-name="Trazado 53283" d="M382.177,274.469s-30.344-30.881-45.17-25.692-7.071,25.692-7.071,25.692-17.395,11.713-11.888,27.042,23.463,14.408,23.463,14.408-22.564,7.406-9.269,20.707,33.072,4.719,35.138-2.252S382.177,274.469,382.177,274.469Z" transform="translate(-316.971 -204.3)" fill="#505c05"/>
          <path id="Trazado_53284" data-name="Trazado 53284" d="M599.4,402.194s13.8-9.323,5.593-27.6-26.846-16.779-26.846-16.779,20.883-21.259,7.454-44.005-18.271-11.19-21.253-14.174,1.116-20.883-24.989-32.067-34.684-.376-34.684-.376c4.106-17.9-34.676-44.005-49.968-41.768s-16.783,17.416-16.783,17.416a121.435,121.435,0,0,0-26.589-2.48c-5.423-4.533-12.568-7.887-16.469-7.318-7.19,1.05-7.893,8.188-7.893,8.188s-16.137-3.63-24.025,1.809-6.314,15.424-6.314,15.424-11.224-.347-17.011,9.3,2.455,16.835,2.455,16.835-2.8-1.577-5.436,2.457c-1.662,2.551.951,5.378,3.408,8.135a39.233,39.233,0,0,0-2.814,4.077c-12.306,20.507,5.217,35.8,5.217,35.8s-5.963-3.354-11.56,5.221,11.56,18.646,14.174,27.222-11.938,5.223-7.832,15.292,11.37,6.525,14.916,10.069S332.762,402.94,332.762,409.6s11.186-4.424,17.153-2.561-6.339,11.562-2.609,15.292S357.4,404.408,362.6,409.6s-3.922,12.17,0,16.085,5.217-16.085,9.323-16.085-2.984,17.577,6.337,11.614,1.788-17.452,4.848-14.387,1.273,10.069,5.969,5.375,3.73-10.755,8.576-10.755,0,6.714,3.356,10.071S412.2,404.8,412.2,404.8s37.291-4.472,35.613,13.051,15.476,14.546,31.2,11.69,19.7,7.7,19.7,22.993,24.985,36.173,39.905,26.476,18.271-17.153,23.116-9.323,44.381-5.963,54.449-41.021S599.4,402.194,599.4,402.194Z" transform="translate(-305.227 -225.292)" fill="#6a7b06"/>
          <path id="Trazado_53285" data-name="Trazado 53285" d="M404.9,309.6s-23.873,7.83-9.7,22,37.666.372,34.308,23.122-14.242,24.59.328,39.154,27.645,1.5,27.645,1.5S472.02,430.8,488.8,433.783s39.159-7.456,32.821-30.206-28.345-24.613-28.345-24.613,48.853,16.411,48.853-1.863-38.579-18.851-29.089-28.345c2.053-2.047,32.073-14.914,14.544-32.443s-37.662-.746-37.662-.746,9.323-5.963,2.239-23.122-29.091-19.762-31.7-11.932-13.423-26.852-35.424-33.566S392.963,263.209,404.9,278.39s22.76,15.922,22.76,15.922-31.711-17.9-44.394-13.053S404.9,309.6,404.9,309.6Z" transform="translate(-258.773 -206.537)" fill="#505c05"/>
          <path id="Trazado_53286" data-name="Trazado 53286" d="M396.278,309.354c1.815-1.821,2.515-33.848-7.836-36.361s-11.046,11.048-9.507,12.582-.841-18.734-10.069-21.533,8.671,42.794,5.593,36.921-16.779-24.333-25.451-22.938,9.789,27.413,9.789,27.413-12.587-9.793-18.46-1.121,18.181,15.66,18.181,15.66-14.544,1.963-5.873,13.709,19.576-6.153,19.576-6.153-13.143,15.1.841,21.535,12.308-18.74,12.308-18.74-1.645,17.728,6.291,24.523a11.012,11.012,0,0,0,7.412,2.609c16.222,0,2.519-29.926,2.519-29.926s27.688,30.206,30.486,15.1-34.962-31.945-34.962-31.945,18.179,7.052,18.179-3.573S396.278,309.354,396.278,309.354Z" transform="translate(-296.396 -189.88)" fill="#505c05"/>
          <path id="Trazado_53287" data-name="Trazado 53287" d="M404.326,446.365c-.265-4.2,2.271-9.172,4.305-12.886a29.988,29.988,0,0,1,8.459-9.31,36.219,36.219,0,0,1,11.238-5.459,41.7,41.7,0,0,1,24.627,0,36.271,36.271,0,0,1,11.244,5.459,30.028,30.028,0,0,1,8.457,9.31c2.03,3.715,3.726,8.855,3.46,13.057l-3.232-.874a20.436,20.436,0,0,0-3.036-10.492,26.662,26.662,0,0,0-7.711-8.031,39.324,39.324,0,0,0-42.989,0,26.741,26.741,0,0,0-7.707,8.031c-1.928,3.17-4.119,6.808-4.129,10.492Z" transform="translate(-236.905 -49.678)" fill="#ff8c2e"/>
          <path id="Trazado_53288" data-name="Trazado 53288" d="M448.237,305.979a6.907,6.907,0,0,0-2.03.31,6.831,6.831,0,0,0-2.024-.31c-3.354,0-6.076,2.429-6.076,5.422s2.722,5.417,6.076,5.417h4.054c3.354,0,6.078-2.429,6.078-5.417S451.591,305.979,448.237,305.979Z" transform="translate(-205.918 -151.321)" fill="#d9e021"/>
          <path id="Trazado_53289" data-name="Trazado 53289" d="M442.379,308.981a8.078,8.078,0,0,0,5.056-.629c2.461-1.257,3.136-5.087,3.136-5.087S442.009,302.656,442.379,308.981Z" transform="translate(-202.013 -153.823)" fill="#81a556"/>
          <path id="Trazado_53290" data-name="Trazado 53290" d="M418.707,288.582a4.919,4.919,0,0,1-4.054,0c-3.354,0-6.076,3.412-6.076,7.617s2.722,7.621,6.076,7.621h4.054c3.36,0,6.078-3.412,6.078-7.621S422.067,288.582,418.707,288.582Z" transform="translate(-232.99 -167.27)" fill="#d9e021"/>
          <path id="Trazado_53291" data-name="Trazado 53291" d="M412.849,291.584a8.064,8.064,0,0,0,5.056-.633c2.461-1.254,3.136-5.083,3.136-5.083S412.479,285.254,412.849,291.584Z" transform="translate(-229.085 -169.773)" fill="#81a556"/>
          <path id="Trazado_53292" data-name="Trazado 53292" d="M416.622,291.792a8.062,8.062,0,0,0-2.11-4.637c-1.932-1.978-5.791-1.474-5.791-1.474S410.7,294.035,416.622,291.792Z" transform="translate(-232.858 -169.981)" fill="#81a556"/>
          <path id="Trazado_53293" data-name="Trazado 53293" d="M381.155,289.308a6.743,6.743,0,0,0-2.024.309,6.743,6.743,0,0,0-2.024-.309c-3.36,0-6.082,2.429-6.082,5.417s2.722,5.417,6.082,5.417a6.93,6.93,0,0,0,2.024-.3,6.93,6.93,0,0,0,2.024.3c3.36,0,6.082-2.423,6.082-5.417S384.515,289.308,381.155,289.308Z" transform="translate(-267.416 -166.604)" fill="#a3a819"/>
          <path id="Trazado_53294" data-name="Trazado 53294" d="M450.8,286.941a4.56,4.56,0,0,1-4.054,0c-3.36,0-6.078,3.72-6.078,8.305s2.718,8.3,6.078,8.3H450.8c3.354,0,6.076-3.717,6.076-8.3S454.158,286.941,450.8,286.941Z" transform="translate(-203.567 -168.774)" fill="#a3a819"/>
          <path id="Trazado_53295" data-name="Trazado 53295" d="M416.684,268.869a5.078,5.078,0,0,1-4.052,0c-3.356,0-6.078,3.335-6.078,7.454s2.722,7.456,6.078,7.456a5.015,5.015,0,0,1,4.052,0c3.354,0,6.078-3.341,6.078-7.456S420.038,268.869,416.684,268.869Z" transform="translate(-234.845 -185.342)" fill="#a3a819"/>
          <path id="Trazado_53296" data-name="Trazado 53296" d="M436.106,257.565a6.713,6.713,0,0,1-4.048,0c-3.36,0-6.084,2.427-6.084,5.421s2.724,5.417,6.084,5.417a6.793,6.793,0,0,1,4.048,0c3.358,0,6.076-2.429,6.076-5.417S439.464,257.565,436.106,257.565Z" transform="translate(-217.041 -195.705)" fill="#a3a819"/>
          <path id="Trazado_53297" data-name="Trazado 53297" d="M375.3,292.309a8.07,8.07,0,0,0,5.056-.627c2.461-1.259,3.142-5.089,3.142-5.089S374.927,285.986,375.3,292.309Z" transform="translate(-263.511 -169.107)" fill="#81a556"/>
          <path id="Trazado_53298" data-name="Trazado 53298" d="M376.519,294.344a8.094,8.094,0,0,1-2.513-4.428c-.466-2.728,2.2-5.559,2.2-5.559S381.817,290.862,376.519,294.344Z" transform="translate(-264.733 -171.142)" fill="#81a556"/>
          <path id="Trazado_53299" data-name="Trazado 53299" d="M379.07,292.518a8.082,8.082,0,0,0-2.108-4.637c-1.934-1.976-5.792-1.474-5.792-1.474S373.149,294.761,379.07,292.518Z" transform="translate(-267.284 -169.316)" fill="#81a556"/>
          <path id="Trazado_53300" data-name="Trazado 53300" d="M351.23,302.836a6.773,6.773,0,0,0-2.03.309,6.745,6.745,0,0,0-2.024-.309c-3.354,0-6.078,2.423-6.078,5.417s2.724,5.417,6.078,5.417h4.054c3.354,0,6.076-2.423,6.076-5.417S354.584,302.836,351.23,302.836Z" transform="translate(-294.852 -154.202)" fill="#d9e021"/>
          <path id="Trazado_53301" data-name="Trazado 53301" d="M345.371,305.837a8.049,8.049,0,0,0,5.055-.631c2.463-1.255,3.136-5.085,3.136-5.085S345,299.508,345.371,305.837Z" transform="translate(-290.946 -156.705)" fill="#81a556"/>
          <path id="Trazado_53302" data-name="Trazado 53302" d="M334.328,279.1a8.05,8.05,0,0,0-1.4-4.9c-1.62-2.239-5.507-2.315-5.507-2.315S328.137,280.443,334.328,279.1Z" transform="translate(-307.388 -182.574)" fill="#81a556"/>
          <path id="Trazado_53303" data-name="Trazado 53303" d="M346.6,307.873a8.085,8.085,0,0,1-2.519-4.428c-.462-2.728,2.21-5.561,2.21-5.561S351.887,304.39,346.6,307.873Z" transform="translate(-292.171 -158.741)" fill="#81a556"/>
          <path id="Trazado_53304" data-name="Trazado 53304" d="M349.147,306.046a8.067,8.067,0,0,0-2.11-4.637c-1.934-1.976-5.8-1.474-5.8-1.474S343.22,308.289,349.147,306.046Z" transform="translate(-294.722 -156.914)" fill="#81a556"/>
          <path id="Trazado_53305" data-name="Trazado 53305" d="M352.463,268.869a5.386,5.386,0,0,0-2.028.4,5.374,5.374,0,0,0-2.024-.4c-3.356,0-6.078,3.136-6.078,7.008s2.722,7,6.078,7h4.052c3.354,0,6.078-3.136,6.078-7S355.817,268.869,352.463,268.869Z" transform="translate(-293.72 -185.342)" fill="#d9e021"/>
          <path id="Trazado_53306" data-name="Trazado 53306" d="M346.6,271.867a8.048,8.048,0,0,0,5.056-.629c2.461-1.254,3.136-5.083,3.136-5.083S346.235,265.541,346.6,271.867Z" transform="translate(-289.815 -187.845)" fill="#81a556"/>
          <path id="Trazado_53307" data-name="Trazado 53307" d="M347.829,273.9a8.067,8.067,0,0,1-2.519-4.43c-.46-2.722,2.206-5.555,2.206-5.555S353.123,270.424,347.829,273.9Z" transform="translate(-291.039 -189.881)" fill="#81a556"/>
          <path id="Trazado_53308" data-name="Trazado 53308" d="M350.381,272.077a8.055,8.055,0,0,0-2.108-4.635c-1.934-1.976-5.8-1.476-5.8-1.476S344.456,274.323,350.381,272.077Z" transform="translate(-293.591 -188.055)" fill="#81a556"/>
          <path id="Trazado_53309" data-name="Trazado 53309" d="M385.407,254.741a6.765,6.765,0,0,0-2.024.309,6.746,6.746,0,0,0-2.024-.309c-3.36,0-6.078,2.423-6.078,5.413s2.718,5.421,6.078,5.421a6.745,6.745,0,0,0,2.024-.309,6.764,6.764,0,0,0,2.024.309c3.36,0,6.082-2.429,6.082-5.421S388.767,254.741,385.407,254.741Z" transform="translate(-263.514 -198.294)" fill="#d9e021"/>
          <path id="Trazado_53310" data-name="Trazado 53310" d="M378.859,276.648a4.718,4.718,0,0,0-2.024.46,4.719,4.719,0,0,0-2.024-.46c-3.36,0-6.082,3.634-6.082,8.125s2.722,8.125,6.082,8.125h4.048c3.36,0,6.082-3.634,6.082-8.125S382.219,276.648,378.859,276.648Z" transform="translate(-269.521 -178.21)" fill="#d9e021"/>
          <path id="Trazado_53311" data-name="Trazado 53311" d="M393.192,279.474a6.041,6.041,0,0,0-2.024.347,6.108,6.108,0,1,0-2.024,11.878h4.048a6.113,6.113,0,0,0,0-12.225Z" transform="translate(-256.383 -175.619)" fill="#d9e021"/>
          <path id="Trazado_53312" data-name="Trazado 53312" d="M375.592,291.616a5.37,5.37,0,0,0-2.024.395,5.375,5.375,0,0,0-2.028-.395c-3.356,0-6.078,3.084-6.078,6.891s2.722,6.889,6.078,6.889a5.452,5.452,0,0,0,2.028-.395,5.447,5.447,0,0,0,2.024.395c3.36,0,6.082-3.084,6.082-6.889S378.952,291.616,375.592,291.616Z" transform="translate(-272.516 -164.488)" fill="#d9e021"/>
          <path id="Trazado_53313" data-name="Trazado 53313" d="M364.4,246.2a5.379,5.379,0,0,0-2.03.395,5.372,5.372,0,0,0-2.024-.395c-3.36,0-6.082,3.084-6.082,6.889s2.722,6.891,6.082,6.891a5.446,5.446,0,0,0,2.024-.395,5.454,5.454,0,0,0,2.03.395c3.354,0,6.076-3.084,6.076-6.891S367.752,246.2,364.4,246.2Z" transform="translate(-282.784 -206.127)" fill="#d9e021"/>
          <path id="Trazado_53314" data-name="Trazado 53314" d="M371.1,259.625a5.429,5.429,0,0,0-2.03.393,5.392,5.392,0,0,0-2.024-.393c-3.358,0-6.076,3.084-6.076,6.889s2.718,6.891,6.076,6.891a5.469,5.469,0,0,0,2.024-.395,5.507,5.507,0,0,0,2.03.395c3.354,0,6.076-3.084,6.076-6.891S374.452,259.625,371.1,259.625Z" transform="translate(-276.636 -193.816)" fill="#d9e021"/>
          <path id="Trazado_53315" data-name="Trazado 53315" d="M355.455,286.772a5.113,5.113,0,0,0-2.024.424,5.1,5.1,0,0,0-2.028-.424c-3.354,0-6.078,3.293-6.078,7.351s2.724,7.351,6.078,7.351h4.052c3.36,0,6.078-3.287,6.078-7.351S358.815,286.772,355.455,286.772Z" transform="translate(-290.977 -168.929)" fill="#d9e021"/>
          <path id="Trazado_53316" data-name="Trazado 53316" d="M344.944,293.153a6.767,6.767,0,0,0-2.028.3,6.714,6.714,0,0,0-2.024-.3c-3.354,0-6.078,2.423-6.078,5.417s2.724,5.417,6.078,5.417h4.052c3.36,0,6.078-2.427,6.078-5.417S348.3,293.153,344.944,293.153Z" transform="translate(-300.613 -163.079)" fill="#d9e021"/>
          <path id="Trazado_53317" data-name="Trazado 53317" d="M336.734,275.032a5.651,5.651,0,0,0-2.024.38,5.7,5.7,0,0,0-2.03-.38c-3.354,0-6.076,3-6.076,6.7s2.722,6.709,6.076,6.709h4.054c3.354,0,6.076-3,6.076-6.709S340.088,275.032,336.734,275.032Z" transform="translate(-308.14 -179.692)" fill="#d9e021"/>
          <path id="Trazado_53318" data-name="Trazado 53318" d="M379.554,257.741a8.061,8.061,0,0,0,5.051-.629c2.465-1.254,3.14-5.089,3.14-5.089S379.178,251.416,379.554,257.741Z" transform="translate(-259.608 -200.799)" fill="#81a556"/>
          <path id="Trazado_53319" data-name="Trazado 53319" d="M380.778,259.774a8.085,8.085,0,0,1-2.519-4.43c-.462-2.728,2.2-5.555,2.2-5.555S386.07,256.292,380.778,259.774Z" transform="translate(-260.833 -202.833)" fill="#81a556"/>
          <path id="Trazado_53320" data-name="Trazado 53320" d="M383.33,257.949a8.1,8.1,0,0,0-2.116-4.639c-1.932-1.972-5.791-1.472-5.791-1.472S377.4,260.2,383.33,257.949Z" transform="translate(-263.384 -201.007)" fill="#81a556"/>
          <path id="Trazado_53321" data-name="Trazado 53321" d="M393.679,295.605a4.916,4.916,0,0,0-2.024.441,4.956,4.956,0,0,0-2.03-.441c-3.354,0-6.076,3.458-6.076,7.726s2.722,7.727,6.076,7.727h4.054c3.354,0,6.078-3.46,6.078-7.727S397.033,295.605,393.679,295.605Z" transform="translate(-255.935 -160.831)" fill="#d9e021"/>
          <path id="Trazado_53322" data-name="Trazado 53322" d="M387.821,298.6a8.048,8.048,0,0,0,5.056-.629c2.461-1.254,3.136-5.083,3.136-5.083S387.451,292.283,387.821,298.6Z" transform="translate(-252.029 -163.334)" fill="#81a556"/>
          <path id="Trazado_53323" data-name="Trazado 53323" d="M415.179,317.313a5.845,5.845,0,0,1-4.052,0,6.359,6.359,0,0,0,0,12.706,5.876,5.876,0,0,1,4.052,0,6.359,6.359,0,0,0,0-12.706Z" transform="translate(-236.224 -140.93)" fill="#d9e021"/>
          <path id="Trazado_53324" data-name="Trazado 53324" d="M409.322,320.31a8.079,8.079,0,0,0,5.054-.627c2.461-1.255,3.136-5.083,3.136-5.083S408.95,313.986,409.322,320.31Z" transform="translate(-232.318 -143.432)" fill="#81a556"/>
          <path id="Trazado_53325" data-name="Trazado 53325" d="M412.052,321.539a8.085,8.085,0,0,1-4.487-2.419c-1.838-2.06-1.077-5.877-1.077-5.877S414.688,315.781,412.052,321.539Z" transform="translate(-235.049 -144.661)" fill="#81a556"/>
          <path id="Trazado_53326" data-name="Trazado 53326" d="M472.312,432.338c-.033,2.869-14.725,5.192-32.844,5.192s-32.815-2.323-32.844-5.192a24.349,24.349,0,0,0-1.652,8.79c0,15.865,15.443,28.728,34.5,28.728s34.492-12.863,34.492-28.728A24.305,24.305,0,0,0,472.312,432.338Z" transform="translate(-236.295 -35.48)" fill="#fbb03b"/>
          <path id="Trazado_53327" data-name="Trazado 53327" d="M473.779,441.128a24.305,24.305,0,0,0-1.648-8.79c-.033,2.869-14.725,5.192-32.844,5.192s-32.815-2.323-32.844-5.192a24.385,24.385,0,0,0-1.273,4.562c8.353,2.076,41.245,8.158,45.962,7.82,5.352-.385,14,22.48-19.585,24.4a41.266,41.266,0,0,0,7.74.736C458.337,469.857,473.779,456.993,473.779,441.128Z" transform="translate(-236.113 -35.48)" fill="#ff8c2e" opacity="0.67"/>
          <path id="Trazado_53328" data-name="Trazado 53328" d="M438.678,440.026c18.119,0,32.811-2.323,32.844-5.192h0a2.7,2.7,0,0,0-1.121-1.359c-3.749-2.22-16.526-3.858-31.722-3.858-15.119,0-27.845,1.62-31.665,3.824a2.726,2.726,0,0,0-1.179,1.384v.01C405.863,437.7,420.555,440.026,438.678,440.026Z" transform="translate(-235.505 -37.975)" fill="#603813"/>
          <path id="Trazado_53329" data-name="Trazado 53329" d="M476.1,435.767c-1.079-9.917-59.107-9.124-69.061-3.379a5.107,5.107,0,0,0-2.505,2.751c0,.257-5.25,8.976,35.543,8.976C448,444.114,476.952,443.629,476.1,435.767Zm-67.708,1.4c-9.745-5.587,56.56-9,64.02-1.729C478.624,441.486,420.46,444.085,408.39,437.168Z" transform="translate(-236.901 -39.307)" fill="#ff8c2e"/>
          <path id="Trazado_53330" data-name="Trazado 53330" d="M422.338,428.433a6.793,6.793,0,0,1-4.048,0c-3.36,0-6.082,2.425-6.082,5.419s2.722,5.415,6.082,5.415a6.794,6.794,0,0,1,4.048,0c3.36,0,6.082-2.423,6.082-5.415S425.7,428.433,422.338,428.433Z" transform="translate(-229.661 -39.06)" fill="#a3a819"/>
          <path id="Trazado_53331" data-name="Trazado 53331" d="M428.625,428.433a6.781,6.781,0,0,0-2.03.309,6.706,6.706,0,0,0-2.024-.309c-3.358,0-6.076,2.425-6.076,5.419s2.718,5.415,6.076,5.415a6.708,6.708,0,0,0,2.024-.309,6.782,6.782,0,0,0,2.03.309c3.354,0,6.078-2.423,6.078-5.415S431.979,428.433,428.625,428.433Z" transform="translate(-223.898 -39.06)" fill="#a3a819"/>
          <path id="Trazado_53332" data-name="Trazado 53332" d="M435.628,428.852a6.8,6.8,0,0,1-4.052,0c-3.356,0-6.078,2.425-6.078,5.417s2.722,5.417,6.078,5.417a6.8,6.8,0,0,1,4.052,0c3.354,0,6.078-2.423,6.078-5.417S438.982,428.852,435.628,428.852Z" transform="translate(-217.477 -38.676)" fill="#a3a819"/>
          <path id="Trazado_53333" data-name="Trazado 53333" d="M413.936,429.824c-3.952-1.25-8.1,1.372-8.1,5.108s4.144,6.352,8.1,5.108c3.954,1.244,8.106-1.374,8.106-5.108C422.042,431.938,417.894,428.574,413.936,429.824Z" transform="translate(-235.505 -38.074)" fill="#ff5"/>
          <path id="Trazado_53334" data-name="Trazado 53334" d="M420.975,430.6c-3.954-1.25-8.108,1.374-8.108,5.108s4.15,6.354,8.108,5.108c3.952,1.246,8.1-1.378,8.1-5.108C429.075,432.716,424.931,429.352,420.975,430.6Z" transform="translate(-229.057 -37.36)" fill="#d9e021"/>
          <path id="Trazado_53335" data-name="Trazado 53335" d="M427.141,427.966c-3.952-1.244-8.106,1.372-8.106,5.108s4.148,6.358,8.106,5.108c3.954,1.246,8.1-1.372,8.1-5.108C435.243,430.08,431.1,426.722,427.141,427.966Z" transform="translate(-223.402 -39.775)" fill="#a3a819"/>
          <path id="Trazado_53336" data-name="Trazado 53336" d="M439.8,429.163c-3.954-1.244-8.108,1.374-8.108,5.108s4.15,6.358,8.108,5.108c3.952,1.246,8.1-1.372,8.1-5.108S443.756,427.919,439.8,429.163Z" transform="translate(-211.801 -38.678)" fill="#a3a819"/>
          <path id="Trazado_53337" data-name="Trazado 53337" d="M434.171,428.744c-3.952-1.244-8.1,1.374-8.1,5.11s4.148,6.356,8.1,5.106c3.954,1.246,8.106-1.372,8.106-5.106C442.277,430.86,438.129,427.5,434.171,428.744Z" transform="translate(-216.952 -39.062)" fill="#d9e021"/>
          <path id="Trazado_53338" data-name="Trazado 53338" d="M428.768,430.4c-3.954-1.246-8.1,1.372-8.1,5.108s4.144,6.358,8.1,5.108c3.952,1.244,8.106-1.374,8.106-5.108S432.726,429.157,428.768,430.4Z" transform="translate(-221.907 -37.541)" fill="#e1e64d"/>
          <path id="Trazado_53339" data-name="Trazado 53339" d="M436.105,430.259c-3.952-1.244-8.106,1.378-8.106,5.108s4.148,6.358,8.106,5.108c3.954,1.244,8.1-1.372,8.1-5.108S440.063,429.015,436.105,430.259Z" transform="translate(-215.185 -37.673)" fill="#ff5"/>
          <path id="Trazado_53340" data-name="Trazado 53340" d="M346.348,251.095c-3.952-1.5-8.1,1.664-8.1,6.187s2.892,7.289,8.1,8.131c5.959,0,8.106-3.607,8.106-8.131S350.306,249.584,346.348,251.095Z" transform="translate(-297.465 -201.985)" fill="#ff5"/>
          <path id="Trazado_53341" data-name="Trazado 53341" d="M342.126,265.238c-3.954-1.51-8.108,1.664-8.108,6.182s2.894,7.293,8.108,8.135c5.953,0,8.1-3.611,8.1-8.135S346.084,263.728,342.126,265.238Z" transform="translate(-301.343 -189.019)" fill="#ff5"/>
          <path id="Trazado_53342" data-name="Trazado 53342" d="M420.975,427.577c-3.954-1.246-8.108,1.372-8.108,5.108s4.15,6.358,8.108,5.108c3.952,1.25,8.1-1.374,8.1-5.108C429.075,429.7,424.931,426.331,420.975,427.577Z" transform="translate(-229.057 -40.132)" fill="#e1e64d"/>
          <path id="Trazado_53343" data-name="Trazado 53343" d="M410.459,427.226a3.946,3.946,0,0,1,.452,1.269,5.936,5.936,0,0,1,.094,1.254,7.473,7.473,0,0,1-.518,2.377,7.23,7.23,0,0,0,.058-2.348,5.2,5.2,0,0,0-.3-1.093,3.1,3.1,0,0,0-.523-.9l-.008-.015a.461.461,0,0,1,.679-.623C410.421,427.174,410.44,427.2,410.459,427.226Z" transform="translate(-232.057 -40.375)" fill="#592c07"/>
          <path id="Trazado_53344" data-name="Trazado 53344" d="M417.5,425.032a3.992,3.992,0,0,1,.452,1.269,5.917,5.917,0,0,1,.094,1.255,7.306,7.306,0,0,1-.518,2.369,7.085,7.085,0,0,0,.057-2.342,5.243,5.243,0,0,0-.3-1.093,3.146,3.146,0,0,0-.518-.9l-.015-.015a.463.463,0,0,1,.68-.627A.521.521,0,0,1,417.5,425.032Z" transform="translate(-225.6 -42.387)" fill="#592c07"/>
          <path id="Trazado_53345" data-name="Trazado 53345" d="M425.388,427.745a3.909,3.909,0,0,1,.456,1.269,5.661,5.661,0,0,1,.09,1.254,7.378,7.378,0,0,1-.518,2.373,7.1,7.1,0,0,0,.061-2.344,4.917,4.917,0,0,0-.3-1.093,3.018,3.018,0,0,0-.519-.9l-.013-.015a.464.464,0,1,1,.684-.627C425.349,427.687,425.369,427.716,425.388,427.745Z" transform="translate(-218.37 -39.901)" fill="#592c07"/>
          <path id="Trazado_53346" data-name="Trazado 53346" d="M432.549,427.745a3.781,3.781,0,0,1,.456,1.269,5.91,5.91,0,0,1,.1,1.254,7.432,7.432,0,0,1-.519,2.373,7.207,7.207,0,0,0,.063-2.344,5.5,5.5,0,0,0-.3-1.093,3.238,3.238,0,0,0-.518-.9l-.013-.015a.462.462,0,1,1,.679-.627A.261.261,0,0,1,432.549,427.745Z" transform="translate(-211.799 -39.901)" fill="#592c07"/>
          <path id="Trazado_53347" data-name="Trazado 53347" d="M432.194,432.189a8.052,8.052,0,0,0,5.093.157c2.624-.859,3.883-4.543,3.883-4.543S432.8,425.885,432.194,432.189Z" transform="translate(-211.339 -39.889)" fill="#a6e54c"/>
          <path id="Trazado_53348" data-name="Trazado 53348" d="M414.478,431.811a8.066,8.066,0,0,0-3.335-3.849c-2.419-1.344-5.973.228-5.973.228S409.433,435.64,414.478,431.811Z" transform="translate(-236.113 -39.99)" fill="#a6e54c"/>
          <path id="Trazado_53349" data-name="Trazado 53349" d="M427.264,436.717a8.064,8.064,0,0,0-3.337-3.849c-2.413-1.346-5.973.228-5.973.228S422.217,440.547,427.264,436.717Z" transform="translate(-224.393 -35.492)" fill="#a6e54c"/>
          <path id="Trazado_53350" data-name="Trazado 53350" d="M473,431.882c-.987,4.736-52.561,8.785-64.608,1.877-1.041-.594-1.42-1.282-1.083-1.877l-2.885.174c-.483,1.631-.945,8.648,35.652,8.648,7.922,0,36.879-.485,36.024-8.347-.015-.1-.038-.2-.063-.3Z" transform="translate(-236.9 -35.898)" fill="#ff8c2e"/>
          <path id="Trazado_53351" data-name="Trazado 53351" d="M404.657,434.392c7.209,8.4,65.316,6.914,70.42-.1a3.212,3.212,0,0,0,.7-2.162c.631,5.07-10.9,6.923-15.915,7.631C448.743,441.229,410.806,442.553,404.657,434.392Z" transform="translate(-236.584 -35.67)" fill="#7c3e11"/>
          <path id="Trazado_53352" data-name="Trazado 53352" d="M407.022,438.5c7.337,3.473,14.9,4.019,23.026,3.345C420.478,443.886,412.021,441.814,407.022,438.5Z" transform="translate(-234.416 -29.832)" fill="#db6812"/>
          <path id="Trazado_53353" data-name="Trazado 53353" d="M420.243,446.7c7.184,2.5,14.2,2.114,21.638.376C433.329,450.3,425.313,449.363,420.243,446.7Z" transform="translate(-222.295 -22.314)" fill="#db6812"/>
          <path id="Trazado_53354" data-name="Trazado 53354" d="M423.257,445.037c8.263,2.114,15.884.968,23.241-1.1C437.493,447.765,428.793,447.341,423.257,445.037Z" transform="translate(-219.532 -24.848)" fill="#db6812"/>
          <path id="Trazado_53355" data-name="Trazado 53355" d="M414.02,439.832c7.874,3.506,15.629,3.6,23.1,2.808C427.543,444.921,419.08,443.025,414.02,439.832Z" transform="translate(-228 -28.609)" fill="#db6812"/>
          <path id="Trazado_53356" data-name="Trazado 53356" d="M410.334,441.577c7.332,3.473,14.9,4.019,23.022,3.345C423.786,446.965,415.327,444.893,410.334,441.577Z" transform="translate(-231.379 -27.01)" fill="#db6812"/>
        </g>
      </g>
      <path id="Trazado_53357" data-name="Trazado 53357" d="M371.524,413.049s-3.475-9.147-2.032-12.133,25.205-25.455,26.651-28.443,3.258-36.9,1.76-41.2-13.872-.711-15.727,3.128,5.8,29.919,3.533,34.613-19.862,28.7-21.309,31.55-.008,10,.286,10.843,4.336,4.466,4.817,3.469-3.226-3.49-3.226-3.49l-.247-2.576.845,2.427s3.306,4.232,3.72,3.377-2.241-3.715-2.241-3.715l-.063-2.049S371.629,415.915,371.524,413.049Z" transform="translate(-132.287 -129.932)" fill="#fd5e5a"/>
      <g id="Grupo_24736" data-name="Grupo 24736" transform="translate(67.801 325.959)">
        <g id="Grupo_24735" data-name="Grupo 24735">
          <path id="Trazado_53358" data-name="Trazado 53358" d="M286.454,431.654a5.115,5.115,0,0,1-3.021,2.469,5.311,5.311,0,0,1-3.951.029,5.107,5.107,0,0,1,3.021-2.467A5.293,5.293,0,0,1,286.454,431.654Z" transform="translate(-277.355 -362.401)" fill="#9374bf"/>
          <g id="Grupo_24734" data-name="Grupo 24734">
            <path id="Trazado_53359" data-name="Trazado 53359" d="M298.131,460.823a90.5,90.5,0,0,0,1,12.518l-1.357.539a91.658,91.658,0,0,1-.853-13.03,89.645,89.645,0,0,1,2.588-20.114,96.483,96.483,0,0,1,2.977-9.779,98.6,98.6,0,0,1,4.05-9.448,95.424,95.424,0,0,1,5.051-9.026,73.533,73.533,0,0,1,6.134-8.422l.163.127a73.28,73.28,0,0,0-5.971,8.47,94.986,94.986,0,0,0-4.88,9.053,98.377,98.377,0,0,0-3.874,9.444,96.125,96.125,0,0,0-2.795,9.741A88.6,88.6,0,0,0,298.131,460.823Z" transform="translate(-261.369 -387.363)" fill="#9374bf"/>
            <path id="Trazado_53360" data-name="Trazado 53360" d="M315.963,398.182c.721,2.122.218,4.993-1.556,7.575a10.155,10.155,0,0,1-6.743,4.508c-.721-2.124-.217-4.993,1.556-7.575A10.148,10.148,0,0,1,315.963,398.182Z" transform="translate(-251.81 -392.752)" fill="#9374bf"/>
            <path id="Trazado_53361" data-name="Trazado 53361" d="M303.384,400.7a9.072,9.072,0,0,1,5.321,5.693,8.754,8.754,0,0,1-.573,7.673,9.069,9.069,0,0,1-5.319-5.693A8.752,8.752,0,0,1,303.384,400.7Z" transform="translate(-256.524 -390.446)" fill="#9374bf"/>
            <path id="Trazado_53362" data-name="Trazado 53362" d="M286.155,395.349a8.841,8.841,0,0,0-1.252,7.619,8.948,8.948,0,0,0,4.784,6.1,8.844,8.844,0,0,0,1.252-7.617A8.952,8.952,0,0,0,286.155,395.349Z" transform="translate(-272.693 -395.349)" fill="#9374bf"/>
            <path id="Trazado_53363" data-name="Trazado 53363" d="M281.658,402.923a7.091,7.091,0,0,0,4.305,4.318,8.071,8.071,0,0,0,6.375.15,7.091,7.091,0,0,0-4.305-4.319A8.079,8.079,0,0,0,281.658,402.923Z" transform="translate(-275.361 -388.941)" fill="#9374bf"/>
            <path id="Trazado_53364" data-name="Trazado 53364" d="M287.385,408.642a8.135,8.135,0,0,0,6.1-1.928,7.273,7.273,0,0,0,3.013-5.363,8.135,8.135,0,0,0-6.1,1.928A7.267,7.267,0,0,0,287.385,408.642Z" transform="translate(-270.11 -389.911)" fill="#9374bf"/>
            <path id="Trazado_53365" data-name="Trazado 53365" d="M287.7,412.251a8.132,8.132,0,0,0,6.1-1.928,7.273,7.273,0,0,0,3.015-5.363,8.144,8.144,0,0,0-6.1,1.928A7.273,7.273,0,0,0,287.7,412.251Z" transform="translate(-269.825 -386.601)" fill="#9374bf"/>
            <path id="Trazado_53366" data-name="Trazado 53366" d="M288.137,416.558a8.142,8.142,0,0,0,6.1-1.93,7.267,7.267,0,0,0,3.013-5.363,8.135,8.135,0,0,0-6.1,1.928A7.267,7.267,0,0,0,288.137,416.558Z" transform="translate(-269.421 -382.656)" fill="#9374bf"/>
            <path id="Trazado_53367" data-name="Trazado 53367" d="M288.792,420.288a8.136,8.136,0,0,0,6.1-1.928A7.273,7.273,0,0,0,297.9,413a8.136,8.136,0,0,0-6.1,1.928A7.273,7.273,0,0,0,288.792,420.288Z" transform="translate(-268.821 -379.234)" fill="#9374bf"/>
            <path id="Trazado_53368" data-name="Trazado 53368" d="M294.289,417.3a8.049,8.049,0,0,1-5.739,2.77A7.778,7.778,0,0,1,282.5,418.3a8.057,8.057,0,0,1,5.741-2.77A7.778,7.778,0,0,1,294.289,417.3Z" transform="translate(-274.588 -376.879)" fill="#9374bf"/>
            <path id="Trazado_53369" data-name="Trazado 53369" d="M281.972,406.6a7.1,7.1,0,0,0,4.305,4.318,8.084,8.084,0,0,0,6.377.15,7.1,7.1,0,0,0-4.305-4.32A8.075,8.075,0,0,0,281.972,406.6Z" transform="translate(-275.073 -385.574)" fill="#9374bf"/>
            <path id="Trazado_53370" data-name="Trazado 53370" d="M282.49,410.869a7.1,7.1,0,0,0,4.305,4.32,8.07,8.07,0,0,0,6.375.148,7.09,7.09,0,0,0-4.305-4.318A8.079,8.079,0,0,0,282.49,410.869Z" transform="translate(-274.598 -381.656)" fill="#9374bf"/>
            <path id="Trazado_53371" data-name="Trazado 53371" d="M298.88,405.1a9.535,9.535,0,0,1,6.78,4.115,8.624,8.624,0,0,1,1.618,7.483,9.532,9.532,0,0,1-6.778-4.113A8.623,8.623,0,0,1,298.88,405.1Z" transform="translate(-259.848 -386.412)" fill="#9374bf"/>
            <path id="Trazado_53372" data-name="Trazado 53372" d="M296.694,409.4a9.531,9.531,0,0,1,6.778,4.115,8.618,8.618,0,0,1,1.62,7.483,9.528,9.528,0,0,1-6.78-4.115A8.623,8.623,0,0,1,296.694,409.4Z" transform="translate(-261.852 -382.467)" fill="#9374bf"/>
            <path id="Trazado_53373" data-name="Trazado 53373" d="M293.88,414.047a9.982,9.982,0,0,1,7.721,2.319,8.738,8.738,0,0,1,3.615,6.793,9.986,9.986,0,0,1-7.723-2.319A8.736,8.736,0,0,1,293.88,414.047Z" transform="translate(-264.16 -378.311)" fill="#9374bf"/>
            <path id="Trazado_53374" data-name="Trazado 53374" d="M292.7,419.163a9.2,9.2,0,0,1,7.276.356,8.081,8.081,0,0,1,4.775,5.064,9.211,9.211,0,0,1-7.276-.355A8.073,8.073,0,0,1,292.7,419.163Z" transform="translate(-265.237 -374.058)" fill="#9374bf"/>
            <path id="Trazado_53375" data-name="Trazado 53375" d="M291.691,422.344a9.2,9.2,0,0,1,7.276.356,8.076,8.076,0,0,1,4.775,5.064,9.216,9.216,0,0,1-7.278-.355A8.079,8.079,0,0,1,291.691,422.344Z" transform="translate(-266.163 -371.142)" fill="#9374bf"/>
            <path id="Trazado_53376" data-name="Trazado 53376" d="M292.028,426.27a7.89,7.89,0,0,1,6.237.3,6.913,6.913,0,0,1,4.092,4.341,7.893,7.893,0,0,1-6.235-.3A6.926,6.926,0,0,1,292.028,426.27Z" transform="translate(-265.854 -367.466)" fill="#9374bf"/>
            <path id="Trazado_53377" data-name="Trazado 53377" d="M292.464,431.1a6.7,6.7,0,0,1,4.848-2.018,6.4,6.4,0,0,1,4.882,1.693,6.694,6.694,0,0,1-4.848,2.018A6.4,6.4,0,0,1,292.464,431.1Z" transform="translate(-265.454 -364.431)" fill="#9374bf"/>
            <path id="Trazado_53378" data-name="Trazado 53378" d="M293.3,434.787a5.156,5.156,0,0,1,3.165-2.683,5.342,5.342,0,0,1,4.2.1,5.156,5.156,0,0,1-3.165,2.684A5.342,5.342,0,0,1,293.3,434.787Z" transform="translate(-264.692 -361.998)" fill="#9374bf"/>
            <path id="Trazado_53379" data-name="Trazado 53379" d="M320.346,408.2a10.324,10.324,0,0,1-7.418,3.41c-3.23.215-6.1-.771-7.69-2.407a10.324,10.324,0,0,1,7.418-3.41C315.886,405.58,318.755,406.564,320.346,408.2Z" transform="translate(-253.743 -385.799)" fill="#9374bf"/>
            <path id="Trazado_53380" data-name="Trazado 53380" d="M318.234,411.837a10.324,10.324,0,0,1-7.418,3.41c-3.228.215-6.1-.769-7.688-2.407a10.32,10.32,0,0,1,7.418-3.41C313.774,409.215,316.645,410.2,318.234,411.837Z" transform="translate(-255.678 -382.467)" fill="#9374bf"/>
            <path id="Trazado_53381" data-name="Trazado 53381" d="M316.154,416.112a10.323,10.323,0,0,1-7.418,3.41c-3.228.215-6.1-.771-7.688-2.407a10.324,10.324,0,0,1,7.418-3.41C311.694,413.49,314.565,414.474,316.154,416.112Z" transform="translate(-257.585 -378.548)" fill="#9374bf"/>
            <path id="Trazado_53382" data-name="Trazado 53382" d="M311.876,419.351a8.4,8.4,0,0,1-6.034,2.774,8.075,8.075,0,0,1-6.252-1.957,8.382,8.382,0,0,1,6.034-2.774A8.075,8.075,0,0,1,311.876,419.351Z" transform="translate(-258.921 -375.16)" fill="#9374bf"/>
            <path id="Trazado_53383" data-name="Trazado 53383" d="M308.725,422.2a6.643,6.643,0,0,1-4.869,2.317,6.394,6.394,0,0,1-5.056-1.658,6.652,6.652,0,0,1,4.871-2.319A6.386,6.386,0,0,1,308.725,422.2Z" transform="translate(-259.646 -372.271)" fill="#9374bf"/>
            <path id="Trazado_53384" data-name="Trazado 53384" d="M308.067,425.279A6.644,6.644,0,0,1,303.2,427.6a6.39,6.39,0,0,1-5.054-1.658,6.636,6.636,0,0,1,4.87-2.317A6.381,6.381,0,0,1,308.067,425.279Z" transform="translate(-260.249 -369.448)" fill="#9374bf"/>
            <path id="Trazado_53385" data-name="Trazado 53385" d="M306.765,427.791a7.235,7.235,0,0,1-9.12,2.11,7.229,7.229,0,0,1,9.12-2.11Z" transform="translate(-260.704 -366.372)" fill="#9374bf"/>
            <path id="Trazado_53386" data-name="Trazado 53386" d="M305.625,431.991a5.741,5.741,0,0,1-4.374.771,5.212,5.212,0,0,1-3.648-2.271,5.75,5.75,0,0,1,4.374-.771A5.214,5.214,0,0,1,305.625,431.991Z" transform="translate(-260.743 -363.95)" fill="#9374bf"/>
            <path id="Trazado_53387" data-name="Trazado 53387" d="M303.259,434.492a4.356,4.356,0,0,1-3.387,0,3.847,3.847,0,0,1-2.384-2.2,4.364,4.364,0,0,1,3.387,0A3.852,3.852,0,0,1,303.259,434.492Z" transform="translate(-260.848 -361.795)" fill="#9374bf"/>
            <path id="Trazado_53388" data-name="Trazado 53388" d="M301.052,435.006a2.512,2.512,0,0,1-2.114.09,2.2,2.2,0,0,1-1.414-1.438,2.515,2.515,0,0,1,2.112-.09A2.2,2.2,0,0,1,301.052,435.006Z" transform="translate(-260.816 -360.483)" fill="#9374bf"/>
            <path id="Trazado_53389" data-name="Trazado 53389" d="M300.972,435.987a2.515,2.515,0,0,1-2.112.09,2.2,2.2,0,0,1-1.417-1.44,2.526,2.526,0,0,1,2.114-.09A2.212,2.212,0,0,1,300.972,435.987Z" transform="translate(-260.89 -359.585)" fill="#9374bf"/>
            <path id="Trazado_53390" data-name="Trazado 53390" d="M289.311,422.438a173.412,173.412,0,0,0,4.092,19.819c.891,3.253,1.842,6.492,2.95,9.68s2.277,6.356,3.613,9.455a116.766,116.766,0,0,0,7.056,14.036l-1.386.55a118.408,118.408,0,0,1-6.856-14.125c-1.305-3.144-2.451-6.346-3.511-9.572s-1.986-6.494-2.837-9.775a174.226,174.226,0,0,1-3.845-19.961q-.673-5.04-1.052-10.115c-.247-3.383-.416-6.768-.395-10.174l.46-.008c.025,3.377.238,6.759.529,10.124S288.818,419.1,289.311,422.438Z" transform="translate(-270.338 -389.023)" fill="#9374bf"/>
            <g id="Grupo_24733" data-name="Grupo 24733" transform="translate(0 61.952)">
              <path id="Trazado_53391" data-name="Trazado 53391" d="M312.415,449.732q-.722-.572-1.447-1.137a164.57,164.57,0,0,0-14.334-9.783c-4.961-3.03-10.046-5.892-15.282-8.5l.038-.069c5.3,2.509,10.452,5.277,15.489,8.215A165.694,165.694,0,0,1,311.487,448q.917.681,1.825,1.38Z" transform="translate(-275.641 -425.312)" fill="#9374bf"/>
              <path id="Trazado_53392" data-name="Trazado 53392" d="M278.373,428.212a4.734,4.734,0,0,1,3.962.749,4.1,4.1,0,0,1,1.911,3.322,4.74,4.74,0,0,1-3.964-.749A4.091,4.091,0,0,1,278.373,428.212Z" transform="translate(-278.373 -427.321)" fill="#9374bf"/>
              <path id="Trazado_53393" data-name="Trazado 53393" d="M284.031,427.67a4.445,4.445,0,0,1,1.42,3.427,4.663,4.663,0,0,1-1.361,3.517,4.444,4.444,0,0,1-1.42-3.425A4.667,4.667,0,0,1,284.031,427.67Z" transform="translate(-274.433 -427.67)" fill="#9374bf"/>
              <path id="Trazado_53394" data-name="Trazado 53394" d="M289.057,432.784a5.2,5.2,0,0,1-3.262,2.177,5.251,5.251,0,0,1-3.922-.345,5.182,5.182,0,0,1,3.262-2.175A5.243,5.243,0,0,1,289.057,432.784Z" transform="translate(-275.164 -423.493)" fill="#9374bf"/>
              <path id="Trazado_53395" data-name="Trazado 53395" d="M291.793,434.239a5.177,5.177,0,0,1-3.26,2.176,5.242,5.242,0,0,1-3.922-.343,5.183,5.183,0,0,1,3.26-2.176A5.241,5.241,0,0,1,291.793,434.239Z" transform="translate(-272.654 -422.159)" fill="#9374bf"/>
              <path id="Trazado_53396" data-name="Trazado 53396" d="M293.763,435.483a5.2,5.2,0,0,1-3.262,2.176,5.252,5.252,0,0,1-3.922-.345,5.182,5.182,0,0,1,3.262-2.175A5.251,5.251,0,0,1,293.763,435.483Z" transform="translate(-270.849 -421.019)" fill="#9374bf"/>
              <path id="Trazado_53397" data-name="Trazado 53397" d="M295.942,436.853a5.2,5.2,0,0,1-3.262,2.176,5.251,5.251,0,0,1-3.922-.345,5.182,5.182,0,0,1,3.262-2.175A5.251,5.251,0,0,1,295.942,436.853Z" transform="translate(-268.852 -419.763)" fill="#9374bf"/>
              <path id="Trazado_53398" data-name="Trazado 53398" d="M286.4,428.91a4.445,4.445,0,0,1,1.42,3.425,4.67,4.67,0,0,1-1.361,3.519,4.433,4.433,0,0,1-1.42-3.427A4.655,4.655,0,0,1,286.4,428.91Z" transform="translate(-272.258 -426.533)" fill="#9374bf"/>
              <path id="Trazado_53399" data-name="Trazado 53399" d="M288.727,430.231a4.439,4.439,0,0,1,1.42,3.427,4.666,4.666,0,0,1-1.361,3.517,4.438,4.438,0,0,1-1.418-3.427A4.66,4.66,0,0,1,288.727,430.231Z" transform="translate(-270.126 -425.322)" fill="#9374bf"/>
              <path id="Trazado_53400" data-name="Trazado 53400" d="M290.987,431.6a4.446,4.446,0,0,1,1.42,3.427,4.663,4.663,0,0,1-1.361,3.517,4.446,4.446,0,0,1-1.42-3.427A4.669,4.669,0,0,1,290.987,431.6Z" transform="translate(-268.056 -424.07)" fill="#9374bf"/>
              <path id="Trazado_53401" data-name="Trazado 53401" d="M293.185,432.942a4.446,4.446,0,0,1,1.42,3.427,4.669,4.669,0,0,1-1.361,3.517,4.446,4.446,0,0,1-1.42-3.427A4.663,4.663,0,0,1,293.185,432.942Z" transform="translate(-266.041 -422.837)" fill="#9374bf"/>
            </g>
          </g>
        </g>
      </g>
      <g id="Grupo_24740" data-name="Grupo 24740" transform="translate(0 293.027)">
        <path id="Trazado_53402" data-name="Trazado 53402" d="M253.312,387.094a127.412,127.412,0,0,1,15.131,10.03,170.582,170.582,0,0,1,13.841,11.757,171.431,171.431,0,0,1,23.68,27.536,169.742,169.742,0,0,1,17.352,31.974,176.863,176.863,0,0,1,10.044,35.027l-2.572.431a174.43,174.43,0,0,0-9.373-34.7,167.958,167.958,0,0,0-16.68-31.895,176.846,176.846,0,0,0-10.8-14.46,179.084,179.084,0,0,0-12.286-13.245,169.071,169.071,0,0,0-13.6-11.915,127.016,127.016,0,0,0-14.907-10.22Z" transform="translate(-233.703 -369.985)" fill="#c1acdf"/>
        <path id="Trazado_53403" data-name="Trazado 53403" d="M243,380.157c.284,4.037,2.969,8.508,7.441,11.656s9.59,4.163,13.484,3.067c-.284-4.037-2.969-8.508-7.441-11.656S246.895,379.06,243,380.157Z" transform="translate(-243 -376.735)" fill="#c1acdf"/>
        <path id="Trazado_53404" data-name="Trazado 53404" d="M260.884,378.168c-2.986,2.729-4.823,7.613-4.51,13.072s2.7,10.1,5.977,12.47c2.986-2.729,4.823-7.613,4.508-13.072S264.163,380.539,260.884,378.168Z" transform="translate(-230.771 -378.168)" fill="#c1acdf"/>
        <path id="Trazado_53405" data-name="Trazado 53405" d="M289.076,383.892c2.43,1.466,4.368,4.572,4.907,8.369s-.458,7.32-2.386,9.4c-2.43-1.464-4.368-4.57-4.907-8.369S287.148,385.977,289.076,383.892Z" transform="translate(-203.08 -372.92)" fill="#c1acdf"/>
        <path id="Trazado_53406" data-name="Trazado 53406" d="M299.949,390.728a9.979,9.979,0,0,1-9.588,10.232,9.983,9.983,0,0,1,9.588-10.232Z" transform="translate(-199.63 -366.667)" fill="#c1acdf"/>
        <path id="Trazado_53407" data-name="Trazado 53407" d="M296.689,399.225a9.984,9.984,0,0,1-13.341-4.318,9.978,9.978,0,0,1,13.341,4.318Z" transform="translate(-206.011 -363.851)" fill="#c1acdf"/>
        <path id="Trazado_53408" data-name="Trazado 53408" d="M298,403.415a9.978,9.978,0,0,1-13.341-4.318A9.98,9.98,0,0,1,298,403.415Z" transform="translate(-204.804 -360.008)" fill="#c1acdf"/>
        <path id="Trazado_53409" data-name="Trazado 53409" d="M299.474,408.556a9.981,9.981,0,0,1-13.341-4.32,9.982,9.982,0,0,1,13.341,4.32Z" transform="translate(-203.457 -355.297)" fill="#c1acdf"/>
        <path id="Trazado_53410" data-name="Trazado 53410" d="M300.491,413.245a9.976,9.976,0,0,1-13.339-4.318,9.977,9.977,0,0,1,13.339,4.318Z" transform="translate(-202.523 -350.997)" fill="#c1acdf"/>
        <path id="Trazado_53411" data-name="Trazado 53411" d="M294.006,412.462a9.977,9.977,0,0,0,13.339-4.318,9.977,9.977,0,0,0-13.339,4.318Z" transform="translate(-196.24 -351.715)" fill="#c1acdf"/>
        <path id="Trazado_53412" data-name="Trazado 53412" d="M301.313,395.19a9.983,9.983,0,0,1-9.588,10.234,9.979,9.979,0,0,1,9.588-10.234Z" transform="translate(-198.379 -362.576)" fill="#c1acdf"/>
        <path id="Trazado_53413" data-name="Trazado 53413" d="M302.6,400.454a9.979,9.979,0,0,1-9.588,10.232,9.983,9.983,0,0,1,9.588-10.232Z" transform="translate(-197.203 -357.75)" fill="#c1acdf"/>
        <path id="Trazado_53414" data-name="Trazado 53414" d="M271.948,382.823c-3.605,1.836-6.674,6.055-7.826,11.4s-.09,10.454,2.44,13.613c3.605-1.838,6.674-6.057,7.826-11.4S274.478,385.982,271.948,382.823Z" transform="translate(-224.061 -373.9)" fill="#c1acdf"/>
        <path id="Trazado_53415" data-name="Trazado 53415" d="M278.2,388.578c-3.605,1.838-6.676,6.057-7.826,11.4s-.092,10.454,2.438,13.613c3.605-1.838,6.676-6.057,7.826-11.4S280.732,391.737,278.2,388.578Z" transform="translate(-218.326 -368.625)" fill="#c1acdf"/>
        <path id="Trazado_53416" data-name="Trazado 53416" d="M287.483,394.493c-3.954.855-8,4.148-10.483,9.02s-2.762,10.082-1.123,13.783c3.954-.855,8-4.148,10.481-9.02S289.12,398.194,287.483,394.493Z" transform="translate(-213.802 -363.202)" fill="#c1acdf"/>
        <path id="Trazado_53417" data-name="Trazado 53417" d="M293.828,401.9c-3.611-.153-7.851,1.783-11.092,5.434s-4.658,8.091-4.077,11.66c3.611.151,7.851-1.783,11.092-5.434S294.409,405.47,293.828,401.9Z" transform="translate(-210.426 -356.416)" fill="#c1acdf"/>
        <path id="Trazado_53418" data-name="Trazado 53418" d="M297.508,406.56c-3.611-.153-7.851,1.781-11.092,5.432s-4.658,8.093-4.077,11.66c3.611.153,7.849-1.781,11.092-5.434S298.089,410.127,297.508,406.56Z" transform="translate(-207.052 -352.147)" fill="#c1acdf"/>
        <path id="Trazado_53419" data-name="Trazado 53419" d="M298.564,413.426c-3.094-.13-6.728,1.528-9.507,4.658s-3.993,6.935-3.494,9.992c3.1.132,6.73-1.526,9.507-4.656S299.062,416.484,298.564,413.426Z" transform="translate(-204.081 -345.851)" fill="#c1acdf"/>
        <path id="Trazado_53420" data-name="Trazado 53420" d="M301.677,421.078A11.8,11.8,0,0,0,286.32,427a10.711,10.711,0,0,0,8.88.157C298.484,425.893,300.862,423.535,301.677,421.078Z" transform="translate(-203.286 -339.777)" fill="#c1acdf"/>
        <path id="Trazado_53421" data-name="Trazado 53421" d="M301.459,427.637a9.456,9.456,0,0,0-13.178.569,9.457,9.457,0,0,0,13.178-.569Z" transform="translate(-201.488 -335.019)" fill="#c1acdf"/>
        <path id="Trazado_53422" data-name="Trazado 53422" d="M246.878,400.541c3.441,2.13,8.639,2.568,13.806.78s8.986-5.344,10.374-9.143c-3.439-2.131-8.639-2.568-13.806-.78S248.268,396.74,246.878,400.541Z" transform="translate(-239.445 -367.061)" fill="#c1acdf"/>
        <path id="Trazado_53423" data-name="Trazado 53423" d="M252.572,405.227c3.441,2.131,8.639,2.568,13.806.78s8.986-5.344,10.374-9.143c-3.441-2.131-8.639-2.568-13.806-.78S253.962,401.426,252.572,405.227Z" transform="translate(-234.225 -362.765)" fill="#c1acdf"/>
        <path id="Trazado_53424" data-name="Trazado 53424" d="M258.642,411.006c3.441,2.13,8.639,2.567,13.806.78s8.986-5.344,10.374-9.145c-3.441-2.129-8.639-2.567-13.806-.78S260.032,407.2,258.642,411.006Z" transform="translate(-228.66 -357.468)" fill="#c1acdf"/>
        <path id="Trazado_53425" data-name="Trazado 53425" d="M265.493,413.932c2.8,1.733,7.025,2.089,11.228.634s7.309-4.345,8.438-7.437c-2.8-1.733-7.027-2.087-11.23-.634S266.622,410.843,265.493,413.932Z" transform="translate(-222.379 -353.029)" fill="#c1acdf"/>
        <path id="Trazado_53426" data-name="Trazado 53426" d="M270.623,416.887a11.632,11.632,0,0,0,15.886-5.5,11.637,11.637,0,0,0-15.886,5.5Z" transform="translate(-217.676 -348.948)" fill="#c1acdf"/>
        <path id="Trazado_53427" data-name="Trazado 53427" d="M273.688,421.607a11.632,11.632,0,0,0,15.886-5.5,11.636,11.636,0,0,0-15.886,5.5Z" transform="translate(-214.866 -344.621)" fill="#c1acdf"/>
        <path id="Trazado_53428" data-name="Trazado 53428" d="M277.047,424.757c1.854,1.579,4.961,2.34,8.292,1.8s6.042-2.245,7.3-4.328c-1.854-1.578-4.961-2.34-8.292-1.8S278.308,422.673,277.047,424.757Z" transform="translate(-211.787 -339.582)" fill="#c1acdf"/>
        <path id="Trazado_53429" data-name="Trazado 53429" d="M280.294,431.85A10.071,10.071,0,0,0,291.787,424a10.069,10.069,0,0,0-11.493,7.847Z" transform="translate(-208.81 -336.363)" fill="#c1acdf"/>
        <path id="Trazado_53430" data-name="Trazado 53430" d="M283.918,434.807a7.7,7.7,0,0,0,7.523-7.531,7.7,7.7,0,0,0-7.523,7.531Z" transform="translate(-205.505 -333.164)" fill="#c1acdf"/>
        <path id="Trazado_53431" data-name="Trazado 53431" d="M286.325,434.257a4.312,4.312,0,0,0,4.6-4.6,4.31,4.31,0,0,0-4.6,4.6Z" transform="translate(-203.314 -331.001)" fill="#c1acdf"/>
        <path id="Trazado_53432" data-name="Trazado 53432" d="M287.1,435.847a4.313,4.313,0,0,0,4.6-4.606,4.31,4.31,0,0,0-4.6,4.606Z" transform="translate(-202.605 -329.545)" fill="#c1acdf"/>
        <path id="Trazado_53433" data-name="Trazado 53433" d="M302.722,494.047a159.556,159.556,0,0,0,1.679-25.765c-.034-4.305-.27-8.6-.613-12.888-.326-4.288-.849-8.556-1.445-12.81a236.766,236.766,0,0,0-5.079-25.25q-1.607-6.236-3.552-12.377c-1.3-4.092-2.693-8.148-4.3-12.141l-.506.207c1.543,3.979,2.883,8.052,4.127,12.143s2.371,8.223,3.387,12.378a235.134,235.134,0,0,1,4.742,25.2c.541,4.238,1.008,8.487,1.28,12.75s.468,8.528.449,12.8a157.889,157.889,0,0,1-1.976,25.468Z" transform="translate(-200.913 -364.738)" fill="#c1acdf"/>
        <g id="Grupo_24738" data-name="Grupo 24738" transform="translate(93.036 56.939)">
          <path id="Trazado_53434" data-name="Trazado 53434" d="M309.224,417.737a9.5,9.5,0,0,0,12.5-.452,9.5,9.5,0,0,0-12.5.452Z" transform="translate(-275.324 -401.201)" fill="#c1acdf"/>
          <g id="Grupo_24737" data-name="Grupo 24737">
            <path id="Trazado_53435" data-name="Trazado 53435" d="M312.084,437.888c5.714-8.372,11.732-16.549,18.154-24.4l-.105-.09c-6.586,7.727-12.773,15.786-18.669,24.059a290.721,290.721,0,0,0-16.417,25.688q-1.8,3.229-3.508,6.519c.445.249.888.5,1.326.753q1.633-3.335,3.385-6.613A289.366,289.366,0,0,1,312.084,437.888Z" transform="translate(-291.538 -402.811)" fill="#c1acdf"/>
            <path id="Trazado_53436" data-name="Trazado 53436" d="M318.331,407.874a8.275,8.275,0,0,0-6.444,10.724,8.28,8.28,0,0,0,6.444-10.724Z" transform="translate(-273.323 -407.874)" fill="#c1acdf"/>
            <path id="Trazado_53437" data-name="Trazado 53437" d="M307.156,410.425a9.5,9.5,0,0,0,4.51,11.671,9.5,9.5,0,0,0-4.51-11.671Z" transform="translate(-277.818 -405.535)" fill="#c1acdf"/>
            <path id="Trazado_53438" data-name="Trazado 53438" d="M306.568,421.605a9.5,9.5,0,0,0,12.4-1.708,9.5,9.5,0,0,0-12.4,1.708Z" transform="translate(-277.759 -398.299)" fill="#c1acdf"/>
            <path id="Trazado_53439" data-name="Trazado 53439" d="M303.923,424.755a9.495,9.495,0,0,0,12.511-.092,9.495,9.495,0,0,0-12.511.092Z" transform="translate(-280.184 -394.597)" fill="#c1acdf"/>
            <path id="Trazado_53440" data-name="Trazado 53440" d="M301.029,429.255a9.5,9.5,0,0,0,12.4-1.708,9.5,9.5,0,0,0-12.4,1.708Z" transform="translate(-282.837 -391.288)" fill="#c1acdf"/>
            <path id="Trazado_53441" data-name="Trazado 53441" d="M298.546,433a9.5,9.5,0,0,0,12.4-1.708,9.5,9.5,0,0,0-12.4,1.708Z" transform="translate(-285.113 -387.855)" fill="#c1acdf"/>
            <path id="Trazado_53442" data-name="Trazado 53442" d="M304.285,414.077a9.5,9.5,0,0,0,4.51,11.673,9.5,9.5,0,0,0-4.51-11.673Z" transform="translate(-280.45 -402.187)" fill="#c1acdf"/>
            <path id="Trazado_53443" data-name="Trazado 53443" d="M301.542,417.837a9.494,9.494,0,0,0,4.51,11.673,9.5,9.5,0,0,0-4.51-11.673Z" transform="translate(-282.966 -398.74)" fill="#c1acdf"/>
            <path id="Trazado_53444" data-name="Trazado 53444" d="M298.931,421.627a9.492,9.492,0,0,0,4.51,11.673,9.505,9.505,0,0,0-4.51-11.673Z" transform="translate(-285.36 -395.266)" fill="#c1acdf"/>
            <path id="Trazado_53445" data-name="Trazado 53445" d="M296.4,425.341a9.5,9.5,0,0,0,4.51,11.671,9.5,9.5,0,0,0-4.51-11.671Z" transform="translate(-287.68 -391.861)" fill="#c1acdf"/>
          </g>
        </g>
        <g id="Grupo_24739" data-name="Grupo 24739" transform="translate(80.853 111.376)">
          <rect id="Rectángulo_5239" data-name="Rectángulo 5239" width="27.133" height="25.308" transform="translate(5.232 4.989)" fill="#f14e76"/>
          <rect id="Rectángulo_5240" data-name="Rectángulo 5240" width="39.666" height="2.069" fill="#005569"/>
          <rect id="Rectángulo_5241" data-name="Rectángulo 5241" width="34.799" height="4.502" transform="translate(2.434 2.068)" fill="#007697"/>
        </g>
      </g>
      <path id="Trazado_53446" data-name="Trazado 53446" d="M362.575,452.113s4.263,5.685,4.263,11.085,9.664-.853,13.36-6.822a45.2,45.2,0,0,0,5.116-13.074s-5.977,9.923-13.22,6.525-9.519-16.756-9.519-16.756l-3.979,8.242Z" transform="translate(-137.026 -34.809)" fill="#fc7575"/>
      <path id="Trazado_53447" data-name="Trazado 53447" d="M365.067,453.954s-4.226,3.671-1.388,6.509,7.642,1.449,13.895-4.8,11.938-5.331,11.938-10.906-5.26-8.562-7.958-5.863S365.067,453.954,365.067,453.954Z" transform="translate(-133.265 -30.397)" fill="#fd5e5a"/>
      <path id="Trazado_53448" data-name="Trazado 53448" d="M348.625,363.6s20.653,63.65,26.053,74.449,27.948,77.893,27.948,77.893l-13.072,9.948s-20.465-52.3-22.455-59.117-6.619-15.823-10.232-22.027c-3.084-5.3-29.558-54.145-29.558-54.145l1.42-24.728,11.938-6.456Z" transform="translate(-165.709 -102.332)" fill="#213195"/>
      <path id="Trazado_53449" data-name="Trazado 53449" d="M373.139,439.484s1.041-3.349,2.273-3.349,2.39,2.093.776,3.707S372.476,441.134,373.139,439.484Z" transform="translate(-123.809 -31.999)" fill="#fd5e5a"/>
      <path id="Trazado_53450" data-name="Trazado 53450" d="M374.625,440.8c-.671-.671-.38-3.069,1.179-3.636s1.84-.071,1.84,1.445S375.453,441.628,374.625,440.8Z" transform="translate(-122.642 -31.265)" fill="#fd5e5a"/>
      <path id="Trazado_53451" data-name="Trazado 53451" d="M378.285,439.254a2.072,2.072,0,0,0-2.3,1.926c0,1.516,1.443,1.61,2.3,0S378.764,439.3,378.285,439.254Z" transform="translate(-121.081 -29.145)" fill="#fd5e5a"/>
      <path id="Trazado_53452" data-name="Trazado 53452" d="M377.6,438.327a2.072,2.072,0,0,0-2.3,1.926c0,1.516,1.443,1.61,2.3,0S378.081,438.369,377.6,438.327Z" transform="translate(-121.707 -29.995)" fill="#fd5e5a"/>
      <path id="Trazado_53453" data-name="Trazado 53453" d="M377.934,440.776c-.5-.261-1.612.13-1.612,1.468s1.51,1.313,1.99,0C378.651,441.321,378.269,440.953,377.934,440.776Z" transform="translate(-120.776 -27.813)" fill="#fd5e5a"/>
      <path id="Trazado_53454" data-name="Trazado 53454" d="M325.243,450.865s.993,9.521-2.843,13.358,12.221,11.085,14.778,8.526,3.128-8.809,0-14.211-4.83-14.495-4.83-14.495Z" transform="translate(-170.749 -24.749)" fill="#fc7575"/>
      <path id="Trazado_53455" data-name="Trazado 53455" d="M339.541,460.474s-1.758-3.506-2.988-2.275a5.781,5.781,0,0,0-1.516,2.275s.567-2.135-.949-2.538-2.747,1.269-2.747,1.269-.284-2.143-1.706-2.143a2.167,2.167,0,0,0-1.894.757s.8-1.894-.972-1.894a3.672,3.672,0,0,0-2.534.757s-.615-2.036-1.42-1.231-1.88,3.069-.78,4.169a1.294,1.294,0,0,0,2.011,0s1.328,2.162,2.724,1.7c0,0,1.5,3.237,3.784.947,0,0,1.041,3.788,4.01.82,0,0,.094,2.8,2.557,1.135A4.83,4.83,0,0,0,339.541,460.474Z" transform="translate(-170.973 -14.462)" fill="#fd5e5a"/>
      <path id="Trazado_53456" data-name="Trazado 53456" d="M313.394,375.954l10.754,93.091,3.979,61.676,15.4-2.431,1.37-65.214-1.5-65.94,5.431-26.6,4.592-11.119-30.7,4.751Z" transform="translate(-178.465 -102.332)" fill="#2e41c6"/>
      <path id="Trazado_53457" data-name="Trazado 53457" d="M335.429,315.55s31.423-10.09,35.544-11.226l4.265,19.823s-28.138,17.906-29.56,18.334S333.387,316.252,335.429,315.55Z" transform="translate(-158.498 -152.838)" fill="#005569"/>
      <path id="Trazado_53458" data-name="Trazado 53458" d="M360.516,310.181s-6.191-.071-18.457,2.344c-14.5,2.856-34.251,7.247-34.251,7.247l.094,31.391s9.712,51.6,9.712,58.708-2.557,9.948-2.557,9.948a54.277,54.277,0,0,0,34.674,1.7c19.327-5.4,21.033-10.8,21.033-10.8V337.112Z" transform="translate(-183.586 -147.469)" fill="#00708c"/>
      <path id="Trazado_53459" data-name="Trazado 53459" d="M307.846,333.613l.023,7.838s2.6,13.837,5.116,28.169c24.772,7.426,47.815-2.446,57.746-7.817V327.4l-2.521-6.624C342.674,336.213,320.445,335.839,307.846,333.613Z" transform="translate(-183.552 -137.756)" fill="#ffda88"/>
      <path id="Trazado_53460" data-name="Trazado 53460" d="M325.957,315.185s-5.4.144-14.353,9.1-23.592,35.811-23.592,35.811l15.919,6.822s20.166-15.449,22.583-17.864S332.353,318.6,325.957,315.185Z" transform="translate(-201.734 -142.881)" fill="#43a2bb"/>
      <path id="Trazado_53461" data-name="Trazado 53461" d="M288.93,339.736s-5.685,14.05-7.105,22.861,1.349,45.262,3.552,47.465,11.8,5.116,11.8,5.116-.569-51.158,5.116-60.539,7.675-10.232,7.675-10.232Z" transform="translate(-207.764 -120.374)" fill="#fd5e5a"/>
      <path id="Trazado_53462" data-name="Trazado 53462" d="M291.532,334.789s-.851,2.841-4.83,6.822-2.07,7.389-2.07,7.389l15.144,10.232s7.675,1.137,7.675-3.126,7.594-8.775,7.594-11.777-12.143-5.56-14.416-7.834S291.532,334.789,291.532,334.789Z" transform="translate(-205.253 -124.967)" fill="#3a899e"/>
      <g id="Grupo_24741" data-name="Grupo 24741" transform="translate(251.156 146.962)">
        <path id="Trazado_53463" data-name="Trazado 53463" d="M384.26,305.689c-.556.456-8.227,11.434-7.865,15.639s4.679,4.466,8.2,5.2a28.3,28.3,0,0,0,6.208.623S388.182,302.468,384.26,305.689Z" transform="translate(-371.875 -298.815)" fill="#000f60"/>
        <path id="Trazado_53464" data-name="Trazado 53464" d="M395.458,317.784s3.508,2.331,1.474,7.113,1.777,7.067,4.133,5.52a2.4,2.4,0,0,0,.751-3.617s3.477,2.956,1.484,5.664-6.134,1.7-6.134,1.7,5.511.671,3.768,5.306-6.5,3.287-6.5,3.287,2.844-1.671,1.671-3.46-5.656,2.637-5.656,2.637-1.3,2.814-3.126-2.118-8.144-2.593-8.441-1.164-3.9-4.52-2.258-6.781-1.543-3.489-1.934-1.6c0,0-2.308-5.141,1.74-5.731s3.35-.127,3.786-2.227,4.577-6.431,7.45-7.207S395.458,317.784,395.458,317.784Z" transform="translate(-374.031 -290.016)" fill="#000a40"/>
        <path id="Trazado_53465" data-name="Trazado 53465" d="M382.777,316.133c-.458.3-1.2,11.558-3.341,14.276,0,0-7.234,14.815-4.591,15.7,2.3.771,13.515-10.356,14.435-12.421,1.234-2.776,3.617-17.435,3.617-17.435Z" transform="translate(-373.817 -288.974)" fill="#fc7575"/>
        <path id="Trazado_53466" data-name="Trazado 53466" d="M378.349,320.214c2.923,4,8.139,3.5,10.475-1.992.364-2.07.309-1.846.33-1.967l-10.12-.123C378.845,316.256,378.709,317.747,378.349,320.214Z" transform="translate(-370.073 -288.974)" fill="#fd5e5a"/>
        <path id="Trazado_53467" data-name="Trazado 53467" d="M386.3,303.429s-4.736-.077-6.091,3.717-2.787,6.891-2.973,11.606,1.265,11.355,5.511,13.254,10.444-4.51,11.276-8.526,3.858-10.4,1.675-15.158S386.3,303.429,386.3,303.429Z" transform="translate(-371.106 -300.621)" fill="#fc7575"/>
        <path id="Trazado_53468" data-name="Trazado 53468" d="M386.256,303.727s-4.736-.077-6.091,3.717c-1.225,3.439-2.519,6.3-2.891,10.322a8.8,8.8,0,0,1,3.513-.817c4.522-.05,9.189-5.752,11.2-10.278a3.636,3.636,0,0,0-.148-2.616A5.4,5.4,0,0,0,386.256,303.727Z" transform="translate(-371.059 -300.919)" fill="#fd5e5a"/>
        <path id="Trazado_53469" data-name="Trazado 53469" d="M389.373,302.3c3.243,1.07,8.675,1.349,10,7.284.809,3.377,3.575,1.687,1.386,12.237-3.26,15.714-12.547,9.321-12.547,9.321s1.123-.516,3.517-8.894l-.067.052s.3-1.24.64-2.848l0-.012c.071-.477.169-.962.289-1.447a30.347,30.347,0,0,0,.575-4.32,6.265,6.265,0,0,0-2.783-5.954c-2.151-1.635-11.372-.165-11.372-.165C380.336,302.666,386.132,301.228,389.373,302.3Z" transform="translate(-369.462 -301.964)" fill="#1b2b80"/>
        <path id="Trazado_53470" data-name="Trazado 53470" d="M389.131,302.124c-4.368.056-6.964,6.222-11.092,8.932s-4.284,7.824-3.331,11.418,4,2.018,4,2.018-1.52.477-1.825-2.415,1.654-4.694,6.58-5.256,11.315-9.252,11.315-9.252C395.283,305.716,393.5,302.069,389.131,302.124Z" transform="translate(-373.853 -301.818)" fill="#2846a6"/>
        <path id="Trazado_53471" data-name="Trazado 53471" d="M385.314,314.413s2.206-4.8,3.887-3.18-1.553,6.766-3.352,6.39S385.314,314.413,385.314,314.413Z" transform="translate(-364.085 -293.772)" fill="#fc7575"/>
      </g>
      <path id="Trazado_53472" data-name="Trazado 53472" d="M326.211,349.116s-52.581,20.093-52.581,23.22,58.124,12.735,60.825,10.034,30.411-18.759,30.411-25.012C364.866,355.228,330.452,347.356,326.211,349.116Z" transform="translate(-214.92 -112.008)" fill="#314f38"/>
      <path id="Trazado_53473" data-name="Trazado 53473" d="M326.277,348.839c-15.915,6.084-52.933,20.571-52.933,23.733a.545.545,0,1,0,1.089.065c.983-2.423,32.562-15.254,52.251-22.779,4.225-1.752,36.219,5.831,37.908,7.849a.549.549,0,0,0,1.085-.113C365.676,354.551,330.247,347.2,326.277,348.839Z" transform="translate(-215.182 -112.244)" fill="#80b18c"/>
      <path id="Trazado_53474" data-name="Trazado 53474" d="M393.591,436.979l6.252,10.136c0,3.113,1.47,13.873,0,15.344s-4.2,1.257-2.8,2.659,9.758.2,9.758.2,1.528-14.705,4.125-18.2c1.165-1.568-2.843-7.3-5.683-7.3s-8.982-12.471-8.982-12.471Z" transform="translate(-104.944 -40.053)" fill="#fd5e5a"/>
      <path id="Trazado_53475" data-name="Trazado 53475" d="M383.557,437.942l.406,11.9c-1.541,2.7-5.6,12.779-7.6,13.327s-4.271-.989-3.749.92,8.378,5.01,8.378,5.01,8.616-12.016,12.6-13.764c1.79-.784,1.148-7.746-1.321-9.153s-1.622-15.284-1.622-15.284Z" transform="translate(-124.248 -36.796)" fill="#fc7575"/>
      <path id="Trazado_53476" data-name="Trazado 53476" d="M370.113,361.153l-4.548,4.025s1.99,24.966,6.254,36.618,7.105,33.539,7.105,33.539L420.156,499s9.986-5.4,9.986-8.813c0,0-16.814-36.673-29.269-49.128s-8.022-12.545-8.022-12.545Z" transform="translate(-130.637 -100.739)" fill="#581b76"/>
      <path id="Trazado_53477" data-name="Trazado 53477" d="M366.6,366.218c0,1.139,16.682,69.7,16.682,78.513s4.069,63.619,4.069,63.619l9.549-1.441s5.513-51.728,2.386-66.224,4.832-44.622,4.832-53.717-22.832-31.96-22.832-31.96Z" transform="translate(-129.686 -106.374)" fill="#b037eb"/>
      <g id="Grupo_24745" data-name="Grupo 24745" transform="translate(247.739 257.991)">
        <g id="Grupo_24742" data-name="Grupo 24742">
          <path id="Trazado_53478" data-name="Trazado 53478" d="M373.879,362.222a.543.543,0,0,1-.416-.192c-.669-.78-1.068-1.219-1.071-1.223a.549.549,0,1,1,.813-.738s.406.449,1.092,1.248a.547.547,0,0,1-.061.772A.538.538,0,0,1,373.879,362.222Z" transform="translate(-372.249 -359.889)" fill="#b3baeb"/>
        </g>
        <g id="Grupo_24743" data-name="Grupo 24743" transform="translate(3.158 3.733)">
          <path id="Trazado_53479" data-name="Trazado 53479" d="M384.555,493.039h-.013a.549.549,0,0,1-.535-.563l.079-3.264a.533.533,0,0,1,.562-.535.551.551,0,0,1,.537.562l-.08,3.264A.55.55,0,0,1,384.555,493.039Zm.159-6.527H384.7a.549.549,0,0,1-.537-.562l.079-3.26a.536.536,0,0,1,.564-.535.548.548,0,0,1,.535.562l-.079,3.26A.549.549,0,0,1,384.714,486.513Zm.157-6.519h-.013a.551.551,0,0,1-.537-.562l.079-3.257a.52.52,0,0,1,.564-.537.548.548,0,0,1,.535.562l-.079,3.258A.548.548,0,0,1,384.871,479.994Zm.155-6.513h-.012a.55.55,0,0,1-.537-.564l.079-3.255a.555.555,0,0,1,.562-.537.549.549,0,0,1,.537.562l-.079,3.257A.551.551,0,0,1,385.027,473.481Zm.157-6.515h-.013a.55.55,0,0,1-.535-.562l.077-3.255a.543.543,0,0,1,.562-.537.551.551,0,0,1,.537.562l-.077,3.255A.55.55,0,0,1,385.184,466.966Zm.155-6.511h-.013a.551.551,0,0,1-.537-.562l.079-3.257a.532.532,0,0,1,.562-.535.548.548,0,0,1,.535.562l-.077,3.255A.55.55,0,0,1,385.339,460.454Zm.153-6.511h-.013a.548.548,0,0,1-.535-.562l.077-3.255a.548.548,0,1,1,1.1.025l-.077,3.255A.548.548,0,0,1,385.492,453.943Zm.153-6.509h-.013a.548.548,0,0,1-.535-.562l.075-3.257a.537.537,0,0,1,.562-.537.55.55,0,0,1,.537.562l-.077,3.257A.55.55,0,0,1,385.646,447.434Zm.151-6.521h-.013a.55.55,0,0,1-.535-.562l.075-3.257a.532.532,0,0,1,.562-.535.547.547,0,0,1,.537.56l-.075,3.257A.551.551,0,0,1,385.8,440.913Zm.151-6.5h-.013a.55.55,0,0,1-.537-.562l.075-3.255a.52.52,0,0,1,.562-.537.551.551,0,0,1,.537.56l-.075,3.257A.551.551,0,0,1,385.949,434.41Zm.148-6.511h-.013a.552.552,0,0,1-.537-.562l.075-3.255a.548.548,0,1,1,1.1.025l-.073,3.255A.549.549,0,0,1,386.1,427.9Zm.148-6.511h-.013a.549.549,0,0,1-.537-.56l.073-3.259a.54.54,0,0,1,.56-.537.551.551,0,0,1,.537.562l-.071,3.257A.548.548,0,0,1,386.244,421.387Zm.142-6.513h-.011a.549.549,0,0,1-.537-.562l.071-3.255a.568.568,0,0,1,.56-.537.546.546,0,0,1,.537.56l-.071,3.257A.547.547,0,0,1,386.386,414.874Zm.14-6.513h-.011a.549.549,0,0,1-.537-.562l.067-3.257a.54.54,0,0,1,.562-.537.547.547,0,0,1,.537.56l-.067,3.259A.55.55,0,0,1,386.526,408.361Zm.136-6.517h-.012a.55.55,0,0,1-.539-.56l.065-3.258a.549.549,0,0,1,.548-.539h.012a.547.547,0,0,1,.537.56l-.063,3.26A.548.548,0,0,1,386.662,401.844Zm.125-6.521h-.01a.548.548,0,0,1-.539-.558l.056-3.262a.549.549,0,0,1,.548-.54h.01a.55.55,0,0,1,.541.558l-.057,3.264A.549.549,0,0,1,386.786,395.323Zm.1-6.53h-.006a.549.549,0,0,1-.542-.554c.008-.73.012-1.321.012-1.758a12,12,0,0,0-.09-1.43.548.548,0,1,1,1.089-.134,12.682,12.682,0,0,1,.1,1.562c0,.443,0,1.037-.011,1.771A.55.55,0,0,1,386.888,388.793Zm-.782-6.431a.551.551,0,0,1-.525-.389,29.245,29.245,0,0,0-1.116-2.988.548.548,0,0,1,1.006-.435,30.374,30.374,0,0,1,1.158,3.1.548.548,0,0,1-.362.686A.532.532,0,0,1,386.106,382.362Zm-2.547-5.977a.546.546,0,0,1-.485-.3c-.477-.9-1.01-1.85-1.583-2.806a.549.549,0,1,1,.941-.565c.585.976,1.127,1.94,1.612,2.862a.546.546,0,0,1-.23.74A.532.532,0,0,1,383.558,376.385Zm-3.333-5.587a.548.548,0,0,1-.458-.245c-.606-.918-1.221-1.811-1.831-2.666a.548.548,0,0,1,.893-.636c.617.864,1.24,1.767,1.854,2.7a.548.548,0,0,1-.458.851Zm-3.772-5.3a.545.545,0,0,1-.437-.217c-.709-.932-1.384-1.786-2-2.549a.549.549,0,0,1,.855-.688c.621.769,1.3,1.633,2.016,2.574a.547.547,0,0,1-.435.88Z" transform="translate(-373.896 -361.837)" fill="#b3baeb"/>
        </g>
        <g id="Grupo_24744" data-name="Grupo 24744" transform="translate(13.153 136.845)">
          <path id="Trazado_53480" data-name="Trazado 53480" d="M379.659,434.022h-.011a.549.549,0,0,1-.537-.564l.04-1.641a.568.568,0,0,1,.562-.535.549.549,0,0,1,.537.562l-.04,1.641A.551.551,0,0,1,379.659,434.022Z" transform="translate(-379.111 -431.283)" fill="#b3baeb"/>
        </g>
      </g>
      <path id="Trazado_53481" data-name="Trazado 53481" d="M392.153,324.972s-12.124,6.68-17.665,12.221-7.958,19.881-7.958,33.388a278.118,278.118,0,0,1-1.706,28s28.707-4.671,28.707-7.592c0,0-4.633-18.865-1.507-25.251s15.434-17.747,15.434-23.716a27.507,27.507,0,0,0-1.706-9.948Z" transform="translate(-131.316 -133.909)" fill="#992494"/>
      <path id="Trazado_53482" data-name="Trazado 53482" d="M393.531,389.184s-4.633-18.865-1.507-25.251,15.434-17.747,15.434-23.716a27.507,27.507,0,0,0-1.706-9.948l-6.362-3.324c-.4,6.1-1.5,12.2-4.173,14.87-6.214,6.214-21.092,19.346-18.9,24.688s6.586,5.557,3.567,14.23-15.064,16.043-15.064,16.043S393.531,392.105,393.531,389.184Z" transform="translate(-131.316 -132.1)" fill="#731b70"/>
      <path id="Trazado_53483" data-name="Trazado 53483" d="M373.338,283.145s8.528,8.06,8.528,12.039-13.927,40.643-13.927,44.624,15.742,41.544,19.612,45.412S402.9,378.746,402.9,373.63s-21.886-29.275-21.886-35.527,6.465-41.354,6.538-45.192-5.212-10.8-5.971-11.558-7.01-2.559-7.01-1.232,5.306,2.085,5.306,2.085l1.61,2.653-2.179-2.179s-5.779-2.843-5.779-1.706,4.359,2.843,4.359,2.843l1.137,2.177S371.727,280.105,373.338,283.145Z" transform="translate(-128.462 -175.461)" fill="#fd5e5a"/>
      <path id="Trazado_53484" data-name="Trazado 53484" d="M354.741,325.345s5.541,1.137,7.247-6.252,11.368-26.718,14.922-30.271,7.531-1.7,10.515-3.41,7.176-4.69,7.533-3.766-.711,2.06-2.488,3.055-4.938,1.884-4.547,2.275,4.334-.995,6.04-1.99,3.055-2.913,3.837-2.913.567,1.99-1.351,3.268-5.187,2.914-4.759,2.914,5.256-.993,6.534-2.273,1.85-2.488,2.774-2.488.142,2.488-1.279,3.908-5.543,4.4-7.32,4.761-8.348-.249-9.237.638-8.953,34.107-8.953,38.443-2.273,6.607-6.751,8.668a33.311,33.311,0,0,1-9.237,2.559Z" transform="translate(-140.56 -173.788)" fill="#fd5e5a"/>
      <path id="Trazado_53485" data-name="Trazado 53485" d="M342.476,372.932c-.736,0-20.8-22.38-36.97-23.112s-23.672,6.622-32.361,12.516S281.379,371,285.607,371s27.981,5.921,27.981,5.921Z" transform="translate(-217.607 -111.175)" fill="#ffcb57"/>
      <path id="Trazado_53486" data-name="Trazado 53486" d="M290.226,356.044c3.021-7.289,2.082-16.321.107-18.934-1.817-2.4-1.926-4.69-3.262-6.458-.646-.857-.65-1.181-.634-1.261.019-.1.3-.161.809-.069.893.163,1.432,3.009,2.266,3.163a.4.4,0,0,0,.46-.372c.2-1.108-2.028-8.428-1.4-8.631.468-.149.611,1.227.627,1.263,1.018,4.554,1.422,6.051,2.076,5.641a.422.422,0,0,0,.18-.3c.161-.876-1.4-7.029-.659-7.759.188-.186.619,1.485.635,1.52.18.738.464,5.781,1.133,6.1,1.25.6-.2-6.509.9-6.308.631.115.255,2.317.3,3.393.084,2.206.136,2.739.464,2.912.627.33,1.012-1.119,1.34-2.074a10.327,10.327,0,0,1,1.008-2.379c.468.709-.516,3.433-.792,4.24-.523,1.541-.506,1.148-.853,6.126-.128,1.854-.215,1.313.207,2.492,2.176,6.1,5.413,10.707,4.251,17.076-.933,5.106-3.977,15.8-7.226,18.545-2.2-1.905-5.064-4.548-7.393-6.348A89.714,89.714,0,0,0,290.226,356.044Z" transform="translate(-204.71 -136.344)" fill="#fc7575"/>
      <path id="Trazado_53487" data-name="Trazado 53487" d="M293.234,344.21s10.117,17.023,16.262,24.153c4.426,5.133,15.528.565,15.528.565L314.268,395.9,289.8,397.275a149.469,149.469,0,0,1-8.825-25.882c-1.363-5.754-4.719-14.127-3.646-18.963,1.9-8.572,6.686-8.572,6.686-8.572Z" transform="translate(-211.724 -116.594)" fill="#f14e76"/>
      <path id="Trazado_53488" data-name="Trazado 53488" d="M320.9,370.28c.652-.652-4.625-15.014-11.514-13.272-4.115,1.043-13.256,6.95-15.035,14.37-1.2,5,4.28,12.6,4.28,12.6Z" transform="translate(-196.083 -104.674)" fill="#460d00"/>
      <path id="Trazado_53489" data-name="Trazado 53489" d="M273.63,361.108c0,1.292,4.123,32.412,7.105,35.123s52.552,4.6,54.827,2.534-1.108-32.922-1.108-32.922Z" transform="translate(-214.92 -100.781)" fill="#41694b"/>
      <path id="Trazado_53490" data-name="Trazado 53490" d="M303.321,371.324l-19.539-1.809a1.447,1.447,0,0,1-1.305-1.572h0a1.447,1.447,0,0,1,1.572-1.305l19.538,1.809a1.446,1.446,0,0,1,1.305,1.572h0A1.445,1.445,0,0,1,303.321,371.324Z" transform="translate(-206.816 -95.717)" fill="#6baf7a"/>
      <path id="Trazado_53491" data-name="Trazado 53491" d="M336.5,353.294l-4.832,34.864s-22.169,18.077-25.579,18.077,0-33.229,0-33.229Z" transform="translate(-186.553 -107.944)" fill="#609d6f"/>
      <g id="Grupo_24746" data-name="Grupo 24746" transform="translate(58.163 244.802)">
        <path id="Trazado_53492" data-name="Trazado 53492" d="M293.464,361.657l1.477,1.862-3.714-.281Z" transform="translate(-256.95 -345.079)" fill="#6b2d52"/>
        <path id="Trazado_53493" data-name="Trazado 53493" d="M334.673,373.815l-60.823-4.732a.549.549,0,1,1,.086-1.095l60.637,4.719,30.256-19.61a.549.549,0,0,1,.6.92l-30.413,19.712Z" transform="translate(-273.344 -353.008)" fill="#80b18c"/>
      </g>
      <path id="Trazado_53494" data-name="Trazado 53494" d="M295.609,364.819c-.071-1.857.866-5.413,5.923-4.495s13.525,26.584,16.206,32.388,7.025,7.46,6.73,9.089-5.116,1.974-6.7.815-3.306-5.766-5.058-7.3S296.19,379.789,295.609,364.819Z" transform="translate(-194.774 -101.636)" fill="#fc7575"/>
      <path id="Trazado_53495" data-name="Trazado 53495" d="M300.742,361.853s-4.221.715-4.108,2.011,2.82,4.286,4.671,1.922S301.34,361.441,300.742,361.853Z" transform="translate(-193.832 -100.147)" fill="#fd5e5a"/>
      <path id="Trazado_53496" data-name="Trazado 53496" d="M306.794,357.177c-1.708-.738-5.363-1.144-6.331,3.9s19.913,22.2,24.356,26.8,4.424,9.245,6.051,9.557,3.686-4.06,3.178-5.961-4.184-5.162-4.985-7.351S320.545,363.121,306.794,357.177Z" transform="translate(-190.35 -104.787)" fill="#fc7575"/>
      <path id="Trazado_53497" data-name="Trazado 53497" d="M301.928,361.243s2.189-3.68,3.358-3.107,2.977,4.177.105,5.051S301.326,361.651,301.928,361.243Z" transform="translate(-189.117 -103.561)" fill="#fd5e5a"/>
      <path id="Trazado_53498" data-name="Trazado 53498" d="M306.621,360.5c.006-1.963-1-4.476-4.968-5.723s-20.366-.636-20.366-.636l0,0c-7.542-1.148-14.531-6.118-15.808-9.015-1.215-2.756-3.163-3.966-4.056-5.992-.431-.981-.715-1.142-.792-1.169-.1-.033-.288.186-.452.673-.293.861,1.932,2.716,1.658,3.519a.4.4,0,0,1-.548.22c-1.068-.36-6.375-5.873-6.858-5.423-.36.335.774,1.131.8,1.16,3.485,3.107,4.594,4.19,3.918,4.56a.417.417,0,0,1-.347.013c-.843-.286-5.461-4.642-6.458-4.353-.253.075.995,1.265,1.018,1.3.558.516,4.826,3.22,4.782,3.96-.082,1.386-5.591-3.343-5.952-2.283-.207.608,1.9,1.351,2.82,1.911,1.888,1.146,2.327,1.451,2.319,1.821-.017.709-1.47.341-2.465.161a10.329,10.329,0,0,0-2.568-.276c.393.753,3.251,1.219,4.09,1.372,1.6.291,1.248.115,5.766,2.237,1.683.79,1.252.45,2.076,1.392,4.267,4.869,6.72,9.94,12.85,12.024,1.367.466,3.191,1,5.2,1.491,5.549,1.482,14.912,3.751,18.32,3.191C305.565,365.821,306.613,362.649,306.621,360.5Z" transform="translate(-234.589 -122.946)" fill="#fc7575"/>
      <g id="Grupo_24748" data-name="Grupo 24748" transform="translate(47.409 198.396)">
        <path id="Trazado_53499" data-name="Trazado 53499" d="M303.338,348.695s-6.4,3.464-7.859-3.222.219-11.629-3.232-13.672-8.171-3.832-12.741-2.6c-.987.266,3.835,1.436,3.835,1.436s5.614,17.506,5.3,21.671.115,6.444,2.729,7.151a34.753,34.753,0,0,0,6.229.864l.707-3.065s-2.319.51-2.908-.079a13.023,13.023,0,0,0,4.794-1.415C302.159,354.589,303.338,348.695,303.338,348.695Z" transform="translate(-257.064 -328.797)" fill="#00114d"/>
        <g id="Grupo_24747" data-name="Grupo 24747" transform="translate(15.812 1.8)">
          <path id="Trazado_53500" data-name="Trazado 53500" d="M288.244,343.288s.358,5.436,2.743,7.82-10.841,6.571-10.841.648c0-2.1,2.919-11.175,2.919-11.175Z" transform="translate(-272.167 -319.793)" fill="#fc7575"/>
          <path id="Trazado_53501" data-name="Trazado 53501" d="M288.952,344.064l-9.578-4.328a56.3,56.3,0,0,0,2.593,7.644c1.606,1.234,3.878,2.013,7.5,1.854a3.364,3.364,0,0,0,.581-.092A19.9,19.9,0,0,1,288.952,344.064Z" transform="translate(-272.875 -320.569)" fill="#fd5e5a"/>
          <path id="Trazado_53502" data-name="Trazado 53502" d="M292.386,331.409c1.6,1.012,4.445,3.876,4.211,6.291s1.744,5.6.989,10.582-5.75,7.634-7.094,7.41c-5.7-.947-8.271-3.837-10.374-7.23s-7.042-3.588-1.815-12.252S289.243,329.421,292.386,331.409Z" transform="translate(-275.983 -329.736)" fill="#fc7575"/>
        </g>
        <path id="Trazado_53503" data-name="Trazado 53503" d="M294.013,330.447s-6.628,11.562-2.315,22.077c1.614,3.931,5.839,9.806,5.839,9.806s-10.732.219-13.09.882l-1.1-9.887-1.415,9.572s-2.2.786-8.328-2.043-5.867-10.1-5.867-10.1,9.952-1.988,11.054-8.909S287.076,325.342,294.013,330.447Z" transform="translate(-267.734 -328.605)" fill="#172866"/>
        <path id="Trazado_53504" data-name="Trazado 53504" d="M292.948,331.534s-4.048,6.7-9.628,6.7-6.482,2.066-6.482,3.657a2.278,2.278,0,0,0,3.575,1.865c1.767-1.139,1.886-1.865,1.886-1.865a3.835,3.835,0,0,1-.707,3.515c-1.355,1.357-5.541,2.268-6.875-1.323a7.8,7.8,0,0,1,.826-6.958,4.625,4.625,0,0,1,2.365-1.671,20.956,20.956,0,0,0,4.382-2.44,18.357,18.357,0,0,0,1.949-1.647,8.488,8.488,0,0,1,1.857-1.648,6.24,6.24,0,0,1,2.083-.715A4.848,4.848,0,0,1,292.948,331.534Z" transform="translate(-261.76 -328.648)" fill="#00114d"/>
        <path id="Trazado_53505" data-name="Trazado 53505" d="M280.495,337.486h0a1.24,1.24,0,0,0-1.441.242h0a1.236,1.236,0,0,1-2.118-.8h0a1.238,1.238,0,0,0-.928-1.129h0a1.235,1.235,0,0,1-.372-2.231h0a1.238,1.238,0,0,0,.514-1.369h0a1.236,1.236,0,0,1,1.746-1.438h0a1.238,1.238,0,0,0,1.441-.238h0a1.236,1.236,0,0,1,2.118.794h0a1.24,1.24,0,0,0,.93,1.129h0a1.236,1.236,0,0,1,.37,2.231h0a1.237,1.237,0,0,0-.512,1.369h0A1.236,1.236,0,0,1,280.495,337.486Z" transform="translate(-261.003 -327.554)" fill="#f14e76"/>
        <path id="Trazado_53506" data-name="Trazado 53506" d="M277.894,335.094h0a.643.643,0,0,0-.705-.276h0a.642.642,0,0,1-.734-.918h0a.641.641,0,0,0-.115-.749h0a.643.643,0,0,1,.429-1.094h0a.64.64,0,0,0,.592-.473h0a.642.642,0,0,1,1.162-.176h0a.643.643,0,0,0,.707.278h0a.643.643,0,0,1,.734.918h0a.64.64,0,0,0,.113.749h0a.641.641,0,0,1-.429,1.093h0a.645.645,0,0,0-.592.475h0A.642.642,0,0,1,277.894,335.094Z" transform="translate(-260.017 -326.679)" fill="#fff7cf"/>
      </g>
      <g id="Grupo_24750" data-name="Grupo 24750" transform="translate(130.485 106.158)">
        <path id="Trazado_53507" data-name="Trazado 53507" d="M328.557,298.917l6.346,25.455c.669,2.384,2.039,4.848,1.186,5.95-1.976,2.553-10.745,1.129-15.24-1.5-3.671-2.151-3.255-27.444-3.255-27.444S323.773,299.011,328.557,298.917Z" transform="translate(-305.113 -263.953)" fill="#fc7575"/>
        <path id="Trazado_53508" data-name="Trazado 53508" d="M317.588,301.374s.033,1.066.107,2.821a48.512,48.512,0,0,0,3.538,8.441c1.967,3.373,8.05,8.288,12.624,7.565l-5.307-21.286C323.766,299.011,317.588,301.374,317.588,301.374Z" transform="translate(-305.106 -263.953)" fill="#fd5e5a"/>
        <g id="Grupo_24749" data-name="Grupo 24749">
          <path id="Trazado_53509" data-name="Trazado 53509" d="M329.231,289.185s5.175-.554,7.255,6.049,3.274,26-1.353,28.933-12.018-2.08-14.094-5.48a45.251,45.251,0,0,1-3.77-9.532S311.493,284.891,329.231,289.185Z" transform="translate(-306.222 -273.343)" fill="#fc7575"/>
          <path id="Trazado_53510" data-name="Trazado 53510" d="M319.24,326.993s1.522,1.206,2.407-1.054c0,0,2.06-5.217-1.351-7.989s-8.462-6.479-9.17-12.86,6.35-8.029,6.35-8.029-1.02-9.791,9.567-8.992c0,0,1.4-2.505,7.215-3.625s5.206,2.551,8.4,1.19,3.027-4.225,1.392-4.959c0,0,6.325,1.392,8.16,6.063s-6.874,7.025-6.874,7.025,7.3-.713,2.632,3.759-7.3,5.051-11.388,2.432-6.047-3.009-7.623-1.79-.017,5.189-2.547,6.268-2.555,8.863-2.555,8.863-2.2-.232-.92,4.922,2.66,8.177-.2,9.4S319.24,326.993,319.24,326.993Z" transform="translate(-311.076 -280.676)" fill="#3f002e"/>
          <path id="Trazado_53511" data-name="Trazado 53511" d="M317.648,294.761c-1.6.176-5.049,2.291-.757,6.734s5.754-1.643,4.888-3.847A4.311,4.311,0,0,0,317.648,294.761Z" transform="translate(-307.645 -267.777)" fill="#fc7575"/>
        </g>
      </g>
      <path id="Trazado_53512" data-name="Trazado 53512" d="M348.768,308.439a7.972,7.972,0,0,1,5.329-3.481c3.694-.64,3.232-1.6,4.759-3.128s5.472-.638,7.178,4.407,6.111,17.839,3.126,20.074-4.407-.464-6.323,2.591-5.9,2.2-8.244-1.564S348.128,310.074,348.768,308.439Z" transform="translate(-146.097 -155.745)" fill="#197d97"/>
      <path id="Trazado_53513" data-name="Trazado 53513" d="M313.766,382.779s-.353-1.783-1.068-1.558-.236,1.288-.236,1.288-.617-.447-.96-.1,0,.857,0,.857a.763.763,0,0,0-.96-.483c-.684.243-.41.725-.41.725s-.859-1.407-1.614,0c0,0-1.035-.909-.855.266s1.023.573,1.023.2c0,0,.941,1.033,1.466.054,0,0,1.089,1.016,1.459-.22,0,0,.761.6,1.162-.454C312.773,383.348,313.766,383.952,313.766,382.779Z" transform="translate(-183.739 -82.36)" fill="#fd5e5a"/>
      <path id="Trazado_53514" data-name="Trazado 53514" d="M317.332,381.144s-1.645-.772-1.255-1.413,1.307.082,1.307.082-.286-.705.13-.956.832.207.832.207a.764.764,0,0,1-.238-1.048c.4-.608.8-.224.8-.224s-1.158-1.173.389-1.566c0,0-.633-1.223.464-.767s.311,1.133-.054,1.043c0,0,.776,1.162-.3,1.438,0,0,.723,1.3-.567,1.361,0,0,.4.884-.721,1.016C318.124,380.316,318.47,381.428,317.332,381.144Z" transform="translate(-176.061 -87.718)" fill="#fd5e5a"/>
      <path id="Trazado_53515" data-name="Trazado 53515" d="M280.7,382.173s8.57-.529,7.671-2.243-6.689-1.313-6.689-1.313,7.257-1.783,6.427-3.366-7.815-.048-7.815-.048,5.49-2.394,5.693-4-7.657.456-7.657.456,4.573-1.986,4.123-2.843-5.53-.932-7.807-.56-1.359,3.584.159,6.481.638,2.126,1.932,4.593A5.724,5.724,0,0,0,280.7,382.173Z" transform="translate(-215.25 -94.425)" fill="#fc7575"/>
    </g>
    <path id="Trazado_53516" data-name="Trazado 53516" d="M294.862,319a4.72,4.72,0,0,0-2.024.462,4.708,4.708,0,0,0-2.024-.462c-3.358,0-6.082,3.636-6.082,8.125s2.724,8.125,6.082,8.125h4.048c3.36,0,6.084-3.634,6.084-8.125S298.222,319,294.862,319Z" transform="translate(38.258 85.908)" fill="#d9e021"/>
    <path id="Trazado_53517" data-name="Trazado 53517" d="M261.425,332.418a4.88,4.88,0,0,0-2.024.443,4.933,4.933,0,0,0-2.03-.443c-3.354,0-6.078,3.46-6.078,7.726s2.724,7.727,6.078,7.727h4.054c3.354,0,6.076-3.46,6.076-7.727S264.779,332.418,261.425,332.418Z" transform="translate(7.603 98.209)" fill="#d9e021"/>
    <path id="Trazado_53518" data-name="Trazado 53518" d="M255.566,335.416a8.033,8.033,0,0,0,5.054-.627c2.463-1.254,3.136-5.085,3.136-5.085S255.194,329.1,255.566,335.416Z" transform="translate(11.509 95.706)" fill="#81a556"/>
  </g>
</svg>
