<svg xmlns="http://www.w3.org/2000/svg" width="903.538" height="180.068" viewBox="0 0 903.538 180.068">
  <g id="Grupo_24056" data-name="Grupo 24056" transform="translate(-420.82 -1150)">
    <g id="Grupo_24039" data-name="Grupo 24039" transform="translate(906.236 1231)">
      <g id="Grupo_24038" data-name="Grupo 24038">
        <path id="Trazado_50797" data-name="Trazado 50797" d="M33.175,388.179s33.47,0,54.695-5.538c0,0,42.918.463,52.147-6,0,0,26.816-3.924,31.865-6.695,0,0,13.125-4.384,15.206-6.922s14.367-3.92,18.746-14.3c0,0,4.719-1.039,4.623-7.367,0,0-1.936-4.365-9.619-2.4,0,0-.945-7.369-27.249-3.214,0,0-14.652-1.731-19.957,1.072l-16.856.041s-10.736-6.252-11.063-9.593l.923-3s24-13.382,18.458-30c0,0-1.613-7.151-8.537-4.611,0,0-16.382,16.841-21.458,19.61,0,0-27.92,12.921-31.61,25.382,0,0-1.152,10.383-13.613,8.535l-36.7-1.615Z" transform="translate(-33.175 -289.111)" fill="#6b4235"/>
        <path id="Trazado_50798" data-name="Trazado 50798" d="M138.439,322.266s-.463-8.825-15.98-1.615c0,0-11.522,6.736-17.925,6.908,0,0,11.522-2.236,12.735,4.167,0,0-.457,5.537-3.051,6.879l5.979-4.141S138.149,329.011,138.439,322.266Z" transform="translate(35.317 -261.557)" fill="#8f6052"/>
        <path id="Trazado_50799" data-name="Trazado 50799" d="M145.575,315.456s-6.771-3.926-19.4-.368c0,0-9.521,2.052-13.329,2.052,0,0-13.207.065-15.745,4.1l-6.348-2.479a84.5,84.5,0,0,0,6.867,5.942s13.74-2.469,17.548-1.9c0,0,5.987.868,6.332,1.2s8.378-4.153,13.727-3.461A30.057,30.057,0,0,1,145.575,315.456Z" transform="translate(22.088 -265.608)" fill="#8f6052"/>
        <path id="Trazado_50800" data-name="Trazado 50800" d="M102.064,293.861s0,9-5.439,14.3c0,0-6.313,7.847-12.843,11.537,0,0,3.916,10.338,10.883,12.553,0,0-7.826,1.525-14.687-11.167,0,0-2.281-3.23,0-5.537C79.979,315.552,97.06,305.628,102.064,293.861Z" transform="translate(10.775 -284.551)" fill="#8f6052"/>
        <path id="Trazado_50801" data-name="Trazado 50801" d="M56.934,323.123c.316-.433-6.8,16.643,1.252,24.341C58.187,347.464,44.048,340.842,56.934,323.123Z" transform="translate(-15.572 -256.472)" fill="#8f6052"/>
        <path id="Trazado_50802" data-name="Trazado 50802" d="M132.73,326.843s-.856,5.392-13.752,7.171c0,0-28.631,8.141-31.287,6.412,0,0,29.239-6.577,31.865-9.923C119.556,330.5,131.552,331.435,132.73,326.843Z" transform="translate(19.151 -252.894)" fill="#8f6052"/>
        <path id="Trazado_50803" data-name="Trazado 50803" d="M129.7,333.774s-6.575,9.113-52.147,6c0,0-24.819,5.321-33.638,4.735l31.336-7.273S117.536,339.889,129.7,333.774Z" transform="translate(-22.863 -246.241)" fill="#8f6052"/>
      </g>
      <path id="Trazado_50804" data-name="Trazado 50804" d="M88.4,296.128a5.393,5.393,0,1,1-5.382-5.386,5.392,5.392,0,0,1,5.382,5.386Zm-4.831,36.913,1.172,19.88a1.269,1.269,0,0,0,2.538,0l1.076-19.88h3.516l-3.637-22.295,7.322,14.567a1.26,1.26,0,0,0,2.32-.982s-5.358-14.5-6.673-17.223c-1.342-2.7-2.634-4.331-7.681-4.331H82.493c-5.023,0-6.34,1.627-7.655,4.331-1.315,2.726-6.7,17.223-6.7,17.223a1.259,1.259,0,0,0,.67,1.652,1.278,1.278,0,0,0,1.678-.67l7.318-14.567-3.659,22.295h3.518l1.1,19.88a1.269,1.269,0,0,0,2.538,0l1.076-19.88Zm42.991-42.32a5.4,5.4,0,1,0,5.382,5.384,5.41,5.41,0,0,0-5.382-5.384Zm5.6,31.72.361-11.72,6.579,14.593a1.276,1.276,0,0,0,2.346-1.005s-4.643-14.5-5.958-17.2c-1.339-2.7-3.375-4.357-8.4-4.357h-1.052c-5.023,0-7.055,1.652-8.4,4.357-1.315,2.7-5.956,17.2-5.956,17.2a1.293,1.293,0,0,0,.67,1.676,1.268,1.268,0,0,0,1.65-.67l6.6-14.593.359,11.72-1.029,29.476a2.136,2.136,0,0,0,1.962,2.273h.143a2.154,2.154,0,0,0,2.13-1.962l2.393-24.282,2.415,24.282a2.079,2.079,0,0,0,2.083,1.962h.169a2.138,2.138,0,0,0,1.962-2.273l-1.054-29.476ZM104.788,323.5a3.3,3.3,0,1,0,3.3,3.3,3.3,3.3,0,0,0-3.3-3.3Zm0,19.475s1.486,10.34,1.486,10.358a1.386,1.386,0,0,0,1.27.862,1.366,1.366,0,0,0,1.266-.933,3.6,3.6,0,0,0,0-.743l-.6-12.721.192-4.361c.169-1.484.216-1.029,1.889-2.058,1.723-1.027,4.664-5.572,4.807-5.787a4.432,4.432,0,0,0,.457-.888.857.857,0,0,0-.67-.98.943.943,0,0,0-.862.359c-.214.239-3.588,4.737-6.124,5.168a11.59,11.59,0,0,0-2.8-.384h-.625a11.808,11.808,0,0,0-2.8.384c-2.536-.431-5.909-4.929-6.148-5.168a.9.9,0,0,0-.837-.359.841.841,0,0,0-.672.98,3.473,3.473,0,0,0,.457.888c.143.216,3.085,4.76,4.809,5.787,1.7,1.029,1.721.574,1.887,2.058l.192,4.361-.623,12.721a2.47,2.47,0,0,0,.047.743,1.315,1.315,0,0,0,1.246.933,1.359,1.359,0,0,0,1.268-.862c-.024-.018,1.48-10.358,1.48-10.358Z" transform="translate(0.292 -287.565)" fill="#c3c4c6"/>
    </g>
    <g id="Grupo_24045" data-name="Grupo 24045" transform="translate(420.82 1150)">
      <path id="Trazado_50817" data-name="Trazado 50817" d="M160.326,303.082s11.853-45.076,2.181-55.683c0,0-26.124-18.481-30.1-22.46,0,0-13.258-20.9-14.507-26.048,0,0-12.788-21.991-12.476-23.551,0,0,3.273-5.927,10.759,2.806,0,0,7.488,10.138,8.735,13.1,0,0-3.275-16.69-6.391-27.92,0,0,4.21-6.552,9.979,5.148,0,0,8.423-2.808,10.45,14.036,0,0,5.615.468,8.11,9.825,0,0,5.772,12.635,6.4,19.185,0,0,25.576,9.049,33.691,25.425,0,0,2.652,3.275,4.053,12.167,0,0,1.092,49.909,1.405,53.966Z" transform="translate(-105.418 -123.701)" fill="#eeac6d"/>
      <path id="Trazado_50818" data-name="Trazado 50818" d="M140.831,210.108a25.4,25.4,0,0,0-10.45-12.012s-12.165-7.555-15.283-12.431c0,0-2.965-3.165-1.092-6.6,0,0-3.122,2.691.388,7.6,0,0,6.656,9.4,15.91,15.106C130.3,201.777,136.035,203.48,140.831,210.108Z" transform="translate(-98.403 -106.841)" fill="#d89761"/>
      <path id="Trazado_50819" data-name="Trazado 50819" d="M112.614,164.345s5.072,5.6,10.293,28.041c0,0-3.12-.98-3.839-1.068a11.2,11.2,0,0,0-1.444-3.265S114.392,170.058,112.614,164.345Z" transform="translate(-98.511 -120.972)" fill="#d89761"/>
      <path id="Trazado_50820" data-name="Trazado 50820" d="M117.458,165.817s9.125,11.391,11.814,33.456l-3.2-2.34S120.033,170.846,117.458,165.817Z" transform="translate(-93.862 -119.559)" fill="#d89761"/>
      <path id="Trazado_50821" data-name="Trazado 50821" d="M122.681,172.8s6.017,17.584,7.069,23.9c0,0,2.465,1.717,3.165,2.3C132.915,199,127.126,176.444,122.681,172.8Z" transform="translate(-88.849 -112.856)" fill="#d89761"/>
      <path id="Trazado_50822" data-name="Trazado 50822" d="M129.694,186.986s23.316,10.217,33.343,23.982C163.037,210.968,152.389,191.666,129.694,186.986Z" transform="translate(-82.118 -99.241)" fill="#d89761"/>
      <path id="Trazado_50823" data-name="Trazado 50823" d="M116.812,190.022s3.773,6.481,4.508,7.306c0,0,6.465,6.554,26.73,20.192l-25.19-21.456Z" transform="translate(-94.482 -96.327)" fill="#d89761"/>
      <path id="Trazado_50824" data-name="Trazado 50824" d="M151.009,209.376l1.573,55.2h-5.458L149,201.863l1.592,5.385Z" transform="translate(-65.388 -84.961)" fill="#d89761"/>
      <path id="Trazado_50825" data-name="Trazado 50825" d="M117.162,178.087s7.884-.363,18.277,11.434c0,0,7.606,4.9,11.044,6.526a91.712,91.712,0,0,1-20.329-10.889s-10.438-6.7-12.774-5.147A7.715,7.715,0,0,1,117.162,178.087Z" transform="translate(-97.776 -107.784)" fill="#ffbd7d"/>
      <path id="Trazado_50826" data-name="Trazado 50826" d="M185.852,303.082S174,258.006,183.671,247.4c0,0,26.124-18.481,30.1-22.46,0,0,13.26-20.9,14.509-26.048,0,0,12.788-21.991,12.478-23.551,0,0-3.277-5.927-10.763,2.806,0,0-7.488,10.138-8.735,13.1,0,0,3.275-16.69,6.395-27.92,0,0-4.21-6.552-9.983,5.148,0,0-8.423-2.808-10.45,14.036,0,0-5.615.468-8.11,9.825,0,0-5.77,12.635-6.4,19.185,0,0-25.578,9.049-33.689,25.425,0,0-2.652,3.275-4.057,12.167,0,0-1.09,49.909-1.4,53.966Z" transform="translate(-59.205 -123.701)" fill="#eeac6d"/>
      <path id="Trazado_50827" data-name="Trazado 50827" d="M176.407,210.108a25.437,25.437,0,0,1,10.45-12.012s12.169-7.555,15.289-12.431c0,0,2.963-3.165,1.088-6.6,0,0,3.124,2.691-.386,7.6,0,0-6.658,9.4-15.91,15.106C186.937,201.777,181.2,203.48,176.407,210.108Z" transform="translate(-37.281 -106.841)" fill="#d89761"/>
      <path id="Trazado_50828" data-name="Trazado 50828" d="M195.9,164.345s-5.068,5.6-10.293,28.041c0,0,3.12-.98,3.843-1.068a11.254,11.254,0,0,1,1.444-3.265S194.129,170.058,195.9,164.345Z" transform="translate(-28.45 -120.972)" fill="#d89761"/>
      <path id="Trazado_50829" data-name="Trazado 50829" d="M191.8,165.817s-9.123,11.391-11.814,33.456l3.2-2.34S189.23,170.846,191.8,165.817Z" transform="translate(-33.843 -119.559)" fill="#d89761"/>
      <path id="Trazado_50830" data-name="Trazado 50830" d="M185.811,172.8s-6.021,17.584-7.069,23.9c0,0-2.469,1.717-3.171,2.3C175.571,199,181.362,176.444,185.811,172.8Z" transform="translate(-38.084 -112.856)" fill="#d89761"/>
      <path id="Trazado_50831" data-name="Trazado 50831" d="M190.11,186.986s-23.316,10.217-33.341,23.982C156.769,210.968,167.415,191.666,190.11,186.986Z" transform="translate(-56.13 -99.241)" fill="#d89761"/>
      <path id="Trazado_50832" data-name="Trazado 50832" d="M201.966,190.022s-3.775,6.481-4.513,7.306c0,0-6.464,6.554-26.728,20.192l25.19-21.456Z" transform="translate(-42.736 -96.327)" fill="#d89761"/>
      <path id="Trazado_50833" data-name="Trazado 50833" d="M155.14,209.376l-1.573,55.2h5.458l-1.872-62.713-1.594,5.385Z" transform="translate(-59.204 -84.961)" fill="#d89761"/>
      <path id="Trazado_50834" data-name="Trazado 50834" d="M202.523,178.087s-7.884-.363-18.273,11.434c0,0-7.61,4.9-11.044,6.526a91.686,91.686,0,0,0,20.325-10.889s10.438-6.7,12.774-5.147A7.69,7.69,0,0,0,202.523,178.087Z" transform="translate(-40.354 -107.784)" fill="#ffbd7d"/>
      <path id="Trazado_50835" data-name="Trazado 50835" d="M220.137,188.36c0,25.488-20.435,46.148-45.644,46.148s-45.646-20.66-45.646-46.148,20.437-46.146,45.646-46.146S220.137,162.874,220.137,188.36Z" transform="translate(-82.931 -142.214)" fill="#16a5de"/>
      <path id="Trazado_50836" data-name="Trazado 50836" d="M145.8,193.387l-3.622-3.624.986-5.6-1.646-3.624.99-5.268-2.632-3.624-5.927-.327-3.947-2.965-1.152.345a46.466,46.466,0,0,0,28.764,36.988l1.35-.451-11.191-6.585Z" transform="translate(-82.925 -117.12)" fill="#77d311"/>
      <g id="Grupo_24043" data-name="Grupo 24043" transform="translate(64.022 2.83)">
        <path id="Trazado_50837" data-name="Trazado 50837" d="M160,180.428l.331-3.622.656-2.963,2.3-1.32,2.635-1.645-.331,2.633-3.29,6.587Z" transform="translate(-117.047 -117.531)" fill="#4fc106"/>
        <path id="Trazado_50838" data-name="Trazado 50838" d="M141.868,151.126l2.964-.331.986-4.28Z" transform="translate(-134.455 -140.916)" fill="#4fc106"/>
        <path id="Trazado_50839" data-name="Trazado 50839" d="M146.157,162.427l5.923-1.644,4.608-3.294,5.3,4.647,3.637,2.45-3.34-8.082,7.242,3.949,1.315-1.315,2.636,2.632,4.935-.327-.329,2.963-4.935.988-4.937-2.634-.988,2.634-6.254-.658-1.646-2.636-10.2,1.648-3.291,1.317s-6.581,8.233-7.571,8.233,2.634,3.291,2.634,3.291l-.657,4.282,4.608,4.282L150.106,193l6.775-6.775,1.143,5.838,4.917,2.965-1.644,4.608,2.3,2.965-.658,4.282,2.632.327.992,4.282,6.252-.988v-2.634l3.947-3.624v-2.634l3.951-2.307,3.292-5.407,5.264-9.409.658-3.624-4.276-.659-2.638-2.634-6.209-9.194,4.237-1.1,1.972,5.027,2.307,6.256,5.266-.988,3.292-3.622-4.28-4.282-2.3-3.293,4.276,2.634,5.6,2.3,4.611,6.258,2.3,11.2.657-5.27,3.622-4.609,2.85,5.717c-1.025-18.187-11.285-31.618-25.307-39.077l-2.887.1s-8.557,1.646-9.87,1.977,2.632-2.636,2.632-2.636l-6.583-1.317-6.254.659-6.583,2.963,1.977,1.976L158,151.233l-3.293.988-1.315-2.965-2.634,1.319-.986,3.951,2.634-.659-3.294,1.977,2.636,1.315Zm19.416-11.195-4.276-.988,4.276-1.317-.986-2.636,3.291-1.644.99,3.622Zm6.916,6.256.657-2.634,3.291,1.317,4.278,2.307Zm15.463,3.953L182.87,158.4l5.413-2.885-.086,2.334Z" transform="translate(-138.085 -143.658)" fill="#77d311"/>
      </g>
      <g id="Grupo_24044" data-name="Grupo 24044" transform="translate(59.872 3.279)">
        <path id="Trazado_50840" data-name="Trazado 50840" d="M141.868,151.126l2.964-.331.986-4.28Z" transform="translate(-130.305 -141.366)" fill="#77d311"/>
        <path id="Trazado_50841" data-name="Trazado 50841" d="M141.439,165.265l12.674-4.7,4.608-3.294,4.938,1.975,1.974.659-1.317-3.622,2.639,1.439v-6.858l-3.625-.837,3.625-1.118v-1.941l-.335-.895.335-.168v-2.016l-1.981.208-6.583,2.964,1.977,1.976-.332,1.976-3.291.989-1.316-2.965-2.635,1.319-.986,3.95,2.634-.657-3.293,1.976,2.635,1.317-17.817,4Z" transform="translate(-135.968 -143.887)" fill="#77d311"/>
      </g>
    </g>
    <g id="Grupo_24049" data-name="Grupo 24049" transform="translate(1143.642 1161)">
      <g id="Grupo_24047" data-name="Grupo 24047" transform="translate(0 59.608)">
        <g id="Grupo_24046" data-name="Grupo 24046">
          <path id="Trazado_50842" data-name="Trazado 50842" d="M351.33,372.443s-28.286-26.4-35.828-30.409c0,0-18.857-14.379-31.116-5.656,0,0-9.194,6.364-14.614,6.128a112.365,112.365,0,0,1-24.515-2.358s-7.306-.943-8.954,3.536l72.6,33.472s39.13,26.871,42.432,42.9Z" transform="translate(-170.615 -310.632)" fill="#6b4235"/>
          <path id="Trazado_50843" data-name="Trazado 50843" d="M341.068,388.389s-30.64-8.486-64.347-5.893c0,0-5.891-.237-16.029-8.956,0,0-18.152-4.321-27.894-13.123,0,0-28.284-16.657-30.013-17.286,0,0,2.358-5.815,11.155-3.771,0,0-5.97-5.972-8.8-12.257,0,0-.47-4.713,4.713-4.243,0,0,7.543.157,14.769,13.513a31.029,31.029,0,0,0,3.616,2.673s-6.757-9.9-5.972-15.4c0,0,4.874-6.442,11.788,5.186,0,0,8.327,12.257,12.1,15.085,0,0-1.572-10.685-1.887-11.314,0,0,5.66-6.285,13.2,14.614,0,0,7.543,3.3,11,7.7l73.384,22.471Z" transform="translate(-202.785 -321.865)" fill="#6b4235"/>
          <path id="Trazado_50844" data-name="Trazado 50844" d="M236.3,344.043s-.318-7.23,22.626-1.887a27.922,27.922,0,0,0,22-4.4s14.066-9.143,26.183-.625C307.113,337.131,284.386,352.37,236.3,344.043Z" transform="translate(-170.615 -310.699)" fill="#8f6052"/>
          <path id="Trazado_50845" data-name="Trazado 50845" d="M214.847,321.866l20.743,30.173,11.159,11.469,17.756,8.016-16.5-9.429-10.842-11.314s-1.011-1.521-2.583-6.863c0,0-8.1-10.109-9.676-12.151C224.9,331.767,219.5,321.866,214.847,321.866Z" transform="translate(-191.208 -321.866)" fill="#8f6052"/>
          <path id="Trazado_50846" data-name="Trazado 50846" d="M261.548,371.066l-18.542-9.429-20.9-16.029-16.721-23.1s7.835-2.714,17.192,13.67l3.173,2.409s5.47,9.689,7.984,12.2c0,0,6.832,6.13,10.215,9.588Z" transform="translate(-200.291 -321.408)" fill="#8f6052"/>
          <path id="Trazado_50847" data-name="Trazado 50847" d="M204.32,331.8,222.684,345l9.429,6.6-7.81-7.23s-8.082-5.6-11.835-13.227A8.847,8.847,0,0,0,204.32,331.8Z" transform="translate(-201.312 -313.646)" fill="#8f6052"/>
        </g>
      </g>
      <g id="Grupo_24048" data-name="Grupo 24048" transform="translate(58.344)">
        <path id="Trazado_50848" data-name="Trazado 50848" d="M259.732,291.451h.133a9.043,9.043,0,0,1,2.558.382,5.533,5.533,0,0,1,3.518,2.887,4.618,4.618,0,0,1,.4,2.058,5.52,5.52,0,0,1-.59,2.2,9.354,9.354,0,0,1-1.368,1.936l-.233.278-.323.382c-.558.66-1.115,1.319-1.646,2a15.267,15.267,0,0,0-1.944,3.191,10.546,10.546,0,0,0-.617,2.217,5.13,5.13,0,0,1,1.047.41,6.821,6.821,0,0,1,1.1.721,6.1,6.1,0,0,1,1.376,1.523,3.715,3.715,0,0,1,1.049-.5,2.506,2.506,0,0,1,.755-.108,2.764,2.764,0,0,1,.664.078,2.482,2.482,0,0,1,1.129.666,3.651,3.651,0,0,1,.811,1.272,7.587,7.587,0,0,1,.515,3.059l-.006.167-.01.163a.51.51,0,0,1,.059.255.713.713,0,0,1-.118.388,6.687,6.687,0,0,1-.637,2.119.618.618,0,0,1-.56.317.68.68,0,0,1-.335-.084.665.665,0,0,1-.235-.894c.039-.076.078-.157.114-.239.059-.143.106-.29.155-.441l-.131.074a5.643,5.643,0,0,1-.815.129,5.09,5.09,0,0,1-.545.024c-.169,0-.335,0-.5-.014a16.921,16.921,0,0,1-1.987-.245l-.764-.139c-.447-.076-.892-.157-1.343-.22a10.057,10.057,0,0,0-1.184-.063c-.792,0-1.587.073-2.268.141-.743.076-1.484.171-2.23.267-.719.09-1.364.174-2.017.249a31.919,31.919,0,0,1-3.679.239c-.21,0-.425,0-.637-.01a14.711,14.711,0,0,1-1.9-.2,8.236,8.236,0,0,1-1.817-.551,6.635,6.635,0,0,1-1.611-1.06,4.53,4.53,0,0,1-1.337-1.77,3.122,3.122,0,0,1-.188-.8,2.532,2.532,0,0,1,.051-.751,2.666,2.666,0,0,1,.263-.729,3.633,3.633,0,0,1,.533-.757,5.735,5.735,0,0,1,1.307-1.076,9.925,9.925,0,0,1,1.752-.845c.265-.1.539-.186.815-.265a4.8,4.8,0,0,1,.819-.172c.049,0,.1-.008.149-.008a1.786,1.786,0,0,1,.741.172c.11.049.212.1.316.157a3.6,3.6,0,0,1,.435-.464,5.074,5.074,0,0,1,2.656-1.229,4.564,4.564,0,0,1,.678-.047,3.834,3.834,0,0,1,1.45.269l-.076-.392-.049-.349a34.447,34.447,0,0,1-.314-6.375,16.191,16.191,0,0,1,1.246-5.883,7.333,7.333,0,0,1,1.458-2.13,5.57,5.57,0,0,1,2.187-1.313,5.943,5.943,0,0,1,1.768-.265" transform="translate(-223.936 -291.451)" fill="#5f4432"/>
        <path id="Trazado_50849" data-name="Trazado 50849" d="M265.376,302.987c.22,0,.445.006.666.016a10.09,10.09,0,0,1,7.034,3.161,11.731,11.731,0,0,1,2.021,3.385,18.384,18.384,0,0,1,1.1,3.961,31.572,31.572,0,0,1,.129,8.86,57.743,57.743,0,0,1-1.7,8.866c-.337,1.26-.721,2.542-1.176,3.924l-.082.243c-.227.686-.457,1.376-.733,2.04-.451,1.088-.984,2.122-1.533,3.173-.766,1.46-1.607,2.94-2.571,4.521-1.045,1.719-2.162,3.4-3.32,5a42.41,42.41,0,0,1-3.728,4.531,18.477,18.477,0,0,1-3.9,3.251,6.983,6.983,0,0,1-3.52,1.123c-.116,0-.231,0-.345-.012a4.694,4.694,0,0,1-1.893-.551,5.72,5.72,0,0,1-1.682-1.44,10.263,10.263,0,0,1-1.407-2.313,11.149,11.149,0,0,1-.972-3.935,21.753,21.753,0,0,1,.176-4.566,46.809,46.809,0,0,1,.884-4.741c.243-1.054.513-2.1.782-3.153l.325-1.274c.259-1.007.492-2.021.725-3.036.137-.588.272-1.174.412-1.76.394-1.648.807-3.294,1.221-4.943l.49-1.95c.294-1.186.584-2.377.862-3.569.167-.7.321-1.407.476-2.111l.308-1.39a72.738,72.738,0,0,1,3.826-12.315.641.641,0,0,1,.206-.849,11.929,11.929,0,0,1,6.92-2.15" transform="translate(-218.012 -280.378)" fill="#ef9e37"/>
        <path id="Trazado_50850" data-name="Trazado 50850" d="M245.662,301.16h.122a8.371,8.371,0,0,1,1.47.137,7.431,7.431,0,0,1,1.556.482,8.536,8.536,0,0,1,2.5,1.68,14.624,14.624,0,0,1,1.2,1.276.6.6,0,0,1,.239-.055.651.651,0,0,1,.611.441c.127.392.251.786.363,1.182.441.6.864,1.211,1.292,1.825l.535.77a.587.587,0,0,1,.1.453.666.666,0,0,1-.28.433.618.618,0,0,1-.343.1.667.667,0,0,1-.543-.29,45.249,45.249,0,0,1,.784,6.955c.09,2,.071,4,.039,5.878-.041,2.109-.118,4.078-.229,6.026a112.358,112.358,0,0,1-1.325,11.973c-.288,1.732-.668,3.6-1.166,5.723l-.123.527c-.253,1.074-.513,2.189-.839,3.265-.633,2.1-1.77,5.05-4.339,6.4a8.309,8.309,0,0,1-2.332.809,6.978,6.978,0,0,1-1.066.118l-.174,0a7.257,7.257,0,0,1-.925-.073,6.482,6.482,0,0,1-3.475-1.846,12.985,12.985,0,0,1-2.595-3.837,29.378,29.378,0,0,1-1.805-5.052,56.053,56.053,0,0,1-1.217-5.776,90.425,90.425,0,0,1-1.052-10.773c-.061-1.37-.088-2.567-.084-3.667.01-1.429.09-2.871.18-4.349a57.966,57.966,0,0,1,.839-7.267,25.7,25.7,0,0,1,2.236-6.983,15.4,15.4,0,0,1,1.566-2.45,11.313,11.313,0,0,1,2.013-1.97,9.957,9.957,0,0,1,2.507-1.364,11.516,11.516,0,0,1,1.8-.494,10.846,10.846,0,0,1,1.964-.218" transform="translate(-232.555 -282.132)" fill="#ef9e37"/>
        <path id="Trazado_50851" data-name="Trazado 50851" d="M255.321,301.5a26.172,26.172,0,0,1,3.5.259,25.643,25.643,0,0,1,3.13.655,1.576,1.576,0,0,1,.19.018,13.742,13.742,0,0,1,3.3.845,12.27,12.27,0,0,1,2.754,1.531,12.858,12.858,0,0,1,2.222,2.119,16.649,16.649,0,0,1,2.977,5.544,26.275,26.275,0,0,1,1.221,6.656,34.6,34.6,0,0,1-1.525,12.378c-.4,1.292-.882,2.665-1.548,4.457-.727,1.919-1.505,3.806-2.315,5.615a64.084,64.084,0,0,1-6.575,11.714,25.945,25.945,0,0,1-4.027,4.472,12.173,12.173,0,0,1-4.476,2.587,7.837,7.837,0,0,1-2.183.317l-.178,0a7.7,7.7,0,0,1-2.469-.492,11.283,11.283,0,0,1-5.25-4.382,18.357,18.357,0,0,1-1.9-3.737,30.144,30.144,0,0,1-1.246-4.143c-.6-2.571-.964-5.235-1.313-7.812l-.094-.686c-1.056-7.763-1.9-15.336-.6-22.687a22.914,22.914,0,0,1,2.9-8.108,14.831,14.831,0,0,1,5.031-4.986,16.156,16.156,0,0,1,7.447-2.1c.343-.018.686-.027,1.031-.027" transform="translate(-227.082 -281.805)" fill="#ffb345"/>
        <path id="Trazado_50852" data-name="Trazado 50852" d="M256.2,304.678a.656.656,0,0,0-.245-.047.663.663,0,0,0-.245.047.628.628,0,0,0-.327.829c.074.243.149.49.219.741a40.269,40.269,0,0,1,1.433,10.318V316.4a51.8,51.8,0,0,1-1.746,13.474c.01-.039.02-.074.029-.11-.01.043-.022.082-.033.123l-.012.043.012-.035a63.112,63.112,0,0,1-3.967,10.767.626.626,0,1,0,1.156.48,62.435,62.435,0,0,0,3.412-8.805,57.053,57.053,0,0,0,1.981-9.084,47.723,47.723,0,0,0,.323-9.237,39.906,39.906,0,0,0-.582-4.68,38.373,38.373,0,0,0-1.076-4.323.585.585,0,0,0-.333-.335m-.911,25.2,0,.022v-.008Z" transform="translate(-214.597 -278.8)" fill="#ef9e37"/>
        <path id="Trazado_50853" data-name="Trazado 50853" d="M251.715,324.186a.635.635,0,0,1,.127.464.646.646,0,0,1-.235.417.686.686,0,0,1-.466.127.6.6,0,0,1-.417-.235.631.631,0,0,1,.108-.882.686.686,0,0,1,.466-.127.6.6,0,0,1,.417.235" transform="translate(-215.243 -260.257)" fill="#ef9e37"/>
        <path id="Trazado_50854" data-name="Trazado 50854" d="M252.765,325.768a.621.621,0,0,0-.239-.049.655.655,0,0,0-.582.388c-.157.329-.323.653-.5.976a15.908,15.908,0,0,1-2.375,3.132l.029-.027-.033.033-.047.047.033-.033a18.016,18.016,0,0,1-1.6,1.388.626.626,0,0,0-.112.876.634.634,0,0,0,.882.114,16.283,16.283,0,0,0,2.877-2.789,16.743,16.743,0,0,0,2-3.236.629.629,0,0,0-.337-.819m-1.335,1.342-.045.08c.016-.027.029-.057.045-.08m-2.366,3.11,0-.006-.018.02.014-.014" transform="translate(-218.49 -258.56)" fill="#ef9e37"/>
        <path id="Trazado_50855" data-name="Trazado 50855" d="M254.58,309.561a.616.616,0,0,0-.625-.537.582.582,0,0,0-.084.006.639.639,0,0,0-.412.245.68.68,0,0,0-.12.466c.029.555.049,1.1.059,1.656v-.165a33.761,33.761,0,0,1-.268,4.621,39.031,39.031,0,0,1-.882,4.521l.014-.065c-.216.8-.457,1.6-.715,2.387a.64.64,0,0,0,.349.819.629.629,0,0,0,.813-.349,38.042,38.042,0,0,0,1.607-6.7,35.653,35.653,0,0,0,.265-6.9m-2.318,10.75.024-.092-.024.092" transform="translate(-214.363 -274.584)" fill="#ef9e37"/>
        <path id="Trazado_50856" data-name="Trazado 50856" d="M242.453,306.462a.637.637,0,0,1,.341.819q-.315.994-.586,2c.014-.055.027-.1.043-.157a40.041,40.041,0,0,0-1.025,5.646,49.562,49.562,0,0,0-.274,5.956l0-.049c.1,7.206,1.427,14.309,2.446,21.423a.627.627,0,1,1-1.241.182c-.853-5.94-1.913-11.853-2.3-17.85a59.769,59.769,0,0,1,.039-8.905,39.3,39.3,0,0,1,1.746-8.717.6.6,0,0,1,.588-.392.654.654,0,0,1,.231.043" transform="translate(-225.695 -277.084)" fill="#ffca74"/>
        <path id="Trazado_50857" data-name="Trazado 50857" d="M242.059,312.477a.633.633,0,0,1,.545.7q-.121,1.984-.1,3.974v-.167a53.163,53.163,0,0,0,.431,6.191.629.629,0,0,1-1.244.182,55.558,55.558,0,0,1-.329-10.338.632.632,0,0,1,.633-.549c.022,0,.045,0,.069,0" transform="translate(-224.205 -271.274)" fill="#ffca74"/>
        <path id="Trazado_50858" data-name="Trazado 50858" d="M242.592,326.4a25.067,25.067,0,0,0,.686,3.3l-.027-.09.045.159a.692.692,0,0,1,.006.49.621.621,0,0,1-.813.345.6.6,0,0,1-.343-.329,27.153,27.153,0,0,1-.8-3.69.639.639,0,0,1,.535-.713.662.662,0,0,1,.086-.006.64.64,0,0,1,.625.537" transform="translate(-224.122 -258.418)" fill="#ffca74"/>
        <path id="Trazado_50859" data-name="Trazado 50859" d="M261.918,305.935a.652.652,0,0,0-.417-.153l-.039,0a.633.633,0,0,0-.578.676,59.2,59.2,0,0,1,.909,13.088,40.785,40.785,0,0,1-.625,5.135,41.6,41.6,0,0,1-1.352,5.227c.02-.049.033-.1.053-.153a45.411,45.411,0,0,1-2.152,5.25.631.631,0,0,0,.29.839.639.639,0,0,0,.839-.294,42.467,42.467,0,0,0,2.777-7.287,40.212,40.212,0,0,0,1.3-7.122,48.813,48.813,0,0,0,.106-7.222,70.036,70.036,0,0,0-.9-7.559.654.654,0,0,0-.216-.427m-.118,13.491,0,.071,0-.071" transform="translate(-208.465 -277.696)" fill="#df9332"/>
        <path id="Trazado_50860" data-name="Trazado 50860" d="M263.588,315.385a.486.486,0,0,0-.106-.01.623.623,0,0,0-.631.51,39.886,39.886,0,0,1-1.881,8.692c.02-.053.035-.1.053-.157a49.461,49.461,0,0,1-5.476,11.242l.057-.09c-.878,1.333-1.813,2.62-2.816,3.861a.63.63,0,0,0,.956.819,49.742,49.742,0,0,0,6.932-11.443,42.263,42.263,0,0,0,3.408-12.688.665.665,0,0,0-.1-.474.65.65,0,0,0-.4-.261M255.6,335.571l.031-.047-.031.047" transform="translate(-213.277 -268.488)" fill="#df9332"/>
        <path id="Trazado_50861" data-name="Trazado 50861" d="M241.576,303.569a.644.644,0,0,0-.417-.153l-.039,0a.594.594,0,0,0-.425.219,18,18,0,0,0-2.073,3.951,25.431,25.431,0,0,0-1.2,4.4,46.845,46.845,0,0,0-.629,8.868.628.628,0,0,0,1.252-.092c-.016-1.344,0-2.691.078-4.029a31.7,31.7,0,0,1,1.372-7.867l-.006.018a18.61,18.61,0,0,1,1.993-4.192l.165-.241A.678.678,0,0,0,241.8,304a.625.625,0,0,0-.22-.427m-2.04,5.162-.029.088.029-.088" transform="translate(-228.494 -279.967)" fill="#df9332"/>
        <path id="Trazado_50862" data-name="Trazado 50862" d="M236.435,309.25a.671.671,0,0,0-.108-.01.622.622,0,0,0-.627.5,42.36,42.36,0,0,0,.827,14.595.644.644,0,0,0,.319.355.677.677,0,0,0,.484.023.651.651,0,0,0,.355-.319.7.7,0,0,0,.023-.484c-.059-.253-.116-.506-.171-.756l.008.055-.029-.153,0-.014,0,0a42.61,42.61,0,0,1-.794-10.708c.047-.788.114-1.572.208-2.356a.638.638,0,0,0-.494-.735m.282,3.14,0,.057,0-.057m.821,10.767a1.052,1.052,0,0,0-.024-.108l0,.01c.006.033.014.067.022.1" transform="translate(-229.814 -274.377)" fill="#df9332"/>
        <path id="Trazado_50863" data-name="Trazado 50863" d="M237.721,313.837a.623.623,0,0,1,.221.427.631.631,0,0,1-.578.676.647.647,0,0,1-.457-.153.621.621,0,0,1-.22-.425.629.629,0,0,1,.578-.678.642.642,0,0,1,.455.153" transform="translate(-228.589 -270.111)" fill="#df9332"/>
      </g>
    </g>
    <g id="Grupo_24055" data-name="Grupo 24055" transform="translate(663 1177)">
      <g id="Grupo_24051" data-name="Grupo 24051" transform="translate(0 43.038)">
        <g id="Grupo_24050" data-name="Grupo 24050">
          <path id="Trazado_50864" data-name="Trazado 50864" d="M13.665,297.86s28.286-26.4,35.828-30.407c0,0,18.857-14.379,31.116-5.658,0,0,9.194,6.366,14.614,6.128a112.274,112.274,0,0,0,24.515-2.356s7.3-.943,8.954,3.535l-72.6,33.47s-39.13,26.873-42.43,42.9Z" transform="translate(-13.665 -236.051)" fill="#eeac6d"/>
          <path id="Trazado_50865" data-name="Trazado 50865" d="M35.7,313.806s30.642-8.484,64.347-5.891c0,0,5.893-.237,16.031-8.958,0,0,18.152-4.321,27.892-13.121,0,0,28.286-16.657,30.015-17.286,0,0-2.358-5.815-11.157-3.773,0,0,5.97-5.972,8.8-12.255,0,0,.47-4.715-4.715-4.245,0,0-7.541.159-14.769,13.515a30.972,30.972,0,0,1-3.614,2.673s6.757-9.9,5.97-15.4c0,0-4.872-6.444-11.786,5.186,0,0-8.327,12.257-12.1,15.085,0,0,1.572-10.685,1.887-11.314,0,0-5.66-6.285-13.2,14.614,0,0-7.543,3.3-11,7.7L34.914,302.805Z" transform="translate(6.73 -247.284)" fill="#eeac6d"/>
          <path id="Trazado_50866" data-name="Trazado 50866" d="M107.038,269.459s.316-7.228-22.628-1.885a27.918,27.918,0,0,1-22-4.4s-14.066-9.143-26.185-.627C36.226,262.547,58.954,277.787,107.038,269.459Z" transform="translate(7.99 -236.117)" fill="#dc8345"/>
          <path id="Trazado_50867" data-name="Trazado 50867" d="M118.132,247.284,97.389,277.457,86.232,288.926,68.474,296.94l16.5-9.429L95.817,276.2s1.011-1.519,2.583-6.861c0,0,8.1-10.109,9.676-12.151C108.076,257.185,113.485,247.284,118.132,247.284Z" transform="translate(38.942 -247.284)" fill="#dc8345"/>
          <path id="Trazado_50868" data-name="Trazado 50868" d="M74.619,296.482l18.542-9.429,20.9-16.027,16.721-23.1s-7.835-2.714-17.192,13.668l-3.173,2.411s-5.47,9.689-7.986,12.2c0,0-6.83,6.128-10.215,9.585Z" transform="translate(44.84 -246.826)" fill="#dc8345"/>
          <path id="Trazado_50869" data-name="Trazado 50869" d="M117.951,257.22l-18.364,13.2-9.429,6.6,7.808-7.23s8.082-5.6,11.835-13.227A8.848,8.848,0,0,1,117.951,257.22Z" transform="translate(59.756 -239.064)" fill="#dc8345"/>
          <path id="Trazado_50870" data-name="Trazado 50870" d="M13.665,330.613v-24.8l41.644-29.1s17.756-7.569,65.133,5.109c0,0-44.782.288-64.347,5.891C56.1,287.712,15.55,316.522,13.665,330.613Z" transform="translate(-13.665 -221.19)" fill="#d89761"/>
        </g>
      </g>
      <g id="Grupo_24054" data-name="Grupo 24054" transform="translate(48.378)">
        <path id="Trazado_50871" data-name="Trazado 50871" d="M75.39,246.707s12.155,4.962,16.239,2.707c0,0-7.6-2.1-7.422-6.111S75.39,246.707,75.39,246.707Z" transform="translate(-2.797 -209.211)" fill="#a9a9aa"/>
        <path id="Trazado_50872" data-name="Trazado 50872" d="M87.26,248.169s-.147-.016-.4-.057-.617-.106-1.045-.214-.927-.245-1.446-.433a12.67,12.67,0,0,1-1.591-.692c-.261-.139-.519-.286-.764-.445a8.078,8.078,0,0,1-.7-.5c-.108-.088-.212-.176-.312-.267l-.282-.274-.249-.274-.218-.272a4.371,4.371,0,0,1-.327-.51,4.469,4.469,0,0,1-.206-.419c-.051-.118-.078-.216-.1-.28l-.035-.1s.063.133.178.361a4.078,4.078,0,0,0,.239.392c.1.149.221.306.355.476l.227.251.257.255.288.253.312.249c.218.163.449.321.692.472s.494.294.751.429a15.312,15.312,0,0,0,1.556.706c.508.2.99.37,1.409.5s.77.235,1.019.3Z" transform="translate(1.231 -207.945)" fill="#88898c"/>
        <path id="Trazado_50873" data-name="Trazado 50873" d="M78.9,243.677s.1.122.282.319a11.1,11.1,0,0,0,.8.776c.169.159.366.31.57.478s.433.329.672.488.484.327.749.476.529.3.8.435c.269.153.559.255.833.38s.561.208.831.31.543.159.8.235a6.433,6.433,0,0,0,.725.167c.227.039.433.1.619.12l.484.063.421.061-.425-.016-.49-.022a5.64,5.64,0,0,1-.633-.076,6.906,6.906,0,0,1-.743-.129c-.259-.067-.539-.112-.817-.206s-.57-.174-.853-.3-.578-.229-.853-.38-.555-.286-.815-.453-.512-.331-.751-.5-.453-.355-.66-.523-.39-.345-.553-.513-.312-.321-.435-.464-.229-.272-.314-.378A4.121,4.121,0,0,1,78.9,243.677Z" transform="translate(0.572 -207.708)" fill="#88898c"/>
        <path id="Trazado_50874" data-name="Trazado 50874" d="M78.186,243.952s.131.114.374.3c.118.1.268.2.439.329s.367.261.586.4l.337.225.37.225c.253.161.535.3.813.466s.584.308.894.451.621.29.949.4l.482.188c.163.059.327.106.488.161s.323.106.484.151l.478.116.464.11.451.078.427.074c.139.023.274.027.4.041l.707.063.547,0,.48.008-.478.037-.551.037c-.214,0-.453-.008-.715-.02-.131-.006-.27-.006-.41-.022l-.437-.055-.461-.059c-.157-.024-.312-.067-.474-.1l-.488-.112c-.165-.043-.327-.1-.494-.145s-.333-.1-.5-.155l-.492-.186c-.331-.12-.643-.282-.958-.423s-.609-.314-.9-.47-.559-.325-.805-.5l-.363-.245-.331-.241c-.216-.151-.4-.31-.562-.441s-.3-.259-.415-.365C78.3,244.081,78.186,243.952,78.186,243.952Z" transform="translate(-0.114 -207.444)" fill="#88898c"/>
        <path id="Trazado_50875" data-name="Trazado 50875" d="M77.526,244.254s.141.131.4.337c.131.1.288.227.48.357l.3.21.345.218c.237.157.51.3.792.461.294.141.594.308.921.445l.494.218.519.19c.345.141.713.227,1.074.339s.735.178,1.1.268c.366.067.729.116,1.08.172l1.017.1.241.022.233,0,.443.008c.284,0,.547.02.778,0l.6-.029.525-.023-.521.069-.6.073a6.668,6.668,0,0,1-.78.043l-.449.014-.235.006-.243-.012c-.327-.018-.676-.025-1.033-.063-.357-.053-.725-.1-1.1-.161-.368-.086-.747-.151-1.115-.257s-.739-.214-1.088-.361l-.525-.2-.5-.227c-.331-.139-.627-.325-.919-.48-.278-.174-.549-.329-.782-.5l-.337-.237-.29-.229c-.184-.145-.333-.282-.459-.392A5.154,5.154,0,0,1,77.526,244.254Z" transform="translate(-0.747 -207.155)" fill="#88898c"/>
        <path id="Trazado_50876" data-name="Trazado 50876" d="M72.94,233.077s9.517-6.94,13.576-6.634c0,0-9.3,5.979-3.753,9.646S72.94,233.077,72.94,233.077Z" transform="translate(-5.149 -224.26)" fill="#a9a9aa"/>
        <path id="Trazado_50877" data-name="Trazado 50877" d="M73.3,233.356s.178-.139.5-.376.778-.576,1.339-.962,1.217-.839,1.934-1.3,1.491-.943,2.273-1.407c.4-.223.788-.457,1.186-.666s.78-.427,1.164-.615l.561-.282.549-.249.521-.235.5-.2.457-.178.423-.133a6.4,6.4,0,0,1,.692-.194l.613-.121-.6.167a6.354,6.354,0,0,0-.676.231l-.41.155-.447.2-.486.212-.51.251c-.351.169-.713.361-1.09.559s-.762.408-1.15.625-.78.451-1.174.678c-.784.453-1.56.925-2.283,1.376l-1.041.651-.927.588Z" transform="translate(-4.807 -224.255)" fill="#88898c"/>
        <path id="Trazado_50878" data-name="Trazado 50878" d="M74.051,234.45s.139-.159.392-.427.615-.649,1.068-1.088.982-.952,1.572-1.476c.3-.259.6-.533.921-.8s.639-.539.97-.8.666-.515,1-.758.672-.476,1-.7.659-.415.966-.608.619-.337.9-.492a7.843,7.843,0,0,1,.782-.363l.331-.141.292-.1.551-.172-.535.216-.282.112-.319.161c-.225.121-.49.235-.758.4s-.572.318-.868.521-.623.4-.941.629-.657.455-.982.707-.664.5-.99.766-.657.519-.974.782-.627.529-.927.782l-.858.743-.758.676c-.464.425-.858.774-1.125,1.027Z" transform="translate(-4.082 -224.163)" fill="#88898c"/>
        <path id="Trazado_50879" data-name="Trazado 50879" d="M75.123,234.637s.1-.169.278-.453.447-.688.788-1.156.747-1.011,1.213-1.568.984-1.133,1.531-1.682c.278-.27.559-.539.847-.79s.574-.494.86-.717a11.652,11.652,0,0,1,1.666-1.086,6.379,6.379,0,0,1,.719-.337c.218-.094.414-.155.574-.208s.294-.076.38-.1l.135-.033-.131.045c-.086.033-.214.069-.368.133s-.347.137-.555.243c-.106.051-.218.106-.331.171s-.239.125-.361.2a13.459,13.459,0,0,0-1.6,1.131c-.28.225-.562.464-.841.721s-.555.521-.827.792c-.549.537-1.068,1.1-1.54,1.648s-.907,1.06-1.264,1.515-.655.833-.854,1.1Z" transform="translate(-3.054 -224.19)" fill="#88898c"/>
        <path id="Trazado_50880" data-name="Trazado 50880" d="M76.373,234.722l.02-.116c.014-.076.031-.188.061-.327.061-.28.151-.682.3-1.152a13.622,13.622,0,0,1,.606-1.572,11.759,11.759,0,0,1,.958-1.683,9.672,9.672,0,0,1,1.256-1.48,8.144,8.144,0,0,1,1.339-1.031,7.141,7.141,0,0,1,1.066-.535c.131-.055.239-.092.312-.116l.112-.039s-.151.067-.406.2a8.5,8.5,0,0,0-1.011.6A9.879,9.879,0,0,0,78.511,230a13.361,13.361,0,0,0-.964,1.64,15.253,15.253,0,0,0-.668,1.527c-.171.459-.3.845-.38,1.119S76.373,234.722,76.373,234.722Z" transform="translate(-1.854 -224.031)" fill="#88898c"/>
        <path id="Trazado_50881" data-name="Trazado 50881" d="M57.862,233.181s6.111-6.722,8.9-7.857a2.789,2.789,0,0,0,1.266.917c.7.174.174.872.786,1.135s.48,1.309.96,1.266.829.741,1.354.917,1.092.96,2.052.786.3.741,2.575.609a2.846,2.846,0,0,0,2.007.394,1.756,1.756,0,0,0,1.572.829s.523.48.829.48S61.878,238.768,57.862,233.181Z" transform="translate(-19.621 -225.324)" fill="#a9a9aa"/>
        <path id="Trazado_50882" data-name="Trazado 50882" d="M58.268,233.5s.415-.588,1.1-1.423c.339-.419.743-.9,1.188-1.407.223-.251.451-.515.69-.774s.486-.521.729-.786l.749-.768c.245-.253.5-.492.741-.727.488-.464.958-.886,1.378-1.229.208-.172.4-.325.584-.455a5.261,5.261,0,0,1,.474-.317,2.064,2.064,0,0,1,.327-.171l.122-.045a2.308,2.308,0,0,0-.4.29c-.12.1-.257.231-.414.38s-.329.325-.517.515c-.374.382-.805.835-1.266,1.321l-1.442,1.527-.739.772-.719.745c-.466.482-.907.929-1.29,1.307C58.8,233.012,58.268,233.5,58.268,233.5Z" transform="translate(-19.231 -225.257)" fill="#88898c"/>
        <path id="Trazado_50883" data-name="Trazado 50883" d="M66.877,225.875l-1.235,1.052-1.254,1.082-.7.613c-.235.212-.478.423-.713.643s-.482.429-.707.651-.463.425-.674.641-.429.41-.621.609-.386.376-.549.555-.321.337-.459.478l-.345.376c-.194.208-.308.325-.308.325s.082-.141.233-.382c.076-.12.167-.27.28-.433s.247-.343.394-.539.317-.4.5-.615.376-.437.584-.66.425-.455.657-.678.468-.447.706-.672.492-.427.733-.639.494-.4.735-.59c.482-.374.945-.708,1.352-.976A14.239,14.239,0,0,1,66.877,225.875Z" transform="translate(-18.229 -224.795)" fill="#88898c"/>
        <path id="Trazado_50884" data-name="Trazado 50884" d="M66.868,226.52s-.439.347-1.1.866l-.525.419-.584.474c-.4.335-.829.682-1.241,1.052-.212.18-.419.361-.619.549-.1.092-.2.182-.3.27l-.288.27c-.19.178-.372.349-.541.517s-.335.323-.478.474-.28.284-.4.406l-.3.321c-.171.176-.272.276-.272.276s.071-.123.2-.333l.237-.378c.1-.139.21-.3.337-.466s.269-.351.425-.535l.241-.286c.082-.1.174-.188.265-.286.18-.192.366-.394.572-.58s.408-.384.619-.57.433-.361.647-.537.439-.331.651-.49c.431-.306.843-.576,1.207-.788A9.9,9.9,0,0,1,66.868,226.52Z" transform="translate(-17.36 -224.176)" fill="#88898c"/>
        <path id="Trazado_50885" data-name="Trazado 50885" d="M66.9,227.042s-.357.353-.907.853c-.272.253-.6.541-.939.851l-.531.476c-.184.159-.365.327-.547.492-.368.327-.725.664-1.066.974-.165.163-.329.314-.484.457s-.292.29-.425.417c-.257.265-.48.48-.623.643s-.237.249-.237.249.055-.11.163-.3a3.687,3.687,0,0,1,.2-.339c.084-.127.178-.272.29-.423s.237-.312.374-.478.288-.337.447-.51.325-.351.5-.519.357-.345.543-.512.376-.329.564-.486.378-.308.562-.451.368-.276.541-.4.343-.239.5-.343A11.46,11.46,0,0,1,66.9,227.042Z" transform="translate(-16.476 -223.675)" fill="#88898c"/>
        <path id="Trazado_50886" data-name="Trazado 50886" d="M66.642,227.485s-.067.061-.186.161-.265.268-.453.441c-.094.09-.2.174-.3.288s-.21.223-.327.335c-.229.231-.478.468-.735.7-.127.116-.243.245-.366.363s-.247.235-.363.347c-.239.223-.466.425-.67.592a8.328,8.328,0,0,1-.7.537,8.567,8.567,0,0,1,.508-.721c.161-.21.355-.447.572-.7.11-.123.218-.253.337-.38s.233-.257.361-.378c.263-.235.533-.464.792-.67.125-.108.255-.2.374-.294a2.44,2.44,0,0,1,.363-.237c.233-.137.427-.243.566-.308S66.642,227.485,66.642,227.485Z" transform="translate(-15.131 -223.25)" fill="#88898c"/>
        <path id="Trazado_50887" data-name="Trazado 50887" d="M67.9,227.894s-.073.033-.19.1-.284.159-.482.263c-.1.059-.2.122-.314.182s-.225.137-.347.208l-.368.22c-.122.082-.247.163-.374.243s-.257.149-.376.235-.243.163-.359.241-.235.147-.345.214-.208.145-.3.206a6.654,6.654,0,0,1-.662.394,6.33,6.33,0,0,1,.49-.6c.078-.086.163-.182.257-.274s.2-.18.317-.272.225-.19.347-.282.257-.171.384-.257l.4-.239c.135-.073.274-.131.406-.194a4.836,4.836,0,0,1,.749-.272,3.069,3.069,0,0,1,.314-.069,1.67,1.67,0,0,1,.245-.035A1.573,1.573,0,0,1,67.9,227.894Z" transform="translate(-13.945 -222.857)" fill="#88898c"/>
        <path id="Trazado_50888" data-name="Trazado 50888" d="M68.421,228.2l-.123.112c-.08.069-.192.165-.329.274s-.294.235-.466.361c-.09.059-.172.135-.263.2s-.182.131-.274.2-.178.139-.268.2-.186.123-.265.194-.161.129-.239.188-.159.11-.223.165a4.348,4.348,0,0,1-.463.365,3.414,3.414,0,0,1,.265-.543,1.824,1.824,0,0,1,.176-.233c.065-.08.135-.167.212-.249a3.258,3.258,0,0,1,.253-.237c.088-.076.182-.153.276-.227a5.571,5.571,0,0,1,.594-.37,4.1,4.1,0,0,1,.557-.247A2.555,2.555,0,0,1,68.421,228.2Z" transform="translate(-12.283 -222.566)" fill="#88898c"/>
        <path id="Trazado_50889" data-name="Trazado 50889" d="M69.295,228.4s-.153.188-.4.431c-.12.123-.265.263-.419.408s-.321.3-.486.449-.331.3-.488.439c-.073.074-.147.141-.219.206s-.131.131-.2.19c-.114.122-.221.22-.286.3s-.114.118-.114.118.008-.059.031-.161a1.162,1.162,0,0,1,.055-.184c.027-.067.055-.147.1-.227a3.1,3.1,0,0,1,.331-.515c.073-.084.141-.178.223-.261s.165-.171.253-.247a4.507,4.507,0,0,1,.545-.425c.088-.065.182-.116.269-.169s.172-.094.251-.135A2.9,2.9,0,0,1,69.295,228.4Z" transform="translate(-11.15 -222.374)" fill="#88898c"/>
        <path id="Trazado_50890" data-name="Trazado 50890" d="M44.812,238.921s-6.873-.974-6.44-.029,6.691,2.03,6.691,2.03Z" transform="translate(-38.347 -212.697)" fill="#75666b"/>
        <g id="Grupo_24052" data-name="Grupo 24052" transform="translate(112.446 7.625)">
          <path id="Trazado_50891" data-name="Trazado 50891" d="M103.189,247.01v-1.966c2.138-12.221,10.693-15.494,10.693-15.494-.1-.053-.2-.1-.3-.143-1.088-.135-2.936.21-5.805,2.395-5.256,4.006-8.731,11.494-8.537,13.507,0,0-.11,15.49,11.722,17.719C104.455,259.274,103.189,247.01,103.189,247.01Z" transform="translate(-92.363 -229.055)" fill="#a9a9aa"/>
          <path id="Trazado_50892" data-name="Trazado 50892" d="M95.774,237.778a.313.313,0,0,0-.049.08Z" transform="translate(-95.725 -220.995)" fill="#a59797"/>
          <path id="Trazado_50893" data-name="Trazado 50893" d="M102.574,245.468c-.194-2.013,3.281-9.5,8.537-13.507,2.869-2.185,4.717-2.53,5.805-2.395-5.9-2.507-13.64,9.158-14.8,10.53a45.683,45.683,0,0,1-5.456,4.41L95.75,246c.245-.3,1.548-.87,6.848,8.547,6.068,10.783,11.7,8.643,11.7,8.643C102.464,260.959,102.574,245.468,102.574,245.468Z" transform="translate(-95.701 -229.215)" fill="#868687"/>
        </g>
        <path id="Trazado_50894" data-name="Trazado 50894" d="M80.914,232.534s1.7-.437,2.181-.611.96,1.658,1.789,2.052,2.663-.525,2.663-.525a5.891,5.891,0,0,0,1.484,2.1c.831.568,2.926-.48,2.926-.48s.655,1.966,1.44,2.315,2.269-.829,2.269-.829a7.016,7.016,0,0,0,1.44,1.964c.655.437,2.224-.874,2.224-.874s.568,1.615,1.442,1.921,2.356-.786,2.356-.786-.086,1.44.7,1.791,2.313-.655,2.313-.655a1.128,1.128,0,0,0,.568,1.309,3.4,3.4,0,0,0,2.7-.263c.306-.263.874.786.874.786l.263,1.789a12.636,12.636,0,0,0-.786,1.484c-.174.48-1.049-.566-1.049-.566s-2.138.48-2.269,1.484c0,0-1.484-1.221-2.4-1.092a6.734,6.734,0,0,0-.786,2.009s-1.4-1.18-2.052-1.18-1,1.834-.915,2.271-1.529-.917-2.271-.917c0,0-1.615,1.615-1.4,2.226l-1.791-.917s-1.964.874-1.352,2.1a3.13,3.13,0,0,1-2.269-.392s-1.615,1.615-1.484,2.138-1.966-1.223-1.966-1.223l-1.876,2.271-2.1-.786Z" transform="translate(2.505 -219.002)" fill="#ac9535"/>
        <g id="Grupo_24053" data-name="Grupo 24053" transform="translate(0 6.406)">
          <path id="Trazado_50895" data-name="Trazado 50895" d="M148.132,241.573c-1.527.306-12.4-2.489-17.329-4.016s-13.356.263-15.931.218-10.475-1.964-14.8-3.187-26.409-.872-27.543-.261-4.715.829-6.765,1.572-8.643.261-10.609.086a12.3,12.3,0,0,0-5.237,1.092c-1.092.437-2.009.088-3.581.48a6.464,6.464,0,0,1-3.49.174,6.673,6.673,0,0,0-1.617-.108c-1.476.7-2.373,1.4-1.6,1.852,1.07.621,4.872,4.8,4.872,4.8l-6.134-.864c-.931,3.73,25.17,12.817,25.17,12.817,26.9,6.785,47.424,1.748,57.8-3.379,10.948-5.411,28.082-9.787,28.082-9.787s8.39-.933,8.39-1.631a.556.556,0,0,0-.143-.337c-.4.082-.888.159-1.46.261C154.245,241.7,149.661,241.268,148.132,241.573Z" transform="translate(-38.35 -223.623)" fill="#c3c4c6"/>
          <path id="Trazado_50896" data-name="Trazado 50896" d="M151.27,244.654c-3.261-.233-7.224-.584-20.857-5.711s-32.02-13.323-54.95-9.254-33.791,12.137-33.791,12.137c-.66.245-1.3.506-1.852.768a6.673,6.673,0,0,1,1.617.108,6.464,6.464,0,0,0,3.49-.174c1.572-.392,2.489-.043,3.581-.48a12.3,12.3,0,0,1,5.237-1.092c1.966.174,8.557.655,10.609-.086s5.631-.96,6.765-1.572,23.222-.96,27.543.261,12.221,3.144,14.8,3.187,11-1.746,15.931-.218,15.8,4.321,17.329,4.016,6.113.131,8.076-.218c.572-.1,1.058-.178,1.46-.261C155.77,245.46,154.02,244.85,151.27,244.654Z" transform="translate(-36.937 -228.593)" fill="#61636f"/>
        </g>
        <path id="Trazado_50897" data-name="Trazado 50897" d="M56.125,234.826s.284.374.737,1.062,1.078,1.684,1.75,2.926c.337.621.69,1.3,1.029,2.04s.688,1.523,1,2.36a21.573,21.573,0,0,1,.811,2.644,12.116,12.116,0,0,1,.353,2.9,6.727,6.727,0,0,1-.206,1.525l-.012.047-.006.024,0,.012-.008.031-.027.082-.055.165-.055.167c-.02.055-.049.122-.073.18-.053.122-.1.247-.157.363l-.172.337a5.846,5.846,0,0,1-2.015,2.138,7.078,7.078,0,0,1-2.509.966,9.4,9.4,0,0,1-2.346.151,11.576,11.576,0,0,1-3.375-.709c-.388-.143-.682-.284-.882-.378l-.3-.153.325.09c.212.059.525.133.921.219a13.917,13.917,0,0,0,3.314.263c.341-.022.694-.047,1.052-.106a9.4,9.4,0,0,0,1.1-.223,6.793,6.793,0,0,0,2.128-.978,5.139,5.139,0,0,0,.9-.8,5.436,5.436,0,0,0,.694-1.011l.135-.28c.043-.094.074-.186.114-.278.018-.047.037-.088.055-.143l.053-.165.053-.167.025-.084c0,.006.01-.025,0,.01l0-.008,0-.02.008-.037a5.625,5.625,0,0,0,.159-1.248,12.077,12.077,0,0,0-.292-2.632,26.177,26.177,0,0,0-.682-2.552c-.263-.821-.537-1.613-.821-2.358s-.562-1.444-.831-2.089c-.541-1.288-1.011-2.358-1.35-3.1Z" transform="translate(-27.552 -216.204)" fill="#88898c"/>
        <path id="Trazado_50898" data-name="Trazado 50898" d="M53.474,238.331s.165.2.417.586a13.213,13.213,0,0,1,.929,1.656,10.83,10.83,0,0,1,.482,1.188,8.135,8.135,0,0,1,.357,1.4,5.487,5.487,0,0,1,.035,1.587,3.555,3.555,0,0,1-.615,1.582l-.008.012,0,.006c-.006.008.01-.01-.016.02l-.016.02-.031.037-.063.073a1.335,1.335,0,0,1-.137.153,2.9,2.9,0,0,1-.331.3,4.026,4.026,0,0,1-.713.449,5.521,5.521,0,0,1-1.519.457,7.85,7.85,0,0,1-1.442.1,10.629,10.629,0,0,1-1.278-.088,13.173,13.173,0,0,1-1.864-.37c-.441-.123-.686-.216-.686-.216s.259.035.711.078,1.1.094,1.866.106a11.967,11.967,0,0,0,2.581-.216,5.668,5.668,0,0,0,1.329-.455,3.25,3.25,0,0,0,.584-.38,2.75,2.75,0,0,0,.245-.223c.071-.069.178-.21.229-.272a2.878,2.878,0,0,0,.512-1.27,5.44,5.44,0,0,0,.022-1.405,11.93,11.93,0,0,0-.6-2.518c-.251-.727-.5-1.325-.68-1.742S53.474,238.331,53.474,238.331Z" transform="translate(-30.075 -212.84)" fill="#88898c"/>
        <path id="Trazado_50899" data-name="Trazado 50899" d="M55.369,239.8s1.484-3.1,13.836-1.66,16.849,1.18,13.533,2.358-16.851,1.572-18.291,3.144S54.277,241.763,55.369,239.8Z" transform="translate(-22.104 -213.39)" fill="#a9a9aa"/>
        <path id="Trazado_50900" data-name="Trazado 50900" d="M47.423,237.887a2.009,2.009,0,1,1-2.007-2.074A2.041,2.041,0,0,1,47.423,237.887Z" transform="translate(-33.495 -215.255)" fill="#c59b9c"/>
        <circle id="Elipse_1279" data-name="Elipse 1279" cx="1.419" cy="1.419" r="1.419" transform="translate(10.436 21.126)" fill="#67515d"/>
        <path id="Trazado_50901" data-name="Trazado 50901" d="M45.93,238.677a1.973,1.973,0,0,1,.1.308,2.545,2.545,0,0,1,.1.862,1.393,1.393,0,0,1-.163.584.983.983,0,0,1-.545.431,1.511,1.511,0,0,1-.725.035,4.359,4.359,0,0,1-.7-.2,10.58,10.58,0,0,1-2.293-1.237c-.288-.206-.517-.394-.676-.525l-.243-.216.267.184c.171.116.415.278.719.457s.657.384,1.05.578a11.573,11.573,0,0,0,1.254.545,4.434,4.434,0,0,0,.655.184,1.325,1.325,0,0,0,.621-.02.784.784,0,0,0,.445-.321,1.252,1.252,0,0,0,.178-.5,3.216,3.216,0,0,0-.006-.835C45.953,238.793,45.93,238.677,45.93,238.677Z" transform="translate(-36.001 -212.507)" fill="#75666b"/>
        <path id="Trazado_50902" data-name="Trazado 50902" d="M55.991,239.591s.018-.02.059-.047a1.208,1.208,0,0,1,.19-.116,2.4,2.4,0,0,1,.327-.151,4.213,4.213,0,0,1,.459-.161c.172-.059.368-.108.582-.159s.445-.11.694-.153.515-.1.8-.143l.888-.12c.31-.043.633-.063.968-.1s.682-.065,1.037-.08c.713-.035,1.466-.092,2.244-.094.78-.018,1.584-.037,2.4-.018s1.648.016,2.477.051,1.658.055,2.473.11l2.393.155c.776.051,1.523.127,2.232.188s1.382.125,2,.19c1.235.135,2.264.268,2.983.353l1.131.147-1.139-.057c-.723-.043-1.758-.094-3-.176l-4.235-.235-2.389-.116c-.813-.049-1.64-.061-2.467-.094s-1.654-.053-2.467-.067c-.406,0-.809-.022-1.209-.022H64.24c-.774-.008-1.523.018-2.232.031-.355,0-.7.029-1.033.043s-.657.025-.964.055l-.884.074c-.282.022-.547.065-.8.092s-.482.067-.7.108-.412.073-.586.12-.331.08-.463.127a2.538,2.538,0,0,0-.335.12,1.539,1.539,0,0,0-.2.1A.319.319,0,0,0,55.991,239.591Z" transform="translate(-21.417 -212.923)" fill="#88898c"/>
        <path id="Trazado_50903" data-name="Trazado 50903" d="M82.746,239.224l-1.156.022c-.737,0-1.787.023-3.048.022s-2.732,0-4.308-.02l-2.428-.033c-.827-.01-1.672-.037-2.511-.071s-1.678-.069-2.5-.09-1.636-.045-2.422-.051-1.544,0-2.264.024-1.4.059-2.023.106l-.9.088-.805.112c-.251.037-.482.092-.7.133a5.264,5.264,0,0,0-.588.145c-.174.053-.335.09-.468.137l-.337.133-.28.11.27-.133.325-.163c.131-.059.29-.108.463-.17a5.165,5.165,0,0,1,.584-.184c.216-.055.447-.125.7-.178l.8-.163c.286-.043.586-.086.9-.131s.643-.073.982-.11.692-.053,1.054-.08c.723-.043,1.488-.074,2.277-.084s1.607-.012,2.436.01,1.668.045,2.509.076,1.676.071,2.5.086l2.428.073c1.574.049,3.044.106,4.3.163s2.309.118,3.044.155Z" transform="translate(-21.399 -212.594)" fill="#88898c"/>
        <path id="Trazado_50904" data-name="Trazado 50904" d="M56.456,240.466a2.239,2.239,0,0,1,.223-.171,4.551,4.551,0,0,1,.692-.394,8.935,8.935,0,0,1,1.16-.433,10.993,10.993,0,0,1,1.58-.319,14.585,14.585,0,0,1,1.9-.1l2.1.008c1.46,0,3.016,0,4.574,0,3.114.014,6.23.027,8.566.039,1.168,0,2.142.014,2.822-.006.341-.008.609-.014.792-.025s.278-.022.278-.022a9.84,9.84,0,0,1-1.064.139c-.68.057-1.654.131-2.822.18s-2.532.1-3.994.122c-.731.012-1.486.027-2.254.029s-1.546.006-2.324.008l-2.326-.016c-.768-.006-1.523-.025-2.254-.039s-1.437-.039-2.109-.071a16.709,16.709,0,0,0-1.866.018,12.8,12.8,0,0,0-1.562.221,8.229,8.229,0,0,0-1.168.351A4.292,4.292,0,0,0,56.456,240.466Z" transform="translate(-20.971 -212.156)" fill="#88898c"/>
        <path id="Trazado_50905" data-name="Trazado 50905" d="M78.119,239.322s-.325.045-.9.114-1.388.157-2.367.251c-.49.049-1.023.1-1.586.135l-1.772.125c-.615.041-1.25.086-1.9.094l-1.966.049-.494.008-.494-.012c-.325-.008-.653-.018-.974-.027l-1.9-.092c-.308-.018-.61-.027-.9-.035s-.584-.023-.862-.022c-.559.016-1.09.008-1.576.061-.243.022-.476.035-.7.061l-.625.1-.553.084-.461.11c-.557.133-.88.2-.88.2s.31-.11.856-.292c.137-.043.29-.094.455-.147l.549-.129.625-.147c.221-.043.459-.069.7-.1a14.311,14.311,0,0,1,1.6-.143c.566-.014,1.168-.029,1.783-.008s1.25.027,1.893.055c.323.006.649.012.976.02l.488.008.49-.014c.653-.01,1.307-.022,1.95-.033.323-.008.643,0,.958-.016l.935-.037,3.359-.118c.984-.041,1.8-.051,2.379-.074S78.119,239.322,78.119,239.322Z" transform="translate(-20.238 -211.888)" fill="#88898c"/>
        <path id="Trazado_50906" data-name="Trazado 50906" d="M58.038,240.937l.078-.057c.053-.035.125-.092.227-.153s.219-.141.366-.216a4.679,4.679,0,0,1,.5-.245,5.375,5.375,0,0,1,.615-.239,3.511,3.511,0,0,1,.351-.1,2.528,2.528,0,0,1,.374-.076l.4-.041c.139-.01.261-.006.394,0l.8.008.794.029c.263.006.521.033.77.037s.486.02.715.031l.641.035c.792,0,1.333.039,1.333.039s-.519.116-1.323.227c-.2.022-.417.033-.649.045s-.472.027-.723.033-.51.008-.77,0l-.8-.014-.794-.025c-.129,0-.267-.014-.384-.014l-.357.018a2.566,2.566,0,0,0-.349.045,2.7,2.7,0,0,0-.337.057c-.216.053-.423.094-.611.153-.38.106-.694.219-.913.294S58.038,240.937,58.038,240.937Z" transform="translate(-19.452 -211.424)" fill="#88898c"/>
      </g>
    </g>
  </g>
</svg>
