<svg xmlns="http://www.w3.org/2000/svg" width="645" height="307.869" viewBox="0 0 645 307.869">
  <g id="Grupo_25349" data-name="Grupo 25349" transform="translate(-29.228 -242.688)">
    <g id="Grupo_25312" data-name="Grupo 25312" transform="translate(29.228 242.688)">
      <path id="Trazado_54902" data-name="Trazado 54902" d="M284.953,454.9c0,4.86-57.247,8.8-127.863,8.8s-127.863-3.94-127.863-8.8,57.247-8.8,127.863-8.8S284.953,450.042,284.953,454.9Z" transform="translate(-29.228 -155.832)" fill="#a656a0"/>
      <g id="Grupo_25310" data-name="Grupo 25310" transform="translate(23.7 13.488)">
        <g id="Grupo_25309" data-name="Grupo 25309">
          <g id="Grupo_25306" data-name="Grupo 25306" transform="translate(92.51 26.01)">
            <path id="Trazado_54903" data-name="Trazado 54903" d="M123.907,281.09c.581-.342,3.049-.405,3.008.381s-1.618.334-2.777,1.749,3.854,4.18,3.823,4.749c-.043.826-.522.845-.569,1.73s-.987,1.918-2.7,3.035-5.751,2.133-6.89,3.158a19.185,19.185,0,0,0-3.967,2.728c-1.113-1.016-2.971-2.609-3.174-4.325,2.734-1.662,4.057-3.372,5.794-6.506C118.528,284.057,123.907,281.09,123.907,281.09Z" transform="translate(-110.665 -265.892)" fill="#fd5e5a"/>
            <path id="Trazado_54904" data-name="Trazado 54904" d="M114.895,300.842a2.018,2.018,0,1,0,3.58,1.856c12.76-27.3,12.325-25.985,11.369-26.429C128.577,275.682,129.09,276.738,114.895,300.842Z" transform="translate(-108.987 -267.892)" fill="#555799"/>
            <rect id="Rectángulo_5317" data-name="Rectángulo 5317" width="8.657" height="9.767" transform="translate(18.613 23.966) rotate(-154.254)" fill="#cfcc2a"/>
            <rect id="Rectángulo_5318" data-name="Rectángulo 5318" width="1.566" height="9.767" transform="translate(13.648 10.728) rotate(25.747)" fill="#b0af35"/>
            <path id="Trazado_54905" data-name="Trazado 54905" d="M124.256,282.9h0a4.379,4.379,0,0,0,6.008-1.424l2.748-4.459a4.378,4.378,0,0,0-1.424-6.006h0a4.378,4.378,0,0,0-6.006,1.424l-2.748,4.458A4.379,4.379,0,0,0,124.256,282.9Z" transform="translate(-105.745 -270.367)" fill="#47555d"/>
            <path id="Trazado_54906" data-name="Trazado 54906" d="M124.393,279.293a4.376,4.376,0,0,0,6-1.424l2.75-4.458a4.261,4.261,0,0,0,.368-.752,4.342,4.342,0,0,1-.5,3.382l-2.748,4.459a4.364,4.364,0,0,1-7.8-3.831A4.35,4.35,0,0,0,124.393,279.293Z" transform="translate(-105.745 -269.389)" fill="#333"/>
            <path id="Trazado_54907" data-name="Trazado 54907" d="M124.883,285.513s-7.2-.467-7.273.932,6.677.9,6.677.9-6.557-.285-6.618.861,5.541,1.456,5.541,1.456-5.481-.7-5.287.131,4.131.909,4.131.909a4.084,4.084,0,0,0,1.443-.972c.388-.539.745-.548.966-.9a3.958,3.958,0,0,0,.344-1.458C124.823,287.044,125.836,286.013,124.883,285.513Z" transform="translate(-107.7 -263.932)" fill="#fc7575"/>
          </g>
          <path id="Trazado_54908" data-name="Trazado 54908" d="M78.509,280.511c2.387,1.022,9.251,15.73,15.026,22.524,4.28,5.034,30.452-7.221,30.71-10.172,2.373-.134,5.413,5.961,5.413,5.961.5,1.241-31.214,22.795-37.551,20.069A45.721,45.721,0,0,1,80.472,311.1l-4.305-26.546S76.123,279.492,78.509,280.511Z" transform="translate(-32.886 -240.084)" fill="#131537"/>
          <path id="Trazado_54909" data-name="Trazado 54909" d="M63.03,444.128l.156,9.67-1.077.032-1.386-11.024Z" transform="translate(-39.48 -170.727)" fill="#1d1c22"/>
          <g id="Grupo_25307" data-name="Grupo 25307" transform="translate(14.607 172.53)">
            <path id="Trazado_54910" data-name="Trazado 54910" d="M72.456,384.169s-1.153,15.12-3.005,19.638,1.46,64.237,3.031,69.055a14.684,14.684,0,0,0,1.309,2.858c1.717,2.935,2.106,3.533-.194,3.54-2.955.01-5.544-.552-6.119-1.762-.99-2.089-1.867-9.287-3.889-9.281,0,0-1.381-2.683-1.037-4.1.519-2.126,1.965-1.033,1.955-3.988s-9.8-47.878-8.271-54.415,2.62-7.32,2.594-15.1S72.456,384.169,72.456,384.169Z" transform="translate(-56.073 -368.332)" fill="#fc7575"/>
            <path id="Trazado_54911" data-name="Trazado 54911" d="M72.237,373.045s11.029,21.018,10.324,27.243-3.034,11.252-1.036,19.748,17.817,39.312,18.194,44.946c.16,2.375-.564,2.6-.564,2.6.031,4.094,1.309,8.478,2.159,9.324,1.093,1.085,2.323,6.478,3.361,6.476s9.8.933,9.8.933c.227-2-2.454-.394-4.024-4.536s-2.523-10.361-4.522-18.755S95.734,414.326,95.7,405.512s.781-8.859-.586-14.661-6.486-16.674-6.486-16.674Z" transform="translate(-49.171 -373.045)" fill="#fd5e5a"/>
            <path id="Trazado_54912" data-name="Trazado 54912" d="M82.561,400.287c.7-6.225-10.324-27.241-10.324-27.241l16.395,1.13s5.119,10.871,6.486,16.674c1,4.257.835,5.414.685,9.208-3.134.673-8.01,1.658-13.578,2.557C82.354,401.853,82.471,401.081,82.561,400.287Z" transform="translate(-49.171 -373.045)" fill="#e85553"/>
            <path id="Trazado_54913" data-name="Trazado 54913" d="M58.285,390.62c-.026-7.777,13.626-6.453,13.626-6.453s-.735,9.644-1.974,15.828a61.946,61.946,0,0,1-12.587-.462A31.072,31.072,0,0,0,58.285,390.62Z" transform="translate(-55.528 -368.332)" fill="#fd5e5a"/>
          </g>
          <path id="Trazado_54914" data-name="Trazado 54914" d="M90.158,323.135s1.921,29.606,3.372,36.657,9.748,57.035,9.748,57.035-36.818,3.111-45.736,0c0,0-1.137-64.139.963-72.383S69.785,321.2,69.785,321.2Z" transform="translate(-40.97 -222.653)" fill="#5c1145"/>
          <path id="Trazado_54915" data-name="Trazado 54915" d="M84.782,280.995s-5.107-3.928-22.408-.024c-.471.107-.9,18.879-.9,18.879s8.025,31.421,6.5,39.262c0,0,9.176,7.744,22.863,1,0,0-1.778-24.674-.534-30.171s3.729-10.481.2-16.184A64.644,64.644,0,0,1,84.782,280.995Z" transform="translate(-39.159 -240.568)" fill="#e469a6"/>
          <path id="Trazado_54916" data-name="Trazado 54916" d="M84.782,280.995s-5.107-3.928-22.408-.024c-.471.107-.9,18.879-.9,18.879s8.025,31.421,6.5,39.262c0,0,9.176,7.744,22.863,1,0,0-1.778-24.674-.534-30.171s3.729-10.481.2-16.184A64.644,64.644,0,0,1,84.782,280.995Z" transform="translate(-39.159 -240.568)" fill="#25275a"/>
          <path id="Trazado_54917" data-name="Trazado 54917" d="M63.009,327.588c-.281-.281-2.734-3.894-3.258-3.371s2.172,3.857,2.172,3.857-3.127-3.164-3.744-2.546,4.178,4.889,4.683,4.889S63.009,327.588,63.009,327.588Z" transform="translate(-40.59 -221.386)" fill="#fd5e5a"/>
          <path id="Trazado_54918" data-name="Trazado 54918" d="M67.033,325.682s1.323,2.018.348,2.991-.452,1.982-1.113,2.644-3.617.765-3.617.765a20.276,20.276,0,0,0-1.671-6.122,22.6,22.6,0,0,0-2.362-3.358,39.725,39.725,0,0,1,4.084-2.336C65.145,323.441,66.989,325.6,67.033,325.682Z" transform="translate(-40.379 -223.05)" fill="#fc7575"/>
          <path id="Trazado_54919" data-name="Trazado 54919" d="M69.059,280.477s1.717,13.636,0,17.394c-1.67,3.656-11.433,7.874-13.108,15.282-1.251,5.534,6.9,17.212,12.209,24.108a42.787,42.787,0,0,1-4.789,4.387c-5.4-6.877-17.187-23.073-17.526-26.87C45.426,310.111,61.8,279.99,69.059,280.477Z" transform="translate(-45.836 -240.043)" fill="#5e5da8"/>
          <path id="Trazado_54920" data-name="Trazado 54920" d="M66.032,280.475c.258,3.179.462,6.226.522,9.468.054,5.728-.291,7.536-1.555,8.972-2.935,3.4-10.789,7.559-12.075,14.236,1.828-6.62,9.427-10.3,12.495-13.879a7.149,7.149,0,0,0,1.524-4.568A70.992,70.992,0,0,0,66.032,280.475Z" transform="translate(-42.81 -240.041)" fill="#828ac3"/>
          <path id="Trazado_54921" data-name="Trazado 54921" d="M62.614,438.452c.909,5.405,4.482,16.091,6.556,16.091,2.8,0,2.964-.148,2.942-2.038,1.717,2.935,3.66,4.435,1.36,4.444-2.955.01-7.564.2-8.138-1.006-.992-2.089-1.555-10-3.579-10l.661,9.743-1.073.031s-1.635-13.414-1.291-14.755A3.823,3.823,0,0,1,62.614,438.452Z" transform="translate(-39.787 -172.587)" fill="#3a3745"/>
          <path id="Trazado_54922" data-name="Trazado 54922" d="M104.1,453.392c2.061,1.915,5.194,1.523,5.013,3.125,0,0-11.346-.45-12.383-.445s-1.939-6.371-3.032-7.456-.39,7.467-.39,7.467l-1.119,0s-.778-8.812-1.825-12.231c-.836-2.723.335-3.871,1.174-4.564C94.963,445.791,95.525,454.946,104.1,453.392Z" transform="translate(-26.946 -172.228)" fill="#3a3745"/>
          <g id="Grupo_25308" data-name="Grupo 25308" transform="translate(21.403)">
            <path id="Trazado_54923" data-name="Trazado 54923" d="M67.794,262.934s-6.959,1.269-6.959,6.206,1.069,2.706,2.188,6.232.078,6.54,4.772,6.54,3.88.305,6.22,1.73,6.959-.966,7.459-6.055-8.084-4.735-8.084-8.446S67.794,262.934,67.794,262.934Z" transform="translate(-60.835 -247.531)" fill="#3c1247"/>
            <path id="Trazado_54924" data-name="Trazado 54924" d="M78.835,272.736a13.192,13.192,0,0,0-2.083,7.473,24.575,24.575,0,0,0,1.216,6.451,2.568,2.568,0,0,1-1.431,3.714,4.618,4.618,0,0,1-3.469.1c-2.015-.773-5.073-2.209-6-4.458-.622-1.506,5.009-18.524,5.009-18.524Z" transform="translate(-58.196 -245.586)" fill="#fc7575"/>
            <path id="Trazado_54925" data-name="Trazado 54925" d="M77.772,272.736,71.01,267.49s-.662,2-1.507,4.692c1.587,2.4,3.694,4.722,6.31,5.624A14.1,14.1,0,0,1,77.772,272.736Z" transform="translate(-57.134 -245.586)" fill="#fd5e5a"/>
            <path id="Trazado_54926" data-name="Trazado 54926" d="M83.1,255.191a7.777,7.777,0,0,1,2.864,4.409c.678,2.93-1.042,6.4-.862,8.9s-3.553,14.748-9.472,12.378-7.295-11.646-7.442-13.675,3.316-9.079,6.6-10.979S83.1,255.191,83.1,255.191Z" transform="translate(-57.698 -250.922)" fill="#fc7575"/>
            <path id="Trazado_54927" data-name="Trazado 54927" d="M85.286,256.35a6.237,6.237,0,0,0-5.882-4.023c-.138-.011-.277-.02-.417-.026a29.354,29.354,0,0,0-7.7.187,9.734,9.734,0,0,0-4.16,1.993c-1.438,1.227-2.811,2.634-3,4.452-.345,3.323,1.183,6.952.077,10.16l-.024.07a6.979,6.979,0,0,0,3.813,8.77c1.954.831,3.55,1.1,4.611-.655-.153-1.8-5.655-8.244-1.167-12.355.285.207.773,2.173,1.441,2.193,1.622.046,2.678-3.476,2.864-4.945a6.685,6.685,0,0,1,2.845-3.976,9.678,9.678,0,0,1,4.9-1.778,10.637,10.637,0,0,1,1.156.091c.407.078.652.174.741.164A1.1,1.1,0,0,0,85.286,256.35Z" transform="translate(-59.58 -252.14)" fill="#501f5e"/>
            <path id="Trazado_54928" data-name="Trazado 54928" d="M77.9,253.64a8.636,8.636,0,0,1,5.758,1.976c2.541,2.212,2.17,10.163.612,11.693s4.77,4.21,1.24,4.218C80.5,271.542,74.772,254.217,77.9,253.64Z" transform="translate(-53.928 -251.502)" fill="#501f5e"/>
            <path id="Trazado_54929" data-name="Trazado 54929" d="M78.252,254.47c4.728.223,7.375,4.307,5.8,8.19a2.333,2.333,0,0,1-1.35,1.5l-.194-.982c.261-.009.638-.639.753-.873C84.94,258.951,82.723,255.027,78.252,254.47Z" transform="translate(-53.398 -251.145)" fill="#6d2a81"/>
            <path id="Trazado_54930" data-name="Trazado 54930" d="M71.2,262.728s-.278-2.516-2.28-1.814-1.164,6.822.6,6.225S71.2,262.728,71.2,262.728Z" transform="translate(-57.881 -248.446)" fill="#fc7575"/>
            <path id="Trazado_54931" data-name="Trazado 54931" d="M70.466,263.639s-.247-2.733-1.243-2.008-1.1,3.4-.057,3.566S70.466,263.639,70.466,263.639Z" transform="translate(-57.593 -248.139)" fill="#fd5e5a"/>
          </g>
        </g>
      </g>
      <path id="Trazado_54932" data-name="Trazado 54932" d="M157.1,279.076a87.623,87.623,0,0,0-10.491,8.93c-5.321,5.32-10.493,50.36-10.493,50.36l10.434,2.827Z" transform="translate(16.412 -227.151)" fill="#536c87"/>
      <path id="Trazado_54933" data-name="Trazado 54933" d="M163.739,351.324l-25.3,7.01-13.943-50.326,26.121-4.062Z" transform="translate(11.448 -216.532)" fill="#c7c4e2"/>
      <path id="Trazado_54934" data-name="Trazado 54934" d="M165.075,350.177l-25.3,7.01-13.943-50.326,26.121-4.063Z" transform="translate(12.019 -217.022)" fill="#e4e3f2"/>
      <rect id="Rectángulo_5319" data-name="Rectángulo 5319" width="26.258" height="52.222" transform="translate(135.019 93.727) rotate(-15.486)" fill="#222459"/>
      <path id="Trazado_54935" data-name="Trazado 54935" d="M200,397.626l-63.288,1.863,8.682-67.152,34.783.944Z" transform="translate(16.667 -204.409)" fill="#536c87"/>
      <path id="Trazado_54936" data-name="Trazado 54936" d="M171.574,372.158s-12.92,106.775-15.757,118.132l-.186,7.216-19.517-.529s1.241-2.373,3.446-2.313,7.847-2.4,9.421-4.158,2.875-149.777,2.875-149.777l24.24.658Z" transform="translate(16.412 -200.825)" fill="#0e0e0e"/>
      <path id="Trazado_54937" data-name="Trazado 54937" d="M173.981,276.125l-2.164,7.346-21.784-1.958,5.135-4.525Z" transform="translate(22.355 -228.411)" fill="#536c87"/>
      <path id="Trazado_54938" data-name="Trazado 54938" d="M150.159,350.019l2.952,17.271s24.755,93.782,22.735,126.264c0,0-2.383,3.792-10.5,5.855-.438.111-.89,1.612-.89,1.612l21.034.571-1.02-6.576s2.158-110.652,2.487-123.536-2.631-29.744-2.631-29.744l-35.284-.956Z" transform="translate(21.929 -200.803)" fill="#1e3340"/>
      <path id="Trazado_54939" data-name="Trazado 54939" d="M139.592,344.343c.812-31.679,11.25-62.929,18.557-66.742,0,0,8.389-.327,12.7-.35,6.431-.031,16.241,3.355,21.129,20.974,4.449,16.031,1.751,64.333.4,87.994-18.153-.491-31.417-1.433-49.03-1.911C143.212,378.774,139.338,354.3,139.592,344.343Z" transform="translate(17.891 -227.93)" fill="#5792a1"/>
      <path id="Trazado_54940" data-name="Trazado 54940" d="M159.989,315.01c-.064.469,11.663-36.978,11.663-36.978a41.469,41.469,0,0,1,8.294,4.449c4.716,3.178,10.805,24.394,10.805,24.394s-2.9,49.722-3,53.508c-.053,2.036,2.614,32.605,5.09,60.43l-39.364,2.512C155.062,384.652,159.989,315.01,159.989,315.01Z" transform="translate(23.826 -227.596)" fill="#c5d5ed"/>
      <path id="Trazado_54941" data-name="Trazado 54941" d="M159.221,277.489s-13.566,4.819-17.439,39.559-5.7,105.836-5.7,105.836l13.574.368s4.073-101.523,4.251-108.488S159.221,277.489,159.221,277.489Z" transform="translate(16.399 -227.828)" fill="#949ecf"/>
      <path id="Trazado_54942" data-name="Trazado 54942" d="M158.041,315.825l12.521-39.7,6.478,5.112-8.418,14.146.484,4.514Z" transform="translate(25.774 -228.411)" fill="#fff3ef"/>
      <path id="Trazado_54943" data-name="Trazado 54943" d="M156.192,276.73l-7.171,37.476-1.384-20.285,1.938-2.143.515-11.972Z" transform="translate(21.331 -228.153)" fill="#fff3ef"/>
      <path id="Trazado_54944" data-name="Trazado 54944" d="M153.5,272.68l1.515,15.4c.311,3.164,2.589,5.484,5.216,5.344.665-.036,1.361-.1,2.063-.207,3.515-.535,6.8-3.512,6.089-7.716-.913-5.391-3-14.358-2.964-19.092C165.479,258.669,153.5,268.729,153.5,272.68Z" transform="translate(23.834 -233.775)" fill="#fc7575"/>
      <path id="Trazado_54945" data-name="Trazado 54945" d="M165.417,266.413c.063-7.744-11.92,2.316-11.92,6.267l.886,9A29.826,29.826,0,0,0,160.528,280c3.2-1.33,3.409-5.353,5.3-6.487a1.982,1.982,0,0,0,.3-.221A44.62,44.62,0,0,1,165.417,266.413Z" transform="translate(23.834 -233.775)" fill="#f05e5c"/>
      <path id="Trazado_54946" data-name="Trazado 54946" d="M150.813,259.388s-4.271-3.152-3.552-.39,2.86,8.7,5.106,6.359S150.813,259.388,150.813,259.388Z" transform="translate(21.136 -236.208)" fill="#f05e5c"/>
      <path id="Trazado_54947" data-name="Trazado 54947" d="M158.752,249.525c-.577.571-6.912.12-8.987,6.627s.308,21.4,4.341,25.4,8.64,1.484,12.212-5.251,10.518-15.393,5.415-21.8C169.022,251.088,158.752,249.525,158.752,249.525Z" transform="translate(21.914 -239.769)" fill="#fc7575"/>
      <path id="Trazado_54948" data-name="Trazado 54948" d="M150.694,270.356s1.876,4.345.03,6.19,5.34,2.52,7.749,1.876,5.737-1.052,6.459-2.012c1.528-2.032.843-12.672.843-12.672h0c-1.364,3.518-5.166,9.7-6.52,9.7s-3.087.348-4.471.348S150.694,270.356,150.694,270.356Z" transform="translate(22.521 -233.699)" fill="#222459"/>
      <path id="Trazado_54949" data-name="Trazado 54949" d="M160.792,255.337c-.576,3.425-4,8.127-12.185,2.99s-6.567-11.644-6.567-11.644,4.148,5.365,6.683,4.224.691-7.533.691-7.533,9.217-.685,10.945-.685,3.486,5.364,3.486,5.364-1.182-2.4,7.92-3.2,3.769,12.725,4.806,17.405-5.151,12.96-5.151,15.7a7.206,7.206,0,0,0,1.5,4.452s-1.959.457-3.687-4.338,1.431-11.867,1.431-15.52c0-4.438-2.1-6.032-3.958-7.4C165.314,254.132,161.368,251.912,160.792,255.337Z" transform="translate(18.886 -242.688)" fill="#222459"/>
      <path id="Trazado_54950" data-name="Trazado 54950" d="M162.407,260.945s-3.329,6.085-.973,5.611,7-3.609,5.976-7.947S162.407,260.945,162.407,260.945Z" transform="translate(26.862 -236.516)" fill="#fc7575"/>
      <path id="Trazado_54951" data-name="Trazado 54951" d="M162.135,260.227s2.055-1.939,2.74-1.26c1.6,1.584-3.647,6.109-3.647,4.9A15.28,15.28,0,0,1,162.135,260.227Z" transform="translate(27.134 -235.799)" fill="#f05e5c"/>
      <path id="Trazado_54952" data-name="Trazado 54952" d="M151.566,256.677h-3.887a2.351,2.351,0,0,0-2.266,2.426V262a2.352,2.352,0,0,0,2.266,2.427h3.887A2.351,2.351,0,0,0,153.832,262V259.1A2.35,2.35,0,0,0,151.566,256.677Zm1.22,5.318a1.268,1.268,0,0,1-1.22,1.307h-3.887a1.268,1.268,0,0,1-1.22-1.307V259.1a1.267,1.267,0,0,1,1.22-1.306h3.887a1.267,1.267,0,0,1,1.22,1.306Z" transform="translate(20.382 -236.715)" fill="#222459"/>
      <path id="Trazado_54953" data-name="Trazado 54953" d="M160.174,256.611h-4.528a2.566,2.566,0,0,0-2.64,2.484v2.962a2.566,2.566,0,0,0,2.64,2.486h4.528a2.566,2.566,0,0,0,2.639-2.486V259.1A2.566,2.566,0,0,0,160.174,256.611Zm1.42,5.447a1.382,1.382,0,0,1-1.42,1.339h-4.528a1.384,1.384,0,0,1-1.421-1.339V259.1a1.384,1.384,0,0,1,1.421-1.339h4.528a1.382,1.382,0,0,1,1.42,1.339Z" transform="translate(23.624 -236.743)" fill="#222459"/>
      <rect id="Rectángulo_5320" data-name="Rectángulo 5320" width="3.143" height="1.051" transform="translate(173.767 22.501)" fill="#222459"/>
      <g id="Grupo_25311" data-name="Grupo 25311" transform="translate(191.41 53.681)">
        <path id="Trazado_54954" data-name="Trazado 54954" d="M171.266,298.559l-.806-18.253c17.082,9.016,31.067,43.95,31.685,54.109.41,6.711-12.458,24.025-21.2,33.521-1.417-2.236-3.209-6.233-5.534-7.271,4.143-5.771,9.534-14.4,11.2-22.175,1.645-7.663-3.636-16.1-8.348-21.829A30.616,30.616,0,0,1,171.266,298.559Z" transform="translate(-160.334 -280.306)" fill="#c5d5ed"/>
        <path id="Trazado_54955" data-name="Trazado 54955" d="M182.684,342.944l-4.28,8.639-13.642-.358s12.532-13.26,14.183-14.826S185.392,340.373,182.684,342.944Z" transform="translate(-162.767 -256.472)" fill="#fc7575"/>
        <path id="Trazado_54956" data-name="Trazado 54956" d="M180.565,374.625l-17.2.534v-28.91h17.268Z" transform="translate(-163.364 -252.149)" fill="#fff3ef"/>
        <path id="Trazado_54957" data-name="Trazado 54957" d="M173.928,337.918c2.325,1.037,4.117,5.034,5.534,7.271,1.331-1.446,2.758-3.074,4.221-4.819l-6.792-6.791C175.877,335.144,174.871,336.606,173.928,337.918Z" transform="translate(-158.853 -257.559)" fill="#c5d5ed"/>
      </g>
    </g>
    <g id="Grupo_25348" data-name="Grupo 25348" transform="translate(290.825 256.131)">
      <ellipse id="Elipse_1436" data-name="Elipse 1436" cx="191.702" cy="13.057" rx="191.702" ry="13.057" transform="translate(0 267.981)" fill="#a656a0"/>
      <g id="Grupo_25325" data-name="Grupo 25325" transform="translate(197.391)">
        <g id="Grupo_25324" data-name="Grupo 25324">
          <path id="Trazado_54958" data-name="Trazado 54958" d="M442.962,318.439c-.5-2.253-11.52,5-13.408,6.22,0,0,9.237,8.124,12.137,8.124S443.459,320.7,442.962,318.439Zm-1.688,11.2c-.771,0-10.172-4.979-10.172-4.979s9.275-5.759,10.172-3.336S442.046,329.638,441.274,329.638Z" transform="translate(-317.28 -223.97)" fill="#1e2a18"/>
          <path id="Trazado_54959" data-name="Trazado 54959" d="M438.566,314.388c-1.393-2.243-7.443-2.325-7.443-2.325s-3.131-.2-3.131,1.632,2.229,13.5,2.229,13.5S439.953,316.643,438.566,314.388Zm-8.345,12.091V313.8c.892,0,5.675,1,6.18,1.523S430.221,326.479,430.221,326.479Z" transform="translate(-317.947 -226.511)" fill="#1e2a18"/>
          <path id="Trazado_54960" data-name="Trazado 54960" d="M449.939,374.467c-.41-10.928-11.3-40.749-20.385-51.8,10.007,10.418,23.3,39.757,24.647,51.447Z" transform="translate(-317.28 -221.98)" fill="#1e2a18"/>
          <path id="Trazado_54961" data-name="Trazado 54961" d="M461.608,272.186c0,10.958-13.422,19.844-29.981,19.844s-29.987-8.886-29.987-19.844,13.424-19.855,29.987-19.855S461.608,261.217,461.608,272.186Z" transform="translate(-329.199 -252.013)" fill="#fb8603"/>
          <path id="Trazado_54962" data-name="Trazado 54962" d="M401.641,272.281c-.525-21.246,42.723-27.858,56.737-9.347a15.173,15.173,0,0,1,3.231,9.347A15.315,15.315,0,0,0,458,263.245C443.965,245.826,402.533,251.725,401.641,272.281Z" transform="translate(-329.201 -252.108)" fill="#ffd078"/>
          <path id="Trazado_54963" data-name="Trazado 54963" d="M443.161,270.541c0,6.882-7.308,12.462-16.323,12.462s-16.328-5.58-16.328-12.462,7.312-12.46,16.328-12.46S443.161,263.661,443.161,270.541Z" transform="translate(-325.412 -249.558)" fill="#e87605"/>
          <path id="Trazado_54964" data-name="Trazado 54964" d="M426.073,259.527s-6.09-.761-7.729,2.975c-3.245,7.413-8.439,22.839-5.789,28.58s-1.5,8.525-1.5,8.525,17.259-5.7,20.811-3.107,9.116-.741,9.116-.741-4.9-5.639-3.4-16.058S431.868,258.116,426.073,259.527Z" transform="translate(-325.178 -248.992)" fill="#0c143f"/>
          <path id="Trazado_54965" data-name="Trazado 54965" d="M398.164,335.847c.3-.3.836-11.57-1.668-12.181l-4.047,2.634-.345,6.2Z" transform="translate(-333.271 -221.554)" fill="#593960"/>
          <path id="Trazado_54966" data-name="Trazado 54966" d="M405.352,310.454s1.363,20.474-5.488,22.909-14.531-.612-14.531-.612l.371,6.4s18.1,5.288,23.545,2.285,6.927-29.54,6.927-29.54l-8.118-6.553Z" transform="translate(-336.162 -229.377)" fill="#fc7575"/>
          <path id="Trazado_54967" data-name="Trazado 54967" d="M409.651,318.407c.385-3.8.535-6.51.535-6.51l-8.118-6.553-2.706,5.11s.151,2.243.1,5.338Z" transform="translate(-330.172 -229.377)" fill="#fd5e5a"/>
          <path id="Trazado_54968" data-name="Trazado 54968" d="M425.81,278.584c-1.978-1.192-1.393,1.053-23.9,38.877l19.9-44.425a1.2,1.2,0,1,0-2.168-1.012L401.3,312.953c14.334-43.134,16.318-43.914,14.159-44.7s-1.287,1.622-14.751,39.067l10.363-39.466a1.194,1.194,0,1,0-2.3-.632l-11.64,44.347c7.2-45.127,9.06-46.34,6.8-46.751-2.269-.39-.9,1.253-9.457,48.152,3.061-47.7,4.789-48.973,2.494-49.153-2.279-.191-.786,1.192-4.789,47.861-1.251-46.921.331-48.272-1.932-48.272h-.02c-2.3.04-.652,1.453-.441,47.62l-4.853-46.4a1.192,1.192,0,1,0-2.369.261l4.793,45.848c-9.261-45.217-7.954-47.021-10.207-46.56s-.381,1.593,7.948,47.45c-13.509-45.076-12.346-46.929-14.555-46.269s-.315,1.323,13.277,50.467c-19.583-47.5-18.481-49.144-20.61-48.252s-.194,1.323,18.353,49.044L357.94,271.543a1.2,1.2,0,1,0-2.1,1.152l23.625,45.077c-26.756-39.458-26.16-41.521-28.063-40.2a1.238,1.238,0,0,0-.32,1.694l39.2,59.192,1.193,6.179,1.032-6.029.07-.261C426.417,278.865,427.8,279.8,425.81,278.584Z" transform="translate(-350.875 -247.283)" fill="#616575"/>
          <path id="Trazado_54969" data-name="Trazado 54969" d="M418.174,285.064s-8.188,3.2-13.848,14.316a93.975,93.975,0,0,0-7.793,22.5l16.727,1.712S422.2,290.695,418.174,285.064Z" transform="translate(-331.379 -238.037)" fill="#d04c72"/>
          <path id="Trazado_54970" data-name="Trazado 54970" d="M440.544,286.155c-9.681-2.744-26.816-.912-26.816-.912-4.7,4.258-6.781,20.937-6.781,20.937l3.236,30.412,30.812,1.692,4.392-25.243C444.326,304.177,440.544,286.155,440.544,286.155Z" transform="translate(-326.933 -238.216)" fill="#ed9ab2"/>
          <g id="Grupo_25313" data-name="Grupo 25313" transform="translate(64.443 194.71)">
            <path id="Trazado_54971" data-name="Trazado 54971" d="M396.035,389.237s18.778,61.225,14.605,67.776-13.187,6.621-12.071,7.763,18.477-.762,18.477-.762,3.426-34.719,2.68-45.387-5.36-29.39-5.36-29.39Z" transform="translate(-396.035 -388.266)" fill="#593960"/>
            <path id="Trazado_54972" data-name="Trazado 54972" d="M414.366,389.237H396.035s1.443,4.7,3.436,11.63c4.939.882,11.169,1.864,18.01,2.614C416,395.868,414.366,389.237,414.366,389.237Z" transform="translate(-396.035 -388.266)" fill="#432b48"/>
            <path id="Trazado_54973" data-name="Trazado 54973" d="M419.109,389.528l4.077,72.965,6.551-.391,8.9-73.545Z" transform="translate(-386.183 -388.556)" fill="#593960"/>
            <path id="Trazado_54974" data-name="Trazado 54974" d="M438.632,388.556l-19.523.971.771,13.824,17.32-2.975Z" transform="translate(-386.183 -388.556)" fill="#432b48"/>
          </g>
          <path id="Trazado_54975" data-name="Trazado 54975" d="M457.606,323.33l-11.965-19.8-8.154,4.819,10.583,16.278s-1.878,2.514-4.277,5.819l6.586,2.093C453.633,328.949,456.644,325.353,457.606,323.33Z" transform="translate(-313.893 -230.154)" fill="#fc7575"/>
          <path id="Trazado_54976" data-name="Trazado 54976" d="M437.487,308.345l2.219,3.425,8.364-4.227-2.429-4.017Z" transform="translate(-313.893 -230.153)" fill="#fd5e5a"/>
          <path id="Trazado_54977" data-name="Trazado 54977" d="M439.524,344.456s5.664-1.072,5.664-2.285-4.622,0-4.622,0l.746-5.48s5.374-5.278,10.207-10.6l-7.924-7.482c-4.091,5.639-8.364,19.022-8.779,20.945,0,0,.665,7.543,2.093,7.543s9.766-1.273,9.766-2.644S439.524,344.456,439.524,344.456Z" transform="translate(-315.033 -223.712)" fill="#fbc802"/>
          <path id="Trazado_54978" data-name="Trazado 54978" d="M389.592,326.393s-.305-.17-.816-.449c-.03-.041-2.99-4.188-4.732-4.949a10.779,10.779,0,0,0-3.837-.762,3.967,3.967,0,0,0,2.239,2.755,8.237,8.237,0,0,0-2.464-.551c-2.754,0-5.44.381-4.392,4.8s.481,6.21,1.261,7.012,13.113-1.072,13.113-1.072Z" transform="translate(-340.421 -223.02)" fill="#fbc802"/>
          <g id="Grupo_25314" data-name="Grupo 25314" transform="translate(36.66 76.517)">
            <path id="Trazado_54979" data-name="Trazado 54979" d="M378.354,503.859h-.016a1.8,1.8,0,0,1-1.772-1.814l1.808-194.522a1.824,1.824,0,0,1,1.8-1.794,1.8,1.8,0,0,1,1.772,1.824l-1.808,194.522A1.792,1.792,0,0,1,378.354,503.859Z" transform="translate(-376.566 -305.73)" fill="#32213d"/>
          </g>
          <path id="Trazado_54980" data-name="Trazado 54980" d="M375.946,321.78s7.447,2.053,7.447,3.736-2.755.762-2.755.762,3.762,1.181,2.755,2.2-4.248.842-4.248.842,4.949.821,4.418,1.371-4.193,1.443-4.193,1.443,4.262.631,3.572,1.333-6.12.761-6.551.311.024-1.985-.751-2.786-.742-1.7-.742-3.216S374.026,321.569,375.946,321.78Z" transform="translate(-340.702 -222.362)" fill="#ffee4b"/>
          <g id="Grupo_25315" data-name="Grupo 25315" transform="translate(20.39 55.083)">
            <path id="Trazado_54981" data-name="Trazado 54981" d="M365.582,296.969a.42.42,0,0,1-.345-.181.429.429,0,0,1,.11-.591c4.959-3.485,12.031-5.488,19.4-5.488a34.951,34.951,0,0,1,18.4,4.817.439.439,0,0,1,.14.591.417.417,0,0,1-.577.14,34.114,34.114,0,0,0-17.96-4.7c-7.2,0-14.1,1.954-18.928,5.34A.406.406,0,0,1,365.582,296.969Z" transform="translate(-365.164 -290.709)" fill="#616575"/>
          </g>
          <g id="Grupo_25316" data-name="Grupo 25316" transform="translate(10.21 39.615)">
            <path id="Trazado_54982" data-name="Trazado 54982" d="M358.536,286.451a.519.519,0,0,1-.221-.982c7.222-3.556,17.6-5.6,28.454-5.6,10.6,0,20.805,1.954,27.993,5.378a.521.521,0,0,1,.244.682.5.5,0,0,1-.671.25c-7.062-3.355-17.108-5.278-27.567-5.278-10.714,0-20.925,2-28.013,5.5A.544.544,0,0,1,358.536,286.451Z" transform="translate(-358.03 -279.87)" fill="#616575"/>
          </g>
          <path id="Trazado_54983" data-name="Trazado 54983" d="M459.96,374.044c-2.083-14.615-7.893-30.3-9.681-37.765s-4.458-36.983-2.686-44.9l-5.434.15s0,10.207-2.76,13.023-6.851,2.744-12.07,1.371-2.083-14.073-2.083-14.073l-4.023-1.083c-8.926,35.411-.05,35.872-4.027,49.615-4.358,15.1-29.2,93.67-29.2,93.67,30.842,13.4,74.5,2.133,74.5,2.133S462.049,388.668,459.96,374.044Z" transform="translate(-335.024 -235.6)" fill="#3f5625"/>
          <path id="Trazado_54984" data-name="Trazado 54984" d="M411.216,284.674l-1.292,14.285,2.484,4.157,3.476-3.3,2.389-15.787Z" transform="translate(-325.662 -238.477)" fill="#3f5625"/>
          <path id="Trazado_54985" data-name="Trazado 54985" d="M426.211,284.686l-.861,14.154,2.72,3.246,3.716-3.145,1.112-14.395Z" transform="translate(-319.075 -238.258)" fill="#3f5625"/>
          <path id="Trazado_54986" data-name="Trazado 54986" d="M422.116,320.821h0a9.264,9.264,0,0,1-9.265-9.265v-6.212h18.531v6.212A9.264,9.264,0,0,1,422.116,320.821Z" transform="translate(-324.412 -229.377)" fill="#4d6330"/>
          <path id="Trazado_54987" data-name="Trazado 54987" d="M419.2,276.3l-.626,14.306a4.538,4.538,0,0,0,4.622,3.315c3.873,0,4.749-1.533,4.749-1.533l1-17.88Z" transform="translate(-321.969 -242.545)" fill="#fc7575"/>
          <path id="Trazado_54988" data-name="Trazado 54988" d="M428.752,274.507l-9.741,1.792.014,1.413c0,1.934,2.845,4.658,4.308,4.829,2.549.29,4.6-2.825,5.284-5.551Z" transform="translate(-321.782 -242.545)" fill="#fd5e5a"/>
          <path id="Trazado_54989" data-name="Trazado 54989" d="M431.333,270.882c-.561,1.9-1.9,3.185-2.985,2.855s-1.513-2.165-.952-4.067,1.9-3.195,2.99-2.855S431.9,268.969,431.333,270.882Z" transform="translate(-318.307 -245.852)" fill="#fc7575"/>
          <path id="Trazado_54990" data-name="Trazado 54990" d="M419.216,269.551c.455,1.854-.036,3.586-1.1,3.857s-2.293-1.012-2.75-2.874.036-3.587,1.1-3.857S418.761,267.689,419.216,269.551Z" transform="translate(-323.41 -245.903)" fill="#fc7575"/>
          <path id="Trazado_54991" data-name="Trazado 54991" d="M417.813,262.4c-1.143,1.822-1.122,5.368-1.253,8.565-.17,4.337,1.754,14.634,6.917,15.145s7.858-4.648,9.026-8.735,1.132-12.54-1.612-15.356S420.1,258.753,417.813,262.4Z" transform="translate(-322.833 -248.829)" fill="#f88"/>
          <path id="Trazado_54992" data-name="Trazado 54992" d="M428.4,269.921s.541-1.774,1.553-1.363.091,3.877-.776,4.207S427.758,271.053,428.4,269.921Z" transform="translate(-317.893 -245.111)" fill="#fd5e5a"/>
          <path id="Trazado_54993" data-name="Trazado 54993" d="M417.754,268.955c-.11-.111-1.106-2.195-1.782-1.5s-.156,5.779.771,4.828S417.754,268.955,417.754,268.955Z" transform="translate(-323.211 -245.617)" fill="#fd5e5a"/>
          <path id="Trazado_54994" data-name="Trazado 54994" d="M417.711,262.4c-.9,1.433-.686,3.976-.922,6.5,1.261-3.706,7.6-8.6,8.229-9.074C422.067,259.6,418.988,260.356,417.711,262.4Z" transform="translate(-322.731 -248.829)" fill="#18287d"/>
          <path id="Trazado_54995" data-name="Trazado 54995" d="M430.925,268.049c-.5-2.5-1.373-4.789-2.6-6.04a9.516,9.516,0,0,0-5.769-2.193C423.588,262.759,428.441,266.345,430.925,268.049Z" transform="translate(-320.268 -248.818)" fill="#2846a6"/>
          <path id="Trazado_54996" data-name="Trazado 54996" d="M427.606,258.766s-7.423-2.273-11.329,5.741c-2.536,5.2-11.069,28.638-5.32,41.24h4.828l-1.022-5.871,3.156,5.871,3.115-.592s-4.984-9.334-4.584-14.093c0,0,2.5,10.768,6.206,12.221l4.292-1.112s-6.837-2.905-5.785-13.875c.636-6.63-2.109-20.885,1.9-24.982a9.1,9.1,0,0,1,5.28-2.924Z" transform="translate(-326.054 -249.393)" fill="#2846a6"/>
          <g id="Grupo_25320" data-name="Grupo 25320" transform="translate(61.147 221.101)">
            <g id="Grupo_25318" data-name="Grupo 25318" transform="translate(0.577)">
              <path id="Trazado_54997" data-name="Trazado 54997" d="M403.711,414.615s6.6,30.853,4.446,33.046-5.488,6.242-10.107,6.621-3.876,4.418-3.876,4.418l17.134-.531,1.267-1.142.671,1.072,5.064-.542s6.035-36.932,4.919-46.068Z" transform="translate(-394.13 -405.155)" fill="#fb8603"/>
              <path id="Trazado_54998" data-name="Trazado 54998" d="M420.358,411.49l-19.518,3.125s.27,1.271.686,3.306c4.308-.792,14.6-2.766,18.968-3.606A26.325,26.325,0,0,0,420.358,411.49Z" transform="translate(-391.265 -405.155)" fill="#fbc802"/>
              <path id="Trazado_54999" data-name="Trazado 54999" d="M416.082,408.447a6.335,6.335,0,0,0-1.087,3.977c2.285-8.5,7.108-2.415,0,0C425.288,411.622,419.644,403.969,416.082,408.447Z" transform="translate(-385.221 -407.05)" fill="#112e1c"/>
              <path id="Trazado_55000" data-name="Trazado 55000" d="M406.81,450.03c5.889-3.646,2.718-11.239-.562-33.577l1.323,5.809c.026.13,2.93,14.785,2.9,14.645.407,2.734,1.273,6,.557,9.086-1.513,7.352-9.862,6.671-14.475,9.265-.124.01-.551.261-.82-.24C395.575,454.728,403.378,452.213,406.81,450.03Z" transform="translate(-393.447 -403.036)" fill="#fbc802"/>
              <g id="Grupo_25317" data-name="Grupo 25317" transform="translate(8.083 4.332)">
                <path id="Trazado_55001" data-name="Trazado 55001" d="M399.794,417.3l.366-3.756,21.587-3.456,1.1,3.526Z" transform="translate(-399.794 -410.086)" fill="#112e1c"/>
              </g>
            </g>
            <g id="Grupo_25319" data-name="Grupo 25319" transform="translate(0 50.951)">
              <path id="Trazado_55002" data-name="Trazado 55002" d="M419.009,443.547l-5.294.551-.847-1.343-1.623,1.463-17.52.551.04,1.212,17.94-.561.912-.812.491.782,5.6-.2Z" transform="translate(-393.726 -442.755)" fill="#fbc802"/>
            </g>
          </g>
          <path id="Trazado_55003" data-name="Trazado 55003" d="M400.6,334.655a12.934,12.934,0,0,1-.972-10.989l-14.871.812.6,7.322,15.937,4.047Z" transform="translate(-336.406 -221.554)" fill="#fbc802"/>
          <path id="Trazado_55004" data-name="Trazado 55004" d="M397.179,335.847c-3.225-4.3-3.42-8.655-1.668-12.181C394.124,329.325,395.7,332.451,397.179,335.847Z" transform="translate(-332.285 -221.554)" fill="#ffee4b"/>
          <path id="Trazado_55005" data-name="Trazado 55005" d="M453.265,311.3s-16.477-26.365-22.5-25.594c-3.56.451,4.554,27.868,4.554,27.868l3.646,6.713Z" transform="translate(-317.15 -237.769)" fill="#d04c72"/>
          <g id="Grupo_25323" data-name="Grupo 25323" transform="translate(96.853 224.62)">
            <path id="Trazado_55006" data-name="Trazado 55006" d="M420.9,446.779h14.525s-1.712-6.2-4.468-6.7c-7.553-1.353-10.271-.231-10.271-.231S419.741,443.923,420.9,446.779Z" transform="translate(-418.074 -396.753)" fill="#fb8603"/>
            <g id="Grupo_25322" data-name="Grupo 25322">
              <path id="Trazado_55007" data-name="Trazado 55007" d="M419.109,411.49H437.59l-6.11,40.739-10.222.471Z" transform="translate(-418.593 -408.675)" fill="#fb8603"/>
              <g id="Grupo_25321" data-name="Grupo 25321" transform="translate(2.254 49.425)">
                <rect id="Rectángulo_5321" data-name="Rectángulo 5321" width="15.702" height="1.212" fill="#fbc802"/>
              </g>
              <path id="Trazado_55008" data-name="Trazado 55008" d="M421.966,443.492c2.554-2.653,5.98-3.455,9.711-.94a.628.628,0,0,1,.171.852c-.746,1.152-1.784-1.774-5.264-1.734A7.472,7.472,0,0,0,421.966,443.492Z" transform="translate(-417.373 -396.061)" fill="#fbc802"/>
              <path id="Trazado_55009" data-name="Trazado 55009" d="M419.109,411.49H437.59l-.385,2.575H419.244Z" transform="translate(-418.593 -408.675)" fill="#fbc802"/>
              <path id="Trazado_55010" data-name="Trazado 55010" d="M419.113,410.539l19.673-1.022-.521,4.1-19.518-.6Z" transform="translate(-418.747 -409.517)" fill="#112e1c"/>
            </g>
            <path id="Trazado_55011" data-name="Trazado 55011" d="M432.6,414.94l-6.832,34.028,5.659-34.259a.6.6,0,1,1,1.177.2C432.6,414.92,432.6,414.93,432.6,414.94Z" transform="translate(-415.75 -407.517)" fill="#fbc802"/>
          </g>
        </g>
      </g>
      <g id="Grupo_25330" data-name="Grupo 25330" transform="translate(188.338 6.772)">
        <g id="Grupo_25329" data-name="Grupo 25329">
          <g id="Grupo_25326" data-name="Grupo 25326" transform="translate(3.364 25.396)">
            <path id="Trazado_55012" data-name="Trazado 55012" d="M362.072,287.146c.106-.625-.659-2.813-1.336-2.514s.245,1.531-.612,3.02-4.947-1.991-5.438-1.775c-.711.313-.568.741-1.327,1.075s-1.356,1.505-1.767,3.378.041,5.756-.478,7.1a18.048,18.048,0,0,1-1.076,4.389c1.262.638,3.278,1.739,4.852,1.346.548-2.951,1.61-4.681,3.78-7.248C361.258,292.852,362.072,287.146,362.072,287.146Z" transform="translate(-345.544 -270.402)" fill="#fd5e5a"/>
            <path id="Trazado_55013" data-name="Trazado 55013" d="M350.28,301.483a1.893,1.893,0,1,1-2.82-2.523c19.711-20.28,18.7-19.461,19.409-18.769C367.806,281.107,366.709,281.007,350.28,301.483Z" transform="translate(-346.889 -272.398)" fill="#555799"/>
            <rect id="Rectángulo_5322" data-name="Rectángulo 5322" width="8.124" height="9.166" transform="matrix(0.726, 0.688, -0.688, 0.726, 13.355, 8.298)" fill="#cfcc2a"/>
            <rect id="Rectángulo_5323" data-name="Rectángulo 5323" width="1.47" height="9.166" transform="translate(14.006 21.549) rotate(-136.501)" fill="#b0af35"/>
            <path id="Trazado_55014" data-name="Trazado 55014" d="M359.357,285.884h0a4.107,4.107,0,0,1-.748-5.744l3-3.9a4.107,4.107,0,0,1,5.744-.748h0a4.106,4.106,0,0,1,.749,5.744l-3,3.9A4.109,4.109,0,0,1,359.357,285.884Z" transform="translate(-342.245 -274.651)" fill="#47555d"/>
            <path id="Trazado_55015" data-name="Trazado 55015" d="M361.621,284.883a4.108,4.108,0,0,1-.749-5.745l3-3.9a4.011,4.011,0,0,1,.537-.572,4.081,4.081,0,0,0-2.8,1.567l-3,3.9a4.1,4.1,0,0,0,5.955,5.57A4.081,4.081,0,0,1,361.621,284.883Z" transform="translate(-342.245 -274.643)" fill="#333"/>
            <path id="Trazado_55016" data-name="Trazado 55016" d="M354.707,285.509s2.8,6.162,1.6,6.691-3.01-5.56-3.01-5.56,2.43,5.659,1.446,6.095-3.121-4.378-3.121-4.378,2.443,4.575,1.644,4.683-2.172-3.322-2.172-3.322a3.845,3.845,0,0,1,.374-1.591c.344-.519.233-.836.471-1.149a3.735,3.735,0,0,1,1.167-.786C353.383,286.072,353.952,284.839,354.707,285.509Z" transform="translate(-345.092 -270.1)" fill="#fc7575"/>
          </g>
          <path id="Trazado_55017" data-name="Trazado 55017" d="M377.065,283.389c-2.239.958-9.477,12.72-11.827,20.75-1.36,4.646-3.924,9.444-5.433,10.7h0c-1.016.571-2.17.7-2.547-1.216-.708-3.6-1.291-8.622-1.535-11.39-2.226-.127-4.378-.823-6.594-.654.193,10.511,1.35,25.466,5.323,25.951,2.065.253,6.4-1.952,9.656-5.825a84.562,84.562,0,0,0,7.58-11.021l7.378-23.373S379.306,282.432,377.065,283.389Z" transform="translate(-342.568 -245.577)" fill="#131537"/>
          <path id="Trazado_55018" data-name="Trazado 55018" d="M383.128,437.023l-.146,9.075,1.01.03,1.3-10.345Z" transform="translate(-328.113 -180.454)" fill="#1d1c22"/>
          <g id="Grupo_25327" data-name="Grupo 25327" transform="translate(2.112 161.91)">
            <path id="Trazado_55019" data-name="Trazado 55019" d="M378.963,380.755s1.08,14.19,2.818,18.43-1.368,60.282-2.844,64.8a13.739,13.739,0,0,1-1.227,2.683c-1.611,2.756-1.976,3.316.183,3.324,2.773.01,5.2-.518,5.741-1.654.93-1.961,1.752-8.716,3.65-8.71,0,0,1.3-2.517.973-3.844-.487-1.995-1.844-.969-1.834-3.743s9.2-44.929,7.76-51.065-2.459-6.87-2.434-14.167S378.963,380.755,378.963,380.755Z" transform="translate(-333.041 -365.894)" fill="#fc7575"/>
            <path id="Trazado_55020" data-name="Trazado 55020" d="M385.66,370.317s-10.349,19.724-9.686,25.565,2.845,10.558.97,18.532-16.72,36.892-17.074,42.179c-.15,2.229.529,2.437.529,2.437-.029,3.841-1.227,7.956-2.026,8.749-1.025,1.019-2.179,6.08-3.154,6.078s-9.2.876-9.2.876c-.213-1.875,2.3-.37,3.776-4.257s2.369-9.725,4.244-17.6,9.567-43.82,9.6-52.092-.732-8.312.551-13.758,6.086-15.647,6.086-15.647Z" transform="translate(-346.011 -370.317)" fill="#fd5e5a"/>
            <path id="Trazado_55021" data-name="Trazado 55021" d="M370.758,395.882c-.662-5.841,9.686-25.565,9.686-25.565l-15.384,1.062s-4.8,10.2-6.086,15.647a24.036,24.036,0,0,0-.642,8.642c2.94.632,7.516,1.557,12.74,2.4C370.951,397.351,370.841,396.626,370.758,395.882Z" transform="translate(-340.796 -370.317)" fill="#e85553"/>
            <path id="Trazado_55022" data-name="Trazado 55022" d="M390.978,386.81c.024-7.3-12.786-6.055-12.786-6.055s.689,9.049,1.852,14.854a58.19,58.19,0,0,0,11.811-.435A29.181,29.181,0,0,1,390.978,386.81Z" transform="translate(-332.27 -365.894)" fill="#fd5e5a"/>
          </g>
          <path id="Trazado_55023" data-name="Trazado 55023" d="M369.909,323.478s-1.8,27.784-3.165,34.4S357.6,411.4,357.6,411.4s34.684,2.92,43.054,0c0,0,.935-60.189-1.036-67.926s-10.585-21.816-10.585-21.816Z" transform="translate(-338.952 -229.183)" fill="#5c1145"/>
          <path id="Trazado_55024" data-name="Trazado 55024" d="M370.684,283.933s4.793-3.687,21.028-.023c.442.1.848,17.716.848,17.716s-7.533,29.487-6.1,36.845c0,0-8.61,7.268-21.456.942,0,0,1.668-23.156.5-28.314s-3.5-9.835-.19-15.186A60.7,60.7,0,0,0,370.684,283.933Z" transform="translate(-336.384 -245.994)" fill="#e469a6"/>
          <path id="Trazado_55025" data-name="Trazado 55025" d="M370.684,283.933s4.793-3.687,21.028-.023c.442.1.848,17.716.848,17.716s-7.533,29.487-6.1,36.845c0,0-8.61,7.268-21.456.942,0,0,1.668-23.156.5-28.314s-3.5-9.835-.19-15.186A60.7,60.7,0,0,0,370.684,283.933Z" transform="translate(-336.384 -245.994)" fill="#25275a"/>
          <path id="Trazado_55026" data-name="Trazado 55026" d="M383.864,327.658c.264-.264,2.564-3.655,3.057-3.162s-2.038,3.619-2.038,3.619,2.934-2.97,3.513-2.39-3.92,4.589-4.4,4.589S383.864,327.658,383.864,327.658Z" transform="translate(-327.786 -227.993)" fill="#fd5e5a"/>
          <path id="Trazado_55027" data-name="Trazado 55027" d="M381.241,325.868s-1.241,1.894-.327,2.808.424,1.861,1.045,2.482,3.395.718,3.395.718a19.11,19.11,0,0,1,1.567-5.747,21.417,21.417,0,0,1,2.217-3.151,37.543,37.543,0,0,0-3.831-2.192C383.012,323.767,381.283,325.794,381.241,325.868Z" transform="translate(-329.139 -229.556)" fill="#fc7575"/>
          <path id="Trazado_55028" data-name="Trazado 55028" d="M383.514,283.447s-1.61,12.8,0,16.322c1.568,3.432,10.73,7.39,12.3,14.343,1.174,5.193-6.474,16.152-11.457,22.622a40.153,40.153,0,0,0,4.494,4.118c5.072-6.454,16.128-21.653,16.446-25.216C405.691,311.256,390.324,282.99,383.514,283.447Z" transform="translate(-328.191 -245.502)" fill="#5e5da8"/>
          <path id="Trazado_55029" data-name="Trazado 55029" d="M383.58,283.445c-.243,2.985-.434,5.842-.489,8.886-.051,5.375.273,7.071,1.46,8.419,2.754,3.194,10.125,7.092,11.332,13.359-1.717-6.213-8.846-9.671-11.726-13.026a6.707,6.707,0,0,1-1.431-4.287A66.684,66.684,0,0,1,383.58,283.445Z" transform="translate(-328.257 -245.5)" fill="#828ac3"/>
          <path id="Trazado_55030" data-name="Trazado 55030" d="M386.9,431.682c-.852,5.073-4.2,15.12-6.143,15.12-2.628,0-2.781-.138-2.761-1.912-1.611,2.754-3.435,4.163-1.276,4.17,2.773.01,7.1.193,7.637-.943.93-1.961,1.46-9.388,3.358-9.382l-.621,9.144,1.007.03s1.535-12.589,1.211-13.848A3.633,3.633,0,0,0,386.9,431.682Z" transform="translate(-331.21 -182.205)" fill="#3a3745"/>
          <path id="Trazado_55031" data-name="Trazado 55031" d="M349.243,445.717c-1.934,1.8-4.875,1.428-4.7,2.932,0,0,10.648-.422,11.621-.418s1.821-5.979,2.845-7,.365,7.008.365,7.008l1.05,0s.729-8.269,1.714-11.479c.783-2.554-.315-3.633-1.1-4.282C357.816,438.584,357.29,447.176,349.243,445.717Z" transform="translate(-344.531 -181.862)" fill="#3a3745"/>
          <g id="Grupo_25328" data-name="Grupo 25328" transform="translate(26.373)">
            <path id="Trazado_55032" data-name="Trazado 55032" d="M383.767,266.984s6.531,1.19,6.531,5.824-1,2.54-2.053,5.849-.073,6.136-4.478,6.136-3.642.287-5.838,1.624-6.53-.908-7-5.682,7.587-4.442,7.587-7.927S383.767,266.984,383.767,266.984Z" transform="translate(-359.64 -252.529)" fill="#3c1247"/>
            <path id="Trazado_55033" data-name="Trazado 55033" d="M370.924,276.182a12.375,12.375,0,0,1,1.955,7.014,23.044,23.044,0,0,1-1.14,6.053,2.41,2.41,0,0,0,1.343,3.486,4.329,4.329,0,0,0,3.255.091c1.891-.726,4.76-2.072,5.634-4.183.584-1.413-4.7-17.384-4.7-17.384Z" transform="translate(-359.634 -250.703)" fill="#fc7575"/>
            <path id="Trazado_55034" data-name="Trazado 55034" d="M370.924,276.182l6.346-4.922s.622,1.878,1.416,4.4c-1.49,2.253-3.469,4.431-5.923,5.277A13.223,13.223,0,0,0,370.924,276.182Z" transform="translate(-359.634 -250.703)" fill="#fd5e5a"/>
            <path id="Trazado_55035" data-name="Trazado 55035" d="M368.642,259.719a7.292,7.292,0,0,0-2.688,4.137c-.635,2.75.977,6.009.809,8.354s3.335,13.839,8.889,11.616,6.847-10.929,6.984-12.834-3.112-8.519-6.19-10.3S368.642,259.719,368.642,259.719Z" transform="translate(-361.82 -255.711)" fill="#fc7575"/>
            <path id="Trazado_55036" data-name="Trazado 55036" d="M367.62,260.807a5.847,5.847,0,0,1,5.52-3.776c.13-.011.261-.02.391-.026a27.6,27.6,0,0,1,7.228.176,9.17,9.17,0,0,1,3.9,1.871c1.35,1.152,2.639,2.473,2.817,4.178.324,3.119-1.11,6.526-.071,9.535l.021.066a6.55,6.55,0,0,1-3.577,8.231c-1.834.779-3.332,1.035-4.328-.615.144-1.692,4.329-7.121.485-11.183-.268.193-.114,1.63-.742,1.647-1.521.043-2.513-3.262-2.687-4.639a6.276,6.276,0,0,0-2.671-3.732,9.084,9.084,0,0,0-4.6-1.668,9.6,9.6,0,0,0-1.085.086c-.381.073-.612.164-.695.154A1,1,0,0,1,367.62,260.807Z" transform="translate(-361.085 -256.854)" fill="#501f5e"/>
            <path id="Trazado_55037" data-name="Trazado 55037" d="M371.174,258.263a8.1,8.1,0,0,0-5.4,1.854c-2.386,2.076-2.038,9.538-.575,10.974s-4.476,3.948-1.163,3.958C368.731,275.062,374.108,258.8,371.174,258.263Z" transform="translate(-363.012 -256.256)" fill="#501f5e"/>
            <path id="Trazado_55038" data-name="Trazado 55038" d="M369.909,259.041c-4.438.21-6.922,4.043-5.444,7.686a2.191,2.191,0,0,0,1.267,1.407l.181-.92c-.243-.009-.6-.6-.706-.821C363.633,263.246,365.714,259.563,369.909,259.041Z" transform="translate(-362.575 -255.921)" fill="#6d2a81"/>
            <path id="Trazado_55039" data-name="Trazado 55039" d="M375.741,266.791s.26-2.362,2.138-1.7,1.094,6.4-.564,5.841S375.741,266.791,375.741,266.791Z" transform="translate(-357.578 -253.388)" fill="#fc7575"/>
            <path id="Trazado_55040" data-name="Trazado 55040" d="M376.031,267.646s.231-2.564,1.167-1.885,1.03,3.192.053,3.348S376.031,267.646,376.031,267.646Z" transform="translate(-357.454 -253.1)" fill="#fd5e5a"/>
          </g>
        </g>
      </g>
      <path id="Trazado_55041" data-name="Trazado 55041" d="M263.485,282.588S255.074,343,258.923,347.5l5.554,3.169s1.487-58.474,2.611-66.037Z" transform="translate(-193.178 -239.094)" fill="#191919"/>
      <path id="Trazado_55042" data-name="Trazado 55042" d="M274.59,426.093a55.936,55.936,0,0,1,10.336-.168c.676,8.455,1.38,15.918,1.732,19.066.348,3.119.588,5.921.809,8.419l-7.983-.391a30.253,30.253,0,0,0,.853-5.012C280.491,445.258,277.581,435.782,274.59,426.093Z" transform="translate(-186.057 -177.962)" fill="#fc7575"/>
      <path id="Trazado_55043" data-name="Trazado 55043" d="M254.619,442.375c.127-1.05-.365-7.881-.909-16.309,2.691.031,5.375.116,8.055.277-.557,8.084-.982,15.864-1.154,21.371l-8.3-1.8C253.048,443.966,254.286,445.165,254.619,442.375Z" transform="translate(-195.57 -177.83)" fill="#f1696a"/>
      <path id="Trazado_55044" data-name="Trazado 55044" d="M273.321,445.187c1.016-8.237.067-12.947,1.456-18.739s-11.721-64.219-11.721-64.219l13.85-32.8,12.169-1.356s-.148,85.517.467,91.152-.153,5.581-1.152,13.9c-.612,5.109-.285,20.77,3.856,34.8-3.458-.291-12.528.517-15.962.861C273.442,459.588,272.706,450.185,273.321,445.187Z" transform="translate(-190.983 -219.671)" fill="#56566f"/>
      <path id="Trazado_55045" data-name="Trazado 55045" d="M251.619,433.251c1.8-6.126,2.877-6.81,3.265-14.194.1-1.817,1.871-63.428,4.048-69.319,1.982-7.435,14.567-20.606,14.567-20.606l16.717.9.111,8.836a21.239,21.239,0,0,1-9.044,17.656l-1.969,1.381c-.836,4.479-13.118,70.192-15.048,74.238-1.087,2.28.548,20.28.511,36.858-2.684.017-10.437.6-13.124.748C249.828,455.889,250.493,437.068,251.619,433.251Z" transform="translate(-196.336 -219.22)" fill="#acaad4"/>
      <g id="Grupo_25331" data-name="Grupo 25331" transform="translate(56.871 120.706)">
        <path id="Trazado_55046" data-name="Trazado 55046" d="M262.675,336.893a.292.292,0,0,1,.552.193c0,.006-.2.576-.537,1.658a.293.293,0,0,1-.3.205.288.288,0,0,1-.07-.013.292.292,0,0,1-.193-.365C262.471,337.478,262.674,336.9,262.675,336.893Z" transform="translate(-248.254 -336.697)" fill="#4e4b84"/>
        <path id="Trazado_55047" data-name="Trazado 55047" d="M256.293,389.758a.3.3,0,0,1,.285.3c-.03,1.287-.057,2.482-.078,3.565a.293.293,0,0,1-.3.287h-.011a.294.294,0,0,1-.275-.3c.023-1.085.049-2.279.08-3.568A.292.292,0,0,1,256.293,389.758Z" transform="translate(-250.903 -314.04)" fill="#4e4b84"/>
        <path id="Trazado_55048" data-name="Trazado 55048" d="M254.555,403.381c.238-1.173.5-2.349.769-3.492a.292.292,0,1,1,.568.136c-.27,1.137-.527,2.3-.765,3.473a.292.292,0,0,1-.3.233.389.389,0,0,1-.041-.006A.29.29,0,0,1,254.555,403.381Z" transform="translate(-251.486 -309.81)" fill="#4e4b84"/>
        <path id="Trazado_55049" data-name="Trazado 55049" d="M253.965,408.666a.292.292,0,0,1-.251-.328c.157-1.156.338-2.345.541-3.533a.288.288,0,0,1,.337-.24.292.292,0,0,1,.24.337c-.2,1.183-.382,2.365-.538,3.515a.292.292,0,0,1-.305.253Z" transform="translate(-251.844 -307.72)" fill="#4e4b84"/>
        <path id="Trazado_55050" data-name="Trazado 55050" d="M255.9,397.9c0-.211.014-1.223.041-2.853a.293.293,0,0,1,.585.01c-.031,1.838-.043,2.89-.043,2.89v.041l-.011.04s-.07.228-.187.651a.292.292,0,0,1-.3.213.229.229,0,0,1-.061-.01.293.293,0,0,1-.2-.36C255.808,398.19,255.871,397.979,255.9,397.9Z" transform="translate(-250.992 -311.905)" fill="#4e4b84"/>
        <path id="Trazado_55051" data-name="Trazado 55051" d="M253.471,414.5a.293.293,0,0,1,.275.308l-.2,3.559a.292.292,0,1,1-.584-.033l.2-3.559A.293.293,0,0,1,253.471,414.5Z" transform="translate(-252.164 -303.477)" fill="#4e4b84"/>
        <path id="Trazado_55052" data-name="Trazado 55052" d="M252.911,424.472a.293.293,0,0,1,.275.308l-.2,3.56a.292.292,0,1,1-.584-.033l.2-3.56A.293.293,0,0,1,252.911,424.472Z" transform="translate(-252.403 -299.218)" fill="#4e4b84"/>
        <path id="Trazado_55053" data-name="Trazado 55053" d="M258.627,353.709c.22-1.167.45-2.345.685-3.5a.293.293,0,0,1,.574.117c-.235,1.154-.465,2.329-.685,3.492a.292.292,0,0,1-.3.238l-.038,0A.292.292,0,0,1,258.627,353.709Z" transform="translate(-249.747 -331.028)" fill="#4e4b84"/>
        <path id="Trazado_55054" data-name="Trazado 55054" d="M253.823,409.512a.293.293,0,0,1,.264.318c-.1,1.046-.178,2.086-.235,3.091l-.026.452a.292.292,0,1,1-.582-.033l.024-.452c.057-1.012.137-2.059.237-3.114A.294.294,0,0,1,253.823,409.512Z" transform="translate(-252.044 -305.605)" fill="#4e4b84"/>
        <path id="Trazado_55055" data-name="Trazado 55055" d="M253.191,419.484a.292.292,0,0,1,.275.308l-.2,3.559a.292.292,0,0,1-.584-.033l.2-3.559A.292.292,0,0,1,253.191,419.484Z" transform="translate(-252.283 -301.347)" fill="#4e4b84"/>
        <path id="Trazado_55056" data-name="Trazado 55056" d="M256.533,375.054a.292.292,0,0,1,.305-.278h0a.293.293,0,0,1,.277.305q-.083,1.787-.158,3.56a.292.292,0,0,1-.3.28h0a.292.292,0,0,1-.275-.3C256.425,377.437,256.478,376.247,256.533,375.054Z" transform="translate(-250.707 -320.437)" fill="#4e4b84"/>
        <path id="Trazado_55057" data-name="Trazado 55057" d="M256.436,384.763a.3.3,0,0,1,.284.3c-.037,1.229-.071,2.42-.1,3.562a.293.293,0,0,1-.3.285h-.009a.292.292,0,0,1-.275-.3c.031-1.143.064-2.335.1-3.565A.291.291,0,0,1,256.436,384.763Z" transform="translate(-250.852 -316.173)" fill="#4e4b84"/>
        <path id="Trazado_55058" data-name="Trazado 55058" d="M257.471,364.806a.292.292,0,0,1,.268.314c-.089,1.162-.171,2.347-.251,3.55a.294.294,0,0,1-.308.274h0a.292.292,0,0,1-.273-.31c.08-1.206.164-2.395.253-3.557a.291.291,0,0,1,.308-.27Z" transform="translate(-250.481 -324.694)" fill="#4e4b84"/>
        <path id="Trazado_55059" data-name="Trazado 55059" d="M260.419,345.321a.292.292,0,1,1,.568.135c-.268,1.136-.535,2.3-.791,3.469a.292.292,0,0,1-.3.228.239.239,0,0,1-.046-.006.293.293,0,0,1-.224-.348C259.881,347.63,260.149,346.46,260.419,345.321Z" transform="translate(-249.322 -333.11)" fill="#4e4b84"/>
        <path id="Trazado_55060" data-name="Trazado 55060" d="M256.313,380.05a.292.292,0,0,1,.3-.281h.006a.292.292,0,0,1,.275.3q-.068,1.811-.127,3.562a.3.3,0,0,1-.3.283h-.007a.292.292,0,0,1-.275-.3C256.226,382.448,256.267,381.257,256.313,380.05Z" transform="translate(-250.787 -318.305)" fill="#4e4b84"/>
        <path id="Trazado_55061" data-name="Trazado 55061" d="M257.115,369.788h0a.292.292,0,0,1,.275.308q-.043.715-.081,1.431-.06,1.06-.116,2.125a.292.292,0,0,1-.307.275h0a.291.291,0,0,1-.275-.307q.056-1.066.114-2.126c.027-.478.056-.956.083-1.433A.293.293,0,0,1,257.115,369.788Z" transform="translate(-250.606 -322.567)" fill="#4e4b84"/>
        <path id="Trazado_55062" data-name="Trazado 55062" d="M262.063,340.271a.291.291,0,0,1,.2.361c-.307,1.1-.615,2.252-.919,3.435a.292.292,0,0,1-.3.22.365.365,0,0,1-.057-.009.293.293,0,0,1-.211-.357c.305-1.187.615-2.347.923-3.448A.292.292,0,0,1,262.063,340.271Z" transform="translate(-248.83 -335.175)" fill="#4e4b84"/>
        <path id="Trazado_55063" data-name="Trazado 55063" d="M258.208,360.154c-.116,1.106-.231,2.3-.341,3.543a.292.292,0,0,1-.307.265h-.01a.291.291,0,0,1-.265-.315c.11-1.249.225-2.443.341-3.553a.3.3,0,0,1,.321-.26A.293.293,0,0,1,258.208,360.154Z" transform="translate(-250.319 -326.818)" fill="#4e4b84"/>
        <path id="Trazado_55064" data-name="Trazado 55064" d="M258.914,355.222c-.18,1.04-.355,2.223-.522,3.512a.29.29,0,0,1-.305.254h-.021a.291.291,0,0,1-.253-.327c.167-1.3.344-2.489.525-3.538a.293.293,0,0,1,.577.1Z" transform="translate(-250.094 -328.932)" fill="#4e4b84"/>
      </g>
      <g id="Grupo_25334" data-name="Grupo 25334" transform="translate(91.702 264.339)">
        <path id="Trazado_55065" data-name="Trazado 55065" d="M285.014,437.352a3,3,0,0,0-3.122,2.757c-.358,2.9,2.94,7.126,2.94,7.126l3.579-2.022s-2.994-1.868-3.079-4.632A11.371,11.371,0,0,0,285.014,437.352Z" transform="translate(-274.654 -437.351)" fill="#ffda88"/>
        <g id="Grupo_25332" data-name="Grupo 25332" transform="translate(7.212)">
          <path id="Trazado_55066" data-name="Trazado 55066" d="M281.92,440.53a4.007,4.007,0,0,0-.024.558,4.243,4.243,0,0,1,0-.979,3,3,0,0,1,3.122-2.757,1.876,1.876,0,0,1,.1.434A3.048,3.048,0,0,0,281.92,440.53Z" transform="translate(-281.866 -437.351)" fill="#fff"/>
        </g>
        <path id="Trazado_55067" data-name="Trazado 55067" d="M276.942,451.06l7.47.792c3.077.327,7.945,1.217,9.482,1.381s7.492-2.877,7.252-4.1-5.326-1.464-7.821-3.075-6.707-5.333-7.61-5.751c-1.41-.652-5.32.344-6.294,1.14S276.256,450.2,276.942,451.06Z" transform="translate(-276.811 -436.179)" fill="#cfcc2a"/>
        <path id="Trazado_55068" data-name="Trazado 55068" d="M277.825,446.464c12.473-.634,8.578,2.731,20.933.651-3.041.875-7.486,1.592-10.521.654a28.029,28.029,0,0,0-5.151-.9C281.34,446.688,279.585,446.573,277.825,446.464Z" transform="translate(-276.379 -433.494)" fill="#e9dd14"/>
        <g id="Grupo_25333" data-name="Grupo 25333" transform="translate(9.489 5.689)">
          <path id="Trazado_55069" data-name="Trazado 55069" d="M283.879,445.574a.472.472,0,0,0,.659.127,24.611,24.611,0,0,1,3.984-2.2c-.263-.224-.532-.457-.8-.695a26.7,26.7,0,0,0-3.714,2.1A.487.487,0,0,0,283.879,445.574Z" transform="translate(-283.317 -440.711)" fill="#fff"/>
          <path id="Trazado_55070" data-name="Trazado 55070" d="M283.661,444.185a.473.473,0,0,0,.662-.114,11.989,11.989,0,0,1,2.006-2.095c-.25-.221-.5-.435-.731-.638a12.52,12.52,0,0,0-2.048,2.178A.481.481,0,0,0,283.661,444.185Z" transform="translate(-283.461 -441.338)" fill="#fff"/>
        </g>
      </g>
      <g id="Grupo_25338" data-name="Grupo 25338" transform="translate(51.634 259.713)">
        <path id="Trazado_55071" data-name="Trazado 55071" d="M262.653,437.787s-.461,5.4-.775,9.073,1.059,6.727-3.543,7.1-9.313-1.339-9.581-3.756,4.679-7.651,4.882-10.027,1.583-3.239,2.275-2.417S262.653,437.787,262.653,437.787Z" transform="translate(-248.727 -432.681)" fill="#cfcc2a"/>
        <path id="Trazado_55072" data-name="Trazado 55072" d="M261.4,448.7a4.137,4.137,0,0,1-3.222.8c-2.639-.084-8.381-.706-9.42-3.121a2.449,2.449,0,0,0,.586,1.848C252.324,451.891,260.75,451.686,261.4,448.7Z" transform="translate(-248.732 -428.867)" fill="#ffda88"/>
        <path id="Trazado_55073" data-name="Trazado 55073" d="M252.412,443.971a2.872,2.872,0,0,0,5.355,1.621l.07-.127a55.3,55.3,0,0,0,3.1-6.431c.542-1.076,1.256-2.554-1.029-3.837s-5.752-1.458-5.845-.378A66.378,66.378,0,0,0,252.412,443.971Z" transform="translate(-247.165 -434.109)" fill="#ffda88"/>
        <path id="Trazado_55074" data-name="Trazado 55074" d="M259.412,435.2c2.285,1.283,1.571,2.761,1.029,3.837a55.3,55.3,0,0,1-3.1,6.431l-.07.127a3.025,3.025,0,0,1-.464.621c.041-.061.08-.126.118-.191l.07-.127a55.48,55.48,0,0,0,3.1-6.43c.542-1.077,1.256-2.556-1.029-3.839-1.875-1.053-4.546-1.36-5.5-.839C253.727,433.741,257.15,433.926,259.412,435.2Z" transform="translate(-246.666 -434.109)" fill="#fff"/>
        <path id="Trazado_55075" data-name="Trazado 55075" d="M255.8,444.743s.384-6.69,1.36-6.881a15.493,15.493,0,0,1,2.486-.176s-1.06,6.7-2.289,7.733S255.8,444.743,255.8,444.743Z" transform="translate(-245.716 -432.581)" fill="#cfcc2a"/>
        <g id="Grupo_25335" data-name="Grupo 25335" transform="translate(5.067 6.613)">
          <path id="Trazado_55076" data-name="Trazado 55076" d="M252.284,438.993a.275.275,0,0,0,.091.228c2.546,2.24,6.463.545,6.628.472a.273.273,0,1,0-.22-.5c-.037.016-3.766,1.625-6.048-.382a.273.273,0,0,0-.385.024A.267.267,0,0,0,252.284,438.993Z" transform="translate(-252.283 -438.743)" fill="#fff"/>
        </g>
        <g id="Grupo_25336" data-name="Grupo 25336" transform="translate(4.679 9.276)">
          <path id="Trazado_55077" data-name="Trazado 55077" d="M252.012,440.858a.275.275,0,0,0,.087.224c1.568,1.464,6.213.431,6.41.387a.273.273,0,0,0-.12-.532c-1.264.285-4.79.8-5.919-.254a.273.273,0,0,0-.385.013A.282.282,0,0,0,252.012,440.858Z" transform="translate(-252.011 -440.609)" fill="#fff"/>
        </g>
        <g id="Grupo_25337" data-name="Grupo 25337" transform="translate(4.334 11.188)">
          <path id="Trazado_55078" data-name="Trazado 55078" d="M251.77,442.2a.267.267,0,0,0,.063.2c1.226,1.454,6.157.734,6.715.645a.273.273,0,1,0-.084-.539c-1.433.224-5.341.576-6.213-.458a.273.273,0,0,0-.481.153Z" transform="translate(-251.769 -441.949)" fill="#fff"/>
        </g>
        <path id="Trazado_55079" data-name="Trazado 55079" d="M259.136,445.16s.866,3.56.143,4.171-9.365-.251-9.237-1.748,2.33-4.28,3.121-4.441S259.136,445.16,259.136,445.16Z" transform="translate(-248.174 -430.255)" fill="#e9dd14"/>
      </g>
      <path id="Trazado_55080" data-name="Trazado 55080" d="M300.2,309.028c-9.858-4.422-15.343-23.034-18.569-23.223a8.718,8.718,0,0,0-4.658.852s-2.213,18.442,2.746,20.2c3.272,1.16,13.34,13.913,20.6,16.961C298.261,320.023,298.134,310.769,300.2,309.028Z" transform="translate(-185.251 -237.729)" fill="#aa2240"/>
      <path id="Trazado_55081" data-name="Trazado 55081" d="M283.582,286.651s-3.95-1.946-20.225.044c-.825.1-2.365,18.935-2.365,18.935s8.034,35.164,6.354,43.052c0,0,9.756,7.044,23.694.484,0,0-2.432-26.99-1.077-32.515s3.95-10.513.491-16.332A146.57,146.57,0,0,1,283.582,286.651Z" transform="translate(-191.863 -237.723)" fill="#e02f56"/>
      <path id="Trazado_55082" data-name="Trazado 55082" d="M267.375,288.255s-1.11-2.67-4.4-1.4c-8.3,3.2-5.936,27.491-3.132,36.876s22.267-7.291,22.267-7.291c.577-3.632-7.659-12.562-7.659-12.562s-4.99,7.974-6.5,6.466S270.648,294.789,267.375,288.255Z" transform="translate(-193.465 -237.419)" fill="#e55a78"/>
      <g id="Grupo_25339" data-name="Grupo 25339" transform="translate(68.881 10.818)">
        <path id="Trazado_55083" data-name="Trazado 55083" d="M267.353,269.825s-6.534,1.19-6.534,5.826,1,2.54,2.053,5.851.074,6.14,4.481,6.14,3.643.287,5.841,1.625,6.534-.908,7-5.685-7.59-4.446-7.59-7.931S267.353,269.825,267.353,269.825Z" transform="translate(-260.819 -255.362)" fill="#3c1247"/>
        <path id="Trazado_55084" data-name="Trazado 55084" d="M277.72,279.026a12.378,12.378,0,0,0-1.955,7.018,22.974,22.974,0,0,0,1.14,6.058,2.41,2.41,0,0,1-1.344,3.488,4.339,4.339,0,0,1-3.256.091c-1.892-.726-4.763-2.073-5.637-4.185-.585-1.414,4.7-17.392,4.7-17.392Z" transform="translate(-258.341 -253.535)" fill="#fc7575"/>
        <path id="Trazado_55085" data-name="Trazado 55085" d="M276.722,279.026l-6.35-4.923s-.621,1.878-1.414,4.4c1.49,2.255,3.469,4.434,5.925,5.28A13.224,13.224,0,0,1,276.722,279.026Z" transform="translate(-257.344 -253.535)" fill="#fd5e5a"/>
        <path id="Trazado_55086" data-name="Trazado 55086" d="M281.721,262.554a7.3,7.3,0,0,1,2.69,4.141c.636,2.75-.977,6.012-.808,8.356s-3.336,13.846-8.894,11.621-6.85-10.935-6.987-12.84,3.112-8.523,6.193-10.309S281.721,262.554,281.721,262.554Z" transform="translate(-257.873 -258.545)" fill="#fc7575"/>
        <path id="Trazado_55087" data-name="Trazado 55087" d="M283.777,263.643a5.854,5.854,0,0,0-5.524-3.777c-.13-.011-.26-.019-.39-.024a27.511,27.511,0,0,0-7.232.176,9.148,9.148,0,0,0-3.906,1.871c-1.35,1.153-2.639,2.474-2.817,4.181-.325,3.121,1.11,6.528.071,9.539l-.023.066a6.552,6.552,0,0,0,3.58,8.234c1.835.781,3.333,1.036,4.331-.614-.144-1.694-5.107-7.58-.893-11.44.268.194.522,1.881,1.149,1.9,1.523.044,2.514-3.262,2.69-4.642a6.273,6.273,0,0,1,2.671-3.733,9.068,9.068,0,0,1,4.6-1.668,9.661,9.661,0,0,1,1.086.086c.381.073.611.163.694.154A.975.975,0,0,0,283.777,263.643Z" transform="translate(-259.641 -259.69)" fill="#501f5e"/>
        <path id="Trazado_55088" data-name="Trazado 55088" d="M276.842,261.1a8.1,8.1,0,0,1,5.405,1.855c2.389,2.076,2.039,9.542.575,10.979s4.479,3.95,1.164,3.96C279.286,277.906,273.907,261.638,276.842,261.1Z" transform="translate(-254.334 -259.091)" fill="#501f5e"/>
        <path id="Trazado_55089" data-name="Trazado 55089" d="M277.173,261.878c4.439.208,6.925,4.043,5.447,7.689a2.2,2.2,0,0,1-1.269,1.408l-.181-.922c.243-.009.6-.6.706-.82C283.452,266.085,281.37,262.4,277.173,261.878Z" transform="translate(-253.836 -258.755)" fill="#6d2a81"/>
        <path id="Trazado_55090" data-name="Trazado 55090" d="M270.547,269.631s-.26-2.363-2.141-1.7-1.093,6.406.567,5.842S270.547,269.631,270.547,269.631Z" transform="translate(-258.045 -256.221)" fill="#fc7575"/>
        <path id="Trazado_55091" data-name="Trazado 55091" d="M269.861,270.488s-.231-2.566-1.167-1.887-1.032,3.194-.053,3.348S269.861,270.488,269.861,270.488Z" transform="translate(-257.775 -255.933)" fill="#fd5e5a"/>
      </g>
      <g id="Grupo_25347" data-name="Grupo 25347" transform="translate(68.881 21.228)">
        <path id="Trazado_55092" data-name="Trazado 55092" d="M285.471,286.183c0,.992,1.748,4.833,1.748,7.146s.695,5.121,1.828,9.584,4.976,20.393,7.432,22.541,3.418-12.225,2.473-14.786-5.217-12.613-5.217-14.678.662-3.321,1.417-5.47.22-5.424-.6-5.782.347,2.835.031,3.111-.851-4.681-2.078-5.467.692,4.008.692,4.862.126,1.46-.251,1.46-.472-2.313-.929-3.692-1.274-3.415-2.377-3,1.323,2.781,1.323,3.717.315,2.783-.157,2.947-.976-6.252-2.14-6.5-.472,1.514-.1,3.03.629,3.91.031,3.91-1.1-.605-1.888-1.928S285.471,285.191,285.471,286.183Z" transform="translate(-250.293 -260.592)" fill="#fc7575"/>
        <g id="Grupo_25346" data-name="Grupo 25346">
          <path id="Trazado_55093" data-name="Trazado 55093" d="M264.712,289.031h0a3.9,3.9,0,0,1-3.893-3.893V276.92a3.9,3.9,0,0,1,3.893-3.893h0a3.9,3.9,0,0,1,3.893,3.893v8.218A3.9,3.9,0,0,1,264.712,289.031Z" transform="translate(-260.819 -264.405)" fill="#231f20"/>
          <path id="Rectángulo_5324" data-name="Rectángulo 5324" d="M5.607,0h9.866a5.608,5.608,0,0,1,5.608,5.608V10.4A5.607,5.607,0,0,1,15.474,16H5.607A5.607,5.607,0,0,1,0,10.4V5.607A5.607,5.607,0,0,1,5.607,0Z" transform="translate(0.249 5.103)" fill="#231f20"/>
          <path id="Trazado_55094" data-name="Trazado 55094" d="M282.752,269.635a41.65,41.65,0,0,1,8.556.194,28.635,28.635,0,0,1,5.273,1.216,64.913,64.913,0,0,1,7.58,3.069,11.841,11.841,0,0,1,2.048,1.137,10.048,10.048,0,0,1,3.412,7.014c.26,3.3-.228,13.018-2.189,14.238s-8.977,2.553-11.223,2.683-11.025-1.8-11.025-1.8a4.054,4.054,0,0,0-4.375-3.331c-3.794.218-4.4,2.112-4.4,2.112a60.561,60.561,0,0,1-7.791-1.5c-2.573-.825-4.552-2.392-4.688-4.11a130.053,130.053,0,0,1-.214-14.5,3.834,3.834,0,0,1,.735-2.591c.845-.918,2.309-1.027,3.528-1.279,1.651-.34,3.291-.715,4.94-1.057A74.732,74.732,0,0,1,282.752,269.635Z" transform="translate(-259.625 -265.909)" fill="#121841"/>
          <path id="Trazado_55095" data-name="Trazado 55095" d="M269.288,280.85l1.247-.071a.556.556,0,0,0,.558-.564l-.437-5.548a.585.585,0,0,0-.641-.494l-1.249.073a.555.555,0,0,0-.558.562l.438,5.548A.583.583,0,0,0,269.288,280.85Z" transform="translate(-257.664 -263.916)" fill="#101224"/>
          <path id="Trazado_55096" data-name="Trazado 55096" d="M267.787,277.857l-1.6.093.43,5.469,1.624.172Z" transform="translate(-258.528 -262.342)" fill="#101224"/>
          <path id="Trazado_55097" data-name="Trazado 55097" d="M299.548,278.944l-4.516-.477s-5.062.361-5.874,4.409c-.919,4.588.41,7.731,2.536,8.4a34.035,34.035,0,0,0,5.347,1.019Z" transform="translate(-248.845 -262.082)" fill="#101224"/>
          <g id="Grupo_25340" data-name="Grupo 25340" transform="translate(4.267 3.873)">
            <path id="Trazado_55098" data-name="Trazado 55098" d="M293.627,273.869c-3.286-2.534-16.121-3.528-19.888-3.767,1.013-.158,2.031-.3,3.052-.4,5.851.491,14.565,1.6,17.3,3.7a14.5,14.5,0,0,1,6.048,10.515c.2,2.581.023,9.852-.091,13.651q-.347.1-.706.188c.113-3.726.3-11.193.1-13.8A13.852,13.852,0,0,0,293.627,273.869Z" transform="translate(-259.569 -269.699)" fill="#101224"/>
            <path id="Trazado_55099" data-name="Trazado 55099" d="M290.726,275.157c-3.666-2.825-20.566-3.9-22.3-4q1.1-.242,2.212-.477c5.993.44,17.478,1.644,20.55,4.011a14.5,14.5,0,0,1,6.046,10.515c.193,2.456.04,9.158-.074,13.076-.243.041-.477.081-.7.117.114-3.886.274-10.69.08-13.153A13.855,13.855,0,0,0,290.726,275.157Z" transform="translate(-261.838 -269.279)" fill="#101224"/>
            <path id="Trazado_55100" data-name="Trazado 55100" d="M290.678,296.115a6.642,6.642,0,0,0,.475,1.15q.441.077.876.15a5.677,5.677,0,0,1-.675-1.461,1.866,1.866,0,0,1,.208-1.715,4.466,4.466,0,0,1,2.556-1.349l.308-.05-.455-5.779c-.341-4.325-1.1-10.29-5.649-11.811-3.582-1.2-19.323-2.319-24.275-2.647a2.792,2.792,0,0,0-.238.605c.962.064,2.4.163,4.123.29l1.122,14.258.7-.04-1.116-14.166c1.889.143,4.053.315,6.246.509l.424,9.989a2.678,2.678,0,0,0,2.125,2.385l3.1.788c1.941.494,3.834-.842,3.726-2.611l-.628-9.619a29.158,29.158,0,0,1,4.449.838c5.355,1.792,5.069,10.749,5.609,16.516C291.507,292.855,290.077,294.171,290.678,296.115ZM282.919,274.9l.635,9.745a2.162,2.162,0,0,1-2.835,1.985l-3.1-.788a2.034,2.034,0,0,1-1.617-1.812l-.421-9.9C278.159,274.357,280.736,274.619,282.919,274.9Z" transform="translate(-263.809 -268.459)" fill="#101224"/>
          </g>
          <path id="Trazado_55101" data-name="Trazado 55101" d="M263.615,282.376c4.407.862,21.393,4.327,22.823,6.782a6.693,6.693,0,0,1,.875,3.212c-1.338-.273-2.273-.477-2.273-.477a4.054,4.054,0,0,0-4.375-3.331c-3.794.218-4.4,2.112-4.4,2.112a60.56,60.56,0,0,1-7.791-1.5c-2.573-.825-4.552-2.392-4.686-4.11Q263.682,283.718,263.615,282.376Z" transform="translate(-259.625 -260.413)" fill="#101224"/>
          <path id="Trazado_55102" data-name="Trazado 55102" d="M263.76,274.1a139.405,139.405,0,0,0,.342,14.572c.28,2.049,2.947,3.508,5.2,4.093,1.167.291,2.718.492,6.768,1.03.584-1.24,2.623-2.583,6.022-2.036a4.449,4.449,0,0,1,3.338,3.351c2.039.445,8.666,1.831,10.71,1.664a50.922,50.922,0,0,0,8.722-1.24,12.611,12.611,0,0,0,2.619-.995c-1.69,1.037-6.118,1.971-8.14,2.337a15.511,15.511,0,0,1-3.923.414,97.3,97.3,0,0,1-10.307-1.767,3.77,3.77,0,0,0-.188-.686,4.012,4.012,0,0,0-1.561-2.033c-1.688-1.172-5.564-.491-6.623,1.174a1.387,1.387,0,0,0-.174.374c-.568-.094-3.686-.455-6.872-1.224a11.028,11.028,0,0,1-4.666-1.891,3.93,3.93,0,0,1-1.363-2.656A139.27,139.27,0,0,1,263.76,274.1Z" transform="translate(-259.668 -263.946)" fill="#231f20"/>
          <path id="Trazado_55103" data-name="Trazado 55103" d="M272.786,276.175a9.273,9.273,0,0,0,.036,2.072,3.822,3.822,0,0,0,1.828,2.727c4.1,2.867,10.4,1.735,15.6,1.169,8.374-.959,17.462-2.691,19.2-3.381,2.634-1.092,1.283-4.124,1.231-4.521s1.744-1.456,2.125-1.675a11.936,11.936,0,0,0-1.931,1.177c-.5.427-.345.425-.16,1.323a2.863,2.863,0,0,1-.781,3.089,5.362,5.362,0,0,1-2.1.7c-6.015,1.344-22.462,3.756-26.946,3.587a12.246,12.246,0,0,1-4.575-.98,4.844,4.844,0,0,1-2.563-2.253,6.915,6.915,0,0,1-.835-2.143A3.218,3.218,0,0,1,272.786,276.175Z" transform="translate(-255.728 -264.601)" fill="#312c3a"/>
          <g id="Grupo_25341" data-name="Grupo 25341" transform="translate(23.041)">
            <path id="Trazado_55104" data-name="Trazado 55104" d="M295.871,280.489a1.708,1.708,0,0,0,1.72-1.735l-.634-8.041a3.4,3.4,0,0,0-3.234-2.948c-2.422-.22-6.88-.612-9.534-.769a5.813,5.813,0,0,0-4.906,2.1l-1.7,2.192c-.576.742-1.224,2.272.485,2.272.986,0,2,.324,2.573-.42l1.7-2.192a1.917,1.917,0,0,1,1.617-.691c2.564.15,6.9.531,9.31.751l.628,7.961A1.8,1.8,0,0,0,295.871,280.489Z" transform="translate(-276.965 -266.985)" fill="#282742"/>
          </g>
          <path id="Trazado_55105" data-name="Trazado 55105" d="M311.031,270.929s-3.313.318-4.331,1.347-.3.823-1.555,2.095-19.461,2.858-21.666,2.046-1.72-3.282-3.075-3.722-7.352-.017-7.623,4.178,1.577,4.719,5.363,6.183c3.5,1.354,29.865-2.748,31.725-3.983s.762-3.693.725-4.155,2.2-1.654,2.2-1.654Z" transform="translate(-255.723 -265.3)" fill="#494852"/>
          <g id="Grupo_25342" data-name="Grupo 25342" transform="translate(32.594 8.679)">
            <path id="Trazado_55106" data-name="Trazado 55106" d="M296.354,275.065a8.053,8.053,0,0,0-.928-1.575.436.436,0,0,0,.037-.031c.147-.15.267-.278.367-.391a8.587,8.587,0,0,1,1.072,1.784,7.5,7.5,0,0,1,.592,4.114c-.2.046-.4.091-.619.138A7.056,7.056,0,0,0,296.354,275.065Z" transform="translate(-278.636 -273.067)" fill="#29233a"/>
            <path id="Trazado_55107" data-name="Trazado 55107" d="M290.173,275c-.084-.194-.177-.378-.271-.552l.624-.071c.068.133.134.268.2.411a7.55,7.55,0,0,1,.658,3.332,8.1,8.1,0,0,1-.291,1.888c-.214.034-.43.067-.645.1A7.145,7.145,0,0,0,290.173,275Z" transform="translate(-280.995 -272.508)" fill="#29233a"/>
            <path id="Trazado_55108" data-name="Trazado 55108" d="M284.151,275.844a7.729,7.729,0,0,0-.491-.935l.661-.027a8.118,8.118,0,0,1,.38.748,7.552,7.552,0,0,1,.658,3.333,8.206,8.206,0,0,1-.328,2.015l-.641.071A7.147,7.147,0,0,0,284.151,275.844Z" transform="translate(-283.66 -272.292)" fill="#29233a"/>
          </g>
          <path id="Trazado_55109" data-name="Trazado 55109" d="M301.362,276.483c1.862.957,4.237.84,6.316.832a57.188,57.188,0,0,0,10.972-1.172,4.05,4.05,0,0,0,2.912-4.792,3.82,3.82,0,0,0-1.473-2.013,5.692,5.692,0,0,0-2.887-.91,49.171,49.171,0,0,0-8.084-.089,44.883,44.883,0,0,0-6.3.8c-1.722.371-3.458,1.3-3.886,2.918a3.94,3.94,0,0,0,2.242,4.321C301.238,276.419,301.3,276.45,301.362,276.483Z" transform="translate(-244.589 -266.46)" fill="#29233a"/>
          <path id="Trazado_55110" data-name="Trazado 55110" d="M311.469,268.875c-2.944.922-2.129,5.7-.176,6.77a5.374,5.374,0,0,1-1.351-3.5A3.232,3.232,0,0,1,311.469,268.875Z" transform="translate(-240.017 -266.177)" fill="#101224"/>
          <path id="Trazado_55111" data-name="Trazado 55111" d="M307.98,269.351a.332.332,0,0,0,.365.281.316.316,0,0,0,.318-.32.333.333,0,0,0-.365-.283A.318.318,0,0,0,307.98,269.351Z" transform="translate(-240.682 -266.111)" fill="#101224"/>
          <path id="Trazado_55112" data-name="Trazado 55112" d="M305.688,271.159a.268.268,0,0,0,.294.227.254.254,0,0,0,.255-.258.268.268,0,0,0-.294-.227A.254.254,0,0,0,305.688,271.159Z" transform="translate(-241.661 -265.313)" fill="#101224"/>
          <path id="Trazado_55113" data-name="Trazado 55113" d="M303.805,269.419c.011.13.094.231.186.225s.158-.114.148-.244-.093-.231-.186-.225S303.8,269.289,303.805,269.419Z" transform="translate(-242.465 -266.049)" fill="#101224"/>
          <g id="Grupo_25345" data-name="Grupo 25345" transform="translate(44.19 10.504)">
            <path id="Trazado_55114" data-name="Trazado 55114" d="M319.5,277.859H298.685s-6.884.42-6.9,6.733,3.993,8.519,3.993,8.519l13.494,2.594Z" transform="translate(-291.786 -272.845)" fill="#1d2242"/>
            <g id="Grupo_25344" data-name="Grupo 25344" transform="translate(7.276)">
              <path id="Trazado_55115" data-name="Trazado 55115" d="M323.742,275.427l-6.161-1.008L297.4,278.931l.026,15.569,1.5,1.465,5.544,2.014Z" transform="translate(-296.665 -274.314)" fill="#3c3b43"/>
              <g id="Grupo_25343" data-name="Grupo 25343">
                <path id="Trazado_55116" data-name="Trazado 55116" d="M316.77,274.369l-17.893,2.506a2.291,2.291,0,0,0-1.992,2.285l.163,14.538a2.351,2.351,0,0,0,2.694,2.273l19.376-2.74.342-16.516A2.351,2.351,0,0,0,316.77,274.369Z" transform="translate(-296.885 -274.346)" fill="#3c3b43"/>
                <path id="Trazado_55117" data-name="Trazado 55117" d="M321.039,275.054l-17.893,2.634a2.374,2.374,0,0,0-1.989,2.409l.167,15.329a2.4,2.4,0,0,0,2.694,2.4l17.408-2.59a2.4,2.4,0,0,0,2.008-2.356l.3-15.35A2.4,2.4,0,0,0,321.039,275.054Z" transform="translate(-295.061 -274.053)" fill="#231f20"/>
                <path id="Trazado_55118" data-name="Trazado 55118" d="M319.663,275.974l-15.827,2.332a2.1,2.1,0,0,0-1.759,2.129l.148,13.558a2.118,2.118,0,0,0,2.383,2.122l14.825-2.2a2.815,2.815,0,0,0,2.359-2.77l.251-12.977A2.123,2.123,0,0,0,319.663,275.974Z" transform="translate(-294.668 -273.659)" fill="#3c3b43"/>
                <path id="Trazado_55119" data-name="Trazado 55119" d="M303.836,278.214l13.892-2.046c.006.074.008.151.007.228l-.251,13.034a2.749,2.749,0,0,1-2.3,2.7l-12.947,1.926c0-.053-.007-.106-.007-.16l-.148-13.558A2.1,2.1,0,0,1,303.836,278.214Z" transform="translate(-294.668 -273.567)" fill="#292629"/>
                <path id="Trazado_55120" data-name="Trazado 55120" d="M303.836,277.968l8.3-1.223a10.149,10.149,0,0,1,1.508,5.234,9.58,9.58,0,0,1-9.4,9.873,9.181,9.181,0,0,1-2.041-.223l-.126-11.533A2.1,2.1,0,0,1,303.836,277.968Z" transform="translate(-294.668 -273.321)" fill="#6177ba"/>
                <path id="Trazado_55121" data-name="Trazado 55121" d="M303.836,277.915l7.108-1.047a9.643,9.643,0,0,1,.639,3.362,9.085,9.085,0,0,1-8.91,9.364q-.248,0-.492-.013l-.1-9.537A2.1,2.1,0,0,1,303.836,277.915Z" transform="translate(-294.668 -273.268)" fill="#4c5f93"/>
              </g>
            </g>
          </g>
        </g>
        <path id="Trazado_55122" data-name="Trazado 55122" d="M288.29,282.863c0,1.254-2.21,6.116-2.21,9.044s-2.77,5.7-4.2,11.347-4.044,15.245-7.151,17.963-7.41-6.848-6.216-10.089,9.323-13.243,9.323-15.855-.836-4.2-1.792-6.921-.28-6.867.756-7.319-.438,3.59-.04,3.939,1.076-5.925,2.63-6.918-.876,5.07-.876,6.15-.16,1.848.318,1.848.6-2.928,1.174-4.671,1.615-4.321,3.01-3.8-1.674,3.52-1.674,4.7-.4,3.52.2,3.729,1.234-7.911,2.708-8.224.6,1.916.12,3.833-.8,4.949-.04,4.949,1.394-.766,2.39-2.439S288.29,281.609,288.29,282.863Z" transform="translate(-257.623 -262.488)" fill="#fc7575"/>
      </g>
      <path id="Trazado_55123" data-name="Trazado 55123" d="M292.92,289.906s-22.4,54.467-34.3,54.467l4.992,5.835s10.6-1.1,22.322-28.71,10.882-31.017,10.882-31.017Z" transform="translate(-192.876 -235.969)" fill="#47555d"/>
    </g>
  </g>
</svg>
