<svg xmlns="http://www.w3.org/2000/svg" xmlns:xlink="http://www.w3.org/1999/xlink" width="404.019" height="416.764" viewBox="0 0 404.019 416.764">
  <defs>
    <clipPath id="clip-path">
      <circle id="Elipse_1449" data-name="Elipse 1449" cx="40.205" cy="40.205" r="40.205" transform="translate(0 18.475) rotate(-13.283)" fill="none"/>
    </clipPath>
  </defs>
  <g id="Grupo_25699" data-name="Grupo 25699" transform="translate(-988.783 -335.168)">
    <g id="Grupo_25694" data-name="Grupo 25694" transform="translate(988.783 335.168)">
      <path id="Trazado_55682" data-name="Trazado 55682" d="M1260.418,416.4s-.575.4-.708.531-.311.4,0,.531.266-.088.708,0,.531.088.753-.221.31-.266.221-.487-.847-.8-.91-.575Z" transform="translate(-1034.124 -348.726)" fill="#00833d"/>
      <path id="Trazado_55683" data-name="Trazado 55683" d="M1263.893,410.892a2.616,2.616,0,0,1-.885.531c-.31.133-.531.089-.753.575s-.552.842-.453,1.151.275,1.018.409,1.062a2.12,2.12,0,0,0,.974-.316c.266-.171,2.568-2.119,2.921-2.518a5.835,5.835,0,0,1,1.682-1.549,7.761,7.761,0,0,0,2.081-1.24c.4-.487.486-.266.752-1.062a20.283,20.283,0,0,0,.4-3.674c.044-.841.044-1.2-.531-.974a12.8,12.8,0,0,0-3.143,1.373c-.62.575-1.86,1.638-1.992,2.213a9.993,9.993,0,0,1-.841,1.815c-.177.355-.531.619-.31.8s.442.177.442.4a1.167,1.167,0,0,1-.044.531A3.327,3.327,0,0,1,1263.893,410.892Z" transform="translate(-1034.5 -346.497)" fill="#00833d"/>
      <path id="Trazado_55684" data-name="Trazado 55684" d="M1275.876,405.862a5.751,5.751,0,0,0-1.328.8c-.177.266-.576.753-.355.8a2.474,2.474,0,0,0,1.417-.4c.4-.31.753.008.753-.394S1276.32,405.644,1275.876,405.862Z" transform="translate(-1036.567 -346.999)" fill="#00833d"/>
      <path id="Trazado_55685" data-name="Trazado 55685" d="M1272.868,408.923a3.714,3.714,0,0,1-.753.885,7.534,7.534,0,0,0-.619.708s.132.31.619-.044.62-.052,1.018-.69S1273.179,408.449,1272.868,408.923Z" transform="translate(-1036.126 -347.493)" fill="#00833d"/>
      <path id="Trazado_55686" data-name="Trazado 55686" d="M1269.51,412.135c-.435.157-1.107.487-1.107.619s-1.284.487,0,.133.974.132,1.284-.355S1269.781,412.037,1269.51,412.135Z" transform="translate(-1035.513 -348.049)" fill="#00833d"/>
      <path id="Trazado_55687" data-name="Trazado 55687" d="M1273.177,398.62s-1.372,1.106-1.417,1.416a.557.557,0,0,0,.948.354c.469-.4,1.178-.752,1.444-1.062a.964.964,0,0,0,.31-.885C1274.372,398.178,1273.708,398.171,1273.177,398.62Z" transform="translate(-1036.17 -345.734)" fill="#00833d"/>
      <path id="Trazado_55688" data-name="Trazado 55688" d="M1277.845,397.123c-.619.044-.753-.177-1.151.221s-.886.619-.355.974a2.892,2.892,0,0,0,1.505.575,3.488,3.488,0,0,0,1.815-.266c.177-.221.664-.531.708-.886s-.443-1.284-.664-1.284a.756.756,0,0,0-.708.4c-.221.354-.266.487-.531.443A4.107,4.107,0,0,1,1277.845,397.123Z" transform="translate(-1036.898 -345.432)" fill="#00833d"/>
      <path id="Trazado_55689" data-name="Trazado 55689" d="M1275.313,400.668a7.02,7.02,0,0,0-.787,1.2c0,.132.034.4.393.177a6.332,6.332,0,0,0,1.156-.886.859.859,0,0,0,.177-.487S1275.714,400.16,1275.313,400.668Z" transform="translate(-1036.634 -346.099)" fill="#00833d"/>
      <path id="Trazado_55690" data-name="Trazado 55690" d="M1276.378,402.056c-.167.186-.8.137-.863.6s-.509.817,0,.728.376.31.863-.266a3.9,3.9,0,0,0,.664-1.062S1276.776,401.613,1276.378,402.056Z" transform="translate(-1036.759 -346.336)" fill="#00833d"/>
      <path id="Trazado_55691" data-name="Trazado 55691" d="M1277.4,402.7v.781l.886-.781s1.23-.934.172-.467-.792.174-.792.174Z" transform="translate(-1037.114 -346.376)" fill="#00833d"/>
      <path id="Trazado_55692" data-name="Trazado 55692" d="M1282.446,388.961a3.557,3.557,0,0,0-.4,1.683c0,.885.487,1.284.2,1.461s-.642.221-.818.708-.481.576-.219,1.062a2.113,2.113,0,0,0,.838.842c.221.132.487.177.575,0s-.221-.8.177-.974.62-.443.8-.443a.52.52,0,0,0,.4-.443c0-.177.088-.044-.177-.442s-.443-.31-.443-.8-.088-.708.045-.93a1.507,1.507,0,0,0,.132-.885c-.044-.266-.088-.709-.266-.842S1282.682,388.431,1282.446,388.961Z" transform="translate(-1037.735 -344.132)" fill="#00833d"/>
      <path id="Trazado_55693" data-name="Trazado 55693" d="M1285.245,390.03a3.718,3.718,0,0,1,0,1.018c-.088.354-.2.575.031.619a1.17,1.17,0,0,0,.678,0c.176-.088.8-.266.929-.575s.355-.443.4-.619-.089-.708-.443-.62a5.8,5.8,0,0,1-1.284-.01S1285.24,389.628,1285.245,390.03Z" transform="translate(-1038.411 -344.314)" fill="#00833d"/>
      <path id="Trazado_55694" data-name="Trazado 55694" d="M1287.183,392.691a5.3,5.3,0,0,1-.576,1.063c-.132.177-.4.664,0,.708s.459-.177.894-.4,1.01-.487.523-.886S1287.417,392.106,1287.183,392.691Z" transform="translate(-1038.621 -344.763)" fill="#00833d"/>
      <path id="Trazado_55695" data-name="Trazado 55695" d="M1284.427,395.112c-.245.213-.944-.165-.811.515s-.137,1.034.4,1.211,1.064-.133,1.33,0,.576.011.841.337.46.181.85.276.479.194.921-.276,1.151-.636,1.329-.863-.177-.493,0-.848-.221-.123.531-.371,1.46-.425,1.46-.735-.132-.71-.8-.731-.753-.422-1.24,0-.486.831-.929,1,.07.3-.873.525-.81.566-1.253.327-.575-.327-.8-.327S1284.883,394.714,1284.427,395.112Z" transform="translate(-1038.153 -344.926)" fill="#00833d"/>
      <path id="Trazado_55696" data-name="Trazado 55696" d="M1290.293,397.641c-.487.216-.531.443-.841.8s-.841.287-.487.63.222.52.885.609a8.638,8.638,0,0,0,1.86,0,1.388,1.388,0,0,0,1.062-.992c.044-.38.31-.171-.133-.563A1.966,1.966,0,0,0,1290.293,397.641Z" transform="translate(-1039.032 -345.596)" fill="#00833d"/>
      <path id="Trazado_55697" data-name="Trazado 55697" d="M1285.225,420.533c-.138-.021-.486-.132-.708,0s-.4-.221-.221.133-.028.4.429.4.678.221.943,0S1285.672,420.6,1285.225,420.533Z" transform="translate(-1038.257 -349.453)" fill="#00833d"/>
      <path id="Trazado_55698" data-name="Trazado 55698" d="M1354.507,430.228c-.157-.127-.464,0-.4.465s.221.863.194,1-.4.5,0,.4a.672.672,0,0,0,.536-.432c.067-.132-.033-.4,0-.63S1355.005,430.626,1354.507,430.228Z" transform="translate(-1049.959 -351.079)" fill="#00833d"/>
      <path id="Trazado_55699" data-name="Trazado 55699" d="M1357.158,688.249c-.5.379-1,.83-.9.9a2.426,2.426,0,0,0,.9,0c.5-.033,1.1-.1,1.195-.266s.664-.167,0-.465S1357.7,687.835,1357.158,688.249Z" transform="translate(-1050.319 -394.26)" fill="#00833d"/>
      <path id="Trazado_55700" data-name="Trazado 55700" d="M1343.8,698.131c-.149.6-.7.432-.8.731a.985.985,0,0,0,0,.863c.166.232.8,0,.8,0s.465-.6.731-.432.8.531,1,.3,0-.613,0-.613-1.162-.176-.5-.562l.664-.385s.63-.366.232-.664S1343.9,697.733,1343.8,698.131Z" transform="translate(-1048.084 -395.81)" fill="#00833d"/>
      <path id="Trazado_55701" data-name="Trazado 55701" d="M1306.285,747.268c-.916.187-1.261.564-1.129.93a1.3,1.3,0,0,1-.028,1.062c-.171.465-.569.332-.47.962s-.166,1.063.332.93.564-.132.7-.664-.032-.83.4-1.095.664-.465.631-.7-.332-.232-.133-.431.106-.2.136-.465S1306.77,747.169,1306.285,747.268Z" transform="translate(-1041.677 -404.176)" fill="#00833d"/>
      <path id="Trazado_55702" data-name="Trazado 55702" d="M1251.134,687.125c-.133.564-.565.365-.7.9s.232.7,0,1.129-.166.132-.863.5-.531-.4-.7.365a3.568,3.568,0,0,0,0,1.395c0,.2.483.266-.074.963s-1.022.066-1.553.5-7.669,7.271-8.035,7.636-1.1.962-1.261,1.162-.83,2.091-1.262,3.22-3.486,9.031-3.486,9.031-2.39,6.308-2.921,7.2a15.492,15.492,0,0,1-2.49,3.155c-.9.8-5.411,5.445-5.744,5.71s-1.793,1.295-2.224,1.56-1.527.8-1.594.9-.3,1.295-.564,1.029.166-1.029,0-1.46-.631-.6-.631-.963.1-.8.465-.6.4.564.863.465.366-.033.764-.4a1.756,1.756,0,0,1,.962-.564.949.949,0,0,0,.8-.531,10.8,10.8,0,0,1,.763-1.228c.531-.763.465-1.461,1.162-1.66s.7-.167,1.262-.365.431.067.829-.332.332-.7.5-1.261.2-.664.4-1.361.93-1.162,1.328-1.56-.3-.83.232-1.1,1.3-.266,1.494-.631a1.666,1.666,0,0,0,.232-1.229c-.033-.8-.8-2.921-.232-3.021s.266.564.564.631,1.029,0,.83-.863.2-1.46-.4-1.594-2.025.7-2.025.7-.6,1-1.229,1.228a3.1,3.1,0,0,1-2.756-.1c-.132-.132-.963-1-1.029-.863s-.7.6-.431.83a4.939,4.939,0,0,0,.863.73c.4.232.8.033.9.6a2.031,2.031,0,0,1-.5,1.527c-.3.366-.631.4-.73,1.129a9.275,9.275,0,0,1-.3,1.361s-.5.266-.4-.266.4-1.594-.1-.863-1.162,1.029-1.162,1.361-.2,1.361-.167,2.125.3,1.03,0,1.361-.829.1-1,.5-.132.73-.232.8-.067,0-.664,0a1.82,1.82,0,0,0-1.527.531c-.4.464-.7.332-.8,1.261a5.965,5.965,0,0,1-.232,1.594,2.893,2.893,0,0,1-.93,1.361s-.7-.232-.9.1-.431.863,0,1.1.5-.232.664.2-.067.432-.3.763-.6.631-.4.9,1.128.033,1.46,0,1.229.232.5.565-.962.3-1.46.763-1.229.3-1.494.863-.664.465-.8,1.494a25.193,25.193,0,0,1-1.261,4.947c-.564,1.328-4.018,5.411-4.018,5.411s-2.489,2.191-2.755,2.457-.133.166-.831.531a4.574,4.574,0,0,0-1.261,1.1s-.3-4.736,0-5.622,1.539-2.568,1.8-3.187a3.439,3.439,0,0,0,.531-2.833c-.443-1.328-2.833-3.807-3.63-4.958s-1.859-3.1-3.276-3.542-2.922-.886-3.541-1.682-6.375-5.046-6.906-5.755-3.276-3.01-3.807-3.63-1.682-2.568-2.745-2.745-1.505-.708-2.568-.177-.176.531-1.328,1.062-1.771,1.24-1.771.176.177-1.239-.354-1.77-1.062-.443-1.328-1.329,0-1.77-.708-2.125-1.771-.62-2.744-1.062a5.14,5.14,0,0,1-2.125-1.328,5.7,5.7,0,0,0-2.125-1.771c-.8-.266-1.771-.531-2.39-.8s-1.328-.266-1.151-.619,2.922-2.125,3.719-2.922,3.63-3.01,4.781-4.161,4.338-7.879,5.666-9.473a47.259,47.259,0,0,1,5.4-5.357,21.776,21.776,0,0,1,7.172-4.737c3.542-1.5,7.614-2.744,8.853-4.249s.8-.8,1.593-2.745a8.08,8.08,0,0,0,.62-5.312c-.443-1.771-1.417-2.214-.531-3.719s.708-2.568-.177-4.781.62-2.479-1.771-3.01-4.6-.8-4.958-1.24-1.328-.266-.885-1.594.8-5.577,1.062-6.817,1.505-5.932,1.771-6.64a24.972,24.972,0,0,0,.885-3.01c0-.266-.266-.443-1.593-1.151s-2.833-2.3-4.6-1.859-1.948,1.594-3.1,1.859-.886,1.151-1.948.266-1.593.619-1.77-1.416-1.505-13.015-1.594-14.077a5.071,5.071,0,0,0-2.213-3.1c-.8-.354-1.683-1.948-3.01-1.151s-1.682.62-2.213.442-.443-.794-2.036-.663-14.7.274-14.962-.018-1.417-.912-.974-2.152,2.39-6.551,2.39-7.968-1.439-7.26-2.49-8.233.631-3.1.631-4.25-2.036-2.656-1.417-3.984,5.578-13.723,5.49-15.14-4.338-7.082-4.692-7.614-2.391.619-2.479-.8-2.036-7.968-1.771-8.854.886-1.682.708-2.478a2,2,0,0,0-1.505-1.505c-.619-.089-3.9-1.151-5.489-1.151s-1.062.8-4.338.886-6.994.8-7.525-.886a89.825,89.825,0,0,0-4.25-8.145s2.479,0,2.214-3.63-.443-10.358-1.416-12.395-1.594-3.01-2.922-3.453-3.187-1.593-4.161-1.771-7.879-.531-7.879-.531a37.342,37.342,0,0,0-3.1-2.921c-.886-.619-3.276-.354-3.807-1.24s-2.745-3.63-4.161-3.984-2.568.974-3.63,0-1.683-2.39-2.922-2.479-4.338.177-5.577,0-4.338-3.01-5.844-3.984-2.125-1.151-2.478-1.771-3.9-6.286-3.631-7.437.708-7.437.443-8.234-3.364-2.125-3.364-2.125-7.791.177-8.234,0-6.286,3.187-6.817,3.453-10.359.177-10.536.62-2.656,1.151-2.833,2.568a12.69,12.69,0,0,1-1.594,3.718c-.177.355-4.781-3.453-5.4-3.718s-6.551-.355-9.119-.709a6.89,6.89,0,0,0-5.312,1.682c-.443.532-2.39-.708-2.036-2.213a12.194,12.194,0,0,0-.974-6.109c-.619-.885-1.682-.177-.885-1.682a4.332,4.332,0,0,0-.285-4.25c-.6-.531-.778-.973-1.84,0s-2.833,2.479-3.719,3.453-1.416,1.24-1.416,2.3.619,1.5-.974,2.125-2.39,1.151-4.161.885-1.771.089-2.479-.974a40.434,40.434,0,0,0-3.63-3.806s-3.806-.62-4.427-.62-2.568,0-1.859-.354a3.033,3.033,0,0,0,.974-2.921c-.355-.708-1.28-1.062-1.127-2.125s.7-2.125-.017-2.656a14.847,14.847,0,0,1-2.929-2.39c-.531-.8-4.161-3.985-4.161-4.516s.8-1.416,0-2.213-2.036-1.683-2.036-2.125,1.328-.355,1.947-1.063.62-6.286,1.86-7.082,3.453-2.3,4.337-2.921a2.455,2.455,0,0,0,.974-2.568c-.177-.974-1.416-1.505-.531-2.479s1.417-3.542,2.214-4.6-.089-3.187,1.947-4.161,1.505-1.771,4.25-2.833,3.984-2.656,5.666-2.921a53.18,53.18,0,0,0,5.577-.708c1.505-.442,2.657-.619,3.364-1.593s.443-.885,1.771-.8a51.208,51.208,0,0,1,5.932.885,4.935,4.935,0,0,0,2.656.532c.708-.266,1.594-.368,2.125-1.468s5.4-30.583,5.4-30.848-.355-2.656-1.329-3.1-2.833-1.328-2.567-2.213,1.239-1.948.088-3.188-3.01-1.682-2.745-2.656-.8-5.932-.266-6.64.67-1.859,1.8-1.859a19.694,19.694,0,0,1,4.048,1.062s-.089-.442.8-1.062a2.862,2.862,0,0,0,.974-1.947s.708-.177.354-1.771a4.03,4.03,0,0,0-.8-2.036c-.531-.974-.266-1.505-1.062-1.417s.531.512-1.417-.009-1.416-.079-1.947-.522-1.151-.708-.886-1.593-.176-1.505,1.505-1.505,5.666-.531,7.083-.531,3.9.443,4.515,0,.8-1.151.974-2.213.708.531,1.151,1.682,1.682,2.214,2.833,1.948,2.125-.355,2.479-.974a22.66,22.66,0,0,0,.974-2.39s1.594.619,1.947,1.24a5.709,5.709,0,0,1,.62,3.187c0,1.859,0,2.744.442,3.453s1.329,1.594,2.125,1.062,1.594-1.5,2.3-.8,2.567,2.657,4.338,3.188a6.705,6.705,0,0,0,3.984,0c1.151-.266,2.125,1.056,3.364.306s1.416-2.165,2.921-2.874,6.375-1.417,7.26-2.479,1.328-1.859,2.036-1.505,2.214.886,2.833.443a12.04,12.04,0,0,0,2.214-3.187c.354-.8,0-2.036.8-2.125a6.7,6.7,0,0,0,2.39-.973c.354-.266,1.062-.8,1.593-.708a5.874,5.874,0,0,0,3.011-1.062c.266-.443.974-2.214.443-2.568s-1.948-1.417-2.657-1.24a14.745,14.745,0,0,1-3.453.443c-.8-.089-.974.137-1.594-.463s-.886-.423-1.151-1.308a12.819,12.819,0,0,1-.619-4.338c.177-1.328-.177-2.568.885-3.453s1.594-.886,1.062-2.39-.088-1.594-1.062-2.568-2.833-1.948-2.744-2.214,1.062-.531,1.859,0,1.859,2.3,2.921,2.921a8.993,8.993,0,0,0,3.9.8c1.417.089,1.36.266,2.849.266a7.407,7.407,0,0,0,4.588-1.328c1.062-.973,1.417-2.478,2.568-2.478s5.666.183,7.172-.484,4.427-.844,4.692-1.642-.177-1.77,1.328-2.213a35.639,35.639,0,0,0,4.781-1.948,5.043,5.043,0,0,0,2.213-2.39c.177-.619-.088-2.479.354-2.39s.62.708,1.594.8,1.062-1.688,1.593-.8-.177,2.305,0,3.279-.531,3.629-.354,3.9a15.716,15.716,0,0,0,2.39,1.062c.531.266,2.213.974,2.568,1.947s1.416,2.214.531,2.745-1.859.354-2.125,1.593-.089,2.833-.62,4.073a19.917,19.917,0,0,0-1.416,3.63,23.589,23.589,0,0,0-.266,2.921c0,1.151,2.3,3.63,2.921,3.985s.531,2.833.619,3.806,1.948,2.391,2.657,3.542,2.036,2.656,2.744,2.745a2.271,2.271,0,0,1,2.036,1.062,2.639,2.639,0,0,0,2.745,1.594c1.416-.177,3.718-.266,3.9-.886s-1.151-2.125,0-2.39a6.521,6.521,0,0,0,2.036-.885s1.328,1.151,1.948.354a3.637,3.637,0,0,1,2.568-1.151c.886-.089,1.505-.974,2.3-1.062a3.651,3.651,0,0,0,2.125-1.329c.532-.619-.177-.531.532-.619s1.947,2.214,3.63,2.214a6.876,6.876,0,0,0,3.275-.443c.531-.354.62-1.328,1.062-1.328s2.833,1.062,4.161.443,3.188-.355,3.365-1.151.177-2.744-.355-3.1-.32-2.036.46-1.328,2.55.531,4.5.354.531-1.151,2.391-.619,2.479.088,2.833.443.885,3.1,2.921,4.072,1.682,1.329,3.9,1.505,3.364,0,4.073-.443a4.214,4.214,0,0,1,3.275-1.239,10.133,10.133,0,0,0,4.25-.886,23.04,23.04,0,0,0,5.046-4.6,14.954,14.954,0,0,0,1.417-3.807s2.036-5.932,3.01-6.906,1.594-1.948,1.859-2.214a6.247,6.247,0,0,0,.708-1.77c.355-.974.532-1.683.532-1.683a11.6,11.6,0,0,1,1.77-.974c.708-.266.8-1.328.886-1.062l.088.266s.531-2.3,1.062-1.771,3.188,2.568,3.188,4.6v2.036s.531-1.505.885-1.062a5,5,0,0,1,.886,2.744,12.055,12.055,0,0,0,.53,4.516,60.375,60.375,0,0,1,2.833,7.7,16.721,16.721,0,0,0,.8,3.453c.354.8.973,2.214.973,2.214a3.4,3.4,0,0,0,1.417.177,5.891,5.891,0,0,1,1.771,0c.619.088,1.505-.177,1.859.8s-.266,2.3,0,2.833a2.934,2.934,0,0,1,.112,1.77c-.112.266-.643.089-1,.708a3.632,3.632,0,0,0-.619,1.505c-.088.619.088.619-.443,1.24s-1.239,1.151-1.239,1.682-.089.371-.443.894-.531.523-1.594,1.5-2.479,3.275-2.833,3.541-1.771,1.062-2.125,1.328a18.1,18.1,0,0,0-1.24,1.328,14.589,14.589,0,0,1-1.151,1.24c-.442.355-1.151,1.24-1.416,1.417a15.47,15.47,0,0,0-1.593,1.151,5.107,5.107,0,0,0-1.505,2.036c-.355.886-.886,1.328-1.151,1.948a6.559,6.559,0,0,1-.885,1.416c-.266.355-.531.886-.708,1.151s-.531.8-.8,1.151-.709.531-.974.8-.177.886-.177.886-.974.442-1.062.885-.532.8,0,1.151.8.886,1.416.532,1.328.41,1.947.117a6.949,6.949,0,0,0,1.682-1.18c.354-.354.885-.266,1.328-.885s.619-1.062,1.151-1.151.619-.089,1.416-.266a5.21,5.21,0,0,0,1.771-.974c.266-.177.974-.708,1.416-.974a1.608,1.608,0,0,1,1.151-.266c.619,0,1.416-.8,1.416-.8s.708.088.708.619a5.345,5.345,0,0,0,0,1.683c.177.619-.531.354.177.619s.974-.266.885-.885-.708-1.24-.443-1.683-.265,0,.266-.443.886-.442.974-.8a3.673,3.673,0,0,0,.266-1.151v-1.593a3.666,3.666,0,0,1,.355-1.771c.354-.531.266-.885,1.062-1.505a13.187,13.187,0,0,1,1.24-.885,4.257,4.257,0,0,1,1.416-.708c.354,0,.133-.266,1.439,0a8.689,8.689,0,0,0,2.28.266c.708,0,.266-.088,1.328-.088h2.3a5.229,5.229,0,0,0,1.77-.355,6.205,6.205,0,0,1,1.683-.531c.531,0,.531-.531.885-.088s0,.443.8.619a14.4,14.4,0,0,0,1.594.355c.266,0,.266-.443,1.239.088a13.3,13.3,0,0,0,2.125.885,7.453,7.453,0,0,1-.487,1.815,4.216,4.216,0,0,0-.753,1.638,7.643,7.643,0,0,1-.089,1.336c-.088.611-.265.431-.442.809s-.487.346-.531.937,0,.8-.355.938a.975.975,0,0,0-.664.887,18.8,18.8,0,0,1-.266,2.4c-.133.355-.487.575-1.062.708a7.842,7.842,0,0,0-2.214.952,6.855,6.855,0,0,1-1.505,1.04c-.31.088-.266.044-.973.266s-.886.266-1.329.4-.354.088-.885.221a6.568,6.568,0,0,1-.974.266c-.4.044-.663-.088-.929,0a1.559,1.559,0,0,1-1.063-.221c-.266-.177-.044-.443-.752-.044s-.886.619-1.284.619-.355-.486-.8,0-.311.62-.708.664a3.115,3.115,0,0,1-1.284,0c-.221-.133.132-.974-.708-.575s-.841.627-1.062.645a1.631,1.631,0,0,1-.974-.424c-.177-.221-.8-1.2-.93-1.151a5.3,5.3,0,0,0-.708.841c-.221.266-.708.355-.93.531s-.62.62-.31.93.753.487,1.018.177,1.594-.355,1.859-.31,1.683-.355,1.594.132a6.894,6.894,0,0,1-.132,1.106c-.133.355-.177.8-.044.8s.266-.8.664-.841.487.221.8.177-.841-1.372-.4-1.505a1.727,1.727,0,0,1,1.328,0,2.468,2.468,0,0,0,1.284.221,8.508,8.508,0,0,0,1.505,0c.354-.088.486.044.929-.31s.133-.487.708-.62a5.154,5.154,0,0,1,1.2-.132c.177,0,.753-.306,1.239.024s.664.807,1.018.347a2.686,2.686,0,0,1,1.24-.992c.4-.088,1.062-.442,1.151.177s.221.773-.089,1.161-.619,1.363-1.062,1.673a14.142,14.142,0,0,0-1.151,1.106c-.31.266-.576.487-.62.8a2.79,2.79,0,0,0,.044,1.062,3.669,3.669,0,0,1,.133,1.2c-.044.221-.4.443-.4.664s-.177.531.133.619.664.221.974-.266.487-.4.31-1.151-.133-1.638.177-1.771.531-.089.575-.31-.133-.311,0-.708a1.427,1.427,0,0,1,.575-.886,1.827,1.827,0,0,0,.841-.8c.133-.354.177-.619.355-1.018s.132-.482.31-.9.088-.555.575-1.042.841-1.093,1.151-1.189.62-.935.8-.692.088.7.4.692a1.548,1.548,0,0,0,.753-.316c.133-.088.088-.562.088-.746s-.044-.726.4-.322a10.507,10.507,0,0,0,1.372.891,1.064,1.064,0,0,1,.266.494s.044-.669.443-.692,1.417-.1,1.328-.37-.177-.272-.619-.715-.8-1.106-.487-1.416.664-.048.531-.6-.531-.474-.4-.955.443-.984.62-.887.885.583,1.062.272-.443-1.164-.177-1.4a21.326,21.326,0,0,1,1.594-1.742c.532-.4.842-1.018,1.24-1.018s.266.361.664.38.619-.6.885-.646.664.76.886.646.177-.914.663-.824.487.938.753.824.133-.87.443-.824.132.628.8.824,1.593-.958,1.992-.824-.266.887.31,1.02.664-1.018,1.106-.664-.354.841.31.974.62-.487,1.24-.221.31.37.62.539.841-.318,1.106-.186-.31.531,0,.708.929-.4,1.372-.31-.487.4.31.753.709-.531,1.107-.177,0,1.062.708,1.549,1.594-.132,2.036-.31.443-.575.93-.354.4.664,1.106,1.062,1.328-.177,1.9.044,1.017-.487.841.4.132,1.062-.266,1.24-.31.177,0,.31.487.531.885.443.575-.4.93-.487.443-.531.708-.044.088.841.4,1.106a2.14,2.14,0,0,0,.886.388.953.953,0,0,0,.8-.133c.331-.232.266-.3.5-.465a3.972,3.972,0,0,1,.929-.465c.1,0,.7.266.564.531s-.331.2-.5.432-.332.465-.3.6a1.8,1.8,0,0,1,.133.4c.033.232.166.3-.033.531s-.564-.166-.763.531-.3.93-.167,1.1.531.432.6.564.133-.4.232-.564.769-.365.816-.431.014,0,.512-.166a1.908,1.908,0,0,0,.8-.432c.1-.1.266-.067.365-.266s.2-.4,0-.5-.863,0-.332-.266.764.465.9.6.2-.133.4-.1.365-.166.531-.266.132-.3.332-.5.9-.465.9-.133-.232.465-.2.7.3.365.4.2-.032-.531.365-.2a.616.616,0,0,1,.266.73c-.033.1-.062.531.036.564s.33-.1.4.166a1.139,1.139,0,0,1,0,.664c-.067.2-.233.232-.233.6a5.361,5.361,0,0,1,.5.5c.3.332.4.465.73.83s.631.465.73.929.664.4,0,.631a4.985,4.985,0,0,0-1.792.963c-.266.331-.73.365-.3.73s.3.531.962.067,1.262-1.428,1.793-1.129a2.561,2.561,0,0,1,.929,1.428c.033.232-.564.962-.564.962s.3.3.232.531-.332.232-.4.531-.2.1-.266.7a2.21,2.21,0,0,0,.1,1.029c.067.332-.232.564-.266.8s-.4.067-.167.6.465.564.631.929a5.309,5.309,0,0,0,.431.7c.133.232-.362.366.267.5s1.327.4,1.46,0-.166-.73-.3-1.261-.132-.764-.033-.863.1-.365.2-.564a3.77,3.77,0,0,0,.166-.8,1.716,1.716,0,0,1,.7.4c.166.233,0,.5.6.465a4.921,4.921,0,0,0,1.627-.332c.4-.266.664-.93,1.062-1.361s1.1-1.129,1.1-1.129a1.368,1.368,0,0,1,.8.133,3.916,3.916,0,0,0,1.329.431c.431.067.7.067.83-.033a6.642,6.642,0,0,1,.863-.465.294.294,0,0,0,.167-.4c-.033-.1-.385-.5.023-.531a7.558,7.558,0,0,1,2.068.067c.432.2,1.2.531,1.859.9a19.638,19.638,0,0,0,2.424,1.361c.7.232,1.129.2,1.428.63a4.34,4.34,0,0,0,.83,1.03,6.413,6.413,0,0,0,1.528.514,7.112,7.112,0,0,0,1.228,0c.166.017.664-.116.863,0s-.1-.017.2.116.365-.116.365-.116.1-.116.332,0,.5.15.365,0-.365-.415-.232-.415a6.043,6.043,0,0,1,1.3.415,13.99,13.99,0,0,1,1.759.647,6.424,6.424,0,0,0,2.822.863c.929,0,2.722.1,3.353.1a13.577,13.577,0,0,0,2.324-.1c.631-.132,2.026-.067,3.486-.2s2.557-.4,3.221-.5,1.328-.7,2.29-.531a19.831,19.831,0,0,1,4.316,1.991,18.318,18.318,0,0,0,2.922,1.727c.8.232,1.129,0,1.892.332s4.084,3.652,4.582,3.984,2.291,1.528,3.353,2.125a14.667,14.667,0,0,1,3.486,2.988c1.062,1.228,1.56,1.926,1.992,2.058s.83,0,1.228.564a11.626,11.626,0,0,1,.8,1.593c.465.9.6,1.395,1,1.627s2.025-.465,2.955,0a7.4,7.4,0,0,1,2.191,2.49,2.707,2.707,0,0,0,2.158.963c.6-.033,2.424,1.46,3.088,1.494s5.013.232,5.677.4,2.822-.365,3.419-.2,3.254.731,4.117,1.628,1.3.829,1.66,2.556-.232,2.49.6,3.885a9.5,9.5,0,0,1,1.229,3.453c.431,1.693,1.693,5.312,1.926,6.341a32.2,32.2,0,0,1,.53,6.707c-.166,1.892-1.56,8.333-1.659,9.163a36.347,36.347,0,0,1-1.959,5.345c-.332.6-2.49,4.217-2.889,5.047a30.035,30.035,0,0,1-3.486,3.818,36.435,36.435,0,0,0-2.922,2.756c-.266.531.166.73-.465,1.494s-.232.63-1.261,1.627a28.07,28.07,0,0,1-3.387,2.722c-.6.365-1.958,1.527-3.319,2.257s-2.092.963-2.225,1.394-.067.631-.3.963-.266.564-.531.431-.465-.365-.6-.4-.365-.133-.266.266.631.564.465.83.232.3-.132.962-.4.8-.631.863-.631-.232-.73-.166-.167.1-.232.365.2.3.3.6.332.166.1.6a5.258,5.258,0,0,0-.531,1.461c-.033.331-.266.4-.366.3s-.232-.3-.331-.331-.2-.067-.2.232.166.4.232.9.067.4-.132.8-3.055,4.448-3.586,5.312a11.833,11.833,0,0,1-1.826,2.722c-.763.664-2.092,1.859-2.49,2.324a6.267,6.267,0,0,1-1.129,1c-.2.133-1.062.365-1.261,0s-.332-.9,0-1.062.73-.2.63-.5-.033-.365-.3-.7-.266.2-.73.1-.2-.963-.73-1.062-.5.763-.6.863-.83-.167-.83.266-.133.232.531.8.4.863.232.9-1.029-.167-.73.331.663.133.73.4a1.69,1.69,0,0,1-.564,1.162c-.266.166-.6,0-.73.431a.958.958,0,0,1-.531.631c-.167.1-.465-.1-.366.365s.332.531.5.764.232.7-.166.564-.531-.152-.564.024-.465.176-.132.508.7.166.8.83-.2.365-.465.431-.7.3-.564.664.763.465,1,.6.132.3-.167.5-.663.664-.6,1,.331.431.331.763-.232.631-.331,1.461-.133,1.892-.2,2.49a4.547,4.547,0,0,1-.431,1.693c-.266.465-.631.432-.6,1.528a6.3,6.3,0,0,0,.631,2.49,3.846,3.846,0,0,1,.365,1.46c0,.332-.132.365,0,.6s.432.332.465.531-.93-.2-.93.465.564.7.332,1.427-1,1.528-.6,2.623a19.5,19.5,0,0,1,1.1,3.851,5.017,5.017,0,0,1-.531,2.689,5.463,5.463,0,0,0-.5,2.258,14.081,14.081,0,0,1-.365,2.125,13.913,13.913,0,0,0-.73,3.021c-.067,1.361.232,2.622-.167,4.05s-.9,2.225-.763,3.088.266.5.565,1.494a2.935,2.935,0,0,1-.465,2.523c-.465.8-3.287,2.026-3.686,3.088a13.376,13.376,0,0,0-.7,3.519c0,.7-.067,7.7.1,8.5a3.067,3.067,0,0,1-.7,2.722,14.582,14.582,0,0,1-2.324,2.39c-.432.332-1.262.365-1.86,1.1a5.031,5.031,0,0,0-1.627,2.921c-.1,1.395-1.162,3.951-1.228,4.947a3.34,3.34,0,0,1-1.03,2.224c-.564.6-1.627.83-2.091,1.66a24.527,24.527,0,0,1-1.594,2.856,15.134,15.134,0,0,0-1.593,2.324c-.763,1.328-.4,4.283-.432,4.815a1.657,1.657,0,0,0,.2,1.195c.3.7.8.863-.2,1.361s-2.589,1.959-3.453,2.125-2.922.2-3.486.8a24.114,24.114,0,0,0-2.258,2.091c-.266.5-.763,1.261-.7,1.494s.2,1.062.2,1.062.033-.365.232,0,.266.863.033.963a5.089,5.089,0,0,0-1.1,1.129c-.2.3.266.3-.6,0s-1.328-.4-1.627-.167-.4.5-.5.233-.067-.3-.564-.564a2.659,2.659,0,0,0-1.394-.366c-.531,0-.664-.332-1,.166a1.6,1.6,0,0,0-.332.764,2.837,2.837,0,0,1-.6.157c-.2.008-.631.025-1.328,0a13.53,13.53,0,0,1-1.992-.157c-.4-.1-1-.167-.929-.266a1.419,1.419,0,0,0,.331-.962c.033-.664.067-.763-.3-.962s-.5-.432-.9-.133-.93.4-.963.8.167.863-.1,1.229.066,1.161-1.062.763a8.471,8.471,0,0,0-2.723-.631c-.431.067-1.128.133-1.228.133s.067-.5-.564-.033-1.461.863-1.693,1.029-1.062.631-1.161.4-.432-.7-.2-.6a.733.733,0,0,0,.863,0c.431-.266,1.394-.6,1.494-.9s.166-.73-.365-.6a9.87,9.87,0,0,0-1.328.2c-.564.2-.763.2-.93.531s-.2.431-.4.531a1.858,1.858,0,0,0-.432.232c-.365.232-.132.1-.73.3s-.665.232-.432-.1.6-.863.266-1.062-.132-.3-.763-.3a2.751,2.751,0,0,0-2.025,1c-.6.7-.764,1.893-.166,2.258s1.262-.332,1.561.232-.266-.033-.564.5-.1,1.029-1.062,1.029a4.886,4.886,0,0,0-2.126.3c-.232.2-.4-.83-.962-.7a5.9,5.9,0,0,0-1.926,1.229,4.584,4.584,0,0,0-1,1.328c-.166.3-.2.266-.829.332s-.7,0-1,.5-.4.431-.232.863.365.663-.033.962-.631-.465-.663-.232.266.763,0,.929-.465-.066-.93-.5-.332-.6-.9-.6a3.9,3.9,0,0,0-1.228.032,2.752,2.752,0,0,0-1.594-.2,3.909,3.909,0,0,0-2.191.83c-.3.366-.731.332-.8,1.029s.133,1.328-.464,1.395-1.46-.929-1.693-.9-.5.769-.8.9-.73-.833-1.594-.169-2.988,3.718-3.651,4.316-1.428,1.1-2.159,1.727-1.395.332-2.158,1.1-1.494,1.427-2.025,1.926-1.162.4-1.528.63a8.151,8.151,0,0,0-1.627,1.428c-.3.432-.465.432-.6.9s-.232.73.033,1.029.531.365.564.464.4.067-.331.4a7.18,7.18,0,0,0-1.66,1.295,3.675,3.675,0,0,0-1.1,1.129c-.1.3-.1.5-.431.2s.565-.9.431-1.295-.664.2-1.062.133-.431-1.229-.63-1.229-.664-.1-.7.033.232.6.1,1-.232.8-.531.8-.1-.531-.7-.266-1.228-.3-1.328.266.2.529.83.713.963.217,1.162.549.6.033.531.266-.73.564-.83,1.029a13.817,13.817,0,0,1-.5,1.528c-.166.465-.5.266-.531.565s.2.232.3.464.132-.067.132.929-.2,1.395-.132,1.892.1.6-.332.9-1.527.8-1.461,1.062.1.4,1.129,0,1.029-1.228,1.395-.962a.8.8,0,0,1,.232,1.214,4.134,4.134,0,0,0-.863,1.575,8.554,8.554,0,0,0-.73,2.988c.1,1.195.232,1.361.564,1.627s.332.132.232.962a5.739,5.739,0,0,0,.067,1.727c.067.631.365.763.631.763s.564-.531.7-.431.863.5.763.962-1.162.133-1.527.664a1.743,1.743,0,0,0-.067,1.46,2.433,2.433,0,0,1-.033,1.2c-.132.3-.63.132-.8,1a2.665,2.665,0,0,0,.067,1.86c.266.564.4.531.365,1.029a25.435,25.435,0,0,1-.132,3.287" transform="translate(-988.783 -335.168)" fill="#00833d"/>
    </g>
    <g id="Grupo_25698" data-name="Grupo 25698" transform="translate(1127.507 434.363)">
      <path id="Trazado_55703" data-name="Trazado 55703" d="M1298.814,484.929l-47.8-30.613-47.8,30.613-47.8,30.613,47.8,30.613,47.8,30.613,47.8-30.613,47.8-30.613Z" transform="translate(-1155.41 -454.316)" fill="#f5d912"/>
      <circle id="Elipse_1448" data-name="Elipse 1448" cx="40.205" cy="40.205" r="40.205" transform="translate(46.837 31.334) rotate(-13.283)" fill="#002776"/>
      <g id="Grupo_25696" data-name="Grupo 25696" transform="translate(46.837 12.859)">
        <g id="Grupo_25695" data-name="Grupo 25695" clip-path="url(#clip-path)">
          <path id="Trazado_55704" data-name="Trazado 55704" d="M1224.683,512.321a94.588,94.588,0,0,1,83.809,138.4A94.577,94.577,0,1,0,1144.024,557.5,94.506,94.506,0,0,1,1224.683,512.321Z" transform="translate(-1200.341 -475.959)" fill="#fff"/>
        </g>
      </g>
      <path id="Trazado_55705" data-name="Trazado 55705" d="M1230.543,518.943l.837-.608h-1.034l-.319-.983-.319.983h-1.034l.837.608-.32.983.837-.608.837.608Z" transform="translate(-1167.679 -464.872)" fill="#fff"/>
      <path id="Trazado_55706" data-name="Trazado 55706" d="M1228.917,543.659l.836-.608h-1.034l-.32-.983-.319.983h-1.034l.836.608-.319.983.837-.608.837.608Z" transform="translate(-1167.407 -469.011)" fill="#fff"/>
      <path id="Trazado_55707" data-name="Trazado 55707" d="M1234.627,539.36l.922-.67h-1.14l-.352-1.084-.352,1.084h-1.14l.922.67-.352,1.084.922-.67.922.67Z" transform="translate(-1168.331 -468.264)" fill="#fff"/>
      <path id="Trazado_55708" data-name="Trazado 55708" d="M1249.555,554.936l.922-.67h-1.14l-.352-1.084-.352,1.084h-1.14l.922.67-.352,1.084.922-.67.922.67Z" transform="translate(-1170.83 -470.872)" fill="#fff"/>
      <path id="Trazado_55709" data-name="Trazado 55709" d="M1268.52,550.556l.922-.67h-1.14l-.352-1.084-.352,1.084h-1.14l.922.67-.352,1.084.922-.67.922.67Z" transform="translate(-1174.006 -470.138)" fill="#fff"/>
      <path id="Trazado_55710" data-name="Trazado 55710" d="M1239.494,536.351l.534-.388h-.66l-.2-.628-.2.628h-.66l.534.388-.2.628.534-.388.534.388Z" transform="translate(-1169.291 -467.883)" fill="#fff"/>
      <path id="Trazado_55711" data-name="Trazado 55711" d="M1251.5,529.747l.728-.529h-.9l-.278-.856-.278.856h-.9l.728.529-.278.856.728-.529.728.529Z" transform="translate(-1171.23 -466.716)" fill="#fff"/>
      <path id="Trazado_55712" data-name="Trazado 55712" d="M1265.042,539.94l.687-.5h-.849l-.262-.808-.262.808h-.849l.687.5-.262.808.687-.5.687.5Z" transform="translate(-1173.512 -468.436)" fill="#fff"/>
      <path id="Trazado_55713" data-name="Trazado 55713" d="M1269.966,535.372l.687-.5h-.849l-.262-.808-.262.808h-.849l.687.5-.263.808.687-.5.687.5Z" transform="translate(-1174.336 -467.671)" fill="#fff"/>
      <path id="Trazado_55714" data-name="Trazado 55714" d="M1275.584,539.94l.687-.5h-.849l-.262-.808-.262.808h-.849l.687.5-.262.808.687-.5.687.5Z" transform="translate(-1175.277 -468.436)" fill="#fff"/>
      <path id="Trazado_55715" data-name="Trazado 55715" d="M1267.472,543.188l.471-.343h-.583l-.18-.554-.18.554h-.583l.472.343-.18.554.472-.342.471.342Z" transform="translate(-1174 -469.048)" fill="#fff"/>
      <path id="Trazado_55716" data-name="Trazado 55716" d="M1271.192,564.1l.313-.228h-.387l-.12-.368-.12.368h-.387l.313.228-.12.368.313-.227.313.227Z" transform="translate(-1174.682 -472.601)" fill="#fff"/>
      <path id="Trazado_55717" data-name="Trazado 55717" d="M1283.091,525.377l.472-.343h-.583l-.18-.554-.18.554h-.583l.471.343-.18.554.471-.343.472.343Z" transform="translate(-1176.615 -466.066)" fill="#fff"/>
      <path id="Trazado_55718" data-name="Trazado 55718" d="M1280.65,554.914l.512-.372h-.633l-.2-.6-.2.6h-.634l.513.372-.2.6.513-.372.512.372Z" transform="translate(-1176.191 -470.999)" fill="#fff"/>
      <path id="Trazado_55719" data-name="Trazado 55719" d="M1284.525,560.446l.728-.529h-.9l-.278-.856-.278.856h-.9l.728.529-.278.856.728-.529.728.529Z" transform="translate(-1176.759 -471.856)" fill="#fff"/>
      <path id="Trazado_55720" data-name="Trazado 55720" d="M1288.633,556.1l.6-.44h-.748l-.231-.711-.231.711h-.748l.6.44-.231.711.605-.44.6.44Z" transform="translate(-1177.493 -471.167)" fill="#fff"/>
      <path id="Trazado_55721" data-name="Trazado 55721" d="M1294.061,554.457l.5-.361h-.615l-.19-.585-.19.585h-.615l.5.361-.19.585.5-.361.5.361Z" transform="translate(-1178.442 -470.927)" fill="#fff"/>
      <path id="Trazado_55722" data-name="Trazado 55722" d="M1294.126,559.1l.723-.525h-.893l-.276-.85-.276.85h-.893l.723.525-.276.85.723-.525.723.525Z" transform="translate(-1178.369 -471.633)" fill="#fff"/>
      <path id="Trazado_55723" data-name="Trazado 55723" d="M1294.089,564.117l.594-.431h-.734l-.227-.7-.227.7h-.734l.593.431-.227.7.593-.431.594.431Z" transform="translate(-1178.411 -472.514)" fill="#fff"/>
      <path id="Trazado_55724" data-name="Trazado 55724" d="M1298.99,555.381l.594-.431h-.734l-.227-.7-.227.7h-.734l.593.431-.227.7.594-.431.593.431Z" transform="translate(-1179.232 -471.051)" fill="#fff"/>
      <path id="Trazado_55725" data-name="Trazado 55725" d="M1303.025,552.883l.766-.556h-.947l-.292-.9-.292.9h-.947l.766.556-.292.9.766-.556.766.556Z" transform="translate(-1179.843 -470.578)" fill="#fff"/>
      <path id="Trazado_55726" data-name="Trazado 55726" d="M1306,549.058l.766-.556h-.947l-.292-.9-.292.9h-.947l.766.556-.292.9.766-.556.766.556Z" transform="translate(-1180.342 -469.937)" fill="#fff"/>
      <path id="Trazado_55727" data-name="Trazado 55727" d="M1304.152,544.806l.981-.713h-1.213l-.375-1.154-.375,1.154h-1.213l.982.713-.375,1.154.981-.713.982.713Z" transform="translate(-1179.951 -469.157)" fill="#fff"/>
      <path id="Trazado_55728" data-name="Trazado 55728" d="M1285.148,512.711l.982-.713h-1.213l-.375-1.154-.375,1.154h-1.213l.982.713-.375,1.154.981-.713.982.713Z" transform="translate(-1176.769 -463.782)" fill="#fff"/>
      <path id="Trazado_55729" data-name="Trazado 55729" d="M1310.819,545.225l.615-.447h-.76l-.235-.723-.235.723h-.76l.615.447-.235.723.615-.447.615.447Z" transform="translate(-1181.205 -469.344)" fill="#fff"/>
      <path id="Trazado_55730" data-name="Trazado 55730" d="M1244.925,544.443l.8-.581h-.988l-.305-.939-.305.939h-.988l.8.581-.305.939.8-.581.8.581Z" transform="translate(-1170.101 -469.154)" fill="#fff"/>
      <path id="Trazado_55731" data-name="Trazado 55731" d="M1243.361,549.137l.763-.554h-.943l-.291-.9-.291.9h-.943l.763.554-.291.9.763-.554.763.554Z" transform="translate(-1169.853 -469.952)" fill="#fff"/>
      <g id="Grupo_25697" data-name="Grupo 25697" transform="translate(59.733 44.583)">
        <path id="Trazado_55732" data-name="Trazado 55732" d="M1227.178,510.7a2.54,2.54,0,0,1,.075-1.036,1.9,1.9,0,0,1,.313-.583,1.531,1.531,0,0,1,.475-.41,2.181,2.181,0,0,1,.839-.246,1.876,1.876,0,0,1,1.46.4,2.445,2.445,0,0,1,.319,3.016,1.862,1.862,0,0,1-1.34.689,1.882,1.882,0,0,1-1.464-.393A2.066,2.066,0,0,1,1227.178,510.7Zm.823-.112a1.5,1.5,0,0,0,.418.989,1.076,1.076,0,0,0,1.577-.162,1.525,1.525,0,0,0,.2-1.067,1.5,1.5,0,0,0-.4-.987,1.114,1.114,0,0,0-1.593.17A1.508,1.508,0,0,0,1228,510.587Z" transform="translate(-1227.158 -507.957)" fill="#009b3a"/>
        <path id="Trazado_55733" data-name="Trazado 55733" d="M1233.779,512.085l-.2-3.985,1.692-.087a2.934,2.934,0,0,1,.934.06.92.92,0,0,1,.483.359,1.152,1.152,0,0,1,.206.619,1.067,1.067,0,0,1-.226.754,1.268,1.268,0,0,1-.769.409,1.906,1.906,0,0,1,.448.311,4.572,4.572,0,0,1,.491.624l.526.753-.962.049-.626-.838a5.449,5.449,0,0,0-.454-.564.609.609,0,0,0-.25-.153,1.335,1.335,0,0,0-.408-.024l-.162.008.084,1.663Zm.687-2.34.6-.031a3.055,3.055,0,0,0,.721-.086.433.433,0,0,0,.217-.18.519.519,0,0,0,.067-.3.476.476,0,0,0-.124-.319.5.5,0,0,0-.311-.142c-.065-.006-.261,0-.588.017l-.628.032Z" transform="translate(-1228.233 -507.889)" fill="#009b3a"/>
        <path id="Trazado_55734" data-name="Trazado 55734" d="M1239.656,507.867h1.472a2.878,2.878,0,0,1,.759.076,1.343,1.343,0,0,1,.6.367,1.749,1.749,0,0,1,.381.647,2.955,2.955,0,0,1,.131.942,2.643,2.643,0,0,1-.122.849,1.774,1.774,0,0,1-.428.705,1.414,1.414,0,0,1-.566.318,2.419,2.419,0,0,1-.713.085h-1.516Zm.806.674v2.643h.6a2.234,2.234,0,0,0,.487-.037.751.751,0,0,0,.325-.167.848.848,0,0,0,.211-.385,2.618,2.618,0,0,0,.082-.731,2.363,2.363,0,0,0-.082-.71.915.915,0,0,0-.228-.386.774.774,0,0,0-.373-.188,3.71,3.71,0,0,0-.661-.037Z" transform="translate(-1229.251 -507.866)" fill="#009b3a"/>
        <path id="Trazado_55735" data-name="Trazado 55735" d="M1245.5,511.908l.194-3.985,2.955.144-.033.674-2.15-.1-.043.883,2,.1-.032.672-2-.1-.052,1.084,2.225.108-.032.672Z" transform="translate(-1230.23 -507.876)" fill="#009b3a"/>
        <path id="Trazado_55736" data-name="Trazado 55736" d="M1250.959,512.214l.4-3.969,1.2.122.445,2.781.987-2.635,1.2.122-.4,3.969-.744-.076.317-3.125-1.106,3.045-.772-.078-.467-3.2-.317,3.125Z" transform="translate(-1231.144 -507.929)" fill="#009b3a"/>
        <path id="Trazado_55737" data-name="Trazado 55737" d="M1260.389,513.4l.714-3.925,2.91.529-.12.664-2.119-.385-.157.869,1.971.359-.121.661-1.971-.358-.194,1.068,2.193.4-.12.661Z" transform="translate(-1232.723 -508.135)" fill="#009b3a"/>
        <path id="Trazado_55738" data-name="Trazado 55738" d="M1268.6,515.085l1-3.861,1.25.324a4.706,4.706,0,0,1,.912.3,1.05,1.05,0,0,1,.458.522,1.239,1.239,0,0,1,.028.811,1.3,1.3,0,0,1-.284.564,1.092,1.092,0,0,1-.427.295,1.155,1.155,0,0,1-.451.078,4.59,4.59,0,0,1-.823-.154l-.508-.132-.379,1.457Zm1.613-3.005-.285,1.1.427.111a2.051,2.051,0,0,0,.632.1.53.53,0,0,0,.293-.126.536.536,0,0,0,.166-.277.515.515,0,0,0-.033-.38.562.562,0,0,0-.269-.252,3.92,3.92,0,0,0-.554-.172Z" transform="translate(-1234.098 -508.428)" fill="#009b3a"/>
        <path id="Trazado_55739" data-name="Trazado 55739" d="M1273.891,516.515l1.195-3.806,1.618.508a2.913,2.913,0,0,1,.855.381.924.924,0,0,1,.328.5,1.149,1.149,0,0,1-.022.652,1.062,1.062,0,0,1-.474.629,1.272,1.272,0,0,1-.863.116,1.9,1.9,0,0,1,.311.448,4.616,4.616,0,0,1,.243.755l.232.889-.919-.289-.3-1a5.666,5.666,0,0,0-.229-.687.612.612,0,0,0-.182-.231,1.331,1.331,0,0,0-.373-.165l-.156-.048-.5,1.588Zm1.459-1.955.568.178a3.066,3.066,0,0,0,.706.17.432.432,0,0,0,.266-.093.523.523,0,0,0,.167-.261.472.472,0,0,0-.005-.342.49.49,0,0,0-.242-.241q-.09-.042-.557-.189l-.6-.188Z" transform="translate(-1234.984 -508.677)" fill="#009b3a"/>
        <path id="Trazado_55740" data-name="Trazado 55740" d="M1280.066,516.5a2.536,2.536,0,0,1,.529-.894,1.876,1.876,0,0,1,.54-.382,1.556,1.556,0,0,1,.609-.156,2.2,2.2,0,0,1,.86.154,1.867,1.867,0,0,1,1.13,1.006,2.444,2.444,0,0,1-1.057,2.842,2.1,2.1,0,0,1-2.642-.984A2.062,2.062,0,0,1,1280.066,516.5Zm.787.266a1.492,1.492,0,0,0-.067,1.071,1.022,1.022,0,0,0,.622.606,1.009,1.009,0,0,0,.862-.048,1.526,1.526,0,0,0,.654-.867,1.5,1.5,0,0,0,.077-1.064,1.115,1.115,0,0,0-1.5-.557A1.506,1.506,0,0,0,1280.853,516.77Z" transform="translate(-1235.989 -509.072)" fill="#009b3a"/>
        <path id="Trazado_55741" data-name="Trazado 55741" d="M1287.636,520.065l.269-.615,1.591.7-.638,1.455a2.182,2.182,0,0,1-.845.1,2.645,2.645,0,0,1-.966-.22,2.183,2.183,0,0,1-.894-.678,1.672,1.672,0,0,1-.34-.968,2.43,2.43,0,0,1,.212-1.067,2.3,2.3,0,0,1,.684-.91,1.761,1.761,0,0,1,1-.374,2.053,2.053,0,0,1,.955.2,1.9,1.9,0,0,1,.938.751,1.408,1.408,0,0,1,.146,1l-.792-.185a.849.849,0,0,0-.1-.552.966.966,0,0,0-.464-.389,1.094,1.094,0,0,0-.9-.03,1.415,1.415,0,0,0-.684.785,1.568,1.568,0,0,0-.137,1.1,1.05,1.05,0,0,0,.615.657,1.378,1.378,0,0,0,.5.112,1.748,1.748,0,0,0,.5-.045l.2-.464Z" transform="translate(-1236.98 -509.476)" fill="#009b3a"/>
        <path id="Trazado_55742" data-name="Trazado 55742" d="M1290.928,523.136l1.793-3.564,1.514.763a2.9,2.9,0,0,1,.782.514.919.919,0,0,1,.242.549,1.152,1.152,0,0,1-.127.64,1.063,1.063,0,0,1-.569.544,1.267,1.267,0,0,1-.871-.026,1.9,1.9,0,0,1,.235.493,4.577,4.577,0,0,1,.118.785l.086.914-.861-.433-.13-1.037a5.755,5.755,0,0,0-.116-.715.618.618,0,0,0-.142-.256,1.338,1.338,0,0,0-.342-.222l-.146-.073-.749,1.488Zm1.754-1.7.532.268a3.044,3.044,0,0,0,.669.281.428.428,0,0,0,.277-.049.517.517,0,0,0,.208-.231.483.483,0,0,0,.05-.339.49.49,0,0,0-.2-.276q-.081-.056-.519-.276l-.562-.283Z" transform="translate(-1237.837 -509.826)" fill="#009b3a"/>
        <path id="Trazado_55743" data-name="Trazado 55743" d="M1296.124,525.831l1.969-3.47,2.573,1.46-.333.587-1.872-1.062-.436.768,1.742.989-.331.584-1.742-.988-.536.944,1.939,1.1-.332.585Z" transform="translate(-1238.707 -510.293)" fill="#009b3a"/>
        <path id="Trazado_55744" data-name="Trazado 55744" d="M1301.452,527.464l.7.355a.953.953,0,0,0-.068.644.871.871,0,0,0,.395.468.9.9,0,0,0,.584.175.492.492,0,0,0,.373-.22.355.355,0,0,0,.057-.247.657.657,0,0,0-.151-.3q-.094-.117-.452-.492a2.183,2.183,0,0,1-.556-.82,1.037,1.037,0,0,1,.119-.875,1.022,1.022,0,0,1,.45-.389,1.087,1.087,0,0,1,.637-.075,1.987,1.987,0,0,1,.738.3,1.685,1.685,0,0,1,.779.883,1.161,1.161,0,0,1-.134.956l-.7-.4a.687.687,0,0,0,.05-.493.809.809,0,0,0-.36-.386.918.918,0,0,0-.541-.172.29.29,0,0,0-.24.141.308.308,0,0,0-.029.269,2.132,2.132,0,0,0,.484.621,3.931,3.931,0,0,1,.58.708,1.126,1.126,0,0,1,.156.579,1.258,1.258,0,0,1-.71,1.063,1.143,1.143,0,0,1-.693.087,2.25,2.25,0,0,1-.811-.341,1.728,1.728,0,0,1-.8-.917A1.523,1.523,0,0,1,1301.452,527.464Z" transform="translate(-1239.568 -510.847)" fill="#009b3a"/>
        <path id="Trazado_55745" data-name="Trazado 55745" d="M1306.122,530.488l.684.389a.954.954,0,0,0-.1.639.868.868,0,0,0,.37.487.9.9,0,0,0,.575.2.491.491,0,0,0,.383-.2.368.368,0,0,0,.071-.245.665.665,0,0,0-.138-.308q-.087-.121-.427-.514a2.185,2.185,0,0,1-.517-.845,1.048,1.048,0,0,1,.631-1.235,1.088,1.088,0,0,1,.639-.044,1.994,1.994,0,0,1,.722.338,1.688,1.688,0,0,1,.736.92,1.164,1.164,0,0,1-.179.948l-.679-.435a.683.683,0,0,0,.073-.489.814.814,0,0,0-.34-.4.919.919,0,0,0-.533-.2.289.289,0,0,0-.247.129.31.31,0,0,0-.042.267,2.14,2.14,0,0,0,.453.644,3.831,3.831,0,0,1,.545.734,1.118,1.118,0,0,1,.128.585,1.253,1.253,0,0,1-.76,1.027,1.141,1.141,0,0,1-.7.054,2.258,2.258,0,0,1-.793-.38,1.726,1.726,0,0,1-.749-.955A1.518,1.518,0,0,1,1306.122,530.488Z" transform="translate(-1240.343 -511.369)" fill="#009b3a"/>
        <path id="Trazado_55746" data-name="Trazado 55746" d="M1311.13,533.265a2.536,2.536,0,0,1,.774-.694,1.886,1.886,0,0,1,.63-.2,1.555,1.555,0,0,1,.628.036,2.176,2.176,0,0,1,.773.405,1.872,1.872,0,0,1,.774,1.3,2.443,2.443,0,0,1-1.866,2.39,1.858,1.858,0,0,1-1.442-.435,1.879,1.879,0,0,1-.779-1.3A2.058,2.058,0,0,1,1311.13,533.265Zm.67.49a1.5,1.5,0,0,0-.386,1,1.075,1.075,0,0,0,1.246.979,1.531,1.531,0,0,0,.885-.629,1.508,1.508,0,0,0,.394-.992,1.116,1.116,0,0,0-1.264-.983A1.5,1.5,0,0,0,1311.8,533.755Z" transform="translate(-1241.133 -511.967)" fill="#009b3a"/>
      </g>
    </g>
  </g>
</svg>
