<svg xmlns="http://www.w3.org/2000/svg" width="419.608" height="315.733" viewBox="0 0 419.608 315.733">
  <g id="Grupo_25816" data-name="Grupo 25816" transform="translate(-44.696 -116.517)">
    <g id="Grupo_25786" data-name="Grupo 25786">
      <path id="Trazado_56217" data-name="Trazado 56217" d="M62.4,231.361s13.571,23.586,19.25,28.12,0,9.87,0,9.87-22.5-13.491-32.75-28.893Z" fill="#ffb69e"/>
      <path id="Trazado_56218" data-name="Trazado 56218" d="M78.99,254.389s-6.258,5.333-7.758,10.667l9.833,6.166s-1,.834,0,1.334a2.415,2.415,0,0,0,2,0s3.667,7,3.583,8.166,2.759,4.342,2.759,4.342l-.672-15.338s.778-6.816-.538-8-1.062-.938-1.062-.938h-1.57l-1.545-1.395Z" fill="#ff9638"/>
      <path id="Trazado_56219" data-name="Trazado 56219" d="M84.058,180.3c-5.66-.24-38.66,47.944-39.16,52.727s5,10.771,5,10.771l16.25-9.218-1.686-3.215a14.308,14.308,0,0,1,2.936,0c.75.2,1.5-2.559,1.5-2.559l17.75-16.516Z" fill="#005ba1"/>
      <path id="Trazado_56220" data-name="Trazado 56220" d="M140.488,179.639c6.66,1.667,23.2,44.766,23.2,44.766a2.963,2.963,0,0,1,2.96,1.117c1,1.534,1,8.742-2,14.638s-11.312,4.087-10.781,2.116-16.208-29.22-16.208-29.22Z" fill="#005ba1"/>
      <path id="Trazado_56221" data-name="Trazado 56221" d="M170.565,228.8s-.417-2.935-2.5-2.8-7.35,1.358-9.092,4-3.658,10.532-2.241,14.169a4.006,4.006,0,0,0,4.666,2.8s4.75,1.427,7.084-1.411S170.565,228.8,170.565,228.8Z" fill="#1474bd"/>
      <path id="Trazado_56222" data-name="Trazado 56222" d="M183.168,224.4s-9.27,4.894-11.52,4.4-5.25-1.213-9.75,3.52-3.25,10.993,0,13.239,17.238-4.044,25.6-12.551Z" fill="#ed9c82"/>
      <path id="Trazado_56223" data-name="Trazado 56223" d="M182.4,224.4s-4.818,1.523-5.75,2.484-4,7.183-2,10.508,7.588,3.909,10.211,1.909,5.2-7.945,5.2-7.945Z" fill="#ff9638"/>
      <path id="Trazado_56224" data-name="Trazado 56224" d="M195.872,225.814c-2.07,3.632-10.391,8.972-12.259,8.756s-5.035-4.322-4.413-5.746,3.034-6.69,3.034-6.69,1.076-4.046,2.986-5.186a27.2,27.2,0,0,0,3.664-2.714,2.31,2.31,0,0,1,.4,2.589c-.783,1.3-3.616,4.1-2.742,4.642s2.735,3.623,4.309,3.548A25.322,25.322,0,0,1,195.872,225.814Z" fill="#ffaf69"/>
      <path id="Trazado_56225" data-name="Trazado 56225" d="M88.634,266.823c2.084,62.784,10,115.667,10.75,137.917.384,11.4,6.458,16.149,6.458,16.149s3-7.833,9.152-1.312l-1.376-7.923,3.108-5.981-2.733-110.982,4.85-.311L142.05,405.406s7.8,13.089,7.848,18.243l9.834-2.4-.4-13.144-3.267-2.551,1.527-9.477S137.4,277.749,138.711,265.812c0,0,.089-1.989-1.077-2.489-9.485-4.065-40.252-2.372-48.668-.925C87.457,262.657,88.634,266.823,88.634,266.823Z" fill="#8b383e"/>
      <path id="Trazado_56226" data-name="Trazado 56226" d="M84.268,200.526c.13,4.99.33,10.98.63,18.06.05,1.21.1,2.46.16,3.74.93,20.91,3.14,55.9,3.14,55.9a109.76,109.76,0,0,0,25.23,1.69l2.14-9.36,2.44,9.11a149.761,149.761,0,0,0,23.31-3.44c-1.75-13.67-1.83-44.02-1.04-59.53.34-6.69.65-13.15.92-18.79a92.176,92.176,0,0,0-.71-18.27c-5.34-1.38-13.43-2.23-27.04-2.02s-25.73,1.79-29.39,2.68C84.058,180.3,83.888,186.4,84.268,200.526Z" fill="#1474bd"/>
      <g id="Grupo_25779" data-name="Grupo 25779">
        <path id="Trazado_56227" data-name="Trazado 56227" d="M61.485,118.725h0c-4.574,5.294,2.823,19.181,8.117,23.755l8.591,7.424,16.564-19.169-8.592-7.424C80.872,118.737,66.059,113.432,61.485,118.725Z" fill="#072228"/>
        <path id="Trazado_56228" data-name="Trazado 56228" d="M179.069,222.533l-99.5-85.98a1.667,1.667,0,1,1,2.18-2.522l99.5,85.98Z" fill="#83989e"/>
        <g id="Grupo_25778" data-name="Grupo 25778">
          <path id="Trazado_56229" data-name="Trazado 56229" d="M190.176,220.9l1.756,1.518a1,1,0,0,1,.1,1.41l-7.627,8.827a1,1,0,0,1-1.411.1l-1.756-1.517c-2.692-2.326-4.808-7.947-2.217-10.946S187.484,218.571,190.176,220.9Zm-.308,2.377-1-.864c-2.21-1.909-6.733-2.66-8.33-.811s-.2,6.215,2.011,8.125l1,.864Z" fill="#072228"/>
        </g>
        <rect id="Rectángulo_5390" data-name="Rectángulo 5390" width="3.917" height="4.643" transform="translate(175.365 219.718) rotate(-49.17)" fill="#072228"/>
      </g>
      <path id="Trazado_56230" data-name="Trazado 56230" d="M112.612,176.115s-7.956-.117-9.956,1.949-.626,8.117-.626,8.117l3.131-2.625a165.618,165.618,0,0,1,8.874,15.451s3.811-12.262,6.707-16.153l4.687,2.535s-1.058-7.114-2.649-7.892S120,175.5,112.612,176.115Z" fill="#005ba1"/>
      <path id="Trazado_56231" data-name="Trazado 56231" d="M118.559,170.39s-1.546,5.112.9,7.749c0,0-2.313,9-5.807,18.268,0,0-4.874-12.414-7.285-16.83,0,0,1.721-4.346,0-7.168Z" fill="#ed9c82"/>
      <g id="Grupo_25783" data-name="Grupo 25783">
        <path id="Trazado_56232" data-name="Trazado 56232" d="M101.769,158.306s-3.247-3.24-3.647.548c-.463,4.389,3.523,6.157,4.3,4.761S101.769,158.306,101.769,158.306Z" fill="#ffb69e"/>
        <path id="Trazado_56233" data-name="Trazado 56233" d="M124.507,158.535s3.248-3.241,3.647.548c.463,4.388-3.523,6.156-4.3,4.76S124.507,158.535,124.507,158.535Z" fill="#ffb69e"/>
        <path id="Trazado_56234" data-name="Trazado 56234" d="M112.8,174.2c-7.2,0-11.271-4.706-11.271-18.822,0-7.28,3.7-11.746,11.774-11.746s11.47,4.466,11.47,11.746C124.769,170.549,120.239,174.2,112.8,174.2Z" fill="#ffb69e"/>
        <path id="Trazado_56235" data-name="Trazado 56235" d="M122.382,160.416a1.706,1.706,0,1,1-1.868-1.025A1.526,1.526,0,0,1,122.382,160.416Z" fill="#db614d"/>
        <path id="Trazado_56236" data-name="Trazado 56236" d="M107.563,160.81a1.707,1.707,0,1,1-1.575-1.436A1.526,1.526,0,0,1,107.563,160.81Z" fill="#db614d"/>
        <g id="Grupo_25780" data-name="Grupo 25780">
          <path id="Trazado_56237" data-name="Trazado 56237" d="M119.087,153.092a.357.357,0,0,1-.26-.111,4.122,4.122,0,0,0-2.774-1,.364.364,0,0,1-.37-.348.359.359,0,0,1,.348-.372,4.817,4.817,0,0,1,3.316,1.226.359.359,0,0,1-.26.608Z" fill="#e8385a"/>
        </g>
        <g id="Grupo_25781" data-name="Grupo 25781">
          <path id="Trazado_56238" data-name="Trazado 56238" d="M105.521,153.092a.36.36,0,0,1-.261-.608,4.817,4.817,0,0,1,3.316-1.226.36.36,0,0,1,.348.371.367.367,0,0,1-.371.349,4.148,4.148,0,0,0-2.771,1A.362.362,0,0,1,105.521,153.092Z" fill="#e8385a"/>
        </g>
        <path id="Trazado_56239" data-name="Trazado 56239" d="M118.464,156.915c0,.9-.4,1.62-.9,1.62s-.9-.725-.9-1.62.4-1.621.9-1.621S118.464,156.02,118.464,156.915Z" fill="#1a4850"/>
        <path id="Trazado_56240" data-name="Trazado 56240" d="M108.843,156.915c0,.9-.4,1.62-.9,1.62s-.9-.725-.9-1.62.4-1.621.9-1.621S108.843,156.02,108.843,156.915Z" fill="#1a4850"/>
        <path id="Trazado_56241" data-name="Trazado 56241" d="M108.843,166.488s6.353.818,9.621-.751c0,0-1.847,4.326-5.318,3.938A4.936,4.936,0,0,1,108.843,166.488Z" fill="#1a4850"/>
        <g id="Grupo_25782" data-name="Grupo 25782">
          <path id="Trazado_56242" data-name="Trazado 56242" d="M114.052,164.224a6.573,6.573,0,0,1-1.627-.241l.2-.737c.756.209,1.941.333,2.2.028.089-.106.054-.352-.1-.675-1.041-2.214-1.258-7.821-1.267-8.059l.766-.028c0,.057.219,5.688,1.194,7.761a1.331,1.331,0,0,1-.009,1.5A1.756,1.756,0,0,1,114.052,164.224Z" fill="#db614d"/>
        </g>
        <path id="Trazado_56243" data-name="Trazado 56243" d="M101.764,160.778a44.931,44.931,0,0,1,.892-6.266s-1.075-5.013,1.779-7.783a69.125,69.125,0,0,0,8.711.6,43.455,43.455,0,0,0,7.6-.6s2.172,1.944,1.922,7.025c0,0,1.014,3.45,1.88,6.948,0,0,5.87-20.993-12.63-20.993C93.164,139.709,101.764,160.778,101.764,160.778Z" fill="#e8385a"/>
        <path id="Trazado_56244" data-name="Trazado 56244" d="M125.429,152.174c-.35-2.432,2.594-4.368,2.219-6.118s-2.879-1.75-2.879-1.75,2-4.25,0-6.125-5.308.5-5.308.5-.606-2.75-1.9-3.125-6.166,1.875-6.166,1.875.514-1.375-2.555-1.25a3.806,3.806,0,0,0-3.682,2.75,6.921,6.921,0,0,0-4.263-.125c-1.875.75-1.1,4.829-1.1,4.829s-2.71.014-2.9,1.671,1.507,4.6,1.507,4.6-1.042.715,0,2.271a26.386,26.386,0,0,1,2.075,4.35s1.069-10.219,4.681-12.344,16.862,1.125,16.862,1.125Z" fill="#e8385a"/>
      </g>
      <path id="Trazado_56245" data-name="Trazado 56245" d="M190.094,225.971a11.329,11.329,0,0,1-.314,2.158s-1.387-2.528-1.7-2.878c-1.026-1.164-1.712-1.564-2.39-.879-.41.414-.623,1.07.121,2.237a15.131,15.131,0,0,1,1.233,2.918s-1.115-1.188-1.555-1.6a1.658,1.658,0,0,0-1.61-.577,1.1,1.1,0,0,0-.542,1.6c.239.4,1.135,1.27,1.193,1.506.117.437.562,2,1.384,1.856.822-.121,1.167-1.361,1.167-1.361a.928.928,0,0,0,1.275.712c1.085-.354,1.591-1.87,1.591-1.87a1.114,1.114,0,0,0,1.718.142,4.556,4.556,0,0,0,1.141-2.357s.416.727,1.514.211a2.786,2.786,0,0,0,1.548-1.976,6.35,6.35,0,0,0-.888-3.934,7.858,7.858,0,0,0-2.407-2.155c-.449-.317-1.6,1.247-.392,3.117a3.735,3.735,0,0,1,.686,3.617l-.713-2.72s-1.488-2.254-2.349-2.4c-.389-.065-1.568.517-1.049,2.192C189,224.292,189.99,225.3,190.094,225.971Z" fill="#ff9638"/>
      <path id="Trazado_56246" data-name="Trazado 56246" d="M105.161,204.4H91.648v15.108s11.776,2.009,13.513-.972Z" fill="#005ba1"/>
      <g id="Grupo_25784" data-name="Grupo 25784">
        <path id="Trazado_56247" data-name="Trazado 56247" d="M178.786,430.395a14.329,14.329,0,0,1-.111,1.855H147.221c0-.622.011-1.244.045-1.855.1-2.39.759-6.747.759-6.747l-10.96-32.592a42.786,42.786,0,0,1,12.667-4.334,63.7,63.7,0,0,1,7.333,0c.677,4.053,3.435,31.572,5.622,33.259a11.137,11.137,0,0,0,1.8,1.155c.288.155.577.3.877.433a15.1,15.1,0,0,0,2.009.744,49.134,49.134,0,0,0,7.55,1.321C178.275,424.156,178.786,428.031,178.786,430.395Z" fill="#1474bd"/>
        <path id="Trazado_56248" data-name="Trazado 56248" d="M166.717,422.906s-3.225.167-3.029,1.084,2.779,2.5,5.7,2.75,6.333-1.917,6.333-1.917-.25-.25-3.583-.75A38.086,38.086,0,0,1,166.717,422.906Z" fill="#005ba1"/>
      </g>
      <g id="Grupo_25785" data-name="Grupo 25785">
        <path id="Trazado_56249" data-name="Trazado 56249" d="M120.566,425.4a5.961,5.961,0,0,1-2.5-3.83c-.385-1.364.425-30.879.332-32.18,0,0-4.049-5.459-10.7-4.425-7.5,1.167-10.126,6.59-10.126,6.59s3.86,31.408,3.438,33.686a12.967,12.967,0,0,0,.046,5.155,9.484,9.484,0,0,0,.588,1.855H122.6a7.933,7.933,0,0,0,.355-1.855A4.786,4.786,0,0,0,120.566,425.4Z" fill="#1474bd"/>
        <path id="Trazado_56250" data-name="Trazado 56250" d="M105.842,425.241a19.712,19.712,0,0,1,8.75-1.543c4.57.377,6.983,2.75,6.792,3-1.522,1.992-6.917-1-10.667.625A3.382,3.382,0,0,1,105.842,425.241Z" fill="#005ba1"/>
      </g>
      <path id="Trazado_56251" data-name="Trazado 56251" d="M65.757,236.665s2.308-1.569,1.808-2.089A17.522,17.522,0,0,0,65.321,233s1.205-1.638-.859-1.638-18.628,4.2-19.6,6.2,2.51,2.9,2.51,2.9.356,5.858,1.522,5.561,3.484-.922,3.484-.922S57.95,237.107,65.757,236.665Z" fill="#1474bd"/>
    </g>
    <g id="Grupo_25801" data-name="Grupo 25801" transform="translate(-241)">
      <g id="Grupo_25792" data-name="Grupo 25792">
        <path id="Trazado_56252" data-name="Trazado 56252" d="M626.585,190.055s-11.34-6.518-16.1-13.6-1.784-8.773-1.784-8.773,4.3,4.924,3.052,8.831l1.417,2.353s.186-4.058,2.584-5.371c0,0,2.166,3.759-1.455,6.236a10.377,10.377,0,0,0,2.42,2.652s.716-3.423,2.733-4.195c0,0,1.14,3.966-1.9,4.945,0,0,8.263,6.02,9.266,6.32S626.585,190.055,626.585,190.055Z" fill="#768e1e"/>
        <path id="Trazado_56253" data-name="Trazado 56253" d="M622.294,188.665s-2.024-6.994-1.2-11.67,2.676-4.2,2.676-4.2-.181,3.634-2.19,4.717l-.341,1.49s1.642-1.554,3.111-1.153a2.6,2.6,0,0,1-2.993,1.936,5.77,5.77,0,0,0-.056,2s1.61-1.1,2.717-.624c0,0-1.076,2.03-2.674,1.245,0,0,.984,5.606,1.27,6.114S622.294,188.665,622.294,188.665Z" fill="#647715"/>
        <path id="Trazado_56254" data-name="Trazado 56254" d="M621.292,185.679s.711-7.247-.96-11.692-3.4-3.643-3.4-3.643.843,3.539,3.017,4.237l.609,1.4s-1.9-1.227-3.27-.564a2.6,2.6,0,0,0,3.3,1.356,5.786,5.786,0,0,1,.42,1.954s-1.783-.782-2.785-.117c0,0,1.429,1.8,2.857.735,0,0,.058,5.691-.13,6.243S621.292,185.679,621.292,185.679Z" fill="#647715"/>
        <path id="Trazado_56255" data-name="Trazado 56255" d="M614.183,190.528s-3.251-6.515-7.03-9.391-4.817-1.278-4.817-1.278,2.6,2.549,4.808,1.984l1.261.865s-2.261-.03-3.069,1.26a2.6,2.6,0,0,0,3.513-.6,5.786,5.786,0,0,1,1.4,1.431s-1.926.286-2.421,1.382c0,0,2.167.763,2.81-.9,0,0,3.075,4.789,3.209,5.356S614.183,190.528,614.183,190.528Z" fill="#647715"/>
        <path id="Trazado_56256" data-name="Trazado 56256" d="M623.76,192.589s-7.129-8.073-8.974-14.85.921-7.314.921-7.314,2.054,4.974.052,7.693l.486,2.209s1.214-3.116,3.431-3.509A3.842,3.842,0,0,1,616.9,181.3a8.537,8.537,0,0,0,1.188,2.707s1.461-2.482,3.238-2.552c0,0-.156,3.394-2.788,3.355,0,0,4.859,6.875,5.562,7.373S623.76,192.589,623.76,192.589Z" fill="#8da528"/>
        <path id="Trazado_56257" data-name="Trazado 56257" d="M623.11,191.9S618.022,181.326,612,176.6s-7.732-2.171-7.732-2.171,4.123,4.168,7.7,3.309l2.011,1.422s-3.642-.1-4.974,1.96a4.186,4.186,0,0,0,5.674-.893,9.316,9.316,0,0,1,2.215,2.339s-3.11.416-3.933,2.171c0,0,3.474,1.28,4.549-1.379,0,0,4.845,7.787,5.047,8.7S623.11,191.9,623.11,191.9Z" fill="#adbc53"/>
        <path id="Trazado_56258" data-name="Trazado 56258" d="M643.224,189.583s1.149-1.132.994-1.574-1.448.362-1.448.362-.167-1.809-.62-1.767-.574,1.193-.574,1.193-.433-.986-1.306-.564-.233,2.416-.758,1.666a.978.978,0,0,0-.574-.392.921.921,0,0,0,.264-.491c.246-1.049-3.1-1.425-3.1-1.425s1.953.162,2.374-.219-1-.934-1-.934,2-.527,1.973-.866-1.348-1.016-1.348-1.016,1.8-.28,1.736-.958-1.512-.316-1.512-.316,1.839-1.082,1.8-1.534-1.049-.246-1.049-.246.922-2.365-.65-2.106a1.36,1.36,0,0,0-1.211,1.708s-.741-.616-1.038-.132a10.322,10.322,0,0,0-.656,1.542l-.875-.831.115,1.244-2.345-.7s1.131-.1.74-.638a1.5,1.5,0,0,0-.741-.616s2.209-.774,2.393-1.247-1.995-.614-1.995-.614c1.284-.917,2.105-1.9,1.766-1.873s-1.707.043-1.707.043,2.3-2.264,1.59-2.541-1.541.6-1.541.6,1.506-3.445.807-3.609-2.257,2.717-2.257,2.717.356-2.313-.63-1.88c-.8.354-1.477,2.975-1.7,3.925.148-.72.412-2.324-.2-2.267-.792.072-1.126,3.866-1.126,3.866s-.506-1.778-.8-1.294a11.7,11.7,0,0,0-.171,3.094s-.095-2.272-.661-2.219-.222,2.528-.222,2.528-1.044-3.894-1.957-2.669,1.53,6.7.273,11.6l.852,2.014q1.227,2.9,2.453,5.794c.648,1.533,1.309,4.127,3.128,4.653a3.256,3.256,0,0,0,1.21.038l3.635-.34c.313-.03.708-.135.742-.448a15.563,15.563,0,0,0,4.614-.2.743.743,0,0,0-.457-.671q1.425-.171,2.835-.444a.743.743,0,0,0,.4-.165.26.26,0,0,0,0-.384.364.364,0,0,0-.148-.048l-1.017-.178a2.789,2.789,0,0,0,1.4-.552,2.578,2.578,0,0,0-1.581-.335l.826-.527c.247-.157.53-.439.382-.692a.573.573,0,0,0-.284-.206c-.2-.089-.712-.211-.843-.378-.192-.242-.139-.071-.037-.342a3.826,3.826,0,0,1,.616-.768,9.377,9.377,0,0,0,1.156-1.612c.287-.6-1.359-1.129-1.359-1.129a3.238,3.238,0,0,0,1.644-.722C645.187,189.858,643.224,189.583,643.224,189.583Z" fill="#647715"/>
        <path id="Trazado_56259" data-name="Trazado 56259" d="M630.084,194.647c3.639-1.67,8.242-.541,9.066-1.423s-2.353-1.146-2.353-1.146,1.975-.083,1.936-.53-1.819-.2-1.819-.2a9.254,9.254,0,0,0,2.383-.569c.334-.3-1.12-.443-1.12-.443s2.9-.794,2.849-1.42-2.049.269-2.049.269,2.873-1.152,3.07-1.98-1.551-.225-1.551-.225,2.021-1.618,1.8-2.139-2.694,1.136-2.694,1.136.564-.77.249-1.283-1.753,1.6-1.753,1.6-.183-1.065-.207-1.333-.676.509-1.208,1.637c0,0-.417-1.675-.759-1.465s-.633,2.037-.633,2.037a1.176,1.176,0,0,0-.583-.489c-.471-.229-.392.665-.392.665l-.872-1.726.983-.086-.77-.563a8.167,8.167,0,0,0,1.108-.728c.334-.3-.249-.789-.249-.789a1.076,1.076,0,0,0,1.158-1.183c-.02-1.259-1.73-.209-1.73-.209s.019-.812-.339-.781-.94,1.614-.94,1.614.077-1.178-.459-1.131-.5,1.485-.5,1.485-.712-.929-.98-.9-.4,1.656-.4,1.656-.63-1.026-.867-.644.164,1.877.164,1.877-.764-2.546-1.545-2.207-.264,1.1-.264,1.1.19-.918-.467-1.221.984-.085,1.189-.824-.622-.937-.622-.937.878-.257.847-.615-1.462-.232-1.462-.232.443-1.12.077-1.178-1.084,1-1.084,1-.49-1.489-.883-.824a2.569,2.569,0,0,0-.33,1.38s-.646-1.205-1.069-.9a22.567,22.567,0,0,0-1.811,1.96s-.549-1.123-.852-.466a2.3,2.3,0,0,0,.141,1.61,1.238,1.238,0,0,0-.787,1.3,7.992,7.992,0,0,0,.808,2.031,1.044,1.044,0,0,0-.594,1.16,18.239,18.239,0,0,0,.623,2.262s-1.415,2.872-.757,2.927" fill="#768e1e"/>
        <g id="Grupo_25787" data-name="Grupo 25787">
          <path id="Trazado_56260" data-name="Trazado 56260" d="M613.582,186.225s1.338-2.176-.169-3.69c0,0,.112-.638.615-.741,0,0,1.8,2.228,1.872,4.217S613.582,186.225,613.582,186.225Z" fill="#768e1e"/>
          <path id="Trazado_56261" data-name="Trazado 56261" d="M615.694,202.106a8.131,8.131,0,0,1-4.55.115s-6.44,1.051-7.588-6.444,4.539-8.476,4.539-8.476.874-2.057,4.877-1.514a7.646,7.646,0,0,1,5.44-.35,3.97,3.97,0,0,1,4.51,1.1s1.823-.017,3.252,2.284,3.151,9.438-1.67,11.556a8.866,8.866,0,0,1-4.274,1.458S617.6,202.994,615.694,202.106Z" fill="#f78e39"/>
          <path id="Trazado_56262" data-name="Trazado 56262" d="M607.917,187.849s-2.143,1.49-1.8,6.019,3.122,7.465,4.534,7.943" fill="none" stroke="#cc752e" stroke-miterlimit="10" stroke-width="0.454"/>
          <path id="Trazado_56263" data-name="Trazado 56263" d="M612.672,186.251s-1.1.387-1.723,2.326.453,8.623,1.618,10.739,2.5,2.391,2.5,2.391" fill="none" stroke="#cc752e" stroke-miterlimit="10" stroke-width="0.454"/>
          <path id="Trazado_56264" data-name="Trazado 56264" d="M618.515,185.94a3.127,3.127,0,0,1,1.324,1.987c.3,1.4.658,11.455-1.02,13.035" fill="none" stroke="#cc752e" stroke-miterlimit="10" stroke-width="0.454"/>
          <path id="Trazado_56265" data-name="Trazado 56265" d="M622.993,186.9s1.106.867,1.279,3.36.5,8.448-1.281,10.208" fill="none" stroke="#cc752e" stroke-miterlimit="10" stroke-width="0.454"/>
        </g>
        <g id="Grupo_25788" data-name="Grupo 25788">
          <path id="Trazado_56266" data-name="Trazado 56266" d="M636.815,188.672s2.01-1.576,1.122-3.519c0,0,.326-.559.835-.481,0,0,.916,2.715.29,4.6S636.815,188.672,636.815,188.672Z" fill="#768e1e"/>
          <path id="Trazado_56267" data-name="Trazado 56267" d="M633.281,204.3a8.126,8.126,0,0,1-4.307-1.471s-6.4-1.251-4.878-8.678,7.2-6.373,7.2-6.373,1.534-1.625,5.1.274a7.648,7.648,0,0,1,5.224,1.56,3.97,3.97,0,0,1,3.846,2.6,4.169,4.169,0,0,1,2.256,3.271c.541,2.653-.322,9.945-5.578,10.257a8.864,8.864,0,0,1-4.515-.117S634.76,205.793,633.281,204.3Z" fill="#ff9f48"/>
          <path id="Trazado_56268" data-name="Trazado 56268" d="M630.938,188.229s-2.527.653-3.779,5.019.335,8.085,1.494,9.023" fill="none" stroke="#cc752e" stroke-miterlimit="10" stroke-width="0.454"/>
          <path id="Trazado_56269" data-name="Trazado 56269" d="M635.952,188.382a3.393,3.393,0,0,0-2.424,1.582c-1.253,1.6-2.568,8.244-2.211,10.633s1.515,3.111,1.515,3.111" fill="none" stroke="#cc752e" stroke-miterlimit="10" stroke-width="0.454"/>
          <path id="Trazado_56270" data-name="Trazado 56270" d="M641.54,190.119a3.126,3.126,0,0,1,.551,2.323c-.2,1.414-3.36,10.97-5.483,11.869" fill="none" stroke="#cc752e" stroke-miterlimit="10" stroke-width="0.454"/>
          <path id="Trazado_56271" data-name="Trazado 56271" d="M645.407,192.569s.737,1.2.033,3.594-2.469,8.1-4.746,9.129" fill="none" stroke="#cc752e" stroke-miterlimit="10" stroke-width="0.454"/>
        </g>
        <path id="Trazado_56272" data-name="Trazado 56272" d="M679.223,187.185s12.659-3.291,19.118-8.862,4.037-7.991,4.037-7.991-5.445,3.614-5.275,7.712l-1.988,1.894s.892-3.962-1.074-5.862c0,0-3.081,3.053-.244,6.4a10.369,10.369,0,0,1-3.034,1.919s.214-3.491-1.529-4.768c0,0-2.146,3.524.531,5.272,0,0-9.56,3.625-10.606,3.649S679.223,187.185,679.223,187.185Z" fill="#768e1e"/>
        <path id="Trazado_56273" data-name="Trazado 56273" d="M683.729,186.978s3.8-6.211,4.235-10.94-1.471-4.762-1.471-4.762-.785,3.553.867,5.129l-.065,1.527S686.121,176,684.6,176a2.6,2.6,0,0,0,2.376,2.659,5.762,5.762,0,0,1-.475,1.941s-1.263-1.481-2.455-1.32c0,0,.5,2.242,2.25,1.908,0,0-2.429,5.146-2.839,5.561S683.729,186.978,683.729,186.978Z" fill="#647715"/>
        <path id="Trazado_56274" data-name="Trazado 56274" d="M685.484,184.363s1.228-7.177,4.014-11.023,4.242-2.616,4.242-2.616-1.748,3.191-4.029,3.29l-.957,1.192s2.156-.682,3.3.319a2.6,2.6,0,0,1-3.538.437,5.774,5.774,0,0,0-.921,1.774s1.926-.283,2.716.623c0,0-1.853,1.357-2.949-.046,0,0-1.559,5.474-1.524,6.055S685.484,184.363,685.484,184.363Z" fill="#647715"/>
        <path id="Trazado_56275" data-name="Trazado 56275" d="M691.06,190.918s4.856-5.426,9.26-7.2,4.984.04,4.984.04-3.177,1.773-5.161.644l-1.445.5s2.189.569,2.628,2.026a2.6,2.6,0,0,1-3.229-1.51,5.751,5.751,0,0,0-1.723,1.012s1.782.784,1.969,1.972c0,0-2.291.164-2.473-1.607,0,0-4.231,3.807-4.51,4.319S691.06,190.918,691.06,190.918Z" fill="#647715"/>
        <path id="Trazado_56276" data-name="Trazado 56276" d="M681.279,190.375s9.008-5.9,12.578-11.952,1.043-7.3,1.043-7.3-3.3,4.255-2.083,7.406l-1.051,2s-.349-3.326-2.383-4.29a3.843,3.843,0,0,0,1.5,5.056,8.544,8.544,0,0,1-1.861,2.3s-.754-2.779-2.449-3.316c0,0-.746,3.314,1.8,3.972,0,0-6.5,5.347-7.312,5.642S681.279,190.375,681.279,190.375Z" fill="#8da528"/>
        <path id="Trazado_56277" data-name="Trazado 56277" d="M682.088,189.883s7.7-8.855,14.755-11.818,8.031-.051,8.031-.051-5.078,2.931-8.3,1.158l-2.315.84s3.539.866,4.28,3.2a4.186,4.186,0,0,1-5.237-2.36,9.306,9.306,0,0,0-2.754,1.671s2.89,1.223,3.22,3.132c0,0-3.689.317-4.023-2.531,0,0-6.73,6.231-7.167,7.062S682.088,189.883,682.088,189.883Z" fill="#adbc53"/>
        <path id="Trazado_56278" data-name="Trazado 56278" d="M663.3,182.336s-.81-1.4-.544-1.781,1.3.731,1.3.731.639-1.7,1.064-1.54.239,1.3.239,1.3.678-.837,1.408-.2-.413,2.392.292,1.808a.976.976,0,0,1,.657-.227.933.933,0,0,1-.126-.544c.041-1.076,3.363-.556,3.363-.556s-1.927-.36-2.232-.838,1.209-.637,1.209-.637-1.793-1.038-1.673-1.357,1.568-.623,1.568-.623-1.661-.745-1.421-1.383,1.541.094,1.541.094-1.487-1.529-1.327-1.954,1.076.04,1.076.04-.264-2.525,1.184-1.859a1.359,1.359,0,0,1,.716,1.966s.877-.4,1.036.147a10.3,10.3,0,0,1,.225,1.661l1.064-.571-.439,1.17,2.445-.052s-1.063-.4-.545-.811a1.491,1.491,0,0,1,.877-.4s-1.926-1.33-1.978-1.835,2.086-.065,2.086-.065c-1-1.223-1.527-2.393-1.208-2.273s1.634.492,1.634.492-1.62-2.791-.862-2.87,1.328.984,1.328.984-.543-3.721.175-3.694,1.46,3.216,1.46,3.216.267-2.325,1.1-1.647c.683.554.638,3.259.6,4.233.047-.732.216-2.35.8-2.133.744.28.064,4.027.064,4.027s.958-1.581,1.117-1.036a11.72,11.72,0,0,1-.653,3.029s.692-2.165,1.223-1.966-.453,2.5-.453,2.5,2.035-3.48,2.593-2.058-3.246,6.057-3.328,11.12q-.678.858-1.355,1.718l-3.895,4.94c-1.031,1.307-2.353,3.635-4.247,3.662a3.275,3.275,0,0,1-1.176-.283l-3.416-1.289c-.294-.111-.648-.317-.6-.627a15.551,15.551,0,0,1-4.4-1.414.745.745,0,0,1,.618-.526q-1.329-.54-2.617-1.177a.742.742,0,0,1-.342-.265.26.26,0,0,1,.1-.371.372.372,0,0,1,.156-.007l1.028.1a2.78,2.78,0,0,1-1.206-.9,2.579,2.579,0,0,1,1.614.094l-.658-.726c-.2-.217-.395-.563-.186-.769a.581.581,0,0,1,.328-.123,2.932,2.932,0,0,0,.914-.142c.248-.183.152-.032.126-.32a3.9,3.9,0,0,0-.392-.9,9.312,9.312,0,0,1-.688-1.861c-.12-.651,1.608-.73,1.608-.73a3.239,3.239,0,0,1-1.4-1.13C661.334,182.082,663.3,182.336,663.3,182.336Z" fill="#647715"/>
        <path id="Trazado_56279" data-name="Trazado 56279" d="M674.635,190.69c-3.068-2.571-7.806-2.7-8.368-3.767s2.572-.484,2.572-.484-1.883-.6-1.727-1.022,1.808.286,1.808.286a9.229,9.229,0,0,1-2.148-1.178c-.243-.377,1.2-.131,1.2-.131s-2.591-1.533-2.373-2.122,1.9.8,1.9.8-2.466-1.87-2.438-2.722,1.556.193,1.556.193-1.522-2.094-1.167-2.537,2.3,1.808,2.3,1.808-.34-.892.1-1.3,1.269,2,1.269,2,.458-.979.551-1.231.518.67.733,1.9c0,0,.845-1.506,1.119-1.213s.072,2.132.072,2.132a1.186,1.186,0,0,1,.692-.318c.515-.1.2.745.2.745l1.3-1.434-.926-.343.891-.34a8.2,8.2,0,0,1-.876-.994c-.243-.377.449-.695.449-.695a1.075,1.075,0,0,1-.8-1.446c.352-1.21,1.723.255,1.723.255s.2-.789.533-.664.481,1.8.481,1.8.237-1.157.742-.97.09,1.565.09,1.565.932-.708,1.185-.614-.056,1.7-.056,1.7.879-.823,1.007-.393-.655,1.767-.655,1.767,1.409-2.254,2.073-1.721-.037,1.135-.037,1.135.059-.935.773-1.054-.926-.343-.929-1.109.848-.739.848-.739-.78-.48-.655-.817,1.471.162,1.471.162-.131-1.2.237-1.157.783,1.247.783,1.247.866-1.306,1.069-.561a2.558,2.558,0,0,1-.047,1.418s.942-.991,1.269-.583a22.724,22.724,0,0,1,1.229,2.369s.826-.938.944-.224a2.3,2.3,0,0,1-.561,1.515,1.239,1.239,0,0,1,.416,1.462,8.017,8.017,0,0,1-1.316,1.746,1.044,1.044,0,0,1,.266,1.275,17.892,17.892,0,0,1-1.2,2.017s.607,3.144-.042,3.023" fill="#768e1e"/>
        <g id="Grupo_25789" data-name="Grupo 25789">
          <path id="Trazado_56280" data-name="Trazado 56280" d="M692.776,186.926s-.716-2.452,1.138-3.514c0,0,.06-.645-.4-.878,0,0-2.326,1.673-2.919,3.573S692.776,186.926,692.776,186.926Z" fill="#768e1e"/>
          <path id="Trazado_56281" data-name="Trazado 56281" d="M686.545,201.685A8.129,8.129,0,0,0,690.9,203s5.933,2.714,9.02-4.211-2.139-9.374-2.139-9.374-.3-2.215-4.3-2.748a7.652,7.652,0,0,0-5.155-1.775,3.971,3.971,0,0,0-4.642-.126s-1.754-.5-3.739,1.344-5.532,8.271-1.442,11.586a8.872,8.872,0,0,0,3.737,2.536S684.472,202.038,686.545,201.685Z" fill="#f78e39"/>
          <path id="Trazado_56282" data-name="Trazado 56282" d="M697.811,189.989s1.673,2,.147,6.281-4.982,6.375-6.471,6.463" fill="none" stroke="#cc752e" stroke-miterlimit="10" stroke-width="0.454"/>
          <path id="Trazado_56283" data-name="Trazado 56283" d="M693.646,187.192a3.4,3.4,0,0,1,1.049,2.7c.085,2.033-2.716,8.2-4.4,9.93s-3.044,1.646-3.044,1.646" fill="none" stroke="#cc752e" stroke-miterlimit="10" stroke-width="0.454"/>
          <path id="Trazado_56284" data-name="Trazado 56284" d="M688.093,185.348a3.128,3.128,0,0,0-1.8,1.567c-.659,1.269-3.66,10.874-2.459,12.842" fill="none" stroke="#cc752e" stroke-miterlimit="10" stroke-width="0.454"/>
          <path id="Trazado_56285" data-name="Trazado 56285" d="M683.522,185.087s-1.3.544-2.121,2.9-2.708,8.018-1.46,10.184" fill="none" stroke="#cc752e" stroke-miterlimit="10" stroke-width="0.454"/>
        </g>
        <g id="Grupo_25790" data-name="Grupo 25790">
          <path id="Trazado_56286" data-name="Trazado 56286" d="M669.722,183.15s-1.523-2.051-.153-3.691c0,0-.167-.625-.678-.684,0,0-1.6,2.377-1.5,4.364S669.722,183.15,669.722,183.15Z" fill="#768e1e"/>
          <path id="Trazado_56287" data-name="Trazado 56287" d="M669,199.155a8.133,8.133,0,0,0,4.543-.282s6.507.485,7-7.081-5.261-8.048-5.261-8.048-1.05-1.973-4.99-1.083a7.649,7.649,0,0,0-5.45.125,3.972,3.972,0,0,0-4.4,1.493s-1.817.143-3.04,2.559-2.316,9.678,2.671,11.366a8.869,8.869,0,0,0,4.385,1.081S667.182,200.206,669,199.155Z" fill="#ff9f48"/>
          <path id="Trazado_56288" data-name="Trazado 56288" d="M675.507,184.275s2.265,1.3,2.319,5.839-2.459,7.709-3.824,8.307" fill="none" stroke="#cc752e" stroke-miterlimit="10" stroke-width="0.454"/>
          <path id="Trazado_56289" data-name="Trazado 56289" d="M670.631,183.1s1.134.29,1.919,2.167.3,8.63-.675,10.839-2.283,2.6-2.283,2.6" fill="none" stroke="#cc752e" stroke-miterlimit="10" stroke-width="0.454"/>
          <path id="Trazado_56290" data-name="Trazado 56290" d="M664.783,183.3a3.127,3.127,0,0,0-1.146,2.1c-.176,1.418.344,11.468,2.154,12.9" fill="none" stroke="#cc752e" stroke-miterlimit="10" stroke-width="0.454"/>
          <path id="Trazado_56291" data-name="Trazado 56291" d="M660.405,184.639s-1.026.96-.981,3.458.244,8.459,2.166,10.058" fill="none" stroke="#cc752e" stroke-miterlimit="10" stroke-width="0.454"/>
        </g>
        <path id="Trazado_56292" data-name="Trazado 56292" d="M700.522,198.536s-.36,2.6-.96,6.81c-.04.22-.07.45-.1.68-.46,3.12-1.04,7.04-1.7,11.41-.03.18-.06.36-.09.55-.56,3.63-1.18,7.54-1.84,11.55-.02.13-.04.27-.06.4-.64,3.88-1.31,7.84-2.01,11.7a2.164,2.164,0,0,1-.04.25c-.74,4.13-1.5,8.14-2.26,11.81a.5.5,0,0,0-.02.12c-.97,4.63-1.92,8.71-2.83,11.8-.01.03-.02.07-.03.1-.94,3.17-1.82,5.28-2.59,5.81-5.03,3.47-71.97,4.03-74.43-3.48-.16-.48-.33-1.2-.53-2.11-.03-.14-.06-.29-.09-.44-.53-2.6-1.17-6.6-1.86-11.38-.02-.13-.03-.26-.05-.39-.51-3.51-1.04-7.42-1.57-11.51-.01-.13-.03-.26-.05-.39-.49-3.75-.98-7.65-1.45-11.51-.02-.14-.04-.29-.05-.43-.49-3.94-.96-7.84-1.4-11.49-.02-.16-.03-.31-.05-.46-.51-4.26-.96-8.18-1.34-11.46-.02-.17-.04-.34-.06-.5-.64-5.58-1.04-9.17-1.04-9.17C652.522,184.8,700.522,198.536,700.522,198.536Z" fill="#8b383e"/>
        <g id="Grupo_25791" data-name="Grupo 25791">
          <path id="Trazado_56293" data-name="Trazado 56293" d="M699.562,205.346c-.04.22-.07.45-.1.68-2.85-.22-6.84-.52-11.59-.89-2.45-.16-5.11-.33-7.93-.52-2.81-.16-5.77-.32-8.84-.5-1.54-.08-3.09-.16-4.67-.24-1.58-.05-3.18-.1-4.79-.18-3.22-.17-6.49-.19-9.76-.26-3.27-.11-6.54-.06-9.76-.09-3.21.05-6.38.11-9.44.16-3.06.19-6.02.29-8.82.43-2.79.26-5.44.47-7.89.66-2.43.31-4.66.59-6.64.84-2,.2-3.69.6-5.1.84-.39.07-.77.14-1.11.2-.02-.17-.04-.34-.06-.5.32-.1.66-.2,1.02-.32a49.89,49.89,0,0,1,5.01-1.42c1.97-.44,4.18-.97,6.62-1.45,2.45-.39,5.1-.81,7.92-1.22,2.83-.3,5.81-.6,8.9-.86,3.1-.14,6.3-.37,9.55-.44,3.25,0,6.56-.1,9.86-.02,3.3.12,6.6.17,9.84.39,3.25.14,6.44.41,9.52.69,3.08.23,6.05.61,8.86.93s5.47.73,7.91,1.07C692.8,204.056,696.752,204.766,699.562,205.346Z" fill="#662c33"/>
          <path id="Trazado_56294" data-name="Trazado 56294" d="M697.762,217.436c-.03.18-.06.36-.09.55-2.74-.22-6.94-.56-12.08-.97-2.34-.16-4.88-.34-7.56-.52-2.68-.16-5.51-.33-8.44-.5-1.46-.08-2.95-.16-4.45-.24-1.51-.05-3.04-.1-4.57-.18-3.07-.17-6.19-.19-9.31-.27-3.12-.11-6.24-.05-9.31-.09-3.07.06-6.09.11-9.01.17-2.91.18-5.73.29-8.41.43-2.66.26-5.18.47-7.52.66-2.32.31-4.45.59-6.33.84-1.9.2-3.51.6-4.86.84-.47.09-.91.17-1.31.24-.02-.16-.03-.31-.05-.46.37-.12.77-.25,1.2-.4a45.881,45.881,0,0,1,4.77-1.42c1.87-.44,3.98-.97,6.31-1.45,2.33-.39,4.87-.81,7.55-1.22,2.7-.3,5.55-.6,8.5-.86,2.95-.14,6.01-.38,9.12-.44,3.1,0,6.26-.1,9.41-.02,3.15.11,6.3.17,9.4.38,3.1.15,6.14.42,9.08.7,2.94.23,5.77.61,8.46.93s5.21.73,7.54,1.07c4.66.75,8.53,1.49,11.22,2.08C697.282,217.336,697.532,217.386,697.762,217.436Z" fill="#662c33"/>
          <path id="Trazado_56295" data-name="Trazado 56295" d="M695.832,229.536c-.02.13-.04.27-.06.4-2.54-.22-6.93-.59-12.46-1.05-2.23-.16-4.64-.33-7.2-.52-2.55-.16-5.24-.32-8.03-.5-1.39-.08-2.8-.16-4.24-.24-1.43-.04-2.88-.1-4.34-.17-2.92-.18-5.89-.2-8.86-.27-2.97-.11-5.94-.05-8.86-.09-2.92.06-5.79.11-8.57.16-2.77.19-5.46.29-8.01.44-2.53.26-4.93.47-7.15.66-2.21.3-4.23.59-6.02.84-1.81.19-3.34.59-4.62.83-.53.11-1.02.2-1.45.29-.02-.14-.04-.29-.05-.43.4-.14.85-.3,1.34-.47a40.441,40.441,0,0,1,4.52-1.42c1.78-.44,3.79-.97,5.99-1.45,2.22-.39,4.63-.81,7.19-1.22,2.57-.31,5.28-.6,8.1-.87,2.81-.14,5.72-.37,8.68-.44,2.96,0,5.97-.1,8.97-.02,3,.12,6.01.17,8.95.39,2.96.14,5.85.41,8.65.69,2.8.23,5.5.61,8.05.94,2.56.31,4.96.72,7.18,1.07,4.44.75,8.11,1.49,10.67,2.08C694.812,229.3,695.352,229.426,695.832,229.536Z" fill="#662c33"/>
          <path id="Trazado_56296" data-name="Trazado 56296" d="M693.762,241.636a2.164,2.164,0,0,1-.04.25c-2.19-.19-6.75-.59-12.69-1.12-2.11-.16-4.41-.34-6.83-.52-2.43-.16-4.98-.33-7.63-.5q-1.98-.12-4.02-.24c-1.36-.05-2.74-.1-4.13-.18-2.77-.17-5.59-.19-8.41-.27-2.81-.1-5.63-.05-8.4-.08-2.77.05-5.5.11-8.14.16-2.63.19-5.18.29-7.59.44-2.4.26-4.68.47-6.79.65-2.09.31-4.01.59-5.71.84-1.72.2-3.16.6-4.38.84-.57.12-1.09.23-1.54.31-.01-.13-.03-.26-.05-.39.42-.15.89-.33,1.42-.53a37.044,37.044,0,0,1,4.28-1.41c1.68-.45,3.58-.97,5.68-1.46,2.1-.39,4.39-.81,6.82-1.22,2.44-.31,5.02-.6,7.69-.87,2.68-.14,5.44-.37,8.25-.44,2.82,0,5.68-.1,8.53-.02,2.85.11,5.71.17,8.51.38,2.8.15,5.56.42,8.21.7,2.67.23,5.22.61,7.65.93s4.71.73,6.81,1.07c4.21.75,7.69,1.49,10.12,2.08C692.352,241.256,693.152,241.476,693.762,241.636Z" fill="#662c33"/>
          <path id="Trazado_56297" data-name="Trazado 56297" d="M691.462,253.7a.5.5,0,0,0-.02.12c-1.69-.15-6.36-.59-12.69-1.18-2-.16-4.17-.33-6.47-.52-2.29-.16-4.71-.32-7.22-.5-1.25-.08-2.52-.16-3.8-.24-1.29-.04-2.6-.1-3.91-.17-2.62-.18-5.29-.2-7.96-.27-2.67-.11-5.33-.05-7.96-.09-2.62.06-5.2.12-7.7.17-2.48.19-4.9.28-7.18.44-2.27.26-4.43.46-6.42.65-1.98.31-3.79.59-5.4.84-1.63.2-2.98.6-4.14.84-.57.12-1.07.23-1.51.33-.02-.13-.03-.26-.05-.39.4-.16.87-.35,1.38-.55a33.045,33.045,0,0,1,4.04-1.41c1.58-.44,3.38-.97,5.36-1.46,1.99-.39,4.16-.81,6.46-1.22,2.31-.31,4.75-.6,7.28-.87,2.54-.15,5.16-.37,7.83-.44,2.66-.01,5.37-.1,8.08-.03,2.7.12,5.41.17,8.07.39,2.65.15,5.26.42,7.78.7,2.52.23,4.94.61,7.24.93s4.45.73,6.45,1.07c3.98.75,7.27,1.49,9.56,2.08,1.14.27,2.04.54,2.64.71C691.292,253.656,691.382,253.676,691.462,253.7Z" fill="#662c33"/>
          <path id="Trazado_56298" data-name="Trazado 56298" d="M688.612,265.616c-.01.03-.02.07-.03.1-1.48-.15-5.96-.59-12.11-1.2-1.89-.16-3.94-.34-6.11-.52-2.16-.16-4.44-.33-6.8-.5-1.19-.08-2.38-.16-3.6-.24-1.22-.05-2.45-.1-3.68-.18-2.48-.17-5-.19-7.52-.27-2.51-.1-5.02-.05-7.5-.08-2.48.06-4.91.11-7.27.17-2.34.19-4.62.28-6.77.44-2.14.26-4.17.46-6.06.65-1.86.31-3.57.59-5.08.84-1.53.2-2.81.61-3.9.84-.42.1-.8.18-1.15.27-.03-.14-.06-.29-.09-.44.32-.13.67-.28,1.05-.44a29.688,29.688,0,0,1,3.79-1.41c1.49-.44,3.18-.96,5.05-1.46,1.88-.39,3.92-.81,6.09-1.21,2.18-.33,4.49-.61,6.88-.88,2.4-.15,4.88-.37,7.4-.45,2.52,0,5.08-.1,7.64-.02,2.56.11,5.11.17,7.62.38,2.51.15,4.97.42,7.35.7,2.38.23,4.67.61,6.84.94,2.17.31,4.2.72,6.08,1.07,3.75.75,6.85,1.49,9.01,2.08,1.08.27,1.92.54,2.49.7C688.372,265.536,688.5,265.576,688.612,265.616Z" fill="#662c33"/>
        </g>
      </g>
      <path id="Trazado_56299" data-name="Trazado 56299" d="M600.27,209.582c-1.212,2.84,5.374,13.379,12.167,10.973s5.8-10.6,1.9-14.3A8.672,8.672,0,0,0,600.27,209.582Z" fill="#0e3944"/>
      <path id="Trazado_56300" data-name="Trazado 56300" d="M606.437,201.908s-14.167,26.147-12.667,28.98,4.833,6.5,8.167,5.834,14-23.741,14-23.741S615.6,200.428,606.437,201.908Z" fill="#e0a1a9"/>
      <path id="Trazado_56301" data-name="Trazado 56301" d="M616.655,179.3c-5.385,1.754-16.385,30.281-16.385,30.281s7.716-4.4,13.75,1.306,8.383-16.313,6.316-23.073S616.655,179.3,616.655,179.3Z" fill="#7ab0c1"/>
      <path id="Trazado_56302" data-name="Trazado 56302" d="M615.937,209.582s-15.586,13.769-18.5,15.473-6,6.167-4.834,13,10.667,2.167,13.167,0,13.459-19.906,13.459-19.906Z" fill="#ebb9bf"/>
      <path id="Trazado_56303" data-name="Trazado 56303" d="M690.522,210.582c1.212,2.84-5.374,13.379-12.167,10.974s-5.8-10.6-1.9-14.3A8.673,8.673,0,0,1,690.522,210.582Z" fill="#0e3944"/>
      <path id="Trazado_56304" data-name="Trazado 56304" d="M684.355,202.909s14.167,26.147,12.667,28.98-4.834,6.5-8.167,5.833-14-23.74-14-23.74S675.188,201.429,684.355,202.909Z" fill="#e0a1a9"/>
      <path id="Trazado_56305" data-name="Trazado 56305" d="M674.137,180.3c5.385,1.754,16.385,30.28,16.385,30.28s-7.716-4.4-13.75,1.307-8.383-16.313-6.317-23.073S674.137,180.3,674.137,180.3Z" fill="#7ab0c1"/>
      <path id="Trazado_56306" data-name="Trazado 56306" d="M674.855,210.582s15.586,13.769,18.5,15.474,6,6.166,4.833,13-10.666,2.166-13.166,0-13.459-19.906-13.459-19.906Z" fill="#ebb9bf"/>
      <path id="Trazado_56307" data-name="Trazado 56307" d="M669.658,266.823c-2.084,62.784-10,115.667-10.75,137.917-.384,11.4-6.458,16.149-6.458,16.149s-3-7.833-9.153-1.312l1.377-7.923-3.108-5.981L644.3,294.691l-4.851-.311L616.242,405.406s-7.8,13.089-7.849,18.243l-9.833-2.4.4-13.144,3.268-2.551-1.527-9.477s20.188-118.324,18.881-130.261c0,0-.089-1.989,1.077-2.489,9.484-4.065,40.252-2.372,48.668-.925C670.835,262.657,669.658,266.823,669.658,266.823Z" fill="#0e3944"/>
      <g id="Grupo_25793" data-name="Grupo 25793">
        <path id="Trazado_56308" data-name="Trazado 56308" d="M579.506,430.395a14.325,14.325,0,0,0,.111,1.855H611.07c0-.622-.011-1.244-.044-1.855-.1-2.39-.759-6.747-.759-6.747l10.96-32.592a42.786,42.786,0,0,0-12.667-4.334,63.7,63.7,0,0,0-7.333,0c-.677,4.053-3.435,31.572-5.622,33.259a11.182,11.182,0,0,1-1.8,1.155c-.289.155-.577.3-.877.433a15.067,15.067,0,0,1-2.01.744,49.1,49.1,0,0,1-7.549,1.321C580.017,424.156,579.506,428.031,579.506,430.395Z" fill="#c41e3e"/>
        <path id="Trazado_56309" data-name="Trazado 56309" d="M591.575,422.906s3.225.167,3.029,1.084-2.779,2.5-5.7,2.75-6.333-1.917-6.333-1.917.25-.25,3.583-.75A38.086,38.086,0,0,0,591.575,422.906Z" fill="#e8385a"/>
      </g>
      <g id="Grupo_25794" data-name="Grupo 25794">
        <path id="Trazado_56310" data-name="Trazado 56310" d="M637.726,425.4a5.962,5.962,0,0,0,2.5-3.83c.385-1.364-.425-30.879-.333-32.18,0,0,4.049-5.459,10.7-4.425,7.5,1.167,10.126,6.59,10.126,6.59s-3.859,31.408-3.437,33.686a12.967,12.967,0,0,1-.046,5.155,9.484,9.484,0,0,1-.588,1.855H635.694a7.934,7.934,0,0,1-.355-1.855A4.785,4.785,0,0,1,637.726,425.4Z" fill="#c41e3e"/>
        <path id="Trazado_56311" data-name="Trazado 56311" d="M652.45,425.241a19.712,19.712,0,0,0-8.75-1.543c-4.57.377-6.983,2.75-6.792,3,1.522,1.992,6.917-1,10.667.625A3.382,3.382,0,0,0,652.45,425.241Z" fill="#e8385a"/>
      </g>
      <path id="Trazado_56312" data-name="Trazado 56312" d="M669.221,258.24V262.4a84.087,84.087,0,0,1-27.716,4.425c-16.285,0-20.952-3.5-20.952-3.5l-.025-3.917Z" fill="#072228"/>
      <path id="Trazado_56313" data-name="Trazado 56313" d="M655.47,259.2a47.264,47.264,0,0,1,0,7.625h2.375a26.66,26.66,0,0,0,0-7.625Z" fill="#0e3944"/>
      <path id="Trazado_56314" data-name="Trazado 56314" d="M629.235,266.9a47.243,47.243,0,0,1,.52-7.608l-2.37-.162a26.672,26.672,0,0,0-.52,7.607Z" fill="#0e3944"/>
      <path id="Trazado_56315" data-name="Trazado 56315" d="M646.936,260.89v5.8a.587.587,0,0,1-.587.586H636.66a.587.587,0,0,1-.586-.586v-5.71a.586.586,0,0,1,.581-.586l9.689-.094A.586.586,0,0,1,646.936,260.89Z" fill="#cfd8dc"/>
      <path id="Trazado_56316" data-name="Trazado 56316" d="M674.137,180.3c-3.666-.9-15.783-2.476-29.392-2.686s-23.275-.31-28.608,1.074c0,0,2.038,72.077-.2,100.384,0,0,31.73,5.663,56.978.672,0,0-.712-36.508.222-57.415C674.47,192.479,674.137,180.3,674.137,180.3Z" fill="#8bbddb"/>
      <path id="Trazado_56317" data-name="Trazado 56317" d="M639.628,170.39s1.546,5.112-.9,7.749c0,0-2.652,7.917,5.853,9.184,2.622.391,7.693-2.524,7.239-7.746,0,0-1.721-4.346,0-7.168Z" fill="#e0a1a9"/>
      <g id="Grupo_25798" data-name="Grupo 25798">
        <path id="Trazado_56318" data-name="Trazado 56318" d="M618.468,144.564c-1.1,3.959,12.072,8.432,29.852,9.316s24.119-4.427,24.106-6.682-17.84-8.583-27.9-8.729S618.468,144.564,618.468,144.564Z" fill="#ffaf69"/>
        <path id="Trazado_56319" data-name="Trazado 56319" d="M636.336,138.328c-6.657,1.995-7.125,13.62-3.076,23.87s21.946,2.57,24.31-1.09,5.975-17.633-.511-21.661C644.579,131.7,636.336,138.328,636.336,138.328Z" fill="#0e3944"/>
        <path id="Trazado_56320" data-name="Trazado 56320" d="M657.319,157.531s3.4-3.39,3.815.573c.485,4.591-3.685,6.44-4.5,4.979S657.319,157.531,657.319,157.531Z" fill="#ebb9bf"/>
        <path id="Trazado_56321" data-name="Trazado 56321" d="M633.533,157.77s-3.4-3.39-3.815.573c-.484,4.591,3.686,6.44,4.5,4.98S633.533,157.77,633.533,157.77Z" fill="#ebb9bf"/>
        <path id="Trazado_56322" data-name="Trazado 56322" d="M633.26,154.473c0,10.03,1.9,15.25,5.26,17.72a11.8,11.8,0,0,0,7.26,1.97,10.019,10.019,0,0,0,7.2-2.49c2.99-2.78,4.59-8.14,4.59-17.2,0-7.62-3.87-12.29-12.31-12.29S633.26,146.853,633.26,154.473Z" fill="#ebb9bf"/>
        <path id="Trazado_56323" data-name="Trazado 56323" d="M635.757,159.737a1.785,1.785,0,1,0,1.954-1.072A1.595,1.595,0,0,0,635.757,159.737Z" fill="#e08994"/>
        <path id="Trazado_56324" data-name="Trazado 56324" d="M651.259,160.15a1.785,1.785,0,1,0,1.647-1.5A1.6,1.6,0,0,0,651.259,160.15Z" fill="#e08994"/>
        <g id="Grupo_25795" data-name="Grupo 25795">
          <path id="Trazado_56325" data-name="Trazado 56325" d="M638.2,151.956a.376.376,0,0,0,.286-.074,4.3,4.3,0,0,1,3.028-.591.383.383,0,0,0,.439-.3.376.376,0,0,0-.3-.44,5.039,5.039,0,0,0-3.625.735.376.376,0,0,0,.172.671Z" fill="#0e3944"/>
        </g>
        <g id="Grupo_25796" data-name="Grupo 25796">
          <path id="Trazado_56326" data-name="Trazado 56326" d="M652.625,152.008a.373.373,0,0,0,.244-.135.378.378,0,0,0-.051-.53,5.038,5.038,0,0,0-3.6-.846.376.376,0,0,0-.313.43.384.384,0,0,0,.429.315,4.339,4.339,0,0,1,3.006.684A.379.379,0,0,0,652.625,152.008Z" fill="#0e3944"/>
        </g>
        <path id="Trazado_56327" data-name="Trazado 56327" d="M638.979,156.21c0,.936.421,1.695.941,1.695s.942-.759.942-1.695-.422-1.7-.942-1.7S638.979,155.274,638.979,156.21Z" fill="#1a4850"/>
        <path id="Trazado_56328" data-name="Trazado 56328" d="M649.044,156.21c0,.936.421,1.695.941,1.695s.942-.759.942-1.695-.421-1.7-.942-1.7S649.044,155.274,649.044,156.21Z" fill="#1a4850"/>
        <path id="Trazado_56329" data-name="Trazado 56329" d="M653.228,144.8s-4.241.638-15.756-.189c0,0-.864,3.906-2.806,5.634a48.316,48.316,0,0,0-1.108,9.55s-7.325-22.028,12.941-21.452c20.6.585,10.817,21.021,10.817,21.021a48.762,48.762,0,0,0-.795-6.58A18.3,18.3,0,0,1,653.228,144.8Z" fill="#0e3944"/>
        <g id="Grupo_25797" data-name="Grupo 25797">
          <path id="Trazado_56330" data-name="Trazado 56330" d="M645.308,161.108l.564-.568-1.491-1.482c1.445-2.043,1.438-6.773,1.437-6.984l-.8,0c0,.051.008,5.14-1.468,6.739l-.262.284Z" fill="#e08994"/>
        </g>
        <path id="Trazado_56331" data-name="Trazado 56331" d="M641.132,164.781a56.123,56.123,0,0,0,8.294-.14,4.758,4.758,0,0,1-4.847,2.931C640.971,167.239,641.132,164.781,641.132,164.781Z" fill="#1a4850"/>
        <path id="Trazado_56332" data-name="Trazado 56332" d="M658.928,142.9s.114-5.27-12.212-6.985c-10.532-1.466-13.11,5.7-13.456,7.784s3.75,4.545,6.6,4.559l-1.233-2.034a25.337,25.337,0,0,0,8.99,2.034l-1.529-1.274s8.222,2.461,11.133,1.274S658.928,142.9,658.928,142.9Z" fill="#0e3944"/>
        <path id="Trazado_56333" data-name="Trazado 56333" d="M632.705,142.278s1.545-12.415,13.379-11.945,13.787,12.212,13.787,12.212S645.271,133.309,632.705,142.278Z" fill="#ff9638"/>
        <path id="Trazado_56334" data-name="Trazado 56334" d="M631.154,144.888s5.491-6,17.7-4.222,11.6,7.177,11.6,7.177l11.979-.645s-3.687-7.8-23.334-10.309-30.624,7.675-30.624,7.675Z" fill="#ffaf69"/>
      </g>
      <path id="Trazado_56335" data-name="Trazado 56335" d="M669.77,204.318l9.252,8.423s-1.362,9.648-4.848,10.815-10.779-9.423-10.779-9.423Z" fill="#c41e3e"/>
      <g id="Grupo_25799" data-name="Grupo 25799">
        <path id="Trazado_56336" data-name="Trazado 56336" d="M666.7,199.306a151.813,151.813,0,0,1,0-20.432l-5.523-1.32s.363,18.292,1.856,23.147Z" fill="#662c33"/>
        <path id="Trazado_56337" data-name="Trazado 56337" d="M671.2,199.77c-3.227-3.483-7.728-.193-7.728-.193-.487-.325-3.059,1.185-3.059,1.185s-.794,5.793.942,7.5c0,0-.245,4.24,2.045,5.867s7.219.969,8.973-.962S672.636,201.326,671.2,199.77Z" fill="#e8385a"/>
        <path id="Trazado_56338" data-name="Trazado 56338" d="M663.467,199.577c-1.178.966.365,3.332.365,3.332a3.959,3.959,0,0,0-.335,1.9,5.659,5.659,0,0,0,1.426,2.064,3.871,3.871,0,0,0-.093,1.441,5.608,5.608,0,0,0,1.314,2.172,1.3,1.3,0,0,0-.03,1.27c.317.853,3.656,1.168,3.656,1.168a21.621,21.621,0,0,0-2.288,1.244c-1.792,2.051-4.561.858-5.352,0-1.067-1.157-1.15-4.907-1.15-4.907-2.792-3.745-4.208-7.477-2.5-9.458,2.083-2.417,2.958.333,2.958.333Z" fill="#c41e3e"/>
        <path id="Trazado_56339" data-name="Trazado 56339" d="M663.832,202.909a13.009,13.009,0,0,1,1.5-.865c.646-.293,4.108.108,4.108.108s-2.779-.943-3.653-.778a9.077,9.077,0,0,0-2.514,1.468Z" fill="#c41e3e"/>
        <path id="Trazado_56340" data-name="Trazado 56340" d="M664.334,206.856a9.675,9.675,0,0,1,1.188-1.086c.624-.465,4.861-.141,4.861-.141s.407.244-.741.51-4.981.753-5.183,1.04S664.334,206.856,664.334,206.856Z" fill="#c41e3e"/>
        <path id="Trazado_56341" data-name="Trazado 56341" d="M665.7,210.26a4.075,4.075,0,0,1,1.334-1.054c.6-.187,3.284-.289,3.42.06s-3.755.919-4.308,1.223S665.7,210.26,665.7,210.26Z" fill="#c41e3e"/>
        <path id="Trazado_56342" data-name="Trazado 56342" d="M660.227,198.806c.908-.15,1.9,4.589,1.9,4.589s.137,1.411-1.9.744S655.682,199.556,660.227,198.806Z" fill="#e8385a"/>
        <path id="Trazado_56343" data-name="Trazado 56343" d="M666.353,212.741l3.417.186s2.627,14.879,7,22l-2,7.5S668.17,226.525,666.353,212.741Z" fill="#662c33"/>
      </g>
      <path id="Trazado_56344" data-name="Trazado 56344" d="M621.021,203.317l-9.251,8.423s-1.748,8.066,4.848,10.815c3.393,1.414,9.53-10.143,9.53-10.143Z" fill="#c41e3e"/>
      <g id="Grupo_25800" data-name="Grupo 25800">
        <path id="Trazado_56345" data-name="Trazado 56345" d="M622.722,199.306s.809-13.313,2.744-21.813l5.207-.562s-5.01,16.75-4.284,23.77Z" fill="#662c33"/>
        <path id="Trazado_56346" data-name="Trazado 56346" d="M618.223,199.77c3.227-3.483,7.728-.193,7.728-.193.487-.325,3.059,1.185,3.059,1.185s.793,5.793-.942,7.5c0,0,.245,4.24-2.045,5.867s-7.219.969-8.973-.962S616.781,201.326,618.223,199.77Z" fill="#e8385a"/>
        <path id="Trazado_56347" data-name="Trazado 56347" d="M625.951,199.577c1.178.966-.365,3.332-.365,3.332a3.959,3.959,0,0,1,.335,1.9,5.659,5.659,0,0,1-1.426,2.064,3.87,3.87,0,0,1,.093,1.441,5.619,5.619,0,0,1-1.315,2.172,1.3,1.3,0,0,1,.031,1.27c-.317.853-3.657,1.168-3.657,1.168a21.625,21.625,0,0,1,2.289,1.244c1.792,2.051,4.561.858,5.352,0,1.066-1.157,1.15-4.907,1.15-4.907,2.791-3.745,4.208-7.477,2.5-9.458-2.084-2.417-2.959.333-2.959.333Z" fill="#c41e3e"/>
        <path id="Trazado_56348" data-name="Trazado 56348" d="M625.586,202.909a13.009,13.009,0,0,0-1.5-.865c-.646-.293-4.108.108-4.108.108s2.778-.943,3.653-.778a9.093,9.093,0,0,1,2.514,1.468Z" fill="#c41e3e"/>
        <path id="Trazado_56349" data-name="Trazado 56349" d="M625.084,206.856a9.67,9.67,0,0,0-1.188-1.086c-.624-.465-4.861-.141-4.861-.141s-.407.244.741.51,4.981.753,5.183,1.04S625.084,206.856,625.084,206.856Z" fill="#c41e3e"/>
        <path id="Trazado_56350" data-name="Trazado 56350" d="M623.72,210.26a4.071,4.071,0,0,0-1.335-1.054c-.6-.187-3.284-.289-3.419.06s3.755.919,4.307,1.223S623.72,210.26,623.72,210.26Z" fill="#c41e3e"/>
        <path id="Trazado_56351" data-name="Trazado 56351" d="M629.191,198.806c-.908-.15-1.9,4.589-1.9,4.589s-.138,1.411,1.9.744S633.736,199.556,629.191,198.806Z" fill="#e8385a"/>
        <path id="Trazado_56352" data-name="Trazado 56352" d="M623.064,212.741l-3.417.186s-2.626,14.879-7,22l2,7.5S621.248,226.525,623.064,212.741Z" fill="#662c33"/>
      </g>
    </g>
    <g id="Grupo_25815" data-name="Grupo 25815">
      <path id="Trazado_56353" data-name="Trazado 56353" d="M279.75,194.09s3.108-.951,5.908,3.466c0,0-3.368,1.437-4.618,0a13.631,13.631,0,0,1,2.417,4.868s-2,1.284-4.417-1.709A4.374,4.374,0,0,1,279.75,194.09Z" fill="#005ba1"/>
      <path id="Trazado_56354" data-name="Trazado 56354" d="M250.01,196.552c.73,3.368-5.244,7.749-5.244,7.749s8.653,8.088,20.964,9.088,18.477-5.667,18.477-5.667-4.447-7-4.542-13.293S250.01,196.552,250.01,196.552Z" fill="#450e11"/>
      <g id="Grupo_25803" data-name="Grupo 25803">
        <g id="Grupo_25802" data-name="Grupo 25802">
          <path id="Trazado_56355" data-name="Trazado 56355" d="M290.663,417.189l-7.423-.608s-10.241-58.36-12.661-64.32c-2.08-5.14-10.97-24.8-13.92-39.9a10.511,10.511,0,0,1-2.31-.33h-.01q-.465-.105-.99-.21c-.31-.07-.64-.14-.97-.21-.25,15.05-3.52,33.61-4.52,38.81-1.21,6.31.506,65.785.506,65.785l-7.125.875c-13.11-46.47-7.041-67.12-7.041-67.12s-12.02-41.83-7.76-56.58a99.09,99.09,0,0,1,4.83-13.13c.14-.31.27-.61.42-.9a87.906,87.906,0,0,1,6.11-11.31l14.05,1.76.13-.23.41.08v4.41l1.78-.09.4-.03h.01l5.83-.31.8-.04,5.1-.27s3.06,4.87,7.42,12.7c.16.3.33.6.49.9,1.55,2.81,3.25,5.97,5.03,9.4,7.05,13.65,4.64,52.83,4.64,52.83S294.483,369.059,290.663,417.189Z" fill="#e8385a"/>
        </g>
      </g>
      <g id="Grupo_25804" data-name="Grupo 25804">
        <path id="Trazado_56356" data-name="Trazado 56356" d="M236.142,402.056s4.425,18.524,3.436,22.011c-.6,2.106-3.045,4.808-1.519,8.183h14.049a6.882,6.882,0,0,0-1.093-7.339c-1.67-1.959-1.539-25.542-1.539-25.542s-3.667-2.337-7.26-1.762A8.579,8.579,0,0,0,236.142,402.056Z" fill="#005ba1"/>
        <path id="Trazado_56357" data-name="Trazado 56357" d="M239.023,427.02s4.231-5.038,11.747-1.013a2.782,2.782,0,0,1-3.559,2.868C243.6,428.2,241.218,430.9,239.023,427.02Z" fill="#1474bd"/>
      </g>
      <g id="Grupo_25805" data-name="Grupo 25805">
        <path id="Trazado_56358" data-name="Trazado 56358" d="M293.74,399.754s-3,20.826-2.013,24.313c.6,2.106,3.046,4.808,1.519,8.183H279.2a6.881,6.881,0,0,1,1.094-7.339c1.67-1.959-1.7-25.157-1.7-25.157s3.981-3.107,7.574-2.532A25.164,25.164,0,0,1,293.74,399.754Z" fill="#005ba1"/>
        <path id="Trazado_56359" data-name="Trazado 56359" d="M292.282,427.02s-4.23-5.038-11.746-1.013a2.782,2.782,0,0,0,3.559,2.868C287.708,428.2,290.087,430.9,292.282,427.02Z" fill="#1474bd"/>
      </g>
      <path id="Trazado_56360" data-name="Trazado 56360" d="M235.92,271.111a15.563,15.563,0,0,0,1.76,2.23c.34.371.73.77,1.17,1.17a17.1,17.1,0,0,0,10.34,4.63,48.532,48.532,0,0,0,9.73-.2c.64-.08,1.24-.17,1.81-.27a20.765,20.765,0,0,0,7.34-2.449l-1.33-3.811a46.049,46.049,0,0,1-7.1,1.121c-.49.049-1,.079-1.53.109-5.32.29-12.14-.22-17.57-3.56a12.322,12.322,0,0,1-1.1-.73,14.373,14.373,0,0,1-1.64-1.31Z" fill="#072228"/>
      <path id="Trazado_56361" data-name="Trazado 56361" d="M258.11,273.641l.81,5.3.15.97h1.92l-.26-1.24-1.09-5.139C259.15,273.581,258.64,273.611,258.11,273.641Z" fill="#e8385a"/>
      <path id="Trazado_56362" data-name="Trazado 56362" d="M237.12,274.6l1.29,1.06.44-1.15,1.69-4.43a12.322,12.322,0,0,1-1.1-.73l-1.76,3.99Z" fill="#e8385a"/>
      <path id="Trazado_56363" data-name="Trazado 56363" d="M252.318,273.52l-.574,5.554a.748.748,0,0,1-.911.652l-7.169-1.638a.748.748,0,0,1-.555-.924l1.368-5.084a.749.749,0,0,1,.858-.541l6.373,1.168A.748.748,0,0,1,252.318,273.52Z" fill="#cfd8dc"/>
      <path id="Trazado_56364" data-name="Trazado 56364" d="M199.059,240.971c-1.048,3-.889,8.894,2.163,12.366.943,1.074,3.936-.235,4.442-1.3s2.32-5.082,2.32-5.082,1.782-2.638,1.481-4.3a20.678,20.678,0,0,1-.274-3.457,1.759,1.759,0,0,0-1.686,1.063c-.355,1.1-.545,4.124-1.291,3.892s-3.444.242-4.187-.7A19.283,19.283,0,0,0,199.059,240.971Z" fill="#ad5f65"/>
      <path id="Trazado_56365" data-name="Trazado 56365" d="M240.14,211.67c-4.5.166-24.969,39.795-24.969,39.795l4.166,11.066L241.532,230Z" fill="#b5c4c9"/>
      <path id="Trazado_56366" data-name="Trazado 56366" d="M256.37,214.248s-.867,8.139,3.254,13.418c0,0,8.343-3.721,9.92-10.221C269.544,217.445,262.12,213.8,256.37,214.248Z" fill="#9aa7ab"/>
      <path id="Trazado_56367" data-name="Trazado 56367" d="M266.33,273.32a32.3,32.3,0,0,1-28.51-5.28s-2.57-52.83,2.32-56.37c2.14-1.55,6.36-.31,10.43,1.58,1.89.88,3.75,1.89,5.35,2.84,2.86,1.67,4.92,3.11,4.92,3.11s3.95-.56,8.7-.72a54.953,54.953,0,0,1,7.59.22c4.57.49,8.35,1.83,8.52,4.86C286.1,231.37,266.33,273.32,266.33,273.32Z" fill="#cfd8dc"/>
      <path id="Trazado_56368" data-name="Trazado 56368" d="M278.6,218.894s-8.055,13.3-9.058,20.4l6.445,8.324s-2.026,24.838-8.893,26.982-25.734.791-31.176-6.607c-3.437-4.672-2.237-33.876-2.237-33.876l6.857-2.666s2.352-18.469,6.093-20.6l5.382,2.205a20.473,20.473,0,0,0-6.21,18.493s11.156,5.316,18.779,4.661c0,0,5.456-15.114,10.338-19.026Z" fill="#e8385a"/>
      <path id="Trazado_56369" data-name="Trazado 56369" d="M259.658,201.723s1.168,14.1-2.757,16.121c0,0,2.9,5.347,10.675,2.093,0,0-1.314-7.255,3.828-15.868C274.848,198.3,259.658,201.723,259.658,201.723Z" fill="#9c464c"/>
      <path id="Trazado_56370" data-name="Trazado 56370" d="M269.54,218.48a21.552,21.552,0,0,1-10.11,8.65c-1.63-1.85-3.21-9.51-3.51-11.04,2.86,1.67,4.92,3.11,4.92,3.11S264.79,218.64,269.54,218.48Z" fill="#9c464c"/>
      <g id="Grupo_25811" data-name="Grupo 25811">
        <path id="Trazado_56371" data-name="Trazado 56371" d="M252.51,200.715s-4.89-2.8-3.64-14.285,16.388-12.1,19.131-10.169a11.488,11.488,0,0,1,10.557,6.684c3.437,7.125,1.187,16.075-4.438,20.038S252.51,200.715,252.51,200.715Z" fill="#450e11"/>
        <path id="Trazado_56372" data-name="Trazado 56372" d="M253.565,195.989s-3.193-3.137-3.555.563c-.418,4.286,3.485,5.981,4.235,4.613S253.565,195.989,253.565,195.989Z" fill="#ad5f65"/>
        <path id="Trazado_56373" data-name="Trazado 56373" d="M275.756,196.04s3.144-3.186,3.563.507c.485,4.28-3.391,6.035-4.162,4.679S275.756,196.04,275.756,196.04Z" fill="#ad5f65"/>
        <path id="Trazado_56374" data-name="Trazado 56374" d="M264.446,211.419c-7.031.054-11.035-4.507-11.141-18.282-.055-7.1,3.526-11.491,11.4-11.552s11.226,4.271,11.281,11.376C276.1,207.762,271.71,211.363,264.446,211.419Z" fill="#ad5f65"/>
        <path id="Trazado_56375" data-name="Trazado 56375" d="M273.7,197.892a1.665,1.665,0,1,1-1.831-.986A1.489,1.489,0,0,1,273.7,197.892Z" fill="#9c464c"/>
        <path id="Trazado_56376" data-name="Trazado 56376" d="M259.238,198.389A1.665,1.665,0,1,1,257.69,197,1.49,1.49,0,0,1,259.238,198.389Z" fill="#9c464c"/>
        <g id="Grupo_25806" data-name="Grupo 25806">
          <path id="Trazado_56377" data-name="Trazado 56377" d="M270.6,190.724a.351.351,0,0,1-.427-.061,4.029,4.029,0,0,0-2.713-.957.351.351,0,0,1-.028-.7,4.7,4.7,0,0,1,3.246,1.171.35.35,0,0,1-.009.5A.342.342,0,0,1,270.6,190.724Z" fill="#450e11"/>
        </g>
        <g id="Grupo_25807" data-name="Grupo 25807">
          <path id="Trazado_56378" data-name="Trazado 56378" d="M260.32,189.716a.348.348,0,0,1-.182.047,4.038,4.038,0,0,0-2.7,1,.351.351,0,1,1-.512-.481,4.689,4.689,0,0,1,3.227-1.221.351.351,0,0,1,.165.656Z" fill="#450e11"/>
        </g>
        <g id="Grupo_25808" data-name="Grupo 25808">
          <path id="Trazado_56379" data-name="Trazado 56379" d="M270.422,194.505c.006.873-.381,1.584-.866,1.588s-.884-.7-.891-1.574.381-1.584.866-1.588S270.415,193.632,270.422,194.505Z" fill="#5e1d21"/>
          <path id="Trazado_56380" data-name="Trazado 56380" d="M260.5,194.534c.007.874-.381,1.585-.866,1.588s-.884-.7-.891-1.574.381-1.584.867-1.588S260.495,193.661,260.5,194.534Z" fill="#5e1d21"/>
        </g>
        <path id="Trazado_56381" data-name="Trazado 56381" d="M261.407,203.038s4.384.579,6.628-.614a4.338,4.338,0,0,1-3.814,1.95C261.827,204.1,261.407,203.038,261.407,203.038Z" fill="#5e1d21"/>
        <g id="Grupo_25809" data-name="Grupo 25809">
          <path id="Trazado_56382" data-name="Trazado 56382" d="M268,194.09s.624-2.156,1.47-2.008,1.5,1.985,1.5,1.985l1.243-.671-1.247.173s-.665-1.916-1.5-1.914C268.279,191.659,268,194.09,268,194.09Z" fill="#5e1d21"/>
          <path id="Trazado_56383" data-name="Trazado 56383" d="M261.176,194.406s-.657-2.145-1.5-1.985-1.47,2.008-1.47,2.008l-1.253-.651,1.249.153s.635-1.926,1.47-1.937C260.862,191.98,261.176,194.406,261.176,194.406Z" fill="#5e1d21"/>
        </g>
        <path id="Trazado_56384" data-name="Trazado 56384" d="M275.821,198.013a52.035,52.035,0,0,1-1.951-10.451s-1.923-4.438-9.149-4.5-9.879,4.008-9.879,4.008a69.644,69.644,0,0,1-1.2,11.934,11.772,11.772,0,0,0-1.508-4.025s-2.254-13.389,12.583-15.216,12.421,15.257,12.421,15.257S276.4,195.214,275.821,198.013Z" fill="#450e11"/>
        <g id="Grupo_25810" data-name="Grupo 25810">
          <path id="Trazado_56385" data-name="Trazado 56385" d="M264.913,199.418a2.2,2.2,0,0,1-.495.2l-.2-.73c.622-.174.756-.56.757-.853a.935.935,0,0,0-.481-.868q-.2-.059-.413.273l-.639-.409a1.09,1.09,0,0,1,1.268-.591,1.665,1.665,0,0,1,1.024,1.6A1.556,1.556,0,0,1,264.913,199.418Z" fill="#9c464c"/>
        </g>
        <path id="Trazado_56386" data-name="Trazado 56386" d="M268,183.442s4.614,10.355,11.664,10.987L272.644,181.2s-12.308-3.068-16.724-.439-3.7,12.682-3.7,12.682S255.665,182.494,268,183.442Z" fill="#450e11"/>
      </g>
      <path id="Trazado_56387" data-name="Trazado 56387" d="M238.754,274.6s-7.125.708-8,.708-5.75-2.75-5.75-2.75l-4-6.875,16.141,2.5Z" fill="#ad5f65"/>
      <path id="Trazado_56388" data-name="Trazado 56388" d="M284.9,221.61c-3.752-3.315-16.9,34.446-16.9,34.446l-5.821,4.1s-.415,10.522,2.694,13.574c0,0,2.052,1.326,7.341-1.674S287,244.694,288.5,237.875,288.626,224.9,284.9,221.61Z" fill="#b5c4c9"/>
      <path id="Trazado_56389" data-name="Trazado 56389" d="M256.37,214.248s.633,7.7,3.254,12.447c0,0,7.218-3.875,9.92-9.25a12.319,12.319,0,0,1,3.826,7.5l-6.278-1-8.028,4-3.444-6.958-4.875-.917A25.294,25.294,0,0,1,256.37,214.248Z" fill="#b5c4c9"/>
      <g id="Grupo_25814" data-name="Grupo 25814">
        <path id="Trazado_56390" data-name="Trazado 56390" d="M226.048,240.378s-10.693-7.532-14.781-15.019-.969-8.9-.969-8.9,3.827,5.3,2.227,9.075l1.2,2.472s.558-4.023,3.066-5.11c0,0,1.811,3.941-2.021,6.075a10.364,10.364,0,0,0,2.165,2.864s1.028-3.343,3.108-3.926c0,0,.77,4.054-2.35,4.748,0,0,7.674,6.755,8.645,7.146S226.048,240.378,226.048,240.378Z" fill="#768e1e"/>
        <path id="Trazado_56391" data-name="Trazado 56391" d="M221.9,238.6s-1.373-7.151-.117-11.73,3.051-3.941,3.051-3.941-.514,3.6-2.615,4.5l-.477,1.452s1.779-1.4,3.2-.862a2.6,2.6,0,0,1-3.158,1.653,5.771,5.771,0,0,0-.239,1.984s1.7-.942,2.762-.372c0,0-1.258,1.922-2.776.994,0,0,.464,5.673.7,6.205S221.9,238.6,221.9,238.6Z" fill="#647715"/>
        <path id="Trazado_56392" data-name="Trazado 56392" d="M221.18,235.535s1.374-7.151.118-11.73-3.051-3.941-3.051-3.941.514,3.6,2.614,4.5l.477,1.453s-1.778-1.4-3.2-.863a2.6,2.6,0,0,0,3.158,1.653,5.779,5.779,0,0,1,.239,1.985s-1.7-.943-2.762-.372c0,0,1.258,1.922,2.777.994,0,0-.465,5.672-.7,6.2S221.18,235.535,221.18,235.535Z" fill="#647715"/>
        <path id="Trazado_56393" data-name="Trazado 56393" d="M213.655,239.71s-2.638-6.786-6.137-10S202.839,228,202.839,228s2.35,2.778,4.6,2.419l1.176.976s-2.249-.237-3.172.973a2.6,2.6,0,0,0,3.554-.279,5.767,5.767,0,0,1,1.257,1.554s-1.944.107-2.537,1.153c0,0,2.087.959,2.88-.634,0,0,2.623,5.051,2.7,5.628S213.655,239.71,213.655,239.71Z" fill="#647715"/>
        <path id="Trazado_56394" data-name="Trazado 56394" d="M223,242.642s-6.357-8.694-7.572-15.611,1.589-7.2,1.589-7.2,1.59,5.142-.654,7.666l.28,2.244s1.5-2.992,3.74-3.179a3.843,3.843,0,0,1-3.179,4.207,8.534,8.534,0,0,0,.935,2.8s1.683-2.337,3.459-2.243c0,0-.467,3.365-3.085,3.085,0,0,4.207,7.291,4.861,7.852S223,242.642,223,242.642Z" fill="#8da528"/>
        <path id="Trazado_56395" data-name="Trazado 56395" d="M222.418,241.9s-4.094-11-9.657-16.251-7.5-2.872-7.5-2.872,3.723,4.53,7.364,4l1.872,1.6s-3.617-.434-5.133,1.494a4.186,4.186,0,0,0,5.732-.367,9.288,9.288,0,0,1,1.99,2.532s-3.135.129-4.115,1.8c0,0,3.341,1.594,4.656-.955,0,0,4.109,8.2,4.227,9.131S222.418,241.9,222.418,241.9Z" fill="#adbc53"/>
        <path id="Trazado_56396" data-name="Trazado 56396" d="M242.66,241.438s1.248-1.022,1.135-1.476-1.476.227-1.476.227,0-1.817-.454-1.817-.681,1.136-.681,1.136-.341-1.022-1.249-.681-.454,2.384-.908,1.589a.984.984,0,0,0-.536-.444.923.923,0,0,0,.308-.464c.341-1.022-2.951-1.7-2.951-1.7s1.93.34,2.384,0-.908-1.022-.908-1.022,2.043-.341,2.043-.681-1.249-1.136-1.249-1.136,1.817-.113,1.817-.794-1.476-.454-1.476-.454,1.93-.909,1.93-1.363-1.022-.34-1.022-.34,1.135-2.271-.454-2.157a1.36,1.36,0,0,0-1.362,1.589s-.682-.681-1.022-.227a10.353,10.353,0,0,0-.8,1.476l-.795-.909v1.249l-2.27-.908s1.135,0,.794-.568a1.5,1.5,0,0,0-.681-.681s2.271-.567,2.5-1.021-1.93-.795-1.93-.795c1.362-.795,2.271-1.7,1.93-1.7s-1.7-.114-1.7-.114,2.5-2.043,1.816-2.384-1.589.454-1.589.454,1.817-3.292,1.135-3.519-2.5,2.5-2.5,2.5.567-2.27-.454-1.93c-.835.278-1.745,2.827-2.05,3.753.213-.7.624-2.277.006-2.277-.795,0-1.476,3.747-1.476,3.747s-.341-1.817-.681-1.363a11.709,11.709,0,0,0-.454,3.066s.113-2.271-.454-2.271-.455,2.5-.455,2.5-.681-3.974-1.7-2.838.909,6.811-.794,11.58q.331,1.042.664,2.084l1.909,5.995c.505,1.586.925,4.23,2.688,4.921a3.276,3.276,0,0,0,1.2.149l3.651-.006c.314,0,.718-.069.78-.377a15.556,15.556,0,0,0,4.613.223.743.743,0,0,0-.394-.709q1.436-.041,2.864-.182a.75.75,0,0,0,.414-.128.26.26,0,0,0,.037-.382.382.382,0,0,0-.143-.062l-1-.27a2.794,2.794,0,0,0,1.446-.421,2.587,2.587,0,0,0-1.544-.479l.871-.448c.26-.134.568-.389.444-.655a.574.574,0,0,0-.264-.231c-.189-.107-.689-.276-.8-.453-.168-.259-.132-.084-.005-.345s.493-.506.684-.708a9.307,9.307,0,0,0,1.3-1.5c.34-.568-1.249-1.249-1.249-1.249a3.243,3.243,0,0,0,1.7-.568C244.59,241.892,242.66,241.438,242.66,241.438Z" fill="#647715"/>
        <path id="Trazado_56397" data-name="Trazado 56397" d="M229.111,245.273c3.776-1.328,8.256.219,9.158-.585s-2.238-1.357-2.238-1.357,1.975.1,1.977-.349-1.794-.368-1.794-.368a9.282,9.282,0,0,0,2.425-.347c.361-.268-1.074-.544-1.074-.544s2.964-.524,2.967-1.153-2.064.08-2.064.08,2.966-.883,3.239-1.69-1.524-.366-1.524-.366,2.161-1.426,1.984-1.965-2.787.884-2.787.884.632-.715.365-1.255-1.892,1.427-1.892,1.427-.084-1.077-.083-1.346-.72.445-1.353,1.519c0,0-.262-1.707-.622-1.529s-.817,1.971-.817,1.971a1.176,1.176,0,0,0-.536-.541c-.447-.272-.451.626-.451.626l-.71-1.8.987.005-.715-.632a8.228,8.228,0,0,0,1.17-.622c.36-.268-.176-.809-.176-.809a1.076,1.076,0,0,0,1.262-1.071c.1-1.256-1.7-.367-1.7-.367s.094-.808-.265-.809-1.084,1.52-1.084,1.52.185-1.166-.354-1.168-.635,1.433-.635,1.433-.623-.99-.893-.992-.546,1.613-.546,1.613-.533-1.079-.8-.722-.009,1.885-.009,1.885-.527-2.605-1.336-2.34-.364,1.076-.364,1.076.274-.9-.353-1.259.988.005,1.26-.712-.534-.99-.534-.99.9-.175.9-.534-1.434-.366-1.434-.366.544-1.074.185-1.166-1.171.892-1.171.892-.352-1.527-.8-.9a2.566,2.566,0,0,0-.456,1.344s-.532-1.259-.982-.992a22.686,22.686,0,0,0-1.984,1.786s-.443-1.169-.8-.543a2.3,2.3,0,0,0-.007,1.616,1.24,1.24,0,0,0-.9,1.223,8.042,8.042,0,0,0,.618,2.1,1.042,1.042,0,0,0-.7,1.1,18.03,18.03,0,0,0,.412,2.31s-1.674,2.73-1.023,2.845" fill="#768e1e"/>
        <g id="Grupo_25812" data-name="Grupo 25812">
          <path id="Trazado_56398" data-name="Trazado 56398" d="M213.452,235.37s1.533-2.044.17-3.69c0,0,.171-.625.682-.681,0,0,1.589,2.384,1.476,4.371S213.452,235.37,213.452,235.37Z" fill="#768e1e"/>
          <path id="Trazado_56399" data-name="Trazado 56399" d="M214.1,251.378a8.134,8.134,0,0,1-4.541-.3s-6.509.454-6.963-7.115,5.3-8.023,5.3-8.023,1.06-1.968,4.995-1.059a7.649,7.649,0,0,1,5.45.151,3.972,3.972,0,0,1,4.39,1.514s1.816.151,3.027,2.573,2.271,9.688-2.724,11.353a8.868,8.868,0,0,1-4.39,1.06S215.912,252.437,214.1,251.378Z" fill="#f78e39"/>
          <path id="Trazado_56400" data-name="Trazado 56400" d="M207.662,236.467s-2.271,1.287-2.346,5.828,2.422,7.72,3.784,8.326" fill="none" stroke="#cc752e" stroke-miterlimit="10" stroke-width="0.454"/>
          <path id="Trazado_56401" data-name="Trazado 56401" d="M212.544,235.313s-1.135.284-1.93,2.157-.341,8.628.624,10.842,2.271,2.611,2.271,2.611" fill="none" stroke="#cc752e" stroke-miterlimit="10" stroke-width="0.454"/>
          <path id="Trazado_56402" data-name="Trazado 56402" d="M218.391,235.54a3.125,3.125,0,0,1,1.135,2.1c.17,1.419-.4,11.467-2.214,12.886" fill="none" stroke="#cc752e" stroke-miterlimit="10" stroke-width="0.454"/>
          <path id="Trazado_56403" data-name="Trazado 56403" d="M222.762,236.9s1.022.965.965,3.463-.284,8.458-2.214,10.048" fill="none" stroke="#cc752e" stroke-miterlimit="10" stroke-width="0.454"/>
        </g>
        <g id="Grupo_25813" data-name="Grupo 25813">
          <path id="Trazado_56404" data-name="Trazado 56404" d="M236.361,239.942s2.147-1.385,1.441-3.4c0,0,.377-.527.876-.4,0,0,.662,2.788-.134,4.612S236.361,239.942,236.361,239.942Z" fill="#768e1e"/>
          <path id="Trazado_56405" data-name="Trazado 56405" d="M231.407,255.177a8.133,8.133,0,0,1-4.154-1.86s-6.262-1.835-4.06-9.09,7.754-5.684,7.754-5.684,1.677-1.478,5.053.74a7.649,7.649,0,0,1,5.058,2.035,3.969,3.969,0,0,1,3.591,2.943s1.651.773,1.946,3.465-1.235,9.873-6.5,9.7a8.871,8.871,0,0,1-4.485-.531S232.742,256.8,231.407,255.177Z" fill="#ff9f48"/>
          <path id="Trazado_56406" data-name="Trazado 56406" d="M230.551,238.961s-2.577.418-4.224,4.65-.41,8.081.658,9.122" fill="none" stroke="#cc752e" stroke-miterlimit="10" stroke-width="0.454"/>
          <path id="Trazado_56407" data-name="Trazado 56407" d="M235.529,239.573a3.392,3.392,0,0,0-2.558,1.353c-1.4,1.481-3.316,7.973-3.18,10.385s1.223,3.237,1.223,3.237" fill="none" stroke="#cc752e" stroke-miterlimit="10" stroke-width="0.454"/>
          <path id="Trazado_56408" data-name="Trazado 56408" d="M240.934,241.816a3.128,3.128,0,0,1,.335,2.364c-.333,1.39-4.354,10.615-6.55,11.316" fill="none" stroke="#cc752e" stroke-miterlimit="10" stroke-width="0.454"/>
          <path id="Trazado_56409" data-name="Trazado 56409" d="M244.56,244.612s.623,1.259-.3,3.582-3.2,7.833-5.564,8.654" fill="none" stroke="#cc752e" stroke-miterlimit="10" stroke-width="0.454"/>
        </g>
        <path id="Trazado_56410" data-name="Trazado 56410" d="M248.667,246.576l-6.46,22.78-15.33-.51-26.84-8.04.5-4.21.23-1.89.52-4.33.22-1.85.6-5.03.22-1.84.55-4.56,29.06,6.96Z" fill="#662c33"/>
        <path id="Trazado_56411" data-name="Trazado 56411" d="M231.937,244.056l-1.06,5.17-.5,2.5-.87,4.23-.51,2.49-.72,3.56-.52,2.5-.88,4.34-26.84-8.04.5-4.21.23-1.89.52-4.33.22-1.85.6-5.03.22-1.84.55-4.56Z" fill="#8b383e"/>
        <path id="Trazado_56412" data-name="Trazado 56412" d="M235.917,250.566l-1.24,2.41-4.3-1.25-28.27-8.23.22-1.84,28.55,7.57Z" fill="#662c33"/>
        <path id="Trazado_56413" data-name="Trazado 56413" d="M234.677,257.326l-1.25,2.41-4.43-1.29-27.71-8.07.22-1.85,28,7.43Z" fill="#662c33"/>
        <path id="Trazado_56414" data-name="Trazado 56414" d="M232.777,263.206l-1.25,2.4-3.77-1.1-27.22-7.91.23-1.89,27.51,7.3Z" fill="#662c33"/>
      </g>
      <path id="Trazado_56415" data-name="Trazado 56415" d="M201.856,244.363a8.634,8.634,0,0,0-1.08,1.258s2.142-.468,2.5-.466c1.18.007,1.752.2,1.7.932-.033.441-.3.891-1.344,1.048a11.527,11.527,0,0,0-2.288.75s1.238.046,1.692.094a1.26,1.26,0,0,1,1.136.635.839.839,0,0,1-.646,1.11c-.351.064-1.3-.017-1.46.068-.309.151-1.424.675-1.756.133s.2-1.349.2-1.349a.706.706,0,0,1-1.045-.375,2.434,2.434,0,0,1,.277-1.846.847.847,0,0,1-.94-.915,3.467,3.467,0,0,1,.782-1.831s-.625.125-.878-.763a2.119,2.119,0,0,1,.359-1.875,4.836,4.836,0,0,1,2.7-1.456,5.979,5.979,0,0,1,2.438.3c.406.1.087,1.543-1.591,1.783a2.839,2.839,0,0,0-2.417,1.413l1.916-.95s2.036-.273,2.55.148c.231.19.487,1.157-.733,1.7C203.367,244.153,202.3,244.085,201.856,244.363Z" fill="#ad5f65"/>
      <path id="Trazado_56416" data-name="Trazado 56416" d="M238.041,274.669l29.994-1.137-1.495-12.725s-23.976,7.167-29.571,8.374S238.041,274.669,238.041,274.669Z" fill="#ad5f65"/>
      <path id="Trazado_56417" data-name="Trazado 56417" d="M261.407,262.329s1.928,5.16,2.031,7.027a21.878,21.878,0,0,1-.519,4.666s-.458,1.245,1.665,1.639,4.463-.88,4.96-2.326-1.3-14.411-4.069-15.1a2.536,2.536,0,0,0-3.3,1.916A1.556,1.556,0,0,0,261.407,262.329Z" fill="#cfd8dc"/>
      <path id="Trazado_56418" data-name="Trazado 56418" d="M249.076,194.429s-.344-14.707,15.645-14.666c12.9.033,14.735,9.707,14.944,14.666,0,0,3.708-15.373-14.224-20.994C253.3,175.472,246.63,182.889,249.076,194.429Z" fill="#1474bd"/>
    </g>
  </g>
</svg>
