<svg xmlns="http://www.w3.org/2000/svg" width="605" height="535" viewBox="0 0 605 535">
  <g id="Grupo_23967" data-name="Grupo 23967" transform="translate(-521.228 -715)">
    <rect id="Rectángulo_4864" data-name="Rectángulo 4864" width="477" height="201" transform="translate(586.228 939)" fill="none" stroke="#000" stroke-miterlimit="10" stroke-width="2"/>
    <rect id="Rectángulo_4865" data-name="Rectángulo 4865" width="152" height="105" transform="translate(565.228 715)" fill="#c5d5ed"/>
    <rect id="Rectángulo_4866" data-name="Rectángulo 4866" width="213" height="78" transform="translate(606.228 959)" fill="#78adcc"/>
    <rect id="Rectángulo_4867" data-name="Rectángulo 4867" width="213" height="78" transform="translate(830.228 959)" fill="#78adcc"/>
    <rect id="Rectángulo_4868" data-name="Rectángulo 4868" width="213" height="78" transform="translate(606.228 1042)" fill="#78adcc"/>
    <rect id="Rectángulo_4869" data-name="Rectángulo 4869" width="605" height="78" transform="translate(521.228 1172)" fill="#4a6544"/>
    <rect id="Rectángulo_4870" data-name="Rectángulo 4870" width="213" height="78" transform="translate(830.228 1042)" fill="#78adcc"/>
    <rect id="Rectángulo_4871" data-name="Rectángulo 4871" width="152" height="105" transform="translate(747.228 715)" fill="#b8bc44"/>
    <rect id="Rectángulo_4872" data-name="Rectángulo 4872" width="152" height="42" transform="translate(747.228 862)" fill="#949ecf"/>
    <rect id="Rectángulo_4873" data-name="Rectángulo 4873" width="152" height="105" transform="translate(929.228 715)" fill="#c5d5ed"/>
    <g id="Grupo_23958" data-name="Grupo 23958">
      <path id="Trazado_50084" data-name="Trazado 50084" d="M604.636,744.486H610.2V746.9h-2.772v2.629h2.61v2.3h-2.61v4.789h-2.791Z"/>
      <path id="Trazado_50085" data-name="Trazado 50085" d="M618.029,754.588a12.023,12.023,0,0,0,.144,2.034h-2.485l-.144-.847h-.036a2.463,2.463,0,0,1-2.035.991,2.53,2.53,0,0,1-2.43-2.754c0-2.377,2.16-3.314,4.159-3.331v-.162c0-.487-.45-.865-1.17-.865a3.618,3.618,0,0,0-1.945.54l-.486-1.854a6.727,6.727,0,0,1,3.043-.721c3.078,0,3.385,2.2,3.385,3.907Zm-2.737-2.161c-.81.018-1.639.342-1.639,1.278,0,.756.45,1.045.757,1.045a.867.867,0,0,0,.828-.522,1.013,1.013,0,0,0,.054-.361Z"/>
      <path id="Trazado_50086" data-name="Trazado 50086" d="M624.724,756.5a4.692,4.692,0,0,1-1.53.234c-2.377,0-3.907-1.548-3.907-4.429,0-2.827,1.746-4.646,4.3-4.646a3.808,3.808,0,0,1,1.314.216l-.324,2.161a3,3,0,0,0-.828-.126c-1.027,0-1.71.828-1.71,2.286,0,1.406.63,2.287,1.656,2.287a1.926,1.926,0,0,0,.828-.162Z"/>
      <path id="Trazado_50087" data-name="Trazado 50087" d="M628.269,745.4a1.371,1.371,0,0,1-1.4,1.441,1.451,1.451,0,1,1,1.4-1.441Zm-2.737,11.218v-8.858h2.791v8.858Z"/>
      <path id="Trazado_50088" data-name="Trazado 50088" d="M629.835,744.162h2.791v12.46h-2.791Z"/>
      <path id="Trazado_50089" data-name="Trazado 50089" d="M636.874,745.4a1.372,1.372,0,0,1-1.4,1.441,1.451,1.451,0,1,1,1.4-1.441Zm-2.737,11.218v-8.858h2.791v8.858Z"/>
      <path id="Trazado_50090" data-name="Trazado 50090" d="M641.7,745.369v2.395h1.746v1.944H641.7v3.529c0,.972.432,1.206.882,1.206a3.933,3.933,0,0,0,.648-.053v2.178a7.13,7.13,0,0,1-1.621.162,2.727,2.727,0,0,1-1.854-.576,3.251,3.251,0,0,1-.846-2.665v-3.781h-1.026v-1.944h1.026v-1.585Z"/>
      <path id="Trazado_50091" data-name="Trazado 50091" d="M651.005,754.588a12.129,12.129,0,0,0,.143,2.034h-2.484l-.145-.847h-.035a2.463,2.463,0,0,1-2.035.991,2.531,2.531,0,0,1-2.431-2.754c0-2.377,2.162-3.314,4.16-3.331v-.162c0-.487-.451-.865-1.17-.865a3.621,3.621,0,0,0-1.946.54l-.485-1.854a6.722,6.722,0,0,1,3.042-.721c3.079,0,3.386,2.2,3.386,3.907Zm-2.738-2.161c-.809.018-1.638.342-1.638,1.278,0,.756.45,1.045.757,1.045a.867.867,0,0,0,.828-.522,1.015,1.015,0,0,0,.053-.361Z"/>
      <path id="Trazado_50092" data-name="Trazado 50092" d="M657.7,756.5a4.7,4.7,0,0,1-1.53.234c-2.377,0-3.907-1.548-3.907-4.429,0-2.827,1.746-4.646,4.3-4.646a3.811,3.811,0,0,1,1.315.216l-.325,2.161a2.992,2.992,0,0,0-.828-.126c-1.026,0-1.71.828-1.71,2.286,0,1.406.63,2.287,1.657,2.287a1.929,1.929,0,0,0,.828-.162Z"/>
      <path id="Trazado_50093" data-name="Trazado 50093" d="M661.245,745.4a1.371,1.371,0,0,1-1.4,1.441,1.451,1.451,0,1,1,1.4-1.441Zm-2.737,11.218v-8.858H661.3v8.858Z"/>
      <path id="Trazado_50094" data-name="Trazado 50094" d="M669.706,752.156c0,3.8-2.233,4.61-3.566,4.61-2.34,0-3.6-1.764-3.6-4.537,0-3.151,1.765-4.61,3.619-4.61C668.464,747.619,669.706,749.492,669.706,752.156Zm-4.411.019c0,1.53.233,2.5.9,2.5.576,0,.756-1.242.756-2.5,0-1.171-.18-2.467-.792-2.467C665.457,749.708,665.295,751,665.295,752.175Zm3.547-8.013-1.783,2.557h-1.728l1.17-2.557Z"/>
      <path id="Trazado_50095" data-name="Trazado 50095" d="M670.946,750.59c0-.936-.036-1.926-.071-2.826h2.394l.144,1.007h.036a2.647,2.647,0,0,1,2.2-1.152c1.872,0,2.449,1.53,2.449,3.44v5.563H675.3v-5.474c0-.612-.163-1.188-.72-1.188a.772.772,0,0,0-.7.522,2.189,2.189,0,0,0-.145.829v5.311h-2.791Z"/>
      <path id="Trazado_50096" data-name="Trazado 50096" d="M604.78,762.486v12.136h-2.791V762.486Z"/>
      <path id="Trazado_50097" data-name="Trazado 50097" d="M606.56,768.59c0-.936-.035-1.926-.071-2.826h2.395l.143,1.007h.036a2.65,2.65,0,0,1,2.2-1.152c1.872,0,2.448,1.53,2.448,3.44v5.563h-2.791v-5.474c0-.612-.162-1.188-.72-1.188a.773.773,0,0,0-.7.522,2.21,2.21,0,0,0-.145.829v5.311H606.56Z"/>
      <path id="Trazado_50098" data-name="Trazado 50098" d="M615.687,774.622v-6.914h-1.224v-1.944h1.224v-.271a3.431,3.431,0,0,1,.972-2.629,3.134,3.134,0,0,1,2.269-.845,5.441,5.441,0,0,1,1.548.2l-.269,2.16a2.166,2.166,0,0,0-.721-.108,1.024,1.024,0,0,0-1.008,1.152v.343h1.494v1.944h-1.494v6.914Z"/>
      <path id="Trazado_50099" data-name="Trazado 50099" d="M627.533,770.156c0,3.8-2.232,4.61-3.565,4.61-2.341,0-3.6-1.764-3.6-4.537,0-3.151,1.765-4.61,3.619-4.61C626.291,765.619,627.533,767.492,627.533,770.156Zm-4.411.019c0,1.53.233,2.5.9,2.5.576,0,.756-1.242.756-2.5,0-1.171-.18-2.467-.792-2.467C623.284,767.708,623.122,769,623.122,770.175Z"/>
      <path id="Trazado_50100" data-name="Trazado 50100" d="M628.772,768.59c0-.936-.036-1.926-.071-2.826h2.4l.143,1.259h.072a2.019,2.019,0,0,1,1.711-1.4,2.45,2.45,0,0,1,.594.055v2.736a3.109,3.109,0,0,0-.612-.036,1.389,1.389,0,0,0-1.315,1.009,2.779,2.779,0,0,0-.126.918v4.321h-2.791Z"/>
      <path id="Trazado_50101" data-name="Trazado 50101" d="M634.424,768.59c0-.936-.035-1.926-.072-2.826h2.412l.145,1.007h.036a2.8,2.8,0,0,1,2.16-1.152,1.95,1.95,0,0,1,1.963,1.152h.036a3.212,3.212,0,0,1,.918-.845,2.594,2.594,0,0,1,1.242-.307c1.748,0,2.359,1.423,2.359,3.493v5.51H642.85v-5.077c0-.937-.089-1.621-.648-1.621a.753.753,0,0,0-.72.576,1.9,1.9,0,0,0-.072.559v5.563h-2.772v-5.437c0-.5-.019-1.261-.631-1.261a.781.781,0,0,0-.7.522,1.809,1.809,0,0,0-.108.63v5.546h-2.773Z"/>
      <path id="Trazado_50102" data-name="Trazado 50102" d="M653.65,772.588a12.017,12.017,0,0,0,.144,2.034h-2.485l-.144-.847h-.036a2.462,2.462,0,0,1-2.034.991,2.53,2.53,0,0,1-2.431-2.754c0-2.377,2.16-3.314,4.159-3.331v-.162c0-.487-.45-.865-1.17-.865a3.618,3.618,0,0,0-1.945.54l-.486-1.854a6.732,6.732,0,0,1,3.043-.721c3.079,0,3.385,2.2,3.385,3.907Zm-2.737-2.161c-.81.018-1.639.342-1.639,1.278,0,.756.45,1.045.757,1.045a.867.867,0,0,0,.828-.522,1.013,1.013,0,0,0,.054-.361Z"/>
      <path id="Trazado_50103" data-name="Trazado 50103" d="M660.346,774.5a4.7,4.7,0,0,1-1.531.234c-2.377,0-3.907-1.548-3.907-4.429,0-2.827,1.746-4.646,4.3-4.646a3.809,3.809,0,0,1,1.314.216l-.324,2.161a3,3,0,0,0-.828-.126c-1.026,0-1.71.828-1.71,2.286,0,1.406.63,2.287,1.656,2.287a1.926,1.926,0,0,0,.828-.162Z"/>
      <path id="Trazado_50104" data-name="Trazado 50104" d="M663.89,763.4a1.371,1.371,0,0,1-1.4,1.441,1.451,1.451,0,1,1,1.4-1.441Zm-2.737,11.218v-8.858h2.791v8.858Z"/>
      <path id="Trazado_50105" data-name="Trazado 50105" d="M672.352,770.156c0,3.8-2.232,4.61-3.565,4.61-2.341,0-3.6-1.764-3.6-4.537,0-3.151,1.765-4.61,3.619-4.61C671.11,765.619,672.352,767.492,672.352,770.156Zm-4.411.019c0,1.53.234,2.5.9,2.5.576,0,.755-1.242.755-2.5,0-1.171-.179-2.467-.792-2.467C668.1,767.708,667.941,769,667.941,770.175Zm3.547-8.013-1.782,2.557h-1.729l1.17-2.557Z"/>
      <path id="Trazado_50106" data-name="Trazado 50106" d="M673.592,768.59c0-.936-.036-1.926-.072-2.826h2.395l.143,1.007h.037a2.647,2.647,0,0,1,2.2-1.152c1.872,0,2.448,1.53,2.448,3.44v5.563h-2.791v-5.474c0-.612-.162-1.188-.72-1.188a.774.774,0,0,0-.7.522,2.213,2.213,0,0,0-.144.829v5.311h-2.791Z"/>
      <path id="Trazado_50107" data-name="Trazado 50107" d="M619.531,783.079h-2.107v-2.593h7.022v2.593h-2.125v9.543h-2.79Z"/>
      <path id="Trazado_50108" data-name="Trazado 50108" d="M627.073,789.345c.036.81.72,1.3,1.782,1.3a6.093,6.093,0,0,0,1.784-.288l.341,1.98a8.419,8.419,0,0,1-2.629.4c-2.539,0-3.961-1.531-3.961-4.321,0-3.025,1.693-4.79,3.782-4.79,1.944,0,3.222,1.333,3.222,4.3a7.624,7.624,0,0,1-.089,1.422Zm1.818-1.926c0-.864-.143-1.8-.864-1.8-.7,0-.954,1.044-.954,1.8Zm1.91-7.257-1.784,2.557h-1.728l1.171-2.557Z"/>
      <path id="Trazado_50109" data-name="Trazado 50109" d="M637.819,792.5a4.7,4.7,0,0,1-1.53.234c-2.377,0-3.907-1.548-3.907-4.429,0-2.827,1.746-4.646,4.3-4.646a3.811,3.811,0,0,1,1.315.216l-.324,2.161a3.005,3.005,0,0,0-.828-.126c-1.027,0-1.71.828-1.71,2.286,0,1.406.629,2.287,1.656,2.287a1.926,1.926,0,0,0,.828-.162Z"/>
      <path id="Trazado_50110" data-name="Trazado 50110" d="M638.627,786.59c0-.936-.035-1.926-.072-2.826h2.4l.144,1.007h.036a2.647,2.647,0,0,1,2.2-1.152c1.872,0,2.448,1.53,2.448,3.44v5.563h-2.791v-5.474c0-.612-.162-1.188-.72-1.188a.773.773,0,0,0-.7.522,2.212,2.212,0,0,0-.144.829v5.311h-2.791Z"/>
      <path id="Trazado_50111" data-name="Trazado 50111" d="M650.022,781.4a1.371,1.371,0,0,1-1.4,1.441,1.451,1.451,0,1,1,1.4-1.441Zm-2.737,11.218v-8.858h2.791v8.858Z"/>
      <path id="Trazado_50112" data-name="Trazado 50112" d="M656.755,792.5a4.7,4.7,0,0,1-1.531.234c-2.377,0-3.907-1.548-3.907-4.429,0-2.827,1.746-4.646,4.3-4.646a3.8,3.8,0,0,1,1.314.216l-.324,2.161a3,3,0,0,0-.828-.126c-1.026,0-1.71.828-1.71,2.286,0,1.406.63,2.287,1.656,2.287a1.923,1.923,0,0,0,.828-.162Z"/>
      <path id="Trazado_50113" data-name="Trazado 50113" d="M664.441,790.588a12.017,12.017,0,0,0,.144,2.034H662.1l-.144-.847h-.036a2.461,2.461,0,0,1-2.034.991,2.53,2.53,0,0,1-2.431-2.754c0-2.377,2.16-3.314,4.159-3.331v-.162c0-.487-.45-.865-1.17-.865a3.618,3.618,0,0,0-1.945.54l-.485-1.854a6.723,6.723,0,0,1,3.042-.721c3.079,0,3.385,2.2,3.385,3.907Zm-2.737-2.161c-.81.018-1.639.342-1.639,1.278,0,.756.45,1.045.757,1.045a.867.867,0,0,0,.828-.522,1.015,1.015,0,0,0,.054-.361Z"/>
    </g>
    <g id="Grupo_23959" data-name="Grupo 23959">
      <path id="Trazado_50114" data-name="Trazado 50114" d="M796.121,751.865a17.165,17.165,0,0,1,2.827-.232,5.132,5.132,0,0,1,3.457.918,3.108,3.108,0,0,1,1.008,2.592,3.232,3.232,0,0,1-1.837,2.99v.035a2.707,2.707,0,0,1,1.405,2.27,20.88,20.88,0,0,0,.81,3.384h-2.917a15.293,15.293,0,0,1-.594-2.863c-.18-1.441-.5-1.783-1.116-1.783h-.271v4.646h-2.772Zm2.772,5.168h.361c.9,0,1.35-.773,1.35-1.656s-.341-1.549-1.206-1.584a1.367,1.367,0,0,0-.505.072Z"/>
      <path id="Trazado_50115" data-name="Trazado 50115" d="M807.12,760.545c.036.81.72,1.3,1.782,1.3a6.044,6.044,0,0,0,1.783-.289l.342,1.98a8.388,8.388,0,0,1-2.629.4c-2.539,0-3.961-1.532-3.961-4.321,0-3.025,1.693-4.791,3.782-4.791,1.944,0,3.222,1.334,3.222,4.3a7.5,7.5,0,0,1-.09,1.422Zm1.818-1.926c0-.865-.143-1.8-.864-1.8-.7,0-.954,1.043-.954,1.8Z"/>
      <path id="Trazado_50116" data-name="Trazado 50116" d="M812.7,751.361h2.791v12.461H812.7Z"/>
      <path id="Trazado_50117" data-name="Trazado 50117" d="M823.518,761.787a12.138,12.138,0,0,0,.144,2.035h-2.484l-.145-.847H821a2.464,2.464,0,0,1-2.035.99,2.53,2.53,0,0,1-2.431-2.754c0-2.377,2.161-3.313,4.159-3.33v-.162c0-.487-.45-.865-1.17-.865a3.6,3.6,0,0,0-1.945.541l-.485-1.856a6.736,6.736,0,0,1,3.042-.721c3.079,0,3.385,2.2,3.385,3.909Zm-2.737-2.16c-.809.018-1.639.342-1.639,1.277,0,.756.451,1.045.757,1.045a.867.867,0,0,0,.828-.521,1,1,0,0,0,.054-.362Z"/>
      <path id="Trazado_50118" data-name="Trazado 50118" d="M830.214,763.7a4.694,4.694,0,0,1-1.531.235c-2.377,0-3.907-1.549-3.907-4.43,0-2.826,1.746-4.645,4.3-4.645a3.8,3.8,0,0,1,1.314.215l-.324,2.162a2.953,2.953,0,0,0-.828-.127c-1.026,0-1.71.829-1.71,2.288,0,1.4.63,2.287,1.656,2.287a1.953,1.953,0,0,0,.828-.162Z"/>
      <path id="Trazado_50119" data-name="Trazado 50119" d="M833.759,752.6a1.373,1.373,0,0,1-1.4,1.441,1.451,1.451,0,1,1,1.4-1.441Zm-2.738,11.218v-8.859h2.791v8.859Z"/>
      <path id="Trazado_50120" data-name="Trazado 50120" d="M842.221,759.355c0,3.8-2.233,4.61-3.566,4.61-2.341,0-3.6-1.764-3.6-4.537,0-3.151,1.764-4.61,3.619-4.61C840.978,754.818,842.221,756.691,842.221,759.355Zm-4.412.02c0,1.529.234,2.5.9,2.5.576,0,.756-1.242.756-2.5,0-1.172-.18-2.467-.792-2.467C837.972,756.908,837.809,758.2,837.809,759.375Zm3.547-8.014-1.782,2.557h-1.728l1.169-2.557Z"/>
      <path id="Trazado_50121" data-name="Trazado 50121" d="M843.46,757.789c0-.935-.036-1.926-.071-2.826h2.394l.144,1.008h.036a2.65,2.65,0,0,1,2.2-1.153c1.872,0,2.448,1.532,2.448,3.44v5.564h-2.791v-5.474c0-.612-.162-1.188-.72-1.188a.772.772,0,0,0-.7.522,2.206,2.206,0,0,0-.144.828v5.312H843.46Z"/>
      <path id="Trazado_50123" data-name="Trazado 50123" d="M805.78,777.355c0,3.8-2.232,4.61-3.565,4.61-2.341,0-3.6-1.764-3.6-4.537,0-3.151,1.765-4.61,3.619-4.61C804.538,772.818,805.78,774.691,805.78,777.355Zm-4.411.02c0,1.529.233,2.5.9,2.5.577,0,.756-1.242.756-2.5,0-1.172-.179-2.467-.792-2.467C801.531,774.908,801.369,776.2,801.369,777.375Z"/>
      <path id="Trazado_50124" data-name="Trazado 50124" d="M807.02,775.789c0-.935-.036-1.926-.071-2.826h2.4l.143,1.26h.072a2.018,2.018,0,0,1,1.711-1.405,2.5,2.5,0,0,1,.594.055v2.736a3.188,3.188,0,0,0-.612-.035,1.389,1.389,0,0,0-1.315,1.008,2.784,2.784,0,0,0-.126.918v4.322H807.02Z" transform="translate(0 0.182)"/>
      <path id="Trazado_50125" data-name="Trazado 50125" d="M815.409,770.6a1.371,1.371,0,0,1-1.4,1.441,1.451,1.451,0,1,1,1.4-1.441Zm-2.737,11.218v-8.859h2.791v8.859Z"/>
      <path id="Trazado_50126" data-name="Trazado 50126" d="M816.559,780.076l1.91-3.3c.3-.521.719-1.152.881-1.494v-.053h-2.556v-2.269h5.563v1.908l-1.836,3.115c-.324.559-.7,1.17-.9,1.514v.053h2.862v2.269h-5.924Z"/>
      <path id="Trazado_50127" data-name="Trazado 50127" d="M830.387,777.355c0,3.8-2.233,4.61-3.566,4.61-2.341,0-3.6-1.764-3.6-4.537,0-3.151,1.764-4.61,3.619-4.61C829.144,772.818,830.387,774.691,830.387,777.355Zm-4.412.02c0,1.529.234,2.5.9,2.5.576,0,.756-1.242.756-2.5,0-1.172-.18-2.467-.792-2.467C826.138,774.908,825.975,776.2,825.975,777.375Z"/>
      <path id="Trazado_50128" data-name="Trazado 50128" d="M831.626,775.789c0-.935-.036-1.926-.071-2.826h2.394l.144,1.008h.036a2.65,2.65,0,0,1,2.2-1.153c1.872,0,2.448,1.532,2.448,3.44v5.564h-2.791v-5.474c0-.612-.162-1.188-.719-1.188a.772.772,0,0,0-.7.522,2.207,2.207,0,0,0-.144.828v5.312h-2.791Z"/>
      <path id="Trazado_58241" data-name="Trazado 58241" d="M831.626,775.789c0-.935-.036-4.926-.071-5.826h2.394l.144,4.008h.036a2.65,2.65,0,0,1,2.2-1.153c1.872,0,2.448,1.532,2.448,3.44v5.564h-2.791v-5.474c0-.612-.162-1.188-.719-1.188a.772.772,0,0,0-.7.522,2.207,2.207,0,0,0-.144.828v5.312h-2.791Z" transform="translate(-41)"/>
      <path id="Trazado_50129" data-name="Trazado 50129" d="M843.543,770.568v2.4h1.746v1.945h-1.746v3.53c0,.97.431,1.205.882,1.205a4.049,4.049,0,0,0,.648-.053v2.178a7.189,7.189,0,0,1-1.621.162,2.729,2.729,0,0,1-1.855-.576,3.254,3.254,0,0,1-.845-2.665v-3.781h-1.027v-1.945h1.027v-1.584Z"/>
      <path id="Trazado_50130" data-name="Trazado 50130" d="M852.85,779.787a12.138,12.138,0,0,0,.144,2.035H850.51l-.145-.847h-.035a2.464,2.464,0,0,1-2.035.99,2.53,2.53,0,0,1-2.431-2.754c0-2.377,2.161-3.313,4.159-3.33v-.162c0-.487-.45-.865-1.17-.865a3.6,3.6,0,0,0-1.945.541l-.485-1.856a6.737,6.737,0,0,1,3.042-.721c3.079,0,3.385,2.2,3.385,3.909Zm-2.737-2.16c-.809.018-1.639.342-1.639,1.277,0,.756.451,1.045.757,1.045a.867.867,0,0,0,.828-.521,1,1,0,0,0,.054-.362Z"/>
      <path id="Trazado_50131" data-name="Trazado 50131" d="M854.377,769.361h2.791v12.461h-2.791Z"/>
    </g>
    <g id="Grupo_23960" data-name="Grupo 23960">
      <path id="Trazado_50132" data-name="Trazado 50132" d="M817.957,883.133H815.31v2.736h2.971v2.414h-5.762V876.146h5.563v2.415H815.31v2.267h2.647Z"/>
      <path id="Trazado_50133" data-name="Trazado 50133" d="M825.967,888.121a5.192,5.192,0,0,1-1.856.27c-3.42,0-4.806-2.827-4.806-5.979,0-4.482,2.611-6.373,5.15-6.373a3.637,3.637,0,0,1,1.709.324l-.432,2.34a2.309,2.309,0,0,0-1.045-.232c-1.367,0-2.429,1.115-2.429,3.816,0,2.539.99,3.637,2.394,3.637a4.978,4.978,0,0,0,1.08-.145Z"/>
      <path id="Trazado_50134" data-name="Trazado 50134" d="M829.691,885.889l-.414,2.394h-2.7l2.574-12.137h3.387l2.215,12.137h-2.7l-.4-2.394Zm1.746-2.143-.3-2.3c-.092-.685-.254-2-.362-2.755h-.035c-.127.755-.306,2.107-.414,2.755l-.361,2.3Z"/>
    </g>
    <g id="Grupo_23961" data-name="Grupo 23961">
      <path id="Trazado_50135" data-name="Trazado 50135" d="M679.4,990.465c-.055-.971-.127-2.43-.109-3.709h-.035c-.2,1.279-.522,2.791-.684,3.529l-.865,3.746H675.7l-.828-3.746c-.162-.738-.469-2.25-.631-3.529H674.2c-.055,1.279-.145,2.738-.2,3.709l-.2,3.818h-2.36l.936-12.137H675.3l.773,3.891c.307,1.512.613,2.916.811,4.285h.037c.162-1.334.431-2.791.719-4.285l.775-3.891h2.9l.756,12.137H679.6Z"/>
      <path id="Trazado_50136" data-name="Trazado 50136" d="M685.846,991.006c.037.81.72,1.3,1.783,1.3a6.055,6.055,0,0,0,1.783-.289l.342,1.98a8.4,8.4,0,0,1-2.629.4c-2.539,0-3.961-1.532-3.961-4.321,0-3.025,1.691-4.791,3.781-4.791,1.944,0,3.223,1.334,3.223,4.3a7.593,7.593,0,0,1-.09,1.422Zm1.818-1.926c0-.865-.143-1.8-.863-1.8-.7,0-.955,1.043-.955,1.8Z"/>
      <path id="Trazado_50137" data-name="Trazado 50137" d="M694.685,983.029v2.4h1.746v1.945h-1.746V990.9c0,.971.432,1.206.881,1.206a4.062,4.062,0,0,0,.649-.053v2.178a7.19,7.19,0,0,1-1.621.162,2.72,2.72,0,0,1-1.854-.577,3.247,3.247,0,0,1-.846-2.664v-3.781h-1.027v-1.945h1.027V983.84Z"/>
      <path id="Trazado_50138" data-name="Trazado 50138" d="M704.279,989.816c0,3.8-2.232,4.61-3.564,4.61-2.342,0-3.6-1.764-3.6-4.537,0-3.151,1.766-4.61,3.619-4.61C703.037,985.279,704.279,987.152,704.279,989.816Zm-4.41.02c0,1.529.232,2.5.9,2.5.577,0,.756-1.242.756-2.5,0-1.172-.179-2.467-.793-2.467C700.031,987.369,699.869,988.664,699.869,989.836Z"/>
      <path id="Trazado_50139" data-name="Trazado 50139" d="M712.416,981.822v9.633c0,.938.035,1.891.072,2.828h-2.394l-.145-.955h-.037a2.164,2.164,0,0,1-1.836,1.1c-2.053,0-2.826-2.285-2.826-4.555,0-3.06,1.367-4.592,2.916-4.592a1.461,1.461,0,0,1,1.441.828h.035v-4.285Zm-2.774,7.024a2.36,2.36,0,0,0-.035-.487c-.09-.379-.252-.738-.648-.738-.686,0-.955,1.025-.955,2.322,0,1.6.451,2.215.955,2.215a.614.614,0,0,0,.594-.451,1.388,1.388,0,0,0,.089-.539Z"/>
      <path id="Trazado_50140" data-name="Trazado 50140" d="M720.84,989.816c0,3.8-2.233,4.61-3.567,4.61-2.34,0-3.6-1.764-3.6-4.537,0-3.151,1.763-4.61,3.619-4.61C719.6,985.279,720.84,987.152,720.84,989.816Zm-4.412.02c0,1.529.234,2.5.9,2.5.576,0,.756-1.242.756-2.5,0-1.172-.18-2.467-.791-2.467C716.59,987.369,716.428,988.664,716.428,989.836Z"/>
      <path id="Trazado_50141" data-name="Trazado 50141" d="M722.078,981.822h2.791v12.461h-2.791Z"/>
      <path id="Trazado_50142" data-name="Trazado 50142" d="M733.277,989.816c0,3.8-2.232,4.61-3.566,4.61-2.34,0-3.6-1.764-3.6-4.537,0-3.151,1.764-4.61,3.619-4.61C732.035,985.279,733.277,987.152,733.277,989.816Zm-4.412.02c0,1.529.234,2.5.9,2.5.577,0,.756-1.242.756-2.5,0-1.172-.179-2.467-.791-2.467C729.027,987.369,728.865,988.664,728.865,989.836Z"/>
      <path id="Trazado_50143" data-name="Trazado 50143" d="M741.449,993.346a4.532,4.532,0,0,1-1.152,3.547,4.4,4.4,0,0,1-3.1.99,6.046,6.046,0,0,1-2.324-.414l.486-2.123a4.089,4.089,0,0,0,1.711.359c1.225,0,1.6-.828,1.6-1.908v-.379h-.036a1.8,1.8,0,0,1-1.548.793c-2.161,0-2.827-2.342-2.827-4.25,0-2.809,1.278-4.682,3.061-4.682a1.773,1.773,0,0,1,1.621,1.01h.035l.145-.865h2.412c-.053.9-.09,1.89-.09,2.826Zm-2.773-4.61a2.19,2.19,0,0,0-.108-.648.6.6,0,0,0-.539-.467c-.775,0-1.027,1.063-1.027,2.287,0,1.385.361,2.143.972,2.143a.651.651,0,0,0,.577-.379,1.452,1.452,0,0,0,.125-.649Z"/>
      <path id="Trazado_50144" data-name="Trazado 50144" d="M742.939,994.283v-8.859h2.791v8.859Zm4.033-12.461-1.781,2.557h-1.728l1.17-2.557Z"/>
      <path id="Trazado_50145" data-name="Trazado 50145" d="M753.762,992.248a12.147,12.147,0,0,0,.142,2.035H751.42l-.145-.847h-.035a2.46,2.46,0,0,1-2.035.99,2.53,2.53,0,0,1-2.43-2.754c0-2.377,2.16-3.313,4.158-3.33v-.162c0-.487-.449-.866-1.169-.866a3.614,3.614,0,0,0-1.946.541L747.334,986a6.734,6.734,0,0,1,3.043-.721c3.078,0,3.385,2.2,3.385,3.909Zm-2.739-2.16c-.808.017-1.638.342-1.638,1.277,0,.756.451,1.045.757,1.045a.869.869,0,0,0,.829-.521,1.048,1.048,0,0,0,.052-.362Z"/>
      <path id="Trazado_50146" data-name="Trazado 50146" d="M686.576,1003.424l.484,3.529c.127.863.235,1.656.362,2.611h.035c.109-.972.217-1.71.342-2.611l.506-3.529h2.736l-2.4,8.859H686.07l-2.467-8.859Z"/>
      <path id="Trazado_50147" data-name="Trazado 50147" d="M694.566,1001.064a1.371,1.371,0,0,1-1.4,1.442,1.451,1.451,0,1,1,1.4-1.442Zm-2.736,11.219v-8.859h2.791v8.859Z"/>
      <path id="Trazado_50148" data-name="Trazado 50148" d="M698.365,1003.424l.486,3.529c.127.863.235,1.656.36,2.611h.037c.107-.972.215-1.71.342-2.611l.5-3.529h2.736l-2.4,8.859h-2.574l-2.467-8.859Z"/>
      <path id="Trazado_50149" data-name="Trazado 50149" d="M705.764,1009.006c.035.81.72,1.3,1.781,1.3a6.044,6.044,0,0,0,1.783-.289l.342,1.98a8.393,8.393,0,0,1-2.629.4c-2.539,0-3.961-1.532-3.961-4.321,0-3.025,1.693-4.791,3.781-4.791,1.945,0,3.223,1.334,3.223,4.3a7.418,7.418,0,0,1-.09,1.422Zm1.818-1.926c0-.865-.145-1.8-.865-1.8-.7,0-.953,1.043-.953,1.8Z"/>
      <path id="Trazado_50150" data-name="Trazado 50150" d="M711.342,1006.25c0-.936-.036-1.926-.073-2.826h2.4l.144,1.008h.036a2.649,2.649,0,0,1,2.2-1.153c1.873,0,2.449,1.532,2.449,3.44v5.564H715.7v-5.474c0-.612-.162-1.188-.721-1.188a.771.771,0,0,0-.7.522,2.207,2.207,0,0,0-.144.828v5.312h-2.791Z"/>
      <path id="Trazado_50151" data-name="Trazado 50151" d="M725.168,1012.156a4.7,4.7,0,0,1-1.531.235c-2.377,0-3.907-1.549-3.907-4.43,0-2.826,1.746-4.645,4.3-4.645a3.812,3.812,0,0,1,1.314.215l-.324,2.162a2.954,2.954,0,0,0-.828-.127c-1.027,0-1.711.829-1.711,2.288,0,1.4.631,2.287,1.656,2.287a1.961,1.961,0,0,0,.829-.162Z"/>
      <path id="Trazado_50152" data-name="Trazado 50152" d="M728.713,1001.064a1.374,1.374,0,0,1-1.405,1.442,1.451,1.451,0,1,1,1.405-1.442Zm-2.739,11.219v-8.859h2.791v8.859Z"/>
      <path id="Trazado_50153" data-name="Trazado 50153" d="M736.795,1010.248a12.131,12.131,0,0,0,.144,2.035h-2.484l-.145-.847h-.035a2.465,2.465,0,0,1-2.035.99,2.532,2.532,0,0,1-2.432-2.754c0-2.377,2.163-3.313,4.161-3.33v-.162c0-.487-.452-.866-1.17-.866a3.611,3.611,0,0,0-1.946.541l-.486-1.855a6.741,6.741,0,0,1,3.043-.721c3.078,0,3.385,2.2,3.385,3.909Zm-2.737-2.16c-.81.017-1.638.342-1.638,1.277,0,.756.449,1.045.756,1.045a.866.866,0,0,0,.828-.521,1,1,0,0,0,.054-.362Z"/>
      <path id="Trazado_50154" data-name="Trazado 50154" d="M738.322,999.822h2.791v12.461h-2.791Z"/>
    </g>
    <g id="Grupo_23962" data-name="Grupo 23962">
      <path id="Trazado_50155" data-name="Trazado 50155" d="M574.83,1204.326a14.116,14.116,0,0,1,2.629-.232,4.972,4.972,0,0,1,3.6,1.152c1.08.99,1.549,2.609,1.549,4.879,0,2.322-.613,4.158-1.783,5.148a5.612,5.612,0,0,1-3.871,1.118,19.076,19.076,0,0,1-2.125-.145Zm2.773,9.76a1.267,1.267,0,0,0,.379.035c.971,0,1.746-1.115,1.746-4.123,0-2.25-.523-3.689-1.728-3.689a1,1,0,0,0-.4.052Z" fill="#fff"/>
      <path id="Trazado_50156" data-name="Trazado 50156" d="M586.17,1213.006c.037.81.72,1.3,1.783,1.3a6.059,6.059,0,0,0,1.783-.289l.342,1.98a8.388,8.388,0,0,1-2.629.4c-2.539,0-3.961-1.532-3.961-4.321,0-3.025,1.692-4.791,3.781-4.791,1.944,0,3.223,1.334,3.223,4.3a7.589,7.589,0,0,1-.09,1.422Zm1.818-1.926c0-.865-.142-1.8-.863-1.8-.7,0-.955,1.043-.955,1.8Z" fill="#fff"/>
      <path id="Trazado_50157" data-name="Trazado 50157" d="M591.75,1213.869a3.663,3.663,0,0,0,1.674.469c.523,0,.81-.18.81-.576,0-.377-.269-.576-.99-.973a2.794,2.794,0,0,1-1.8-2.557,2.89,2.89,0,0,1,3.115-2.953,4.5,4.5,0,0,1,1.891.4l-.432,2.017a2.708,2.708,0,0,0-1.261-.341c-.539,0-.774.269-.774.593,0,.305.2.487,1.008.936a2.867,2.867,0,0,1,1.766,2.646c0,1.838-1.332,2.864-3.332,2.864a4.214,4.214,0,0,1-2.125-.5Z" fill="#fff"/>
      <path id="Trazado_50158" data-name="Trazado 50158" d="M604.369,1214.248a12.03,12.03,0,0,0,.145,2.035h-2.485l-.144-.847h-.036a2.465,2.465,0,0,1-2.035.99,2.531,2.531,0,0,1-2.431-2.754c0-2.377,2.162-3.313,4.16-3.33v-.162c0-.487-.451-.866-1.17-.866a3.6,3.6,0,0,0-1.945.541l-.487-1.855a6.742,6.742,0,0,1,3.043-.721c3.078,0,3.385,2.2,3.385,3.909Zm-2.736-2.16c-.811.017-1.639.342-1.639,1.277,0,.756.449,1.045.756,1.045a.867.867,0,0,0,.828-.521,1,1,0,0,0,.055-.362Z" fill="#fff"/>
      <path id="Trazado_50159" data-name="Trazado 50159" d="M605.9,1210.25c0-.936-.035-1.926-.07-2.826h2.4l.142,1.26h.072a2.02,2.02,0,0,1,1.711-1.4,2.494,2.494,0,0,1,.594.055v2.736a3.188,3.188,0,0,0-.611-.035,1.389,1.389,0,0,0-1.315,1.008,2.775,2.775,0,0,0-.127.918v4.322H605.9Z" fill="#fff"/>
      <path id="Trazado_50160" data-name="Trazado 50160" d="M611.549,1210.25c0-.936-.035-1.926-.071-2.826h2.395l.142,1.26h.073a2.017,2.017,0,0,1,1.711-1.4,2.486,2.486,0,0,1,.593.055v2.736a3.183,3.183,0,0,0-.611-.035,1.388,1.388,0,0,0-1.314,1.008,2.749,2.749,0,0,0-.127.918v4.322h-2.791Z" fill="#fff"/>
      <path id="Trazado_50161" data-name="Trazado 50161" d="M624.1,1211.816c0,3.8-2.232,4.61-3.566,4.61-2.34,0-3.6-1.764-3.6-4.537,0-3.151,1.764-4.61,3.62-4.61C622.855,1207.279,624.1,1209.152,624.1,1211.816Zm-4.412.02c0,1.529.235,2.5.9,2.5.576,0,.756-1.242.756-2.5,0-1.172-.18-2.467-.791-2.467C619.847,1209.369,619.685,1210.664,619.685,1211.836Z" fill="#fff"/>
      <path id="Trazado_50162" data-name="Trazado 50162" d="M625.338,1203.822h2.791v12.461h-2.791Z" fill="#fff"/>
      <path id="Trazado_50163" data-name="Trazado 50163" d="M629.639,1203.822h2.791v12.461h-2.791Z" fill="#fff"/>
      <path id="Trazado_50164" data-name="Trazado 50164" d="M640.838,1211.816c0,3.8-2.233,4.61-3.567,4.61-2.34,0-3.6-1.764-3.6-4.537,0-3.151,1.763-4.61,3.619-4.61C639.6,1207.279,640.838,1209.152,640.838,1211.816Zm-4.412.02c0,1.529.234,2.5.9,2.5.576,0,.756-1.242.756-2.5,0-1.172-.18-2.467-.791-2.467C636.588,1209.369,636.426,1210.664,636.426,1211.836Z" fill="#fff"/>
      <path id="Trazado_50165" data-name="Trazado 50165" d="M651.853,1203.822v9.633c0,.938.036,1.891.073,2.828h-2.4l-.144-.955h-.038a2.163,2.163,0,0,1-1.835,1.1c-2.053,0-2.827-2.285-2.827-4.555,0-3.06,1.368-4.592,2.916-4.592a1.464,1.464,0,0,1,1.442.828h.035v-4.285Zm-2.773,7.024a2.36,2.36,0,0,0-.035-.487c-.09-.379-.252-.738-.649-.738-.685,0-.955,1.025-.955,2.322,0,1.6.451,2.215.955,2.215a.614.614,0,0,0,.594-.451,1.368,1.368,0,0,0,.09-.539Z" fill="#fff"/>
      <path id="Trazado_50166" data-name="Trazado 50166" d="M655.793,1213.006c.037.81.721,1.3,1.783,1.3a6.059,6.059,0,0,0,1.783-.289l.342,1.98a8.388,8.388,0,0,1-2.629.4c-2.539,0-3.961-1.532-3.961-4.321,0-3.025,1.692-4.791,3.781-4.791,1.944,0,3.223,1.334,3.223,4.3a7.6,7.6,0,0,1-.09,1.422Zm1.818-1.926c0-.865-.142-1.8-.863-1.8-.7,0-.955,1.043-.955,1.8Z" fill="#fff"/>
      <path id="Trazado_50167" data-name="Trazado 50167" d="M669.42,1216.156a4.7,4.7,0,0,1-1.531.235c-2.377,0-3.907-1.549-3.907-4.43,0-2.826,1.746-4.645,4.3-4.645a3.814,3.814,0,0,1,1.314.215l-.324,2.162a2.963,2.963,0,0,0-.828-.127c-1.027,0-1.711.829-1.711,2.288,0,1.4.631,2.287,1.656,2.287a1.96,1.96,0,0,0,.829-.162Z" fill="#fff"/>
      <path id="Trazado_50168" data-name="Trazado 50168" d="M677.125,1211.816c0,3.8-2.233,4.61-3.567,4.61-2.339,0-3.6-1.764-3.6-4.537,0-3.151,1.763-4.61,3.619-4.61C675.883,1207.279,677.125,1209.152,677.125,1211.816Zm-4.412.02c0,1.529.234,2.5.9,2.5.576,0,.756-1.242.756-2.5,0-1.172-.18-2.467-.791-2.467C672.875,1209.369,672.713,1210.664,672.713,1211.836Z" fill="#fff"/>
      <path id="Trazado_50169" data-name="Trazado 50169" d="M678.363,1210.25c0-.936-.035-1.926-.07-2.826h2.394l.143,1.008h.037a2.646,2.646,0,0,1,2.2-1.153c1.871,0,2.448,1.532,2.448,3.44v5.564h-2.791v-5.474c0-.612-.163-1.188-.719-1.188a.772.772,0,0,0-.7.522,2.183,2.183,0,0,0-.145.828v5.312h-2.791Z" fill="#fff"/>
      <path id="Trazado_50170" data-name="Trazado 50170" d="M693.918,1211.816c0,3.8-2.233,4.61-3.567,4.61-2.339,0-3.6-1.764-3.6-4.537,0-3.151,1.763-4.61,3.619-4.61C692.676,1207.279,693.918,1209.152,693.918,1211.816Zm-4.412.02c0,1.529.234,2.5.9,2.5.576,0,.756-1.242.756-2.5,0-1.172-.18-2.467-.791-2.467C689.668,1209.369,689.506,1210.664,689.506,1211.836Z" fill="#fff"/>
      <path id="Trazado_50171" data-name="Trazado 50171" d="M700.326,1216.156a4.7,4.7,0,0,1-1.531.235c-2.377,0-3.906-1.549-3.906-4.43,0-2.826,1.746-4.645,4.3-4.645a3.826,3.826,0,0,1,1.315.215l-.325,2.162a2.957,2.957,0,0,0-.828-.127c-1.027,0-1.711.829-1.711,2.288,0,1.4.631,2.287,1.657,2.287a1.959,1.959,0,0,0,.828-.162Z" fill="#fff"/>
      <path id="Trazado_50172" data-name="Trazado 50172" d="M703.871,1205.064a1.372,1.372,0,0,1-1.4,1.442,1.451,1.451,0,1,1,1.4-1.442Zm-2.738,11.219v-8.859h2.791v8.859Z" fill="#fff"/>
      <path id="Trazado_50173" data-name="Trazado 50173" d="M705.435,1210.25c0-.936-.035-1.926-.072-2.826h2.412l.145,1.008h.037a2.8,2.8,0,0,1,2.16-1.153,1.952,1.952,0,0,1,1.963,1.153h.035a3.253,3.253,0,0,1,.918-.846,2.607,2.607,0,0,1,1.242-.307c1.748,0,2.36,1.424,2.36,3.494v5.51h-2.774V1211.2c0-.935-.09-1.621-.648-1.621a.752.752,0,0,0-.719.576,1.861,1.861,0,0,0-.072.559v5.564h-2.774v-5.437c0-.5-.017-1.262-.631-1.262a.78.78,0,0,0-.7.523,1.8,1.8,0,0,0-.107.629v5.547h-2.774Z" fill="#fff"/>
      <path id="Trazado_50174" data-name="Trazado 50174" d="M720.881,1205.064a1.374,1.374,0,0,1-1.4,1.442,1.451,1.451,0,1,1,1.4-1.442Zm-2.739,11.219v-8.859h2.791v8.859Z" fill="#fff"/>
      <path id="Trazado_50175" data-name="Trazado 50175" d="M724.857,1213.006c.037.81.721,1.3,1.783,1.3a6.061,6.061,0,0,0,1.784-.289l.341,1.98a8.386,8.386,0,0,1-2.628.4c-2.54,0-3.961-1.532-3.961-4.321,0-3.025,1.691-4.791,3.781-4.791,1.943,0,3.223,1.334,3.223,4.3a7.685,7.685,0,0,1-.09,1.422Zm1.819-1.926c0-.865-.143-1.8-.864-1.8-.7,0-.955,1.043-.955,1.8Z" fill="#fff"/>
      <path id="Trazado_50176" data-name="Trazado 50176" d="M730.437,1210.25c0-.936-.035-1.926-.072-2.826h2.4l.144,1.008h.035a2.652,2.652,0,0,1,2.2-1.153c1.873,0,2.449,1.532,2.449,3.44v5.564h-2.791v-5.474c0-.612-.162-1.188-.721-1.188a.77.77,0,0,0-.7.522,2.2,2.2,0,0,0-.145.828v5.312h-2.791Z" fill="#fff"/>
      <path id="Trazado_50177" data-name="Trazado 50177" d="M742.353,1205.029v2.395H744.1v1.945h-1.746v3.529c0,.971.432,1.206.883,1.206a4.054,4.054,0,0,0,.649-.053v2.178a7.217,7.217,0,0,1-1.621.162,2.725,2.725,0,0,1-1.856-.577,3.253,3.253,0,0,1-.846-2.664v-3.781h-1.025v-1.945h1.025v-1.584Z" fill="#fff"/>
      <path id="Trazado_50178" data-name="Trazado 50178" d="M751.949,1211.816c0,3.8-2.232,4.61-3.566,4.61-2.34,0-3.6-1.764-3.6-4.537,0-3.151,1.764-4.61,3.619-4.61C750.707,1207.279,751.949,1209.152,751.949,1211.816Zm-4.412.02c0,1.529.234,2.5.9,2.5.577,0,.756-1.242.756-2.5,0-1.172-.179-2.467-.791-2.467C747.7,1209.369,747.537,1210.664,747.537,1211.836Z" fill="#fff"/>
      <path id="Trazado_50179" data-name="Trazado 50179" d="M753.187,1213.869a3.679,3.679,0,0,0,1.676.469c.522,0,.811-.18.811-.576,0-.377-.272-.576-.991-.973a2.793,2.793,0,0,1-1.8-2.557,2.89,2.89,0,0,1,3.115-2.953,4.513,4.513,0,0,1,1.891.4l-.434,2.017a2.707,2.707,0,0,0-1.26-.341c-.541,0-.773.269-.773.593,0,.305.2.487,1.008.936a2.868,2.868,0,0,1,1.763,2.646c0,1.838-1.332,2.864-3.33,2.864a4.206,4.206,0,0,1-2.125-.5Z" fill="#fff"/>
      <path id="Trazado_50180" data-name="Trazado 50180" d="M764.439,1207.424l.739,4.412c.072.449.144.881.2,1.332h.037c.053-.432.09-.865.144-1.3l.594-4.447h2.719l-1.963,7.328a10.146,10.146,0,0,1-1.873,4,4.711,4.711,0,0,1-2.2,1.422l-.793-2.412a3.6,3.6,0,0,0,1.135-.576,2.412,2.412,0,0,0,.718-.866.714.714,0,0,0,.127-.359,1.011,1.011,0,0,0-.072-.324l-2.522-8.211Z" fill="#fff"/>
      <path id="Trazado_50181" data-name="Trazado 50181" d="M779.326,1203.822v9.633c0,.938.035,1.891.072,2.828H777l-.145-.955h-.037a2.164,2.164,0,0,1-1.836,1.1c-2.053,0-2.826-2.285-2.826-4.555,0-3.06,1.367-4.592,2.916-4.592a1.461,1.461,0,0,1,1.441.828h.036v-4.285Zm-2.773,7.024a2.3,2.3,0,0,0-.036-.487c-.089-.379-.252-.738-.648-.738-.686,0-.955,1.025-.955,2.322,0,1.6.451,2.215.955,2.215a.614.614,0,0,0,.594-.451,1.386,1.386,0,0,0,.09-.539Z" fill="#fff"/>
      <path id="Trazado_50182" data-name="Trazado 50182" d="M783.265,1213.006c.038.81.721,1.3,1.784,1.3a6.059,6.059,0,0,0,1.783-.289l.342,1.98a8.4,8.4,0,0,1-2.629.4c-2.539,0-3.961-1.532-3.961-4.321,0-3.025,1.691-4.791,3.781-4.791,1.943,0,3.223,1.334,3.223,4.3a7.589,7.589,0,0,1-.09,1.422Zm1.819-1.926c0-.865-.143-1.8-.863-1.8-.7,0-.956,1.043-.956,1.8Z" fill="#fff"/>
      <path id="Trazado_50183" data-name="Trazado 50183" d="M788.846,1213.869a3.662,3.662,0,0,0,1.673.469c.524,0,.811-.18.811-.576,0-.377-.27-.576-.99-.973a2.792,2.792,0,0,1-1.8-2.557,2.89,2.89,0,0,1,3.115-2.953,4.506,4.506,0,0,1,1.891.4l-.432,2.017a2.712,2.712,0,0,0-1.262-.341c-.539,0-.773.269-.773.593,0,.305.2.487,1.008.936a2.865,2.865,0,0,1,1.765,2.646c0,1.838-1.332,2.864-3.332,2.864a4.217,4.217,0,0,1-2.125-.5Z" fill="#fff"/>
      <path id="Trazado_50184" data-name="Trazado 50184" d="M798.207,1205.029v2.395h1.746v1.945h-1.746v3.529c0,.971.432,1.206.881,1.206a4.042,4.042,0,0,0,.648-.053v2.178a7.176,7.176,0,0,1-1.621.162,2.717,2.717,0,0,1-1.853-.577,3.247,3.247,0,0,1-.846-2.664v-3.781h-1.027v-1.945h1.027v-1.584Z" fill="#fff"/>
      <path id="Trazado_50185" data-name="Trazado 50185" d="M800.994,1210.25c0-.936-.035-1.926-.07-2.826h2.394l.143,1.26h.072a2.019,2.019,0,0,1,1.711-1.4,2.494,2.494,0,0,1,.594.055v2.736a3.2,3.2,0,0,0-.612-.035,1.388,1.388,0,0,0-1.314,1.008,2.776,2.776,0,0,0-.127.918v4.322h-2.791Z" fill="#fff"/>
      <path id="Trazado_50186" data-name="Trazado 50186" d="M809.06,1213.006c.036.81.721,1.3,1.782,1.3a6.048,6.048,0,0,0,1.783-.289l.342,1.98a8.4,8.4,0,0,1-2.629.4c-2.539,0-3.961-1.532-3.961-4.321,0-3.025,1.693-4.791,3.781-4.791,1.945,0,3.223,1.334,3.223,4.3a7.419,7.419,0,0,1-.09,1.422Zm1.819-1.926c0-.865-.145-1.8-.865-1.8-.7,0-.954,1.043-.954,1.8Z" fill="#fff"/>
      <path id="Trazado_50187" data-name="Trazado 50187" d="M814.135,1214.537l1.908-3.3c.306-.521.721-1.152.883-1.494v-.053h-2.557v-2.269h5.562v1.908l-1.835,3.115c-.325.559-.7,1.17-.9,1.514v.053h2.863v2.269h-5.923Z" fill="#fff"/>
      <path id="Trazado_50188" data-name="Trazado 50188" d="M827.674,1214.248a12.145,12.145,0,0,0,.142,2.035h-2.484l-.145-.847h-.035a2.46,2.46,0,0,1-2.035.99,2.53,2.53,0,0,1-2.43-2.754c0-2.377,2.16-3.313,4.159-3.33v-.162c0-.487-.45-.866-1.17-.866a3.613,3.613,0,0,0-1.946.541l-.484-1.855a6.734,6.734,0,0,1,3.043-.721c3.078,0,3.385,2.2,3.385,3.909Zm-2.739-2.16c-.808.017-1.638.342-1.638,1.277,0,.756.451,1.045.758,1.045a.868.868,0,0,0,.828-.521,1.047,1.047,0,0,0,.052-.362Z" fill="#fff"/>
      <path id="Trazado_50189" data-name="Trazado 50189" d="M829.2,1213.869a3.667,3.667,0,0,0,1.674.469c.523,0,.81-.18.81-.576,0-.377-.269-.576-.99-.973a2.794,2.794,0,0,1-1.8-2.557,2.891,2.891,0,0,1,3.116-2.953,4.5,4.5,0,0,1,1.89.4l-.431,2.017a2.715,2.715,0,0,0-1.262-.341c-.539,0-.774.269-.774.593,0,.305.2.487,1.008.936a2.867,2.867,0,0,1,1.766,2.646c0,1.838-1.332,2.864-3.332,2.864a4.214,4.214,0,0,1-2.125-.5Z" fill="#fff"/>
      <path id="Trazado_50190" data-name="Trazado 50190" d="M838.181,1210.25c0-.936-.035-1.891-.07-2.826h2.395l.142.99h.037a2.053,2.053,0,0,1,1.854-1.135c2.107,0,2.81,2.325,2.81,4.575,0,3.1-1.386,4.572-2.935,4.572a1.753,1.753,0,0,1-1.422-.791h-.037v4.1h-2.774Zm2.774,2.811a1.724,1.724,0,0,0,.144.755.618.618,0,0,0,.54.342c.685,0,.955-1.062.955-2.287,0-1.621-.4-2.25-.918-2.25a.641.641,0,0,0-.594.4,1.324,1.324,0,0,0-.127.611Z" fill="#fff"/>
      <path id="Trazado_50191" data-name="Trazado 50191" d="M853.125,1214.248a12.138,12.138,0,0,0,.142,2.035h-2.484l-.144-.847H850.6a2.46,2.46,0,0,1-2.035.99,2.529,2.529,0,0,1-2.429-2.754c0-2.377,2.16-3.313,4.158-3.33v-.162c0-.487-.45-.866-1.17-.866a3.615,3.615,0,0,0-1.946.541L846.7,1208a6.734,6.734,0,0,1,3.043-.721c3.078,0,3.385,2.2,3.385,3.909Zm-2.738-2.16c-.809.017-1.639.342-1.639,1.277,0,.756.451,1.045.758,1.045a.868.868,0,0,0,.828-.521,1.045,1.045,0,0,0,.053-.362Z" fill="#fff"/>
      <path id="Trazado_50192" data-name="Trazado 50192" d="M854.652,1210.25c0-.936-.035-1.926-.072-2.826h2.394l.145,1.26h.072a2.017,2.017,0,0,1,1.711-1.4,2.506,2.506,0,0,1,.594.055v2.736a3.21,3.21,0,0,0-.613-.035,1.389,1.389,0,0,0-1.315,1.008,2.84,2.84,0,0,0-.125.918v4.322h-2.791Z" fill="#fff"/>
      <path id="Trazado_50193" data-name="Trazado 50193" d="M866.822,1214.248a12.032,12.032,0,0,0,.143,2.035H864.48l-.144-.847H864.3a2.463,2.463,0,0,1-2.036.99,2.529,2.529,0,0,1-2.429-2.754c0-2.377,2.16-3.313,4.158-3.33v-.162c0-.487-.449-.866-1.17-.866a3.612,3.612,0,0,0-1.945.541l-.485-1.855a6.738,6.738,0,0,1,3.043-.721c3.078,0,3.385,2.2,3.385,3.909Zm-2.738-2.16c-.809.017-1.639.342-1.639,1.277,0,.756.451,1.045.758,1.045a.868.868,0,0,0,.828-.521,1.046,1.046,0,0,0,.053-.362Z" fill="#fff"/>
      <path id="Trazado_50194" data-name="Trazado 50194" d="M873.642,1213.006c.036.81.721,1.3,1.782,1.3a6.047,6.047,0,0,0,1.783-.289l.342,1.98a8.4,8.4,0,0,1-2.629.4c-2.539,0-3.961-1.532-3.961-4.321,0-3.025,1.693-4.791,3.781-4.791,1.945,0,3.223,1.334,3.223,4.3a7.417,7.417,0,0,1-.09,1.422Zm1.819-1.926c0-.865-.145-1.8-.865-1.8-.7,0-.954,1.043-.954,1.8Z" fill="#fff"/>
      <path id="Trazado_50195" data-name="Trazado 50195" d="M879.221,1203.822h2.791v12.461h-2.791Z" fill="#fff"/>
      <path id="Trazado_50196" data-name="Trazado 50196" d="M892.922,1214.248a12.138,12.138,0,0,0,.142,2.035H890.58l-.145-.847H890.4a2.46,2.46,0,0,1-2.035.99,2.53,2.53,0,0,1-2.43-2.754c0-2.377,2.161-3.313,4.159-3.33v-.162c0-.487-.45-.866-1.17-.866a3.615,3.615,0,0,0-1.946.541l-.484-1.855a6.734,6.734,0,0,1,3.043-.721c3.078,0,3.385,2.2,3.385,3.909Zm-2.739-2.16c-.808.017-1.638.342-1.638,1.277,0,.756.451,1.045.758,1.045a.868.868,0,0,0,.828-.521,1.047,1.047,0,0,0,.052-.362Z" fill="#fff"/>
      <path id="Trazado_50197" data-name="Trazado 50197" d="M894.449,1210.25c0-.936-.035-1.926-.072-2.826h2.394l.145,1.008h.035a2.649,2.649,0,0,1,2.2-1.153c1.873,0,2.449,1.532,2.449,3.44v5.564h-2.791v-5.474c0-.612-.162-1.188-.72-1.188a.77.77,0,0,0-.7.522,2.183,2.183,0,0,0-.145.828v5.312h-2.791Z" fill="#fff"/>
      <path id="Trazado_50198" data-name="Trazado 50198" d="M909.625,1214.248a12.138,12.138,0,0,0,.142,2.035h-2.484l-.144-.847H907.1a2.46,2.46,0,0,1-2.035.99,2.529,2.529,0,0,1-2.429-2.754c0-2.377,2.16-3.313,4.158-3.33v-.162c0-.487-.45-.866-1.17-.866a3.615,3.615,0,0,0-1.946.541L903.2,1208a6.734,6.734,0,0,1,3.043-.721c3.078,0,3.385,2.2,3.385,3.909Zm-2.738-2.16c-.809.017-1.639.342-1.639,1.277,0,.756.451,1.045.758,1.045a.868.868,0,0,0,.828-.521,1.045,1.045,0,0,0,.053-.362Zm2.017-8.266-1.783,2.557h-1.729l1.17-2.557Z" fill="#fff"/>
      <path id="Trazado_50199" data-name="Trazado 50199" d="M911.152,1203.822h2.791v12.461h-2.791Z" fill="#fff"/>
      <path id="Trazado_50200" data-name="Trazado 50200" d="M918.191,1205.064a1.372,1.372,0,0,1-1.4,1.442,1.451,1.451,0,1,1,1.4-1.442Zm-2.738,11.219v-8.859h2.791v8.859Z" fill="#fff"/>
      <path id="Trazado_50201" data-name="Trazado 50201" d="M919.756,1213.869a3.671,3.671,0,0,0,1.675.469c.522,0,.811-.18.811-.576,0-.377-.271-.576-.99-.973a2.792,2.792,0,0,1-1.8-2.557,2.89,2.89,0,0,1,3.115-2.953,4.513,4.513,0,0,1,1.891.4l-.434,2.017a2.7,2.7,0,0,0-1.259-.341c-.542,0-.774.269-.774.593,0,.305.2.487,1.008.936a2.868,2.868,0,0,1,1.764,2.646c0,1.838-1.332,2.864-3.331,2.864a4.209,4.209,0,0,1-2.125-.5Z" fill="#fff"/>
      <path id="Trazado_50202" data-name="Trazado 50202" d="M928.6,1205.064a1.374,1.374,0,0,1-1.405,1.442,1.451,1.451,0,1,1,1.405-1.442Zm-2.739,11.219v-8.859h2.791v8.859Z" fill="#fff"/>
      <path id="Trazado_50203" data-name="Trazado 50203" d="M930.16,1213.869a3.663,3.663,0,0,0,1.674.469c.523,0,.81-.18.81-.576,0-.377-.269-.576-.99-.973a2.794,2.794,0,0,1-1.8-2.557,2.891,2.891,0,0,1,3.116-2.953,4.5,4.5,0,0,1,1.89.4l-.431,2.017a2.715,2.715,0,0,0-1.262-.341c-.539,0-.774.269-.774.593,0,.305.2.487,1.008.936a2.867,2.867,0,0,1,1.766,2.646c0,1.838-1.332,2.864-3.332,2.864a4.214,4.214,0,0,1-2.125-.5Z" fill="#fff"/>
      <path id="Trazado_50204" data-name="Trazado 50204" d="M941.41,1207.424l.738,4.412c.073.449.145.881.2,1.332h.037c.052-.432.089-.865.144-1.3l.594-4.447h2.719l-1.963,7.328a10.146,10.146,0,0,1-1.873,4,4.708,4.708,0,0,1-2.2,1.422l-.793-2.412a3.591,3.591,0,0,0,1.135-.576,2.414,2.414,0,0,0,.719-.866.724.724,0,0,0,.127-.359,1.011,1.011,0,0,0-.072-.324l-2.522-8.211Z" fill="#fff"/>
      <path id="Trazado_50205" data-name="Trazado 50205" d="M952.66,1205.029v2.395h1.746v1.945H952.66v3.529c0,.971.432,1.206.883,1.206a4.042,4.042,0,0,0,.648-.053v2.178a7.2,7.2,0,0,1-1.621.162,2.723,2.723,0,0,1-1.855-.577,3.253,3.253,0,0,1-.846-2.664v-3.781h-1.025v-1.945h1.025v-1.584Z" fill="#fff"/>
      <path id="Trazado_50206" data-name="Trazado 50206" d="M962.256,1211.816c0,3.8-2.233,4.61-3.567,4.61-2.34,0-3.6-1.764-3.6-4.537,0-3.151,1.763-4.61,3.619-4.61C961.014,1207.279,962.256,1209.152,962.256,1211.816Zm-4.412.02c0,1.529.234,2.5.9,2.5.576,0,.756-1.242.756-2.5,0-1.172-.18-2.467-.791-2.467C958.006,1209.369,957.844,1210.664,957.844,1211.836Z" fill="#fff"/>
      <path id="Trazado_50207" data-name="Trazado 50207" d="M963.494,1210.25c0-.936-.035-1.926-.07-2.826h2.412l.144,1.008h.035a2.806,2.806,0,0,1,2.161-1.153,1.952,1.952,0,0,1,1.963,1.153h.037a3.174,3.174,0,0,1,.918-.846,2.6,2.6,0,0,1,1.242-.307c1.746,0,2.359,1.424,2.359,3.494v5.51h-2.773V1211.2c0-.935-.09-1.621-.649-1.621a.754.754,0,0,0-.72.576,1.89,1.89,0,0,0-.073.559v5.564h-2.771v-5.437c0-.5-.02-1.262-.631-1.262a.782.782,0,0,0-.7.523,1.822,1.822,0,0,0-.108.629v5.547h-2.773Z" fill="#fff"/>
      <path id="Trazado_50208" data-name="Trazado 50208" d="M982.721,1214.248a12.136,12.136,0,0,0,.144,2.035h-2.484l-.145-.847H980.2a2.465,2.465,0,0,1-2.035.99,2.532,2.532,0,0,1-2.432-2.754c0-2.377,2.162-3.313,4.16-3.33v-.162c0-.487-.451-.866-1.17-.866a3.607,3.607,0,0,0-1.945.541l-.486-1.855a6.741,6.741,0,0,1,3.043-.721c3.078,0,3.385,2.2,3.385,3.909Zm-2.737-2.16c-.81.017-1.638.342-1.638,1.277,0,.756.449,1.045.755,1.045a.869.869,0,0,0,.829-.521,1,1,0,0,0,.054-.362Z" fill="#fff"/>
      <path id="Trazado_50209" data-name="Trazado 50209" d="M994.025,1203.822v9.633c0,.938.035,1.891.072,2.828H991.7l-.145-.955h-.037a2.163,2.163,0,0,1-1.836,1.1c-2.052,0-2.826-2.285-2.826-4.555,0-3.06,1.367-4.592,2.916-4.592a1.464,1.464,0,0,1,1.442.828h.035v-4.285Zm-2.773,7.024a2.36,2.36,0,0,0-.035-.487c-.09-.379-.252-.738-.649-.738-.685,0-.955,1.025-.955,2.322,0,1.6.451,2.215.955,2.215a.614.614,0,0,0,.594-.451,1.368,1.368,0,0,0,.09-.539Z" fill="#fff"/>
      <path id="Trazado_50210" data-name="Trazado 50210" d="M997.965,1213.006c.037.81.72,1.3,1.783,1.3a6.059,6.059,0,0,0,1.783-.289l.342,1.98a8.393,8.393,0,0,1-2.629.4c-2.539,0-3.961-1.532-3.961-4.321,0-3.025,1.691-4.791,3.781-4.791,1.944,0,3.223,1.334,3.223,4.3a7.6,7.6,0,0,1-.09,1.422Zm1.818-1.926c0-.865-.143-1.8-.863-1.8-.7,0-.955,1.043-.955,1.8Z" fill="#fff"/>
      <path id="Trazado_50211" data-name="Trazado 50211" d="M1013.32,1203.822v9.633c0,.938.035,1.891.072,2.828H1011l-.145-.955h-.037a2.164,2.164,0,0,1-1.836,1.1c-2.052,0-2.826-2.285-2.826-4.555,0-3.06,1.367-4.592,2.916-4.592a1.464,1.464,0,0,1,1.442.828h.035v-4.285Zm-2.773,7.024a2.364,2.364,0,0,0-.035-.487c-.09-.379-.252-.738-.649-.738-.685,0-.955,1.025-.955,2.322,0,1.6.451,2.215.955,2.215a.614.614,0,0,0,.594-.451,1.367,1.367,0,0,0,.09-.539Z" fill="#fff"/>
      <path id="Trazado_50212" data-name="Trazado 50212" d="M1017.26,1213.006c.037.81.72,1.3,1.783,1.3a6.059,6.059,0,0,0,1.783-.289l.342,1.98a8.393,8.393,0,0,1-2.629.4c-2.539,0-3.961-1.532-3.961-4.321,0-3.025,1.691-4.791,3.781-4.791,1.944,0,3.223,1.334,3.223,4.3a7.6,7.6,0,0,1-.09,1.422Zm1.818-1.926c0-.865-.143-1.8-.863-1.8-.7,0-.955,1.043-.955,1.8Z" fill="#fff"/>
      <path id="Trazado_50213" data-name="Trazado 50213" d="M1028.008,1216.156a4.7,4.7,0,0,1-1.532.235c-2.377,0-3.906-1.549-3.906-4.43,0-2.826,1.746-4.645,4.3-4.645a3.814,3.814,0,0,1,1.314.215l-.324,2.162a2.963,2.963,0,0,0-.828-.127c-1.027,0-1.711.829-1.711,2.288,0,1.4.631,2.287,1.656,2.287a1.952,1.952,0,0,0,.828-.162Z" fill="#fff"/>
      <path id="Trazado_50214" data-name="Trazado 50214" d="M1031.553,1205.064a1.374,1.374,0,0,1-1.405,1.442,1.451,1.451,0,1,1,1.405-1.442Zm-2.739,11.219v-8.859h2.791v8.859Z" fill="#fff"/>
      <path id="Trazado_50215" data-name="Trazado 50215" d="M1033.117,1213.869a3.667,3.667,0,0,0,1.674.469c.523,0,.81-.18.81-.576,0-.377-.269-.576-.99-.973a2.794,2.794,0,0,1-1.8-2.557,2.891,2.891,0,0,1,3.116-2.953,4.5,4.5,0,0,1,1.89.4l-.431,2.017a2.716,2.716,0,0,0-1.262-.341c-.539,0-.774.269-.774.593,0,.305.2.487,1.008.936a2.867,2.867,0,0,1,1.766,2.646c0,1.838-1.332,2.864-3.332,2.864a4.214,4.214,0,0,1-2.125-.5Z" fill="#fff"/>
      <path id="Trazado_50216" data-name="Trazado 50216" d="M1041.957,1205.064a1.373,1.373,0,0,1-1.4,1.442,1.451,1.451,0,1,1,1.4-1.442Zm-2.738,11.219v-8.859h2.791v8.859Z" fill="#fff"/>
      <path id="Trazado_50217" data-name="Trazado 50217" d="M1050.418,1211.816c0,3.8-2.233,4.61-3.567,4.61-2.339,0-3.6-1.764-3.6-4.537,0-3.151,1.763-4.61,3.619-4.61C1049.176,1207.279,1050.418,1209.152,1050.418,1211.816Zm-4.412.02c0,1.529.234,2.5.9,2.5.576,0,.756-1.242.756-2.5,0-1.172-.18-2.467-.791-2.467C1046.168,1209.369,1046.006,1210.664,1046.006,1211.836Z" fill="#fff"/>
      <path id="Trazado_50218" data-name="Trazado 50218" d="M1051.656,1210.25c0-.936-.035-1.926-.07-2.826h2.394l.143,1.008h.037a2.646,2.646,0,0,1,2.2-1.153c1.871,0,2.448,1.532,2.448,3.44v5.564h-2.791v-5.474c0-.612-.163-1.188-.719-1.188a.772.772,0,0,0-.7.522,2.183,2.183,0,0,0-.145.828v5.312h-2.791Z" fill="#fff"/>
      <path id="Trazado_50219" data-name="Trazado 50219" d="M1062.728,1213.006c.036.81.721,1.3,1.782,1.3a6.047,6.047,0,0,0,1.783-.289l.342,1.98a8.4,8.4,0,0,1-2.629.4c-2.539,0-3.961-1.532-3.961-4.321,0-3.025,1.693-4.791,3.781-4.791,1.945,0,3.223,1.334,3.223,4.3a7.414,7.414,0,0,1-.09,1.422Zm1.819-1.926c0-.865-.145-1.8-.866-1.8-.7,0-.953,1.043-.953,1.8Z" fill="#fff"/>
      <path id="Trazado_50220" data-name="Trazado 50220" d="M1068.306,1213.869a3.67,3.67,0,0,0,1.674.469c.524,0,.811-.18.811-.576,0-.377-.27-.576-.99-.973a2.792,2.792,0,0,1-1.8-2.557,2.89,2.89,0,0,1,3.115-2.953,4.506,4.506,0,0,1,1.891.4l-.432,2.017a2.712,2.712,0,0,0-1.262-.341c-.539,0-.773.269-.773.593,0,.305.2.487,1.008.936a2.866,2.866,0,0,1,1.765,2.646c0,1.838-1.332,2.864-3.332,2.864a4.217,4.217,0,0,1-2.125-.5Z" fill="#fff"/>
    </g>
    <g id="Grupo_23963" data-name="Grupo 23963">
      <path id="Trazado_50221" data-name="Trazado 50221" d="M912.42,982.326a14.727,14.727,0,0,1,2.666-.232,5.071,5.071,0,0,1,3.564.953,3.547,3.547,0,0,1,1.1,2.719,4.207,4.207,0,0,1-1.152,3.115,4.567,4.567,0,0,1-2.989,1.08h-.414v4.322H912.42Zm2.773,5.385a1.962,1.962,0,0,0,.324.018c1.116,0,1.477-.829,1.477-1.711,0-.971-.4-1.692-1.3-1.692a1.376,1.376,0,0,0-.5.09Z"/>
      <path id="Trazado_50222" data-name="Trazado 50222" d="M920.826,988.25c0-.936-.035-1.926-.072-2.826h2.394l.145,1.26h.072a2.017,2.017,0,0,1,1.711-1.405,2.509,2.509,0,0,1,.594.055v2.736a3.21,3.21,0,0,0-.614-.035,1.388,1.388,0,0,0-1.314,1.008,2.84,2.84,0,0,0-.125.918v4.322h-2.791Z"/>
      <path id="Trazado_50223" data-name="Trazado 50223" d="M933.375,989.816c0,3.8-2.233,4.61-3.567,4.61-2.339,0-3.6-1.764-3.6-4.537,0-3.151,1.763-4.61,3.619-4.61C932.133,985.279,933.375,987.152,933.375,989.816Zm-4.412.02c0,1.529.234,2.5.9,2.5.576,0,.756-1.242.756-2.5,0-1.172-.18-2.467-.791-2.467C929.125,987.369,928.963,988.664,928.963,989.836Z"/>
      <path id="Trazado_50224" data-name="Trazado 50224" d="M939.781,994.156a4.684,4.684,0,0,1-1.529.235c-2.377,0-3.908-1.549-3.908-4.43,0-2.826,1.746-4.645,4.3-4.645a3.8,3.8,0,0,1,1.315.215l-.324,2.162a2.956,2.956,0,0,0-.829-.127c-1.025,0-1.709.829-1.709,2.288,0,1.4.629,2.287,1.657,2.287a1.959,1.959,0,0,0,.828-.162Z"/>
      <path id="Trazado_50225" data-name="Trazado 50225" d="M943,991.006c.037.81.72,1.3,1.783,1.3a6.055,6.055,0,0,0,1.783-.289l.342,1.98a8.388,8.388,0,0,1-2.629.4c-2.539,0-3.961-1.532-3.961-4.321,0-3.025,1.692-4.791,3.781-4.791,1.944,0,3.223,1.334,3.223,4.3a7.6,7.6,0,0,1-.09,1.422Zm1.818-1.926c0-.865-.142-1.8-.863-1.8-.7,0-.955,1.043-.955,1.8Z"/>
      <path id="Trazado_50226" data-name="Trazado 50226" d="M948.582,991.869a3.664,3.664,0,0,0,1.674.469c.523,0,.81-.18.81-.576,0-.377-.269-.576-.99-.973a2.794,2.794,0,0,1-1.8-2.557,2.89,2.89,0,0,1,3.115-2.953,4.5,4.5,0,0,1,1.891.4l-.432,2.017a2.709,2.709,0,0,0-1.261-.341c-.539,0-.774.269-.774.593,0,.3.2.487,1.008.936a2.867,2.867,0,0,1,1.766,2.646c0,1.838-1.332,2.864-3.332,2.864a4.215,4.215,0,0,1-2.125-.5Z"/>
      <path id="Trazado_50227" data-name="Trazado 50227" d="M961.58,989.816c0,3.8-2.233,4.61-3.566,4.61-2.34,0-3.6-1.764-3.6-4.537,0-3.151,1.764-4.61,3.619-4.61C960.338,985.279,961.58,987.152,961.58,989.816Zm-4.412.02c0,1.529.234,2.5.9,2.5.576,0,.756-1.242.756-2.5,0-1.172-.18-2.467-.791-2.467C957.33,987.369,957.168,988.664,957.168,989.836Z"/>
      <path id="Trazado_50228" data-name="Trazado 50228" d="M873.269,1006.25c0-.936-.035-1.891-.07-2.826h2.4l.142.99h.037a2.051,2.051,0,0,1,1.854-1.135c2.107,0,2.81,2.325,2.81,4.575,0,3.1-1.386,4.572-2.935,4.572a1.752,1.752,0,0,1-1.422-.791h-.037v4.1h-2.774Zm2.774,2.811a1.709,1.709,0,0,0,.144.755.618.618,0,0,0,.539.342c.686,0,.955-1.062.955-2.287,0-1.621-.4-2.25-.917-2.25a.641.641,0,0,0-.594.4,1.324,1.324,0,0,0-.127.611Z"/>
      <path id="Trazado_50229" data-name="Trazado 50229" d="M888.213,1010.248a12.147,12.147,0,0,0,.142,2.035h-2.484l-.145-.847h-.035a2.46,2.46,0,0,1-2.035.99,2.53,2.53,0,0,1-2.43-2.754c0-2.377,2.161-3.313,4.159-3.33v-.162c0-.487-.45-.866-1.17-.866a3.616,3.616,0,0,0-1.946.541l-.484-1.855a6.734,6.734,0,0,1,3.043-.721c3.078,0,3.385,2.2,3.385,3.909Zm-2.739-2.16c-.808.017-1.638.342-1.638,1.277,0,.756.451,1.045.758,1.045a.868.868,0,0,0,.828-.521,1.048,1.048,0,0,0,.052-.362Z"/>
      <path id="Trazado_50230" data-name="Trazado 50230" d="M889.74,1006.25c0-.936-.035-1.926-.072-2.826h2.394l.145,1.26h.072a2.017,2.017,0,0,1,1.711-1.405,2.509,2.509,0,0,1,.594.055v2.736a3.2,3.2,0,0,0-.613-.035,1.389,1.389,0,0,0-1.315,1.008,2.84,2.84,0,0,0-.125.918v4.322H889.74Z"/>
      <path id="Trazado_50231" data-name="Trazado 50231" d="M898.922,1001.029v2.4h1.746v1.945h-1.746v3.529c0,.971.431,1.206.881,1.206a4.049,4.049,0,0,0,.648-.053v2.178a7.182,7.182,0,0,1-1.621.162,2.722,2.722,0,0,1-1.854-.577,3.247,3.247,0,0,1-.845-2.664v-3.781H895.1v-1.945h1.028v-1.584Z"/>
      <path id="Trazado_50232" data-name="Trazado 50232" d="M904.447,1001.064a1.372,1.372,0,0,1-1.4,1.442,1.451,1.451,0,1,1,1.4-1.442Zm-2.738,11.219v-8.859H904.5v8.859Z"/>
      <path id="Trazado_50233" data-name="Trazado 50233" d="M911.18,1012.156a4.707,4.707,0,0,1-1.532.235c-2.377,0-3.906-1.549-3.906-4.43,0-2.826,1.746-4.645,4.3-4.645a3.817,3.817,0,0,1,1.314.215l-.324,2.162a2.96,2.96,0,0,0-.828-.127c-1.027,0-1.711.829-1.711,2.288,0,1.4.631,2.287,1.656,2.287a1.956,1.956,0,0,0,.828-.162Z"/>
      <path id="Trazado_50234" data-name="Trazado 50234" d="M914.724,1001.064a1.372,1.372,0,0,1-1.4,1.442,1.451,1.451,0,1,1,1.4-1.442Zm-2.738,11.219v-8.859h2.791v8.859Z"/>
      <path id="Trazado_50235" data-name="Trazado 50235" d="M916.289,1006.25c0-.936-.035-1.891-.07-2.826h2.394l.143.99h.037a2.05,2.05,0,0,1,1.853-1.135c2.108,0,2.811,2.325,2.811,4.575,0,3.1-1.387,4.572-2.936,4.572a1.753,1.753,0,0,1-1.422-.791h-.037v4.1h-2.773Zm2.773,2.811a1.709,1.709,0,0,0,.145.755.616.616,0,0,0,.539.342c.685,0,.955-1.062.955-2.287,0-1.621-.4-2.25-.918-2.25a.642.642,0,0,0-.594.4,1.323,1.323,0,0,0-.127.611Z"/>
      <path id="Trazado_50236" data-name="Trazado 50236" d="M931.23,1010.248a12.031,12.031,0,0,0,.145,2.035H928.89l-.144-.847h-.035a2.466,2.466,0,0,1-2.035.99,2.531,2.531,0,0,1-2.432-2.754c0-2.377,2.162-3.313,4.16-3.33v-.162c0-.487-.451-.866-1.17-.866a3.608,3.608,0,0,0-1.945.541L924.8,1004a6.741,6.741,0,0,1,3.043-.721c3.078,0,3.384,2.2,3.384,3.909Zm-2.736-2.16c-.811.017-1.639.342-1.639,1.277,0,.756.45,1.045.756,1.045a.866.866,0,0,0,.828-.521,1,1,0,0,0,.055-.362Z"/>
      <path id="Trazado_50237" data-name="Trazado 50237" d="M935.838,1001.029v2.4h1.746v1.945h-1.746v3.529c0,.971.431,1.206.883,1.206a4.049,4.049,0,0,0,.648-.053v2.178a7.21,7.21,0,0,1-1.621.162,2.727,2.727,0,0,1-1.856-.577,3.254,3.254,0,0,1-.845-2.664v-3.781h-1.026v-1.945h1.026v-1.584Z"/>
      <path id="Trazado_50238" data-name="Trazado 50238" d="M941.363,1001.064a1.371,1.371,0,0,1-1.4,1.442,1.451,1.451,0,1,1,1.4-1.442Zm-2.736,11.219v-8.859h2.791v8.859Z"/>
      <path id="Trazado_50239" data-name="Trazado 50239" d="M945.162,1003.424l.486,3.529c.127.863.235,1.656.36,2.611h.037c.107-.972.215-1.71.342-2.611l.5-3.529h2.737l-2.4,8.859h-2.574l-2.467-8.859Z"/>
      <path id="Trazado_50240" data-name="Trazado 50240" d="M957.043,1007.816c0,3.8-2.233,4.61-3.567,4.61-2.339,0-3.6-1.764-3.6-4.537,0-3.151,1.763-4.61,3.619-4.61C955.8,1003.279,957.043,1005.152,957.043,1007.816Zm-4.412.02c0,1.529.234,2.5.9,2.5.576,0,.756-1.242.756-2.5,0-1.172-.18-2.467-.791-2.467C952.793,1005.369,952.631,1006.664,952.631,1007.836Z"/>
      <path id="Trazado_50241" data-name="Trazado 50241" d="M968.1,1011.346a4.536,4.536,0,0,1-1.153,3.547,4.406,4.406,0,0,1-3.1.99,6.041,6.041,0,0,1-2.323-.414l.487-2.123a4.082,4.082,0,0,0,1.711.359c1.222,0,1.6-.828,1.6-1.908v-.379h-.035a1.806,1.806,0,0,1-1.549.793c-2.162,0-2.828-2.342-2.828-4.25,0-2.809,1.279-4.682,3.062-4.682a1.769,1.769,0,0,1,1.62,1.01h.037l.142-.865h2.414c-.054.9-.089,1.89-.089,2.826Zm-2.774-4.61a2.294,2.294,0,0,0-.107-.648.6.6,0,0,0-.541-.467c-.774,0-1.026,1.063-1.026,2.287,0,1.385.36,2.143.971,2.143a.645.645,0,0,0,.576-.379,1.412,1.412,0,0,0,.127-.649Z"/>
      <path id="Trazado_50242" data-name="Trazado 50242" d="M969.586,1006.25c0-.936-.035-1.926-.071-2.826h2.395l.143,1.26h.072a2.018,2.018,0,0,1,1.711-1.405,2.5,2.5,0,0,1,.594.055v2.736a3.188,3.188,0,0,0-.612-.035,1.387,1.387,0,0,0-1.314,1.008,2.748,2.748,0,0,0-.127.918v4.322h-2.791Z"/>
      <path id="Trazado_50243" data-name="Trazado 50243" d="M982.224,1009.455c0,.938.036,1.928.073,2.828h-2.4l-.144-.937h-.037a2.51,2.51,0,0,1-2.106,1.08c-1.746,0-2.449-1.26-2.449-3.727v-5.275h2.791v4.988c0,1.063.234,1.692.756,1.692a.611.611,0,0,0,.558-.36,1.543,1.543,0,0,0,.162-.738v-5.582h2.791Z"/>
      <path id="Trazado_50244" data-name="Trazado 50244" d="M983.806,1006.25c0-.936-.035-1.891-.072-2.826h2.4l.144.99h.035a2.054,2.054,0,0,1,1.856-1.135c2.1,0,2.808,2.325,2.808,4.575,0,3.1-1.386,4.572-2.935,4.572a1.753,1.753,0,0,1-1.422-.791h-.035v4.1h-2.774Zm2.774,2.811a1.727,1.727,0,0,0,.142.755.619.619,0,0,0,.542.342c.683,0,.955-1.062.955-2.287,0-1.621-.4-2.25-.92-2.25a.641.641,0,0,0-.594.4,1.323,1.323,0,0,0-.125.611Z"/>
      <path id="Trazado_50245" data-name="Trazado 50245" d="M998.748,1010.248a12.131,12.131,0,0,0,.144,2.035h-2.484l-.144-.847h-.036a2.465,2.465,0,0,1-2.035.99,2.531,2.531,0,0,1-2.431-2.754c0-2.377,2.162-3.313,4.16-3.33v-.162c0-.487-.451-.866-1.17-.866a3.611,3.611,0,0,0-1.946.541L992.32,1004a6.741,6.741,0,0,1,3.043-.721c3.078,0,3.385,2.2,3.385,3.909Zm-2.736-2.16c-.811.017-1.639.342-1.639,1.277,0,.756.449,1.045.756,1.045a.866.866,0,0,0,.828-.521.994.994,0,0,0,.055-.362Z"/>
      <path id="Trazado_50246" data-name="Trazado 50246" d="M1000.275,999.822h2.791v12.461h-2.791Z"/>
    </g>
    <g id="Grupo_23964" data-name="Grupo 23964">
      <path id="Trazado_50247" data-name="Trazado 50247" d="M658.156,1067.133H655.51v2.736h2.97v2.414h-5.761v-12.137h5.562v2.415H655.51v2.267h2.646Z"/>
      <path id="Trazado_50248" data-name="Trazado 50248" d="M658.334,1073.688a1.8,1.8,0,0,0,1.135-.4c.341-.307.394-.936.394-2.143v-7.724h2.791v8.193c0,2.016-.486,2.971-1.295,3.547a5.274,5.274,0,0,1-2.845.719Zm4.285-12.624a1.372,1.372,0,0,1-1.4,1.442,1.453,1.453,0,0,1,.035-2.9A1.359,1.359,0,0,1,662.619,1061.064Z"/>
      <path id="Trazado_50249" data-name="Trazado 50249" d="M666.6,1069.006c.037.81.72,1.3,1.783,1.3a6.059,6.059,0,0,0,1.783-.289l.342,1.98a8.4,8.4,0,0,1-2.629.4c-2.539,0-3.961-1.532-3.961-4.321,0-3.025,1.691-4.791,3.781-4.791,1.944,0,3.223,1.334,3.223,4.3a7.594,7.594,0,0,1-.09,1.422Zm1.818-1.926c0-.865-.143-1.8-.863-1.8-.7,0-.955,1.043-.955,1.8Z"/>
      <path id="Trazado_50250" data-name="Trazado 50250" d="M672.176,1066.25c0-.936-.036-1.926-.073-2.826H674.5l.144,1.26h.073a2.015,2.015,0,0,1,1.711-1.4,2.5,2.5,0,0,1,.593.055v2.736a3.2,3.2,0,0,0-.613-.035,1.388,1.388,0,0,0-1.314,1.008,2.813,2.813,0,0,0-.125.918v4.322h-2.791Z"/>
      <path id="Trazado_50251" data-name="Trazado 50251" d="M682.994,1072.156a4.684,4.684,0,0,1-1.529.235c-2.377,0-3.909-1.549-3.909-4.43,0-2.826,1.747-4.645,4.3-4.645a3.806,3.806,0,0,1,1.315.215l-.325,2.162a2.944,2.944,0,0,0-.828-.127c-1.025,0-1.709.829-1.709,2.288,0,1.4.629,2.287,1.657,2.287a1.959,1.959,0,0,0,.828-.162Z"/>
      <path id="Trazado_50252" data-name="Trazado 50252" d="M686.539,1061.064a1.372,1.372,0,0,1-1.4,1.442,1.451,1.451,0,1,1,1.4-1.442Zm-2.736,11.219v-8.859h2.791v8.859Z"/>
      <path id="Trazado_50253" data-name="Trazado 50253" d="M693.273,1072.156a4.7,4.7,0,0,1-1.531.235c-2.377,0-3.906-1.549-3.906-4.43,0-2.826,1.746-4.645,4.3-4.645a3.824,3.824,0,0,1,1.314.215l-.324,2.162a2.97,2.97,0,0,0-.828-.127c-1.028,0-1.711.829-1.711,2.288,0,1.4.631,2.287,1.656,2.287a1.955,1.955,0,0,0,.828-.162Z"/>
      <path id="Trazado_50254" data-name="Trazado 50254" d="M696.818,1061.064a1.372,1.372,0,0,1-1.4,1.442,1.451,1.451,0,1,1,1.4-1.442Zm-2.738,11.219v-8.859h2.791v8.859Z"/>
      <path id="Trazado_50255" data-name="Trazado 50255" d="M705.279,1067.816c0,3.8-2.232,4.61-3.566,4.61-2.34,0-3.6-1.764-3.6-4.537,0-3.151,1.764-4.61,3.619-4.61C704.037,1063.279,705.279,1065.152,705.279,1067.816Zm-4.412.02c0,1.529.234,2.5.9,2.5.577,0,.756-1.242.756-2.5,0-1.172-.179-2.467-.791-2.467C701.029,1065.369,700.867,1066.664,700.867,1067.836Z"/>
      <path id="Trazado_50256" data-name="Trazado 50256" d="M706.517,1069.869a3.679,3.679,0,0,0,1.676.469c.522,0,.811-.18.811-.576,0-.377-.272-.576-.99-.973a2.792,2.792,0,0,1-1.8-2.557,2.89,2.89,0,0,1,3.115-2.953,4.513,4.513,0,0,1,1.891.4l-.434,2.017a2.7,2.7,0,0,0-1.26-.341c-.541,0-.773.269-.773.593,0,.305.2.487,1.008.936a2.868,2.868,0,0,1,1.763,2.646c0,1.838-1.332,2.864-3.33,2.864a4.206,4.206,0,0,1-2.125-.5Z"/>
      <path id="Trazado_50257" data-name="Trazado 50257" d="M715.5,1066.25c0-.936-.035-1.891-.072-2.826h2.394l.145.99H718a2.051,2.051,0,0,1,1.855-1.135c2.106,0,2.809,2.325,2.809,4.575,0,3.1-1.387,4.572-2.936,4.572a1.753,1.753,0,0,1-1.422-.791h-.035v4.1H715.5Zm2.773,2.811a1.711,1.711,0,0,0,.143.755.616.616,0,0,0,.541.342c.683,0,.955-1.062.955-2.287,0-1.621-.4-2.25-.92-2.25a.642.642,0,0,0-.594.4,1.323,1.323,0,0,0-.125.611Z"/>
      <path id="Trazado_50258" data-name="Trazado 50258" d="M723.924,1066.25c0-.936-.035-1.926-.073-2.826h2.395l.144,1.26h.073a2.015,2.015,0,0,1,1.711-1.4,2.5,2.5,0,0,1,.593.055v2.736a3.205,3.205,0,0,0-.613-.035,1.387,1.387,0,0,0-1.314,1.008,2.811,2.811,0,0,0-.125.918v4.322h-2.791Z"/>
      <path id="Trazado_50259" data-name="Trazado 50259" d="M736.094,1070.248a12.136,12.136,0,0,0,.144,2.035h-2.484l-.145-.847h-.035a2.465,2.465,0,0,1-2.035.99,2.532,2.532,0,0,1-2.432-2.754c0-2.377,2.162-3.313,4.16-3.33v-.162c0-.487-.451-.866-1.17-.866a3.607,3.607,0,0,0-1.945.541l-.486-1.855a6.741,6.741,0,0,1,3.043-.721c3.078,0,3.385,2.2,3.385,3.909Zm-2.737-2.16c-.81.017-1.638.342-1.638,1.277,0,.756.449,1.045.755,1.045a.868.868,0,0,0,.829-.521,1,1,0,0,0,.054-.362Zm2.016-8.266-1.781,2.557h-1.729l1.17-2.557Z"/>
      <path id="Trazado_50260" data-name="Trazado 50260" d="M742.789,1072.156a4.684,4.684,0,0,1-1.529.235c-2.377,0-3.909-1.549-3.909-4.43,0-2.826,1.746-4.645,4.3-4.645a3.806,3.806,0,0,1,1.315.215l-.325,2.162a2.943,2.943,0,0,0-.828-.127c-1.025,0-1.709.829-1.709,2.288,0,1.4.629,2.287,1.657,2.287a1.959,1.959,0,0,0,.828-.162Z"/>
      <path id="Trazado_50261" data-name="Trazado 50261" d="M747.217,1061.029v2.395h1.746v1.945h-1.746v3.529c0,.971.431,1.206.88,1.206a4.044,4.044,0,0,0,.649-.053v2.178a7.182,7.182,0,0,1-1.621.162,2.722,2.722,0,0,1-1.854-.577,3.247,3.247,0,0,1-.845-2.664v-3.781H743.4v-1.945h1.028v-1.584Z"/>
      <path id="Trazado_50262" data-name="Trazado 50262" d="M752.742,1061.064a1.371,1.371,0,0,1-1.4,1.442,1.451,1.451,0,1,1,1.4-1.442Zm-2.736,11.219v-8.859H752.8v8.859Z"/>
      <path id="Trazado_50263" data-name="Trazado 50263" d="M759.474,1072.156a4.679,4.679,0,0,1-1.529.235c-2.377,0-3.908-1.549-3.908-4.43,0-2.826,1.746-4.645,4.3-4.645a3.8,3.8,0,0,1,1.314.215l-.324,2.162a2.95,2.95,0,0,0-.828-.127c-1.026,0-1.709.829-1.709,2.288,0,1.4.629,2.287,1.656,2.287a1.955,1.955,0,0,0,.828-.162Z"/>
      <path id="Trazado_50264" data-name="Trazado 50264" d="M767.18,1067.816c0,3.8-2.233,4.61-3.567,4.61-2.34,0-3.6-1.764-3.6-4.537,0-3.151,1.763-4.61,3.619-4.61C765.937,1063.279,767.18,1065.152,767.18,1067.816Zm-4.413.02c0,1.529.235,2.5.9,2.5.576,0,.756-1.242.756-2.5,0-1.172-.18-2.467-.791-2.467C762.93,1065.369,762.767,1066.664,762.767,1067.836Z"/>
      <path id="Trazado_50265" data-name="Trazado 50265" d="M768.418,1069.869a3.672,3.672,0,0,0,1.676.469c.521,0,.81-.18.81-.576,0-.377-.271-.576-.99-.973a2.792,2.792,0,0,1-1.8-2.557,2.89,2.89,0,0,1,3.115-2.953,4.51,4.51,0,0,1,1.891.4l-.434,2.017a2.7,2.7,0,0,0-1.259-.341c-.541,0-.774.269-.774.593,0,.305.2.487,1.008.936a2.868,2.868,0,0,1,1.764,2.646c0,1.838-1.332,2.864-3.33,2.864a4.2,4.2,0,0,1-2.125-.5Z"/>
      <path id="Trazado_50266" data-name="Trazado 50266" d="M654.492,1081.424l.736,4.412c.073.449.145.881.2,1.332h.035c.054-.432.09-.865.144-1.3l.594-4.447h2.719l-1.963,7.328a10.113,10.113,0,0,1-1.871,4,4.7,4.7,0,0,1-2.2,1.422l-.793-2.412a3.585,3.585,0,0,0,1.134-.576,2.4,2.4,0,0,0,.721-.866.719.719,0,0,0,.125-.359,1.062,1.062,0,0,0-.07-.324l-2.522-8.211Z"/>
      <path id="Trazado_50267" data-name="Trazado 50267" d="M664.894,1087.006c.037.81.721,1.3,1.784,1.3a6.059,6.059,0,0,0,1.783-.289l.342,1.98a8.4,8.4,0,0,1-2.629.4c-2.539,0-3.961-1.532-3.961-4.321,0-3.025,1.691-4.791,3.781-4.791,1.943,0,3.223,1.334,3.223,4.3a7.6,7.6,0,0,1-.09,1.422Zm1.819-1.926c0-.865-.143-1.8-.864-1.8-.7,0-.955,1.043-.955,1.8Z"/>
      <path id="Trazado_50268" data-name="Trazado 50268" d="M672.635,1081.424l.414,1.441c.162.539.287,1.08.379,1.457h.035c.09-.394.2-.953.342-1.457l.414-1.441h2.773l-1.963,4.357,2.016,4.5h-3.024l-.5-1.531c-.144-.432-.271-.883-.361-1.277h-.035c-.09.414-.217.863-.324,1.3l-.414,1.513h-2.774l1.908-4.375-1.908-4.484Z"/>
      <path id="Trazado_50269" data-name="Trazado 50269" d="M677.853,1084.25c0-.936-.035-1.891-.07-2.826h2.395l.142.99h.037a2.052,2.052,0,0,1,1.854-1.135c2.107,0,2.81,2.325,2.81,4.575,0,3.1-1.386,4.572-2.935,4.572a1.753,1.753,0,0,1-1.422-.791h-.037v4.1h-2.774Zm2.774,2.811a1.71,1.71,0,0,0,.144.755.618.618,0,0,0,.539.342c.686,0,.955-1.062.955-2.287,0-1.621-.4-2.25-.918-2.25a.64.64,0,0,0-.593.4,1.324,1.324,0,0,0-.127.611Z"/>
      <path id="Trazado_50270" data-name="Trazado 50270" d="M688.689,1087.006c.037.81.721,1.3,1.783,1.3a6.06,6.06,0,0,0,1.784-.289l.341,1.98a8.386,8.386,0,0,1-2.628.4c-2.539,0-3.961-1.532-3.961-4.321,0-3.025,1.691-4.791,3.781-4.791,1.943,0,3.223,1.334,3.223,4.3a7.683,7.683,0,0,1-.09,1.422Zm1.819-1.926c0-.865-.143-1.8-.864-1.8-.7,0-.955,1.043-.955,1.8Z"/>
      <path id="Trazado_50271" data-name="Trazado 50271" d="M694.269,1084.25c0-.936-.035-1.926-.072-2.826h2.395l.144,1.26h.072a2.017,2.017,0,0,1,1.711-1.4,2.506,2.506,0,0,1,.594.055v2.736a3.21,3.21,0,0,0-.613-.035,1.389,1.389,0,0,0-1.315,1.008,2.84,2.84,0,0,0-.125.918v4.322h-2.791Z"/>
      <path id="Trazado_50272" data-name="Trazado 50272" d="M702.658,1079.064a1.371,1.371,0,0,1-1.4,1.442,1.451,1.451,0,1,1,1.4-1.442Zm-2.736,11.219v-8.859h2.791v8.859Z"/>
      <path id="Trazado_50273" data-name="Trazado 50273" d="M704.222,1084.25c0-.936-.035-1.926-.07-2.826h2.412l.145,1.008h.035a2.8,2.8,0,0,1,2.16-1.153,1.95,1.95,0,0,1,1.963,1.153h.037a3.2,3.2,0,0,1,.918-.846,2.6,2.6,0,0,1,1.242-.307c1.746,0,2.36,1.424,2.36,3.494v5.51H712.65V1085.2c0-.935-.09-1.621-.648-1.621a.756.756,0,0,0-.721.576,1.93,1.93,0,0,0-.072.559v5.564h-2.772v-5.437c0-.5-.019-1.262-.631-1.262a.783.783,0,0,0-.7.523,1.849,1.849,0,0,0-.107.629v5.547h-2.774Z"/>
      <path id="Trazado_50274" data-name="Trazado 50274" d="M719.344,1087.006c.037.81.72,1.3,1.783,1.3a6.059,6.059,0,0,0,1.783-.289l.342,1.98a8.393,8.393,0,0,1-2.629.4c-2.539,0-3.961-1.532-3.961-4.321,0-3.025,1.691-4.791,3.781-4.791,1.944,0,3.223,1.334,3.223,4.3a7.589,7.589,0,0,1-.09,1.422Zm1.818-1.926c0-.865-.143-1.8-.863-1.8-.7,0-.955,1.043-.955,1.8Z"/>
      <path id="Trazado_50275" data-name="Trazado 50275" d="M724.922,1084.25c0-.936-.035-1.926-.071-2.826h2.395l.143,1.008h.037a2.646,2.646,0,0,1,2.2-1.153c1.871,0,2.447,1.532,2.447,3.44v5.564h-2.791v-5.474c0-.612-.162-1.188-.719-1.188a.773.773,0,0,0-.7.522,2.206,2.206,0,0,0-.144.828v5.312h-2.791Z"/>
      <path id="Trazado_50276" data-name="Trazado 50276" d="M736.84,1079.029v2.395h1.746v1.945H736.84v3.529c0,.971.431,1.206.882,1.206a4.044,4.044,0,0,0,.649-.053v2.178a7.209,7.209,0,0,1-1.621.162,2.727,2.727,0,0,1-1.856-.577,3.254,3.254,0,0,1-.845-2.664v-3.781h-1.026v-1.945h1.026v-1.584Z"/>
      <path id="Trazado_50277" data-name="Trazado 50277" d="M746.146,1088.248a12.023,12.023,0,0,0,.145,2.035h-2.485l-.144-.847h-.035a2.466,2.466,0,0,1-2.035.99,2.531,2.531,0,0,1-2.432-2.754c0-2.377,2.162-3.313,4.16-3.33v-.162c0-.487-.451-.866-1.17-.866a3.607,3.607,0,0,0-1.945.541l-.486-1.855a6.742,6.742,0,0,1,3.043-.721c3.078,0,3.384,2.2,3.384,3.909Zm-2.736-2.16c-.811.017-1.639.342-1.639,1.277,0,.756.45,1.045.756,1.045a.867.867,0,0,0,.828-.521,1,1,0,0,0,.055-.362Z"/>
      <path id="Trazado_50278" data-name="Trazado 50278" d="M752.842,1090.156a4.686,4.686,0,0,1-1.53.235c-2.377,0-3.908-1.549-3.908-4.43,0-2.826,1.746-4.645,4.3-4.645a3.8,3.8,0,0,1,1.314.215l-.324,2.162a2.95,2.95,0,0,0-.828-.127c-1.025,0-1.709.829-1.709,2.288,0,1.4.629,2.287,1.656,2.287a1.955,1.955,0,0,0,.828-.162Z"/>
      <path id="Trazado_50279" data-name="Trazado 50279" d="M756.387,1079.064a1.372,1.372,0,0,1-1.405,1.442,1.451,1.451,0,1,1,1.405-1.442Zm-2.737,11.219v-8.859h2.791v8.859Z"/>
      <path id="Trazado_50280" data-name="Trazado 50280" d="M764.847,1085.816c0,3.8-2.232,4.61-3.564,4.61-2.342,0-3.6-1.764-3.6-4.537,0-3.151,1.766-4.61,3.62-4.61C763.6,1081.279,764.847,1083.152,764.847,1085.816Zm-4.41.02c0,1.529.233,2.5.9,2.5.576,0,.756-1.242.756-2.5,0-1.172-.18-2.467-.793-2.467C760.6,1083.369,760.437,1084.664,760.437,1085.836Zm3.547-8.014-1.783,2.557h-1.729l1.17-2.557Z"/>
      <path id="Trazado_50281" data-name="Trazado 50281" d="M766.088,1084.25c0-.936-.035-1.926-.073-2.826h2.395l.145,1.008h.035a2.649,2.649,0,0,1,2.2-1.153c1.873,0,2.449,1.532,2.449,3.44v5.564h-2.791v-5.474c0-.612-.162-1.188-.721-1.188a.771.771,0,0,0-.7.522,2.206,2.206,0,0,0-.144.828v5.312h-2.791Z"/>
    </g>
    <g id="Grupo_23965" data-name="Grupo 23965">
      <path id="Trazado_50282" data-name="Trazado 50282" d="M887.914,1069.889l-.414,2.394h-2.7l2.574-12.137h3.387l2.214,12.137h-2.7l-.4-2.394Zm1.746-2.143-.3-2.3c-.091-.685-.254-2-.361-2.755h-.035c-.127.755-.307,2.107-.414,2.755l-.362,2.3Z"/>
      <path id="Trazado_50283" data-name="Trazado 50283" d="M893.943,1066.25c0-.936-.035-1.891-.072-2.826h2.394l.145.99h.035a2.052,2.052,0,0,1,1.856-1.135c2.1,0,2.808,2.325,2.808,4.575,0,3.1-1.387,4.572-2.935,4.572a1.753,1.753,0,0,1-1.422-.791h-.035v4.1h-2.774Zm2.774,2.811a1.712,1.712,0,0,0,.142.755.617.617,0,0,0,.541.342c.684,0,.955-1.062.955-2.287,0-1.621-.4-2.25-.92-2.25a.639.639,0,0,0-.593.4,1.324,1.324,0,0,0-.125.611Z"/>
      <path id="Trazado_50284" data-name="Trazado 50284" d="M902.367,1066.25c0-.936-.035-1.926-.072-2.826h2.394l.145,1.26h.072a2.017,2.017,0,0,1,1.711-1.4,2.506,2.506,0,0,1,.594.055v2.736a3.221,3.221,0,0,0-.614-.035,1.388,1.388,0,0,0-1.314,1.008,2.84,2.84,0,0,0-.125.918v4.322h-2.791Z"/>
      <path id="Trazado_50285" data-name="Trazado 50285" d="M910.431,1069.006c.036.81.721,1.3,1.782,1.3a6.047,6.047,0,0,0,1.783-.289l.342,1.98a8.4,8.4,0,0,1-2.629.4c-2.539,0-3.961-1.532-3.961-4.321,0-3.025,1.693-4.791,3.781-4.791,1.945,0,3.223,1.334,3.223,4.3a7.417,7.417,0,0,1-.09,1.422Zm1.819-1.926c0-.865-.145-1.8-.865-1.8-.7,0-.954,1.043-.954,1.8Z"/>
      <path id="Trazado_50286" data-name="Trazado 50286" d="M916.01,1066.25c0-.936-.036-1.926-.071-2.826h2.395l.142,1.008h.038a2.646,2.646,0,0,1,2.2-1.153c1.871,0,2.447,1.532,2.447,3.44v5.564h-2.791v-5.474c0-.612-.162-1.188-.719-1.188a.773.773,0,0,0-.7.522,2.206,2.206,0,0,0-.144.828v5.312H916.01Z"/>
      <path id="Trazado_50287" data-name="Trazado 50287" d="M931.564,1059.822v9.633c0,.938.037,1.891.073,2.828h-2.4l-.145-.955h-.035a2.163,2.163,0,0,1-1.836,1.1c-2.052,0-2.828-2.285-2.828-4.555,0-3.06,1.369-4.592,2.918-4.592a1.458,1.458,0,0,1,1.44.828h.037v-4.285Zm-2.771,7.024a2.235,2.235,0,0,0-.037-.487c-.09-.379-.252-.738-.649-.738-.683,0-.953,1.025-.953,2.322,0,1.6.449,2.215.953,2.215a.612.612,0,0,0,.594-.451,1.363,1.363,0,0,0,.092-.539Z"/>
      <path id="Trazado_50288" data-name="Trazado 50288" d="M935.828,1061.064a1.371,1.371,0,0,1-1.4,1.442,1.451,1.451,0,1,1,1.4-1.442Zm-2.736,11.219v-8.859h2.791v8.859Z"/>
      <path id="Trazado_50289" data-name="Trazado 50289" d="M936.98,1070.537l1.909-3.3c.306-.521.72-1.152.882-1.494v-.053h-2.556v-2.269h5.562v1.908l-1.836,3.115c-.324.559-.7,1.17-.9,1.514v.053H942.9v2.269H936.98Z"/>
      <path id="Trazado_50290" data-name="Trazado 50290" d="M950.517,1070.248a12.132,12.132,0,0,0,.145,2.035h-2.484l-.145-.847H948a2.466,2.466,0,0,1-2.035.99,2.531,2.531,0,0,1-2.432-2.754c0-2.377,2.162-3.313,4.16-3.33v-.162c0-.487-.451-.866-1.17-.866a3.607,3.607,0,0,0-1.945.541L944.09,1064a6.741,6.741,0,0,1,3.043-.721c3.078,0,3.384,2.2,3.384,3.909Zm-2.736-2.16c-.81.017-1.639.342-1.639,1.277,0,.756.45,1.045.756,1.045a.867.867,0,0,0,.828-.521.976.976,0,0,0,.055-.362Z"/>
      <path id="Trazado_50291" data-name="Trazado 50291" d="M950.515,1073.688a1.793,1.793,0,0,0,1.135-.4c.342-.307.395-.936.395-2.143v-7.724h2.791v8.193c0,2.016-.487,2.971-1.295,3.547a5.275,5.275,0,0,1-2.846.719Zm4.286-12.624a1.374,1.374,0,0,1-1.405,1.442,1.453,1.453,0,0,1,.035-2.9A1.36,1.36,0,0,1,954.8,1061.064Z"/>
      <path id="Trazado_50292" data-name="Trazado 50292" d="M958.777,1069.006c.037.81.721,1.3,1.783,1.3a6.06,6.06,0,0,0,1.784-.289l.341,1.98a8.388,8.388,0,0,1-2.629.4c-2.539,0-3.96-1.532-3.96-4.321,0-3.025,1.691-4.791,3.781-4.791,1.943,0,3.222,1.334,3.222,4.3a7.715,7.715,0,0,1-.089,1.422Zm1.819-1.926c0-.865-.143-1.8-.864-1.8-.7,0-.955,1.043-.955,1.8Z"/>
      <path id="Trazado_50293" data-name="Trazado 50293" d="M967.236,1066.25c0-.936-.035-1.891-.07-2.826h2.394l.143.99h.037a2.052,2.052,0,0,1,1.854-1.135c2.107,0,2.81,2.325,2.81,4.575,0,3.1-1.387,4.572-2.935,4.572a1.753,1.753,0,0,1-1.422-.791h-.037v4.1h-2.774Zm2.774,2.811a1.71,1.71,0,0,0,.144.755.617.617,0,0,0,.539.342c.686,0,.955-1.062.955-2.287,0-1.621-.4-2.25-.918-2.25a.639.639,0,0,0-.593.4,1.324,1.324,0,0,0-.127.611Z"/>
      <path id="Trazado_50294" data-name="Trazado 50294" d="M982.556,1067.816c0,3.8-2.232,4.61-3.564,4.61-2.342,0-3.6-1.764-3.6-4.537,0-3.151,1.766-4.61,3.62-4.61C981.314,1063.279,982.556,1065.152,982.556,1067.816Zm-4.41.02c0,1.529.233,2.5.9,2.5.576,0,.756-1.242.756-2.5,0-1.172-.18-2.467-.793-2.467C978.308,1065.369,978.146,1066.664,978.146,1067.836Z"/>
      <path id="Trazado_50295" data-name="Trazado 50295" d="M983.8,1066.25c0-.936-.035-1.926-.073-2.826h2.4l.145,1.26h.072a2.016,2.016,0,0,1,1.711-1.4,2.5,2.5,0,0,1,.593.055v2.736a3.205,3.205,0,0,0-.613-.035,1.387,1.387,0,0,0-1.314,1.008,2.813,2.813,0,0,0-.125.918v4.322H983.8Z"/>
      <path id="Trazado_50296" data-name="Trazado 50296" d="M892.676,1077.822v9.633c0,.938.037,1.891.072,2.828h-2.395l-.144-.955h-.035a2.164,2.164,0,0,1-1.836,1.1c-2.053,0-2.828-2.285-2.828-4.555,0-3.06,1.369-4.592,2.918-4.592a1.458,1.458,0,0,1,1.439.828h.037v-4.285Zm-2.772,7.024a2.238,2.238,0,0,0-.037-.487c-.09-.379-.252-.738-.648-.738-.684,0-.954,1.025-.954,2.322,0,1.6.45,2.215.954,2.215a.611.611,0,0,0,.593-.451,1.363,1.363,0,0,0,.092-.539Z"/>
      <path id="Trazado_50297" data-name="Trazado 50297" d="M896.617,1087.006c.035.81.721,1.3,1.781,1.3a6.042,6.042,0,0,0,1.783-.289l.342,1.98a8.388,8.388,0,0,1-2.629.4c-2.539,0-3.961-1.532-3.961-4.321,0-3.025,1.694-4.791,3.782-4.791,1.945,0,3.222,1.334,3.222,4.3a7.417,7.417,0,0,1-.09,1.422Zm1.818-1.926c0-.865-.144-1.8-.865-1.8-.7,0-.953,1.043-.953,1.8Z"/>
      <path id="Trazado_50298" data-name="Trazado 50298" d="M902.2,1087.869a3.67,3.67,0,0,0,1.674.469c.523,0,.811-.18.811-.576,0-.377-.27-.576-.991-.973a2.793,2.793,0,0,1-1.8-2.557,2.89,2.89,0,0,1,3.115-2.953,4.5,4.5,0,0,1,1.89.4l-.431,2.017a2.716,2.716,0,0,0-1.262-.341c-.539,0-.773.269-.773.593,0,.305.2.487,1.007.936a2.867,2.867,0,0,1,1.766,2.646c0,1.838-1.332,2.864-3.332,2.864a4.217,4.217,0,0,1-2.125-.5Z"/>
      <path id="Trazado_50299" data-name="Trazado 50299" d="M913.465,1090.156a4.687,4.687,0,0,1-1.53.235c-2.377,0-3.908-1.549-3.908-4.43,0-2.826,1.746-4.645,4.3-4.645a3.794,3.794,0,0,1,1.314.215l-.324,2.162a2.95,2.95,0,0,0-.828-.127c-1.025,0-1.709.829-1.709,2.288,0,1.4.629,2.287,1.656,2.287a1.952,1.952,0,0,0,.828-.162Z"/>
      <path id="Trazado_50300" data-name="Trazado 50300" d="M921.474,1087.455c0,.938.038,1.928.073,2.828h-2.4l-.144-.937h-.036a2.513,2.513,0,0,1-2.107,1.08c-1.746,0-2.447-1.26-2.447-3.727v-5.275h2.789v4.988c0,1.063.234,1.692.758,1.692a.608.608,0,0,0,.556-.36,1.52,1.52,0,0,0,.162-.738v-5.582h2.791Z"/>
      <path id="Trazado_50301" data-name="Trazado 50301" d="M923.056,1077.822h2.774v4.448h.037a2.181,2.181,0,0,1,1.836-.991c1.853,0,2.539,2.108,2.539,4.268,0,3.06-1.189,4.879-2.971,4.879a1.814,1.814,0,0,1-1.728-1.133h-.037l-.145.99h-2.375c.035-.9.07-1.89.07-2.828Zm2.774,9.274a1.608,1.608,0,0,0,.107.576.663.663,0,0,0,.6.486c.648,0,.953-.756.953-2.377,0-1.422-.324-2.16-.953-2.16a.7.7,0,0,0-.6.486,1.732,1.732,0,0,0-.107.522Z"/>
      <path id="Trazado_50302" data-name="Trazado 50302" d="M931.48,1084.25c0-.936-.035-1.926-.072-2.826H933.8l.144,1.26h.072a2.017,2.017,0,0,1,1.711-1.4,2.506,2.506,0,0,1,.594.055v2.736a3.21,3.21,0,0,0-.613-.035,1.389,1.389,0,0,0-1.315,1.008,2.84,2.84,0,0,0-.125.918v4.322H931.48Z"/>
      <path id="Trazado_50303" data-name="Trazado 50303" d="M939.869,1079.064a1.371,1.371,0,0,1-1.4,1.442,1.451,1.451,0,1,1,1.4-1.442Zm-2.736,11.219v-8.859h2.791v8.859Z"/>
      <path id="Trazado_50304" data-name="Trazado 50304" d="M941.433,1084.25c0-.936-.035-1.926-.07-2.826h2.412l.145,1.008h.035a2.8,2.8,0,0,1,2.16-1.153,1.95,1.95,0,0,1,1.963,1.153h.037a3.2,3.2,0,0,1,.918-.846,2.6,2.6,0,0,1,1.242-.307c1.746,0,2.36,1.424,2.36,3.494v5.51h-2.774V1085.2c0-.935-.09-1.621-.648-1.621a.756.756,0,0,0-.721.576,1.93,1.93,0,0,0-.072.559v5.564h-2.772v-5.437c0-.5-.019-1.262-.631-1.262a.783.783,0,0,0-.7.523,1.849,1.849,0,0,0-.107.629v5.547h-2.774Z"/>
      <path id="Trazado_50305" data-name="Trazado 50305" d="M956.879,1079.064a1.372,1.372,0,0,1-1.405,1.442,1.451,1.451,0,1,1,1.405-1.442Zm-2.737,11.219v-8.859h2.791v8.859Z"/>
      <path id="Trazado_50306" data-name="Trazado 50306" d="M960.857,1087.006c.035.81.721,1.3,1.782,1.3a6.048,6.048,0,0,0,1.783-.289l.342,1.98a8.4,8.4,0,0,1-2.629.4c-2.539,0-3.961-1.532-3.961-4.321,0-3.025,1.693-4.791,3.781-4.791,1.945,0,3.223,1.334,3.223,4.3a7.5,7.5,0,0,1-.09,1.422Zm1.819-1.926c0-.865-.145-1.8-.866-1.8-.7,0-.953,1.043-.953,1.8Z"/>
      <path id="Trazado_50307" data-name="Trazado 50307" d="M966.435,1084.25c0-.936-.035-1.926-.07-2.826h2.4l.142,1.008h.037a2.649,2.649,0,0,1,2.2-1.153c1.871,0,2.447,1.532,2.447,3.44v5.564h-2.791v-5.474c0-.612-.162-1.188-.719-1.188a.772.772,0,0,0-.7.522,2.2,2.2,0,0,0-.145.828v5.312h-2.791Z"/>
      <path id="Trazado_50308" data-name="Trazado 50308" d="M978.353,1079.029v2.395H980.1v1.945h-1.746v3.529c0,.971.432,1.206.881,1.206a4.054,4.054,0,0,0,.649-.053v2.178a7.189,7.189,0,0,1-1.621.162,2.72,2.72,0,0,1-1.854-.577,3.247,3.247,0,0,1-.846-2.664v-3.781h-1.027v-1.945h1.027v-1.584Z"/>
      <path id="Trazado_50309" data-name="Trazado 50309" d="M987.949,1085.816c0,3.8-2.232,4.61-3.566,4.61-2.34,0-3.6-1.764-3.6-4.537,0-3.151,1.764-4.61,3.619-4.61C986.707,1081.279,987.949,1083.152,987.949,1085.816Zm-4.412.02c0,1.529.234,2.5.9,2.5.577,0,.756-1.242.756-2.5,0-1.172-.179-2.467-.791-2.467C983.7,1083.369,983.537,1084.664,983.537,1085.836Z"/>
    </g>
    <g id="Grupo_23966" data-name="Grupo 23966">
      <path id="Trazado_50310" data-name="Trazado 50310" d="M968.356,742.826a14.714,14.714,0,0,1,2.665-.232,5.069,5.069,0,0,1,3.565.953,3.547,3.547,0,0,1,1.1,2.719,4.211,4.211,0,0,1-1.152,3.115,4.569,4.569,0,0,1-2.989,1.08h-.414v4.322h-2.773Zm2.773,5.385a1.961,1.961,0,0,0,.324.018c1.116,0,1.477-.829,1.477-1.711,0-.971-.4-1.692-1.3-1.692a1.381,1.381,0,0,0-.5.09Z"/>
      <path id="Trazado_50311" data-name="Trazado 50311" d="M976.762,748.75c0-.936-.036-1.926-.072-2.826h2.4l.143,1.26h.073a2.016,2.016,0,0,1,1.711-1.405,2.493,2.493,0,0,1,.593.055v2.736a3.183,3.183,0,0,0-.612-.035,1.387,1.387,0,0,0-1.314,1.008,2.779,2.779,0,0,0-.126.918v4.322h-2.791Z"/>
      <path id="Trazado_50312" data-name="Trazado 50312" d="M989.31,750.316c0,3.8-2.232,4.61-3.565,4.61-2.341,0-3.6-1.764-3.6-4.537,0-3.151,1.765-4.61,3.62-4.61C988.068,745.779,989.31,747.652,989.31,750.316Zm-4.411.02c0,1.529.234,2.5.9,2.5.576,0,.755-1.242.755-2.5,0-1.172-.179-2.467-.791-2.467C985.061,747.869,984.9,749.164,984.9,750.336Z"/>
      <path id="Trazado_50313" data-name="Trazado 50313" d="M997.446,742.322v9.633c0,.938.036,1.891.072,2.828h-2.4l-.144-.955h-.036a2.164,2.164,0,0,1-1.836,1.1c-2.052,0-2.827-2.285-2.827-4.555,0-3.06,1.368-4.592,2.917-4.592a1.461,1.461,0,0,1,1.441.828h.036v-4.285Zm-2.772,7.024a2.3,2.3,0,0,0-.036-.487c-.091-.379-.252-.738-.649-.738-.684,0-.954,1.025-.954,2.322,0,1.6.45,2.215.954,2.215a.613.613,0,0,0,.594-.451,1.365,1.365,0,0,0,.091-.539Z"/>
      <path id="Trazado_50314" data-name="Trazado 50314" d="M1005.96,751.955c0,.938.036,1.928.072,2.828h-2.394l-.145-.937h-.036a2.511,2.511,0,0,1-2.107,1.08c-1.746,0-2.448-1.26-2.448-3.727v-5.275h2.79v4.988c0,1.063.235,1.692.757,1.692a.611.611,0,0,0,.558-.36,1.544,1.544,0,0,0,.162-.738v-5.582h2.791Z"/>
      <path id="Trazado_50315" data-name="Trazado 50315" d="M1012.709,754.656a4.692,4.692,0,0,1-1.53.235c-2.377,0-3.908-1.549-3.908-4.43,0-2.826,1.746-4.645,4.3-4.645a3.814,3.814,0,0,1,1.315.215l-.325,2.162a2.948,2.948,0,0,0-.828-.127c-1.026,0-1.71.829-1.71,2.288,0,1.4.63,2.287,1.656,2.287a1.961,1.961,0,0,0,.829-.162Z"/>
      <path id="Trazado_50316" data-name="Trazado 50316" d="M1017.137,743.529v2.4h1.746v1.945h-1.746V751.4c0,.971.431,1.206.881,1.206a4.061,4.061,0,0,0,.649-.053v2.178a7.2,7.2,0,0,1-1.621.162,2.723,2.723,0,0,1-1.855-.577,3.251,3.251,0,0,1-.845-2.664v-3.781h-1.027v-1.945h1.027V744.34Z"/>
      <path id="Trazado_50317" data-name="Trazado 50317" d="M1026.731,750.316c0,3.8-2.232,4.61-3.565,4.61-2.341,0-3.6-1.764-3.6-4.537,0-3.151,1.765-4.61,3.619-4.61C1025.489,745.779,1026.731,747.652,1026.731,750.316Zm-4.411.02c0,1.529.234,2.5.9,2.5.576,0,.755-1.242.755-2.5,0-1.172-.179-2.467-.792-2.467C1022.482,747.869,1022.32,749.164,1022.32,750.336Z"/>
      <path id="Trazado_50318" data-name="Trazado 50318" d="M1027.971,748.75c0-.936-.036-1.926-.072-2.826h2.395l.143,1.26h.073a2.016,2.016,0,0,1,1.711-1.405,2.493,2.493,0,0,1,.593.055v2.736a3.182,3.182,0,0,0-.612-.035,1.388,1.388,0,0,0-1.314,1.008,2.783,2.783,0,0,0-.126.918v4.322h-2.791Z"/>
      <path id="Trazado_50319" data-name="Trazado 50319" d="M1038.771,745.924l.739,4.412c.072.449.144.881.2,1.332h.036c.054-.432.09-.865.145-1.3l.593-4.447h2.719l-1.963,7.328a10.128,10.128,0,0,1-1.872,4,4.708,4.708,0,0,1-2.2,1.422l-.793-2.412a3.6,3.6,0,0,0,1.135-.576,2.4,2.4,0,0,0,.719-.866.712.712,0,0,0,.126-.359,1.036,1.036,0,0,0-.071-.324l-2.522-8.211Z"/>
      <path id="Trazado_50320" data-name="Trazado 50320" d="M967.33,757.033v-.9h75.8v.9Z"/>
      <path id="Trazado_50322" data-name="Trazado 50322" d="M977.869,766.75c0-.936-.035-1.926-.071-2.826h2.394l.144,1.26h.072a2.018,2.018,0,0,1,1.711-1.405,2.5,2.5,0,0,1,.594.055v2.736a3.2,3.2,0,0,0-.613-.035,1.388,1.388,0,0,0-1.314,1.008,2.807,2.807,0,0,0-.126.918v4.322h-2.791Z"/>
      <path id="Trazado_50323" data-name="Trazado 50323" d="M990.418,768.316c0,3.8-2.233,4.61-3.566,4.61-2.34,0-3.6-1.764-3.6-4.537,0-3.151,1.764-4.61,3.619-4.61C989.176,763.779,990.418,765.652,990.418,768.316Zm-4.411.02c0,1.529.233,2.5.9,2.5.576,0,.756-1.242.756-2.5,0-1.172-.18-2.467-.792-2.467C986.169,765.869,986.007,767.164,986.007,768.336Z"/>
      <path id="Trazado_50324" data-name="Trazado 50324" d="M998.554,760.322v9.633c0,.938.036,1.891.072,2.828h-2.4l-.143-.955h-.036a2.164,2.164,0,0,1-1.836,1.1c-2.053,0-2.827-2.285-2.827-4.555,0-3.06,1.368-4.592,2.917-4.592a1.46,1.46,0,0,1,1.44.828h.036v-4.285Zm-2.773,7.024a2.3,2.3,0,0,0-.036-.487c-.091-.379-.252-.738-.648-.738-.685,0-.955,1.025-.955,2.322,0,1.6.451,2.215.955,2.215a.613.613,0,0,0,.593-.451,1.365,1.365,0,0,0,.091-.539Z"/>
      <path id="Trazado_50325" data-name="Trazado 50325" d="M1007.067,769.955c0,.938.036,1.928.072,2.828h-2.394l-.145-.937h-.036a2.51,2.51,0,0,1-2.106,1.08c-1.746,0-2.448-1.26-2.448-3.727v-5.275h2.79v4.988c0,1.063.234,1.692.756,1.692a.611.611,0,0,0,.558-.36,1.532,1.532,0,0,0,.162-.738v-5.582h2.791Z"/>
      <path id="Trazado_50326" data-name="Trazado 50326" d="M1013.816,772.656a4.692,4.692,0,0,1-1.53.235c-2.377,0-3.907-1.549-3.907-4.43,0-2.826,1.746-4.645,4.3-4.645a3.814,3.814,0,0,1,1.315.215l-.324,2.162a2.96,2.96,0,0,0-.828-.127c-1.027,0-1.71.829-1.71,2.288,0,1.4.63,2.287,1.656,2.287a1.956,1.956,0,0,0,.828-.162Z"/>
      <path id="Trazado_50327" data-name="Trazado 50327" d="M1018.244,761.529v2.4h1.746v1.945h-1.746V769.4c0,.971.432,1.206.882,1.206a4.049,4.049,0,0,0,.648-.053v2.178a7.189,7.189,0,0,1-1.621.162,2.72,2.72,0,0,1-1.854-.577,3.25,3.25,0,0,1-.846-2.664v-3.781h-1.026v-1.945h1.026V762.34Z"/>
      <path id="Trazado_50328" data-name="Trazado 50328" d="M1027.839,768.316c0,3.8-2.233,4.61-3.566,4.61-2.341,0-3.6-1.764-3.6-4.537,0-3.151,1.764-4.61,3.619-4.61C1026.6,763.779,1027.839,765.652,1027.839,768.316Zm-4.411.02c0,1.529.233,2.5.9,2.5.576,0,.756-1.242.756-2.5,0-1.172-.18-2.467-.792-2.467C1023.59,765.869,1023.428,767.164,1023.428,768.336Z"/>
      <path id="Trazado_50329" data-name="Trazado 50329" d="M1029.078,766.75c0-.936-.035-1.926-.071-2.826h2.394l.144,1.26h.072a2.019,2.019,0,0,1,1.711-1.405,2.5,2.5,0,0,1,.594.055v2.736a3.2,3.2,0,0,0-.613-.035,1.388,1.388,0,0,0-1.314,1.008,2.806,2.806,0,0,0-.126.918v4.322h-2.791Z"/>
      <path id="Trazado_50330" data-name="Trazado 50330" d="M1041.249,770.748a12.149,12.149,0,0,0,.143,2.035h-2.484l-.144-.847h-.036a2.462,2.462,0,0,1-2.035.99,2.53,2.53,0,0,1-2.43-2.754c0-2.377,2.161-3.313,4.159-3.33v-.162c0-.487-.45-.866-1.17-.866a3.614,3.614,0,0,0-1.946.541l-.485-1.855a6.736,6.736,0,0,1,3.042-.721c3.079,0,3.386,2.2,3.386,3.909Zm-2.737-2.16c-.81.017-1.639.342-1.639,1.277,0,.756.45,1.045.757,1.045a.867.867,0,0,0,.828-.521,1.019,1.019,0,0,0,.054-.362Z"/>
      <path id="Trazado_50331" data-name="Trazado 50331" d="M968.437,775.033v-.9h73.583v.9Z"/>
      <path id="Trazado_50332" data-name="Trazado 50332" d="M945.713,788.01a4.885,4.885,0,0,0,2.107.469c1.044,0,1.512-.469,1.512-1.081,0-.757-.5-1.1-1.567-1.728-1.961-1.172-2.286-2.5-2.286-3.4,0-2,1.3-3.727,4.1-3.727a4.528,4.528,0,0,1,2,.432l-.4,2.394a3.037,3.037,0,0,0-1.584-.414c-.936,0-1.386.487-1.386,1.045,0,.522.252.863,1.621,1.639a3.841,3.841,0,0,1,2.232,3.457c0,2.287-1.711,3.8-4.267,3.8a5.908,5.908,0,0,1-2.449-.469Z"/>
      <path id="Trazado_50333" data-name="Trazado 50333" d="M960.043,788.748a12.142,12.142,0,0,0,.143,2.035H957.7l-.145-.847h-.036a2.459,2.459,0,0,1-2.034.99,2.531,2.531,0,0,1-2.431-2.754c0-2.377,2.161-3.313,4.16-3.33v-.162c0-.487-.451-.866-1.17-.866a3.614,3.614,0,0,0-1.946.541l-.485-1.855a6.738,6.738,0,0,1,3.043-.721c3.078,0,3.385,2.2,3.385,3.909Zm-2.738-2.16c-.809.017-1.638.342-1.638,1.277,0,.756.45,1.045.757,1.045a.867.867,0,0,0,.828-.521,1.021,1.021,0,0,0,.053-.362Z"/>
      <path id="Trazado_50334" data-name="Trazado 50334" d="M961.57,778.322h2.774v4.448h.036a2.179,2.179,0,0,1,1.836-.991c1.854,0,2.539,2.108,2.539,4.268,0,3.06-1.189,4.879-2.971,4.879a1.817,1.817,0,0,1-1.729-1.133h-.036l-.144.99H961.5c.036-.9.071-1.89.071-2.828Zm2.774,9.274a1.565,1.565,0,0,0,.107.576c.145.342.36.486.6.486.648,0,.954-.756.954-2.377,0-1.422-.324-2.16-.954-2.16a.7.7,0,0,0-.6.486,1.673,1.673,0,0,0-.107.522Z"/>
      <path id="Trazado_50335" data-name="Trazado 50335" d="M972.407,787.506c.036.81.72,1.3,1.782,1.3a6.043,6.043,0,0,0,1.783-.289l.342,1.98a8.388,8.388,0,0,1-2.629.4c-2.539,0-3.961-1.532-3.961-4.321,0-3.025,1.693-4.791,3.782-4.791,1.944,0,3.222,1.334,3.222,4.3a7.617,7.617,0,0,1-.089,1.422Zm1.818-1.926c0-.865-.143-1.8-.864-1.8-.7,0-.954,1.043-.954,1.8Z"/>
      <path id="Trazado_50336" data-name="Trazado 50336" d="M977.986,784.75c0-.936-.035-1.926-.071-2.826h2.394l.144,1.26h.072a2.018,2.018,0,0,1,1.711-1.405,2.5,2.5,0,0,1,.594.055v2.736a3.188,3.188,0,0,0-.612-.035,1.389,1.389,0,0,0-1.315,1.008,2.805,2.805,0,0,0-.126.918v4.322h-2.791Z"/>
      <path id="Trazado_50337" data-name="Trazado 50337" d="M986.051,787.506c.036.81.72,1.3,1.782,1.3a6.05,6.05,0,0,0,1.783-.289l.342,1.98a8.393,8.393,0,0,1-2.629.4c-2.539,0-3.961-1.532-3.961-4.321,0-3.025,1.692-4.791,3.781-4.791,1.945,0,3.223,1.334,3.223,4.3a7.5,7.5,0,0,1-.09,1.422Zm1.818-1.926c0-.865-.144-1.8-.864-1.8-.7,0-.954,1.043-.954,1.8Z"/>
      <path id="Trazado_50338" data-name="Trazado 50338" d="M991.63,788.369a3.668,3.668,0,0,0,1.675.469c.522,0,.81-.18.81-.576,0-.377-.27-.576-.99-.973a2.792,2.792,0,0,1-1.8-2.557,2.89,2.89,0,0,1,3.115-2.953,4.509,4.509,0,0,1,1.891.4l-.433,2.017a2.708,2.708,0,0,0-1.26-.341c-.54,0-.774.269-.774.593,0,.3.2.487,1.008.936a2.867,2.867,0,0,1,1.765,2.646c0,1.838-1.332,2.864-3.331,2.864a4.207,4.207,0,0,1-2.125-.5Z"/>
      <path id="Trazado_50339" data-name="Trazado 50339" d="M1000.611,784.75c0-.936-.035-1.891-.071-2.826h2.394l.144.99h.036a2.052,2.052,0,0,1,1.855-1.135c2.106,0,2.808,2.325,2.808,4.575,0,3.1-1.386,4.572-2.934,4.572a1.752,1.752,0,0,1-1.422-.791h-.036v4.1h-2.774Zm2.774,2.811a1.711,1.711,0,0,0,.143.755.617.617,0,0,0,.54.342c.685,0,.955-1.062.955-2.287,0-1.621-.4-2.25-.919-2.25a.639.639,0,0,0-.593.4,1.324,1.324,0,0,0-.126.611Z"/>
      <path id="Trazado_58242" data-name="Trazado 58242" d="M1000.611,784.75c0-.936-.035-1.891-.071-2.826h2.394l.144.99h.036a2.052,2.052,0,0,1,1.855-1.135c2.106,0,2.808,2.325,2.808,4.575,0,3.1-1.386,4.572-2.934,4.572a1.752,1.752,0,0,1-1.422-.791h-.036v4.1h-2.774Zm2.774,2.811a1.711,1.711,0,0,0,.143.755.617.617,0,0,0,.54.342c.685,0,.955-1.062.955-2.287,0-1.621-.4-2.25-.919-2.25a.639.639,0,0,0-.593.4,1.324,1.324,0,0,0-.126.611Z" transform="translate(-31 -18)"/>
      <path id="Trazado_50340" data-name="Trazado 50340" d="M1015.931,786.316c0,3.8-2.232,4.61-3.565,4.61-2.341,0-3.6-1.764-3.6-4.537,0-3.151,1.765-4.61,3.62-4.61C1014.689,781.779,1015.931,783.652,1015.931,786.316Zm-4.411.02c0,1.529.234,2.5.9,2.5.576,0,.756-1.242.756-2.5,0-1.172-.18-2.467-.792-2.467C1011.682,783.869,1011.52,785.164,1011.52,786.336Z"/>
      <path id="Trazado_50341" data-name="Trazado 50341" d="M1017.171,784.75c0-.936-.036-1.891-.072-2.826h2.4l.144.99h.036a2.05,2.05,0,0,1,1.854-1.135c2.107,0,2.81,2.325,2.81,4.575,0,3.1-1.387,4.572-2.936,4.572a1.753,1.753,0,0,1-1.422-.791h-.036v4.1h-2.773Zm2.773,2.811a1.709,1.709,0,0,0,.144.755.616.616,0,0,0,.54.342c.684,0,.955-1.062.955-2.287,0-1.621-.4-2.25-.919-2.25a.642.642,0,0,0-.594.4,1.323,1.323,0,0,0-.126.611Z"/>
      <path id="Trazado_50342" data-name="Trazado 50342" d="M1032.581,787.955c0,.938.036,1.928.072,2.828h-2.394l-.145-.937h-.036a2.511,2.511,0,0,1-2.106,1.08c-1.747,0-2.449-1.26-2.449-3.727v-5.275h2.79v4.988c0,1.063.235,1.692.757,1.692a.611.611,0,0,0,.558-.36,1.532,1.532,0,0,0,.162-.738v-5.582h2.791Z"/>
      <path id="Trazado_50343" data-name="Trazado 50343" d="M1034.163,778.322h2.791v12.461h-2.791Z"/>
      <path id="Trazado_50344" data-name="Trazado 50344" d="M1044.983,788.748a12.042,12.042,0,0,0,.144,2.035h-2.485l-.144-.847h-.035a2.464,2.464,0,0,1-2.035.99,2.53,2.53,0,0,1-2.431-2.754c0-2.377,2.161-3.313,4.159-3.33v-.162c0-.487-.45-.866-1.17-.866a3.61,3.61,0,0,0-1.945.541l-.486-1.855a6.743,6.743,0,0,1,3.042-.721c3.08,0,3.386,2.2,3.386,3.909Zm-2.737-2.16c-.81.017-1.639.342-1.639,1.277,0,.756.45,1.045.757,1.045a.867.867,0,0,0,.828-.521,1.019,1.019,0,0,0,.054-.362Z"/>
      <path id="Trazado_50345" data-name="Trazado 50345" d="M1046.511,784.75c0-.936-.037-1.926-.072-2.826h2.4l.143,1.26h.073a2.016,2.016,0,0,1,1.711-1.405,2.494,2.494,0,0,1,.593.055v2.736a3.183,3.183,0,0,0-.612-.035,1.388,1.388,0,0,0-1.314,1.008,2.753,2.753,0,0,0-.126.918v4.322h-2.791Z"/>
      <path id="Trazado_50346" data-name="Trazado 50346" d="M1054.575,787.506c.036.81.72,1.3,1.782,1.3a6.044,6.044,0,0,0,1.783-.289l.342,1.98a8.389,8.389,0,0,1-2.629.4c-2.539,0-3.961-1.532-3.961-4.321,0-3.025,1.693-4.791,3.782-4.791,1.944,0,3.222,1.334,3.222,4.3a7.508,7.508,0,0,1-.09,1.422Zm1.818-1.926c0-.865-.143-1.8-.864-1.8-.7,0-.954,1.043-.954,1.8Z"/>
      <path id="Trazado_50347" data-name="Trazado 50347" d="M1060.154,788.369a3.672,3.672,0,0,0,1.675.469c.522,0,.81-.18.81-.576,0-.377-.27-.576-.99-.973a2.794,2.794,0,0,1-1.8-2.557,2.891,2.891,0,0,1,3.116-2.953,4.5,4.5,0,0,1,1.89.4l-.432,2.017a2.712,2.712,0,0,0-1.261-.341c-.54,0-.773.269-.773.593,0,.3.2.487,1.007.936a2.867,2.867,0,0,1,1.765,2.646c0,1.838-1.332,2.864-3.331,2.864a4.212,4.212,0,0,1-2.125-.5Z"/>
    </g>
    <line id="Línea_571" data-name="Línea 571" x2="30" transform="translate(717.228 767.5)" fill="none" stroke="#000" stroke-miterlimit="10" stroke-width="2"/>
    <line id="Línea_572" data-name="Línea 572" y2="30" transform="translate(824.228 904)" fill="none" stroke="#000" stroke-miterlimit="10" stroke-width="2"/>
    <line id="Línea_573" data-name="Línea 573" y2="30" transform="translate(824.228 1140)" fill="none" stroke="#000" stroke-miterlimit="10" stroke-width="2"/>
    <line id="Línea_574" data-name="Línea 574" x2="30" transform="translate(899.228 768)" fill="none" stroke="#000" stroke-miterlimit="10" stroke-width="2"/>
    <path id="Trazado_50348" data-name="Trazado 50348" d="M641.228,820v63h106" fill="none" stroke="#000" stroke-miterlimit="10" stroke-width="2"/>
    <path id="Trazado_50349" data-name="Trazado 50349" d="M1005.228,820v63h-106" fill="none" stroke="#000" stroke-miterlimit="10" stroke-width="2"/>
  </g>
</svg>
