<svg xmlns="http://www.w3.org/2000/svg" xmlns:xlink="http://www.w3.org/1999/xlink" width="359.882" height="396.795" viewBox="0 0 359.882 396.795">
  <defs>
    <linearGradient id="linear-gradient" x1="0.5" y1="0.697" x2="0.5" y2="-0.673" gradientUnits="objectBoundingBox">
      <stop offset="0" stop-color="#e266d6"/>
      <stop offset="1" stop-color="#d7bbda"/>
    </linearGradient>
    <linearGradient id="linear-gradient-2" x1="0.5" y1="1.943" x2="0.5" y2="-0.113" gradientUnits="objectBoundingBox">
      <stop offset="0.327" stop-color="#e266d6"/>
      <stop offset="0.514" stop-color="#e168d6"/>
      <stop offset="0.65" stop-color="#e072d6"/>
      <stop offset="0.769" stop-color="#de82d7"/>
      <stop offset="0.879" stop-color="#db98d8"/>
      <stop offset="0.981" stop-color="#d7b4d9"/>
      <stop offset="1" stop-color="#d7bbda"/>
    </linearGradient>
  </defs>
  <g id="Grupo_24093" data-name="Grupo 24093" transform="translate(-36.235 -74.154)">
    <g id="Grupo_24092" data-name="Grupo 24092" transform="translate(36.235 74.154)">
      <g id="Grupo_24091" data-name="Grupo 24091">
        <g id="Grupo_24071" data-name="Grupo 24071" transform="translate(25.047 218.26)">
          <path id="Trazado_51355" data-name="Trazado 51355" d="M416.512,486.929V373.356a64.96,64.96,0,0,0-64.961-64.96H335.193v65.529a137.372,137.372,0,0,0,9.6,50.29c6.631,16.854,14.262,40.97,14.262,62.714Z" transform="translate(-81.677 -308.394)" fill="#f3b23c"/>
          <g id="Grupo_24070" data-name="Grupo 24070" transform="translate(0 0.002)">
            <g id="Grupo_24068" data-name="Grupo 24068" transform="translate(0 34.816)">
              <path id="Trazado_51356" data-name="Trazado 51356" d="M72.937,345.761c0,5.775-7.117,8.087-9.138,16.5-2.871,11.949,4.229,16.993,4.287,25.368H79.1Z" transform="translate(-63.116 -345.761)" fill="#f3b23c"/>
              <path id="Trazado_51357" data-name="Trazado 51357" d="M68.561,383.164c.444-2.826-1.96-6.379-1.47-13.377.315-4.517,5.3-11.04,6.107-16.273L76.25,351.2v31.966Z" transform="translate(-63.382 -346.132)" fill="#8c3694"/>
            </g>
            <g id="Grupo_24069" data-name="Grupo 24069" transform="translate(4.912)">
              <path id="Trazado_51358" data-name="Trazado 51358" d="M121.006,486.929l-2.547-22.215a80.523,80.523,0,0,0-28.02-52.33L76.132,400.308a21.815,21.815,0,0,1-7.478-20.064l4.652-29.649L95.431,332.31A102.653,102.653,0,0,1,161.295,308.4h0V486.929Z" transform="translate(-68.387 -308.396)" fill="#f3b23c"/>
              <path id="Trazado_51359" data-name="Trazado 51359" d="M136.12,315.113c7.684,3.493,21.446,29.107,21.446,58.214,0,0-3.313-32.6-26.351-47.5Z" transform="translate(-72.673 -308.854)" fill="#8c3694"/>
              <path id="Trazado_51360" data-name="Trazado 51360" d="M139.083,312.029c16.573,12.263,27.035,36.064,27.035,55.766,0,0,7.283-23.787,9.032-34.631s-9.032-24.769-9.032-24.769h0A102.645,102.645,0,0,0,139.083,312.029Z" transform="translate(-73.21 -308.396)" fill="#8c3694"/>
              <path id="Trazado_51361" data-name="Trazado 51361" d="M139.756,435.315C155.5,405.232,153.4,383.894,153.4,383.894c.7,20.638-26.166,54.776-32.46,68.938,8.455-23.649,35.982-58.185,24.361-87.281-5.592-14-5.337-38.079-9.3-36.448L73.976,364.22s-.926,7.131-2.3,22.262c-.331,3.652-.532,10.145,2.279,12.866a21.693,21.693,0,0,0,2.386,2.367l14.307,12.077a80.523,80.523,0,0,1,28.02,52.33l2.547,22.215C120.519,478.044,124.015,465.4,139.756,435.315Z" transform="translate(-68.599 -309.803)" fill="#8c3694"/>
            </g>
          </g>
          <path id="Trazado_51362" data-name="Trazado 51362" d="M142.486,486.929c0-21.743,7.63-45.859,14.262-62.714a137.372,137.372,0,0,0,9.6-50.29V308.4h155.7v65.529a137.372,137.372,0,0,0,9.6,50.29c6.631,16.854,14.262,40.97,14.262,62.714Z" transform="translate(-68.53 -308.394)" fill="#f3b23c"/>
          <path id="Trazado_51363" data-name="Trazado 51363" d="M246.392,308.4c-1.749.417-80.042,0-80.042,0v65.529a137.372,137.372,0,0,1-9.6,50.29c-6.631,16.854-14.262,40.97-14.262,62.714H244.575V365.916S248.141,307.978,246.392,308.4Z" transform="translate(-68.53 -308.394)" fill="#e266d6"/>
        </g>
        <g id="Grupo_24073" data-name="Grupo 24073" transform="translate(122.866 161.729)">
          <g id="Grupo_24072" data-name="Grupo 24072">
            <path id="Trazado_51364" data-name="Trazado 51364" d="M207.947,247.724v25.631a30.9,30.9,0,0,1-30.9,30.9H168.1s12.349,57.52,78.225,57.52,77.472-57.52,77.472-57.52h-8.95a30.9,30.9,0,0,1-30.9-30.9V247.724Z" transform="translate(-168.097 -247.724)" fill="#f2f2f2"/>
          </g>
          <path id="Trazado_51365" data-name="Trazado 51365" d="M282.113,247.724H207.947v25.631a30.9,30.9,0,0,1-30.9,30.9H168.1s12.349,57.52,78.225,57.52l.126,0c0-50.94,35.666-97.576,35.666-97.576Z" transform="translate(-168.097 -247.724)" fill="#feb279"/>
        </g>
        <g id="Grupo_24074" data-name="Grupo 24074" transform="translate(213.303 129.095)">
          <path id="Trazado_51366" data-name="Trazado 51366" d="M290.564,287.768a35.824,35.824,0,0,1-8.039,22.487,77.844,77.844,0,0,0-17.369,49.133c0,20.154,9.9,30.61,18.969,35.959a24.61,24.61,0,0,1,12.027,18.915,16.24,16.24,0,0,0,4.422,9.846c9.053,9.556,29.758,3.269,29.842-12.071,0,0,16.683-2.766,22.718-24.9,4.226-15.492-1.655-29.874-11.773-37.54a18.271,18.271,0,0,1-6.266-20.934c4.1-11.13,5.728-27.16-6.857-43.948-23.137-30.864,13.642-53.767-13.895-72.015H290.564Z" transform="translate(-265.155 -212.701)" fill="url(#linear-gradient)"/>
          <path id="Trazado_51367" data-name="Trazado 51367" d="M344.142,349.6a18.271,18.271,0,0,1-6.266-20.934c4.1-11.13,5.728-27.16-6.857-43.948-23.137-30.864,13.641-53.767-13.895-72.015H305.942c27.537,18.248-9.242,41.151,13.895,72.015,12.585,16.788,10.958,32.818,6.857,43.948A18.271,18.271,0,0,0,332.96,349.6c10.119,7.667,16,22.049,11.774,37.54-6.036,22.131-22.719,24.9-22.719,24.9-.045,8.139-5.894,13.729-12.729,15.756,10,3.267,23.842-3.217,23.911-15.756,0,0,16.683-2.766,22.718-24.9C360.141,371.648,354.26,357.266,344.142,349.6Z" transform="translate(-267.937 -212.701)" fill="#d7bbda"/>
        </g>
        <g id="Grupo_24083" data-name="Grupo 24083" transform="translate(127.609 43.779)">
          <g id="Grupo_24077" data-name="Grupo 24077" transform="translate(0 44.403)">
            <g id="Grupo_24075" data-name="Grupo 24075" transform="translate(126.026 1.376)">
              <path id="Trazado_51368" data-name="Trazado 51368" d="M309.731,190.464c-2.438,11.88-1.318,22.12,2.5,22.871s8.895-8.271,11.333-20.152,1.318-22.12-2.5-22.871S312.168,178.584,309.731,190.464Z" transform="translate(-308.441 -170.269)" fill="#f2f2f2"/>
              <path id="Trazado_51369" data-name="Trazado 51369" d="M309.731,190.464c-2.438,11.88-1.318,22.12,2.5,22.871,1.565.307,3.342-1.029,5.061-3.529-5.838-8.712-4.453-34.17,3.768-39.494C317.243,169.563,312.168,178.584,309.731,190.464Z" transform="translate(-308.441 -170.269)" fill="#feb279"/>
              <ellipse id="Elipse_1280" data-name="Elipse 1280" cx="2.816" cy="2.755" rx="2.816" ry="2.755" transform="translate(2.575 39.637)" fill="#8c3694"/>
            </g>
            <g id="Grupo_24076" data-name="Grupo 24076">
              <ellipse id="Elipse_1281" data-name="Elipse 1281" cx="7.05" cy="21.959" rx="7.05" ry="21.959" transform="translate(0 2.848) rotate(-11.654)" fill="#feb279"/>
              <ellipse id="Elipse_1282" data-name="Elipse 1282" cx="2.816" cy="2.755" rx="2.816" ry="2.755" transform="translate(11.341 41.013)" fill="#8c3694"/>
            </g>
          </g>
          <g id="Grupo_24078" data-name="Grupo 24078" transform="translate(15.82)">
            <path id="Trazado_51370" data-name="Trazado 51370" d="M191.6,200.769c0,31.728,24.866,77.7,55.542,77.7s55.541-45.973,55.541-77.7,17.715-79.631-55.541-79.631C177.087,121.138,191.6,169.04,191.6,200.769Z" transform="translate(-190.178 -121.138)" fill="#f2f2f2"/>
            <path id="Trazado_51371" data-name="Trazado 51371" d="M247.451,232.052c2.949,0,3.319-3.613,5.47-3.613-2-1.229-2.445,1.615-6.756.338-5.293-1.567-7.743-4.621-7.765-8.334-.025-4.353,2.253-5.909,2.253-18.786,0-19.828-4.587-19.948-13.035-28.337-8.16-8.1-12.859-47.236,3.215-45.951-31.749-6.931-39.531,15.313-40.575,39.494-.52,12.058,1.334,24.6,1.334,34.243,0,31.426,24.4,76.819,54.668,77.681-8.413-.392-7.414-6.544-3.226-11.668,2.594-3.174,6.476-4.942,8.325-6.553,1.1-.962,1.131-4.13.078-4.13-5.76,0-3.986-7.847-3.986-14.026S242.939,232.052,247.451,232.052Z" transform="translate(-190.165 -121.475)" fill="#feb279"/>
          </g>
          <path id="Trazado_51372" data-name="Trazado 51372" d="M235.282,229.073a6.129,6.129,0,0,0,6.2,6.061h0" transform="translate(-177.424 -128.501)" fill="none" stroke="#f23030" stroke-miterlimit="10" stroke-width="1"/>
          <g id="Grupo_24081" data-name="Grupo 24081" transform="translate(16.562 45.394)">
            <g id="Grupo_24079" data-name="Grupo 24079" transform="translate(9.564 10.767)">
              <path id="Trazado_51373" data-name="Trazado 51373" d="M208.722,186.832s1.274,6.417,9.6,6.417,10.3-1.538,10.3-1.538.632-6.468-9.949-7.9C209.412,182.56,208.722,186.832,208.722,186.832Z" transform="translate(-201.738 -181.559)" fill="#f2f2f2"/>
              <path id="Trazado_51374" data-name="Trazado 51374" d="M218.246,181.591c-10.145-1.25-15.994,4.383-16.992,5.44a.1.1,0,0,0,.083.168h1.885a4.3,4.3,0,0,1,3.426,1.684,13.881,13.881,0,0,0,11.344,5.516,5.746,5.746,0,0,0-2.524-1.333,9.734,9.734,0,0,1-7.257-6.381c0-1.081,5.318-2.744,11.421-2.053a26.954,26.954,0,0,1,15.251,7.381S231.581,183.232,218.246,181.591Z" transform="translate(-201.227 -181.411)" fill="#8c3694"/>
              <path id="Trazado_51375" data-name="Trazado 51375" d="M222.185,194.685c2.534,0,6.13-1.4,8.945-1.016a.643.643,0,0,0,.74-.765c-.44-1.884-2.775-6.318-7.2-7.291,0,0,4.68,2.118,4.87,6.236a18.245,18.245,0,0,1-5.208,1.6,3.777,3.777,0,0,0-2.145,1.235Z" transform="translate(-202.657 -181.698)" fill="#8c3694"/>
              <path id="Trazado_51376" data-name="Trazado 51376" d="M223.884,186.741a5.248,5.248,0,1,1-5.247-5.133A5.191,5.191,0,0,1,223.884,186.741Z" transform="translate(-202.057 -181.424)" fill="#8c3694"/>
            </g>
            <path id="Trazado_51377" data-name="Trazado 51377" d="M236.626,183.962h0a13.256,13.256,0,0,0-8.953-7.656L203.99,170.23a11.13,11.13,0,0,0-10.855,2.9,10.329,10.329,0,0,0-2.157,3.419.244.244,0,0,0,.313.31,30.5,30.5,0,0,1,9.042-1.945c4.008,0,25.458,9.292,35.668,9.9A.619.619,0,0,0,236.626,183.962Z" transform="translate(-190.962 -169.855)" fill="#8c3694"/>
            <g id="Grupo_24080" data-name="Grupo 24080" transform="translate(69.208 10.767)">
              <path id="Trazado_51378" data-name="Trazado 51378" d="M292.4,186.832s-1.274,6.417-9.6,6.417-10.3-1.538-10.3-1.538-.631-6.468,9.949-7.9C291.715,182.56,292.4,186.832,292.4,186.832Z" transform="translate(-265.732 -181.559)" fill="#f2f2f2"/>
              <path id="Trazado_51379" data-name="Trazado 51379" d="M281.874,181.591c10.145-1.25,15.994,4.383,16.992,5.44a.1.1,0,0,1-.083.168H296.9a4.3,4.3,0,0,0-3.426,1.684,13.879,13.879,0,0,1-11.344,5.516,5.749,5.749,0,0,1,2.525-1.333,9.735,9.735,0,0,0,7.256-6.381c0-1.081-5.318-2.744-11.421-2.053a26.954,26.954,0,0,0-15.251,7.381S268.539,183.232,281.874,181.591Z" transform="translate(-265.237 -181.411)" fill="#8c3694"/>
              <path id="Trazado_51380" data-name="Trazado 51380" d="M279.689,194.685c-2.534,0-6.13-1.4-8.945-1.016a.643.643,0,0,1-.74-.765c.44-1.884,2.776-6.318,7.2-7.291,0,0-4.68,2.118-4.87,6.236a18.244,18.244,0,0,0,5.208,1.6,3.777,3.777,0,0,1,2.145,1.235Z" transform="translate(-265.561 -181.698)" fill="#8c3694"/>
              <path id="Trazado_51381" data-name="Trazado 51381" d="M277.933,186.741a5.248,5.248,0,1,0,5.246-5.133A5.19,5.19,0,0,0,277.933,186.741Z" transform="translate(-266.103 -181.424)" fill="#8c3694"/>
            </g>
            <path id="Trazado_51382" data-name="Trazado 51382" d="M262.612,183.962h0a13.252,13.252,0,0,1,8.953-7.656l23.681-6.076a11.13,11.13,0,0,1,10.855,2.9,10.329,10.329,0,0,1,2.157,3.419.244.244,0,0,1-.313.31,30.5,30.5,0,0,0-9.042-1.945c-4.007,0-25.458,9.292-35.668,9.9A.619.619,0,0,1,262.612,183.962Z" transform="translate(-195.847 -169.855)" fill="#8c3694"/>
          </g>
          <path id="Trazado_51383" data-name="Trazado 51383" d="M264.7,229.073a6.129,6.129,0,0,1-6.2,6.061" transform="translate(-179.008 -128.501)" fill="none" stroke="#feb279" stroke-miterlimit="10" stroke-width="1"/>
          <g id="Grupo_24082" data-name="Grupo 24082" transform="translate(56.273 120.935)">
            <path id="Trazado_51384" data-name="Trazado 51384" d="M238.843,260.867l-3.731-5.176,3.576-2.552a11.684,11.684,0,0,1,6.8-2.212H255.55a11.684,11.684,0,0,1,6.8,2.212l3.576,2.552-3.731,5.176a9.51,9.51,0,0,1-7.688,4.086h-7.972A9.51,9.51,0,0,1,238.843,260.867Z" transform="translate(-233.685 -250.927)" fill="#feb279"/>
            <path id="Trazado_51385" data-name="Trazado 51385" d="M251.854,260.507c.089-3.558,4.6-5.515,4.6-5.515-4.213,0-5.938-.218-5.938-4.064h-5.033a11.684,11.684,0,0,0-6.8,2.212l-3.576,2.552,3.731,5.176a9.51,9.51,0,0,0,7.688,4.086H254.5A4.314,4.314,0,0,1,251.854,260.507Z" transform="translate(-233.685 -250.927)" fill="#f2695c"/>
            <path id="Trazado_51386" data-name="Trazado 51386" d="M267.244,256.9l-.22-.168a6.874,6.874,0,0,0-4.179-1.441h-6.495a5.065,5.065,0,0,0-3.11,1.109,3.923,3.923,0,0,1-5.656,0,5.065,5.065,0,0,0-3.11-1.109H237.98a6.874,6.874,0,0,0-4.179,1.441l-.22.168" transform="translate(-233.581 -251.225)" fill="none" stroke="#f23030" stroke-miterlimit="10" stroke-width="1"/>
          </g>
        </g>
        <g id="Grupo_24085" data-name="Grupo 24085" transform="translate(114.249)">
          <path id="Trazado_51387" data-name="Trazado 51387" d="M228.7,123.826c41.113-9.925,53.43,62.8,84.665,62.8l-2.5,8.933s22.448-3.929,21.655-17.55-9.245-12.071-12.411-26.79-8.068-22.078-8.068-22.078-6.2-54.988-66.388-54.988-68.252,54.988-68.252,54.988-4.9,7.359-8.068,22.078-13.148,11.478-9.208,26.79c0,0-11.074,40.03,32.227,40.03a89.165,89.165,0,0,1-2.438-12.777,4.02,4.02,0,0,1-.727.881,2.816,2.816,0,0,1-5.629-.039,2.7,2.7,0,0,1,.432-1.454,19.32,19.32,0,0,1-2.121-3.074s10.728-8.238,14.225-45.045S228.7,123.826,228.7,123.826Z" transform="translate(-158.849 -74.154)" fill="url(#linear-gradient-2)"/>
          <g id="Grupo_24084" data-name="Grupo 24084" transform="translate(77.47)">
            <path id="Trazado_51388" data-name="Trazado 51388" d="M338.185,178.009c-.792-13.621-9.245-12.071-12.411-26.79s-8.068-22.078-8.068-22.078-6.2-54.988-66.388-54.988a90.447,90.447,0,0,0-9.326.477c51.519,5.333,57.078,54.511,57.078,54.511s4.9,7.359,8.067,22.078,11.62,13.169,12.412,26.79a11.55,11.55,0,0,1-3.018,8.449,19.819,19.819,0,0,0,2.5.168l-2.5,8.933S338.977,191.63,338.185,178.009Z" transform="translate(-241.991 -74.154)" fill="#d7bbda"/>
          </g>
        </g>
        <g id="Grupo_24088" data-name="Grupo 24088" transform="translate(34.856 212.229)">
          <path id="Trazado_51389" data-name="Trazado 51389" d="M78.569,308.447c-6.15,4.029-5.344,45.336-3.913,71.128A45.7,45.7,0,0,0,90.8,411.943h0a24.914,24.914,0,0,0,21.15,3.8c12.57-3.268,31.8-28.008,30.356-44.347s-6.479-16.86-4.515-39.212C140.343,303.11,99.841,294.511,78.569,308.447Z" transform="translate(-73.643 -301.921)" fill="#f3b23c"/>
          <g id="Grupo_24087" data-name="Grupo 24087" transform="translate(0 6.526)">
            <path id="Trazado_51390" data-name="Trazado 51390" d="M74.657,380.053A45.7,45.7,0,0,0,90.8,412.421a24.825,24.825,0,0,0,19.511,4.173c-3.107-.254-9.895-3.654-11.684-20.779-2.449-23.436-1.749-55.736-1.749-55.736L78.569,308.925C72.42,312.954,73.226,354.261,74.657,380.053Z" transform="translate(-73.643 -308.925)" fill="#8c3694"/>
            <g id="Grupo_24086" data-name="Grupo 24086" transform="translate(29.842 29.207)">
              <path id="Trazado_51391" data-name="Trazado 51391" d="M142.1,340.271h0c0,.072-.007.14-.008.212C142.088,340.413,142.093,340.34,142.1,340.271Z" transform="translate(-108.154 -340.27)" fill="#f2695c"/>
              <path id="Trazado_51392" data-name="Trazado 51392" d="M144.49,374.039c-1.311-14.8-5.561-16.621-4.893-33.44-2.878,76.264-33.175,44.483-33.861,56.833-.621,11.171,3.184,18.107,8.192,21,.069-.017.136-.03.2-.048C126.7,415.118,145.938,390.378,144.49,374.039Z" transform="translate(-105.67 -340.292)" fill="#8c3694"/>
            </g>
          </g>
        </g>
        <g id="Grupo_24090" data-name="Grupo 24090" transform="translate(0 43.621)">
          <path id="Trazado_51393" data-name="Trazado 51393" d="M78.921,307.352s-1.764,20.243,8.33,28.991,34.617,15.478,43.89-8.076,14.658-42.4,14.658-42.4Z" transform="translate(-39.139 -132.219)" fill="#feb279"/>
          <g id="Grupo_24089" data-name="Grupo 24089">
            <path id="Trazado_51394" data-name="Trazado 51394" d="M68.266,239.249l.565,42.367a27.961,27.961,0,0,0,30.941,27.467c2.857-.314,5.972-.8,9.368-1.5,0,0,23.273,9.9,40.608-7.41,8.514-8.5,14.149-14.208,17.681-17.812a35.693,35.693,0,0,0,7.676-11.8l1.965-4.946a35.465,35.465,0,0,1,7.44-11.561c5.813-6.017,15.938-15.619,26.316-21.355a1.564,1.564,0,0,0,.73-1.9c-.79-2.168-3.667-6.172-14.143-6.032h0a28.537,28.537,0,0,0-21.455,10.162l-13,15.456a2.864,2.864,0,0,1-5.007-1.311,60.683,60.683,0,0,1-.795-10.072l-.224-16.758h0a17.676,17.676,0,0,1,1.754-8.584c2.559-5.271,6.872-14.12,8.38-17.014,2.2-4.22,4.759-5.7,7.371-15.248s10.969-22.553,8.88-30.459c0,0,.267-3.492-1.817-4.706-2.691-1.565-5.947.308-5.947.308s-4.244.46-9.157,11.518a246.65,246.65,0,0,1-12.076,23.367c-1.687,2.982-6.845,13.593-11.18,21.365a10.836,10.836,0,0,1-12.546,5.124h0l2.924-31.675a79.962,79.962,0,0,0,.315-9.342l-.163-6.66q-.094-3.788.171-7.57c.546-8.007,1.25-27.607-4.732-29.88,0,0-3.719-4.138-7.327.1,0,0-3.124,1.263-3.045,7.194.066,4.976-2.2,28.274-2.933,35.656a13.933,13.933,0,0,1-1.14,4.3h0a13.955,13.955,0,0,0-1.2,5.254l-.675,22.048a7.292,7.292,0,0,1-7.191,7.068h0l-22.35-65.864a7.182,7.182,0,0,0-8.684-4.623h0a5.439,5.439,0,0,0-3.893,6.377l6.083,28.687a46.42,46.42,0,0,1,.988,8.169l0,.1A46.435,46.435,0,0,0,79.3,187.8l7.608,28.4h0a5.99,5.99,0,0,1-8.366-1.311L46.446,170.876a4.96,4.96,0,0,0-5.409-1.836h0s-4.664-.182-4.8,2.786,5.106,16.507,8.139,21.527c2.314,3.83,14.955,25.114,20.82,34.994A21.926,21.926,0,0,1,68.266,239.249Z" transform="translate(-36.235 -120.969)" fill="#f2f2f2"/>
            <path id="Trazado_51395" data-name="Trazado 51395" d="M173.45,159.923a246.77,246.77,0,0,1-12.076,23.367c-1.687,2.982-6.845,13.593-11.18,21.365a10.839,10.839,0,0,1-10.493,5.516l2.871.548a9.314,9.314,0,0,0,10.005-4.829c5.513-10.54,16.5-31.645,19.72-38.611,4.361-9.426,7.37-17.97,10.308-18.873C182.607,148.4,178.363,148.865,173.45,159.923Z" transform="translate(-43.294 -122.841)" fill="#feb279"/>
            <path id="Trazado_51396" data-name="Trazado 51396" d="M166.484,254.606a60.683,60.683,0,0,1-.795-10.072l-.224-16.758h0a17.665,17.665,0,0,1,1.754-8.584c2.559-5.271,6.872-14.12,8.38-17.014l-10,17.056a12.6,12.6,0,0,0-1.689,5.375l-2.5,31.584a3.7,3.7,0,0,0,5.253,3.652,14.954,14.954,0,0,0,4.828-3.927A2.864,2.864,0,0,1,166.484,254.606Z" transform="translate(-44.774 -126.509)" fill="#feb279"/>
            <path id="Trazado_51397" data-name="Trazado 51397" d="M125.349,126.933a6.563,6.563,0,0,1,1.508-3.916h0s-3.124,1.263-3.045,7.194c.066,4.976-2.2,28.274-2.933,35.656a13.961,13.961,0,0,1-1.063,4.127,14.95,14.95,0,0,0-1.278,5.431l-.675,22.048a7.292,7.292,0,0,1-7.191,7.068l1.98-.026a10,10,0,0,0,9.857-9.581Z" transform="translate(-41.313 -121.109)" fill="#feb279"/>
            <path id="Trazado_51398" data-name="Trazado 51398" d="M74.144,139.968a4.948,4.948,0,0,1,.827-3.909,5.435,5.435,0,0,0-1.793,5.263l6.083,28.687a46.42,46.42,0,0,1,.988,8.169l0,.1a46.435,46.435,0,0,0,1.559,10.552l7.608,28.4a6.541,6.541,0,0,0,2.766-7.112Z" transform="translate(-38.747 -121.998)" fill="#feb279"/>
            <path id="Trazado_51399" data-name="Trazado 51399" d="M74.738,285.86l-.553-41.468a29.3,29.3,0,0,0-4.366-15.005c-9.833-15.923-35.9-53.046-32.678-55.724a2.309,2.309,0,0,0-.9,1.759c-.135,2.968,5.106,16.507,8.139,21.527,2.314,3.83,14.955,25.114,20.82,34.994a21.926,21.926,0,0,1,3.069,10.9l.565,42.367a27.961,27.961,0,0,0,30.941,27.467c2.857-.314,5.972-.8,9.368-1.5-11.087.148-18.693-2.511-23.867-5.88A23.52,23.52,0,0,1,74.738,285.86Z" transform="translate(-36.235 -124.564)" fill="#feb279"/>
          </g>
        </g>
      </g>
    </g>
  </g>
</svg>
