<svg xmlns="http://www.w3.org/2000/svg" width="924" height="237.915" viewBox="0 0 924 237.915">
  <g id="Grupo_25874" data-name="Grupo 25874" transform="translate(-241 -3457.985)">
    <g id="Grupo_23957" data-name="Grupo 23957">
      <rect id="Rectángulo_4863" data-name="Rectángulo 4863" width="924" height="192" transform="translate(241 3489)" fill="#2fb239"/>
      <text id="Los_programas_de_extensión_usados_por_la_agricultura_convencional_estaban_dirigidos_desde_arriba_hacia_abajo_y_no_se_basaban_en_las_necesidades_y_posibilidades_locales_para_resolver_los_problemas_agropecuarios._Frente_a_esto_surgen_nuevas_formas_de_enseñ" data-name="Los programas de extensión usados por la agricultura convencional estaban dirigidos desde arriba hacia abajo, y no se basaban en las necesidades y posibilidades locales para resolver los problemas agropecuarios. Frente a esto, surgen nuevas formas de enseñ" transform="translate(425 3510)" fill="#fff" font-size="20" font-family="OpenSans, Open Sans"><tspan x="0" y="21">Los programas de extensión usados por la agricultura convencional estaban </tspan><tspan x="0" y="48">dirigidos desde arriba hacia abajo, y no se basaban en las necesidades y </tspan><tspan x="0" y="75">posibilidades locales para resolver los problemas agropecuarios. Frente a </tspan><tspan x="0" y="102">esto, surgen nuevas formas de enseñanza aprendizaje que integran la </tspan><tspan x="0" y="129">formación técnica con los saberes y conocimientos de los participantes.</tspan></text>
      <g id="Grupo_23956" data-name="Grupo 23956" transform="translate(256 3458.117)">
        <g id="Grupo_23955" data-name="Grupo 23955" transform="translate(17.102 0)">
          <g id="Grupo_23927" data-name="Grupo 23927" transform="translate(74.62 87.479)">
            <path id="Trazado_50024" data-name="Trazado 50024" d="M1772.313,913.772l5.831,4.438,5.231,5.8c-1.964,1.747-4.71-1.526-4.71-1.526a50.871,50.871,0,0,0,5.592,10.048c.934,1.928-.991,2.036-.991,2.036-2.428-1.9-6.031-7.978-6.031-7.978a98.893,98.893,0,0,0,4.984,9.475c.483,1.723-1.346,1.462-1.346,1.462-3.913-1.65-6.179-9.313-6.179-9.313.765,2.919,3.93,8.7,3.93,8.7-.256,1.264-.9.932-.9.932-3.3-.833-5.462-8.214-5.462-8.214l.883,2.743c1.538,3.646-.944,2.989-.944,2.989l-1.1-1.782a23.082,23.082,0,0,1-3.233-10.838l-.907-6.816Z" transform="translate(-1743.173 -794.003)" fill="#e28262"/>
            <path id="Trazado_50025" data-name="Trazado 50025" d="M1814.823,525.963l-3.545,1.852s3.165,51.864,9.92,61.344,10.151-2.654,11.837-4.139,4.239-59.7,4.239-59.7Z" transform="translate(-1808.159 -512.717)" fill="#e28262"/>
            <path id="Trazado_50026" data-name="Trazado 50026" d="M1827.574,713.431s1.2,44.6,3.038,54.55c0,0-2.087,5.152-5.354,2.155s-15.123-51.387-14-55.5S1827.574,713.431,1827.574,713.431Z" transform="translate(-1801.471 -648.211)" fill="#e28262"/>
            <path id="Trazado_50027" data-name="Trazado 50027" d="M1834.182,535.694c-10.125,7.512-26.935,4-26.935,4l-4.489-46.526s-1.437-9.193,10.332-12.973c0,0,13.459-4.073,19.224,9.731Z" transform="translate(-1802.703 -479.633)" fill="#95d2e2"/>
          </g>
          <g id="Grupo_23928" data-name="Grupo 23928" transform="translate(68.61 184.472)">
            <rect id="Rectángulo_4859" data-name="Rectángulo 4859" width="68.108" height="44.047" transform="translate(2.14 1.507)" fill="#fa9711"/>
            <rect id="Rectángulo_4860" data-name="Rectángulo 4860" width="65.939" height="41.652" transform="translate(3.25 2.485)" fill="#fff"/>
            <rect id="Rectángulo_4861" data-name="Rectángulo 4861" width="68.11" height="41.871" transform="translate(0 3.682)" fill="#ffad0b"/>
            <rect id="Rectángulo_4862" data-name="Rectángulo 4862" width="21.18" height="3.682" transform="translate(46.929)" fill="#ffad0b"/>
          </g>
          <path id="Trazado_50030" data-name="Trazado 50030" d="M1888.744,530.2l10.734-65.6s3.7-9.86-3.7-14.792l-28.193-13.249h-19.88l-33.892,20.029L1836.03,530.2Z" transform="translate(-1797.369 -360.964)" fill="#f39672"/>
          <path id="Trazado_50031" data-name="Trazado 50031" d="M1863.635,775.986s-6.088,13.9-7.557,45.853c0,0,45.817,14.372,60.189,0l.082-45.853Z" transform="translate(-1824.974 -606.75)" fill="#001b34"/>
          <g id="Grupo_23930" data-name="Grupo 23930" transform="translate(0 92.683)">
            <path id="Trazado_50038" data-name="Trazado 50038" d="M2141.418,738.131c-3.675,36.848-2.167,39.287-1.783,54.065,0,0-1.963,5.2-5.3,2.28s-8.668-51.989-6.991-55.9C2129.838,732.765,2141.418,738.131,2141.418,738.131Z" transform="translate(-2124.791 -670.385)" fill="#f39672"/>
            <path id="Trazado_50039" data-name="Trazado 50039" d="M2106.425,934.709l5.182,5.181,4.4,6.453c-2.18,1.465-4.465-2.146-4.465-2.146a50.778,50.778,0,0,0,4.189,10.706c.669,2.039-1.256,1.887-1.256,1.887-2.149-2.207-4.9-8.718-4.9-8.718a98.753,98.753,0,0,0,3.666,10.059c.246,1.773-1.531,1.27-1.531,1.27-3.656-2.164-4.871-10.06-4.871-10.06.364,2.995,2.726,9.148,2.726,9.148-.424,1.218-1.018.8-1.018.8-3.161-1.269-4.307-8.874-4.307-8.874l.5,2.836c1.033,3.822-1.335,2.836-1.335,2.836l-.853-1.915A23.1,23.1,0,0,1,2100.814,943l.017-6.876Z" transform="translate(-2092.125 -814.368)" fill="#f39672"/>
            <g id="Grupo_23929" data-name="Grupo 23929">
              <path id="Trazado_50040" data-name="Trazado 50040" d="M2056.636,536.752l-3.972.462s-15.571,49.572-12.646,60.841,8.67,1.356,10.776.572,27.041-54.455,27.041-54.455Z" transform="translate(-2037.104 -526.198)" fill="#f39672"/>
              <path id="Trazado_50041" data-name="Trazado 50041" d="M2060.222,562.318c-9.262,2.815-25.257-11.117-25.257-11.117l13.258-44.243s1.943-9.1,14.285-8.425c0,0,14.026,1,14.48,15.959Z" transform="translate(-2034.965 -498.497)" fill="#95d2e2"/>
            </g>
          </g>
          <path id="Trazado_50042" data-name="Trazado 50042" d="M1923.73,384.037v21.251H1946.2s-5.527-8.423-2.762-21.251Z" transform="translate(-1873.492 -322.931)" fill="#f39672"/>
          <path id="Trazado_50043" data-name="Trazado 50043" d="M1939.557,402.082c2.026,1.3,6.33,4.078,8.785,2.454a2.309,2.309,0,0,0,1.067-1.646,31.135,31.135,0,0,1-1.541-18.854h-19.711v1.927C1930.616,392.184,1933.77,398.353,1939.557,402.082Z" transform="translate(-1877.918 -322.931)" fill="#db765e"/>
          <g id="Grupo_23931" data-name="Grupo 23931" transform="translate(36.156 18.085)">
            <path id="Trazado_50044" data-name="Trazado 50044" d="M1978.88,271.733s-3.863-1.573-8.408-10.935c0,0-9.659-10.975-3.289-23.832,0,0,3.69-10.835,22.832-8.268C1990.015,228.7,1992.393,257.451,1978.88,271.733Z" transform="translate(-1965.01 -228.246)" fill="#f3906b"/>
            <path id="Trazado_50045" data-name="Trazado 50045" d="M1936,276.785l1.2-3.359s3.224-12.475,3.224-12.477a12.8,12.8,0,0,0,.063-5.25,12.878,12.878,0,0,1-.175-5.4c2.009-8.966-2.675-13.92-2.675-13.92-5.231-8.291-17.627-8.283-17.627-8.283-15.332.751-16.624,15.589-16.624,15.589-2.49,9.867,5.358,18.086,5.374,18.1.626.655.3,3.905.493,4.829.81,3.936,4.578,6.359,7.915,8.026,3.669,1.832,8.106,3.78,12.209,4.159C1930.93,278.941,1935.317,278.712,1936,276.785Z" transform="translate(-1898.508 -228.094)" fill="#f39672"/>
          </g>
          <path id="Trazado_50046" data-name="Trazado 50046" d="M1931.015,321.554l-4.238,1.4s5.592.631,5.889-.988c0,0-.688-3.223-1.456-6.28C1931.21,315.682,1931.644,321.346,1931.015,321.554Z" transform="translate(-1860.796 -273.434)" fill="#e47a5d"/>
          <g id="Grupo_23932" data-name="Grupo 23932" transform="translate(57.399 36.218)">
            <path id="Trazado_50047" data-name="Trazado 50047" d="M1960.14,310.054c-.044.879-.567,1.564-1.16,1.534s-1.044-.764-1-1.642.563-1.565,1.157-1.536S1960.184,309.177,1960.14,310.054Z" transform="translate(-1954.278 -304.385)" fill="#341e13"/>
            <path id="Trazado_50048" data-name="Trazado 50048" d="M1916.427,307.418c-.044.878-.565,1.564-1.16,1.533s-1.042-.763-1-1.642.563-1.566,1.158-1.536S1916.473,306.539,1916.427,307.418Z" transform="translate(-1898.507 -302.475)" fill="#341e13"/>
            <path id="Trazado_50049" data-name="Trazado 50049" d="M1958.4,298.345c.384.1.5-.416.5-.416a1.814,1.814,0,0,0,.023-.934.907.907,0,0,0-.437-.492,13.119,13.119,0,0,0-4.625.369c-.926.224-2.437.829-2.575,1.664-.04.25-.086.682.194.773A37.517,37.517,0,0,1,1958.4,298.345Z" transform="translate(-1951.257 -295.704)" fill="#341e13"/>
            <path id="Trazado_50050" data-name="Trazado 50050" d="M1909.067,295.787a32.512,32.512,0,0,0-5.388.291c-.361.165-.57-.322-.57-.322a1.826,1.826,0,0,1-.183-.916.9.9,0,0,1,.345-.561,9.779,9.779,0,0,1,4.006-.421,7.91,7.91,0,0,1,1.983.37A3.855,3.855,0,0,1,1909.067,295.787Z" transform="translate(-1888.222 -293.823)" fill="#341e13"/>
          </g>
          <g id="Grupo_23933" data-name="Grupo 23933" transform="translate(64.727 53.096)">
            <path id="Trazado_50051" data-name="Trazado 50051" d="M1928.485,355c.341.015.515.183.376.42,0,0-1.638,2.736-4.273,2.919s-4.654-2.294-4.654-2.294c-.2-.24,0-.462.424-.5C1920.358,355.552,1924.906,355.2,1928.485,355Z" transform="translate(-1919.857 -355.002)" fill="#fff"/>
          </g>
          <path id="Trazado_50052" data-name="Trazado 50052" d="M1832.381,528.418c.045,2.185-3.272,25.05-1.878,25.342.009,0,37.934,8.741,58.159,0l.082-23.56,10.734-65.6s3.7-9.86-3.7-14.792l-28.193-13.249,1.9,5.714-4.077,11.592-17.708-17.306-33.892,20.029q2.842,9.414,5.67,18.831c3.494,11.571,6.893,23.174,10.491,34.713C1829.977,510.133,1832.958,522.648,1832.381,528.418Z" transform="translate(-1797.369 -360.964)" fill="#95d2e2"/>
          <path id="Trazado_50053" data-name="Trazado 50053" d="M1953.627,451.51l-.237,10.561-3.89-3.8Z" transform="translate(-1888.026 -371.79)" fill="#3aa0bf"/>
          <path id="Trazado_50054" data-name="Trazado 50054" d="M1918.19,431.178s-1.143-4.424-6.749-8.16l.733,15.246S1915.284,430.465,1918.19,431.178Z" transform="translate(-1842.089 -351.158)" fill="#77c7df"/>
          <path id="Trazado_50055" data-name="Trazado 50055" d="M1914.589,459.555l-.511-7.086c-1.712-.42-3.241,1.976-4.489,3.941Z" transform="translate(-1837.977 -372.449)" fill="#3aa0bf"/>
          <g id="Grupo_23934" data-name="Grupo 23934" transform="translate(67.539 95.245)">
            <path id="Trazado_50056" data-name="Trazado 50056" d="M1934.565,509.29a1.507,1.507,0,1,1-1.507-1.507A1.507,1.507,0,0,1,1934.565,509.29Z" transform="translate(-1931.551 -507.783)" fill="#d2eae6"/>
          </g>
          <g id="Grupo_23935" data-name="Grupo 23935" transform="translate(67.539 122.61)">
            <path id="Trazado_50057" data-name="Trazado 50057" d="M1934.565,608.483a1.507,1.507,0,1,1-1.507-1.508A1.507,1.507,0,0,1,1934.565,608.483Z" transform="translate(-1931.551 -606.975)" fill="#d2eae6"/>
          </g>
          <g id="Grupo_23936" data-name="Grupo 23936" transform="translate(67.539 149.975)">
            <path id="Trazado_50058" data-name="Trazado 50058" d="M1934.565,707.677a1.507,1.507,0,1,1-1.507-1.507A1.508,1.508,0,0,1,1934.565,707.677Z" transform="translate(-1931.551 -706.17)" fill="#d2eae6"/>
          </g>
          <g id="Grupo_23937" data-name="Grupo 23937" transform="translate(67.539 177.34)">
            <path id="Trazado_50059" data-name="Trazado 50059" d="M1934.565,806.868a1.507,1.507,0,1,1-1.507-1.506A1.508,1.508,0,0,1,1934.565,806.868Z" transform="translate(-1931.551 -805.361)" fill="#d2eae6"/>
          </g>
          <line id="Línea_569" data-name="Línea 569" y2="103.855" transform="translate(65.602 91.485)" fill="none" stroke="#71c5df" stroke-miterlimit="10" stroke-width="2.957"/>
          <g id="Grupo_23939" data-name="Grupo 23939" transform="translate(31.611 187.927)">
            <path id="Trazado_50060" data-name="Trazado 50060" d="M1913.583,850.771s-19.373,9.074-59.015-.2c-.652-.153-.377-1.846-.377-1.846l.377-3.816c.172-1.223.856-1.165.856-1.165s37.933,8.741,58.159,0c0,0,.816-.142.85,1.081v4.758A1.258,1.258,0,0,1,1913.583,850.771Z" transform="translate(-1854.133 -843.738)" fill="#3d1a0c"/>
            <g id="Grupo_23938" data-name="Grupo 23938" transform="translate(29.917 3.261)">
              <path id="Trazado_50061" data-name="Trazado 50061" d="M1938.4,862.209a1.083,1.083,0,0,1-1.069,1.1h-7.716a1.082,1.082,0,0,1-1.069-1.1v-5.557a1.082,1.082,0,0,1,1.069-1.095h7.716a1.083,1.083,0,0,1,1.069,1.095Z" transform="translate(-1928.547 -855.557)" fill="none" stroke="#bababa" stroke-miterlimit="10" stroke-width="4.837"/>
              <line id="Línea_570" data-name="Línea 570" x2="4.084" transform="translate(0 3.523)" fill="none" stroke="#bababa" stroke-miterlimit="10" stroke-width="4.837"/>
            </g>
          </g>
          <path id="Trazado_50062" data-name="Trazado 50062" d="M1968.54,425.344s-12.437-4.829-15.364-9.639l-3.676,7,13.112,12.573,5.928-9.7" transform="translate(-1902.938 -345.863)" fill="#77c7df"/>
          <path id="Trazado_50063" data-name="Trazado 50063" d="M1938.34,218.394s6.944-6.091,3.729-11.153c0,0-5.531-6.133-15.79-4.608s-10.129-1.327-18.154,2.76-9.44,3.276-11.238,11.071c-1.7,7.366-.68,10.107.594,14.526s2.824,13.488,11.356,18.624c0,0-5.8-13,3.807-10.018l1.047-.084s-2.247-6.692,2.008-10.12c-2.114-2.592-.568-7.907-.167-8.67,2.013-3.843,8.112-2.365,11.636-3.452C1929.9,216.429,1936.691,215.114,1938.34,218.394Z" transform="translate(-1862.555 -191.396)" fill="#341e13"/>
          <g id="Grupo_23948" data-name="Grupo 23948" transform="translate(41.692 43.937)">
            <g id="Grupo_23944" data-name="Grupo 23944">
              <g id="Grupo_23943" data-name="Grupo 23943">
                <g id="Grupo_23942" data-name="Grupo 23942">
                  <g id="Grupo_23941" data-name="Grupo 23941">
                    <g id="Grupo_23940" data-name="Grupo 23940">
                      <path id="Trazado_50064" data-name="Trazado 50064" d="M2012.6,331.033a3.414,3.414,0,0,1-2.143.821c-2.443.134-4.627-2.009-4.879-4.785s1.522-5.128,3.965-5.262a4.307,4.307,0,0,1,3.12,1.169c1.258,1.146,1.453,3.4,1.285,4.983A4.664,4.664,0,0,1,2012.6,331.033Z" transform="translate(-2005.559 -321.802)" fill="#f39672"/>
                    </g>
                  </g>
                </g>
              </g>
            </g>
            <g id="Grupo_23947" data-name="Grupo 23947" transform="translate(2.192 1.62)">
              <g id="Grupo_23945" data-name="Grupo 23945" transform="translate(0)">
                <path id="Trazado_50065" data-name="Trazado 50065" d="M2020.329,328.576c-.246-1.449-3.1.15-2.595.94a4.539,4.539,0,0,0,1.263,1.068,2.156,2.156,0,0,1,1.018,1.53c.016.084.048.336-.031.4-.365.292-1.711-1.048-2.009-1.327a2.443,2.443,0,0,1-.517-2.307,1.466,1.466,0,0,1,1.545-1.208c.661-.008,1.342-.008,1.359.819,0,.017-.02.156-.032.083Z" transform="translate(-2017.367 -327.673)" fill="#e47a5d"/>
              </g>
              <g id="Grupo_23946" data-name="Grupo 23946" transform="translate(0.596 2.317)">
                <path id="Trazado_50066" data-name="Trazado 50066" d="M2016.059,336.238c.285-.33.595-.1.926.11a1.385,1.385,0,0,1,.59.823,3.427,3.427,0,0,1-.2,2.458,1.843,1.843,0,0,1-1.526.955c-.89.034-1.208-.731-1.293-1.481-.024-.2-.075-.677.115-.814s.376.172.527.3a1.24,1.24,0,0,0,.772.231,1.608,1.608,0,0,0,1.283-.68.864.864,0,0,0,.118-.238c.032.491.015.6-.055.335a1.368,1.368,0,0,0-.193-.334c-.227-.327-.593-.536-.845-.844-.12-.141-.362-.656-.22-.824Z" transform="translate(-2014.531 -336.073)" fill="#e47a5d"/>
              </g>
            </g>
          </g>
          <path id="Trazado_50067" data-name="Trazado 50067" d="M1905.719,344.254l1.364-7.219,1.045-.084a8.123,8.123,0,0,0,6.938,5.509s2.445.329,3.488.448c.137.016,1.612-1.5,1.805-1.625a11.786,11.786,0,0,1,5.6-1.633,13.926,13.926,0,0,1,6.033.274c.256.091,2.717,1.286,2.791.937,0,0-2.381,11.456-4.14,14.749,0,0-.749,2.525-6.626,2.014a33.355,33.355,0,0,1-18.03-7.867C1904.673,348.8,1905.719,344.254,1905.719,344.254ZM1932,343.3c-.251-1.183-.312-1.93-1.332-2.1a20.67,20.67,0,0,0-6.2.335c-1.612.234-3.614.478-4.244,2.257a6.881,6.881,0,0,0,.753,5.229c1.425,2.373,5.921,3.527,8.161,1.936C1931.039,349.608,1932.469,345.535,1932,343.3Z" transform="translate(-1856.993 -288.835)" fill="#341e13"/>
          <path id="Trazado_50068" data-name="Trazado 50068" d="M1927.454,370.874c-.451.644.646,1.294,1.062,1.556.827.518.958.478,1.741-.241.513-.472,1.857-1.649.616-2A9.63,9.63,0,0,0,1927.454,370.874Z" transform="translate(-1859.672 -312.888)" fill="#341e13"/>
          <path id="Trazado_50069" data-name="Trazado 50069" d="M1759.677,978.1s4.738-6.808,11.148-7.132c0,0,8.183,1,6.148,4.533C1776.973,975.5,1774.41,983.116,1759.677,978.1Z" transform="translate(-1659.328 -747.94)" fill="#e28262"/>
          <g id="Grupo_23953" data-name="Grupo 23953" transform="translate(32.785)">
            <path id="Trazado_50070" data-name="Trazado 50070" d="M1929.879,193.321a21.173,21.173,0,0,0,.219-2.994c0-12.649-11.132-22.9-24.861-22.9s-24.859,10.255-24.859,22.9a21.282,21.282,0,0,0,.219,2.994s.051,9.881,34.008,8.983C1914.605,202.3,1940.006,200.576,1929.879,193.321Z" transform="translate(-1880.378 -166.075)" fill="#fff"/>
            <path id="Trazado_50071" data-name="Trazado 50071" d="M1936.247,193.321a20.912,20.912,0,0,0-.492-8.433,5.346,5.346,0,0,1-2.044,3.979,8.392,8.392,0,0,1-5.125,1.5c-1.676-.072-3.465-.529-4.417-1.769a9.657,9.657,0,0,1-1.57-4.863,91.417,91.417,0,0,0-2.994-13.1,16.521,16.521,0,0,1-1.255-2.356,26.848,26.848,0,0,0-10.928-.527,17.213,17.213,0,0,1,3.333,7.008,46.992,46.992,0,0,1,1.075,6.951c.187,2.078.533,4.241-.118,6.29a5.4,5.4,0,0,1-4.323,3.825,14.3,14.3,0,0,1-7.578-.806,9.313,9.313,0,0,1-5.376-4.32,9.183,9.183,0,0,1-.387-7.019c1.318-3.978,4.3-7.57,7.888-10.46-8.925,3.475-15.189,11.617-15.189,21.106a21.282,21.282,0,0,0,.219,2.994s.041,7.544,22.7,8.85a2.538,2.538,0,0,1-.937-1.375c-.924-3.855,5.558-4.053,8.57-4.249,3.168-.2,6.336-.687,9.487-1.028a61.9,61.9,0,0,0,10.087-1.713C1936.681,193.645,1936.477,193.485,1936.247,193.321Z" transform="translate(-1886.746 -166.075)" fill="#e8e8e8"/>
            <g id="Grupo_23949" data-name="Grupo 23949" transform="translate(6.545 27.245)">
              <path id="Trazado_50072" data-name="Trazado 50072" d="M1889.023,262.448s.65.191,1.813.419c.582.108,1.284.284,2.1.4s1.735.285,2.743.425c1,.165,2.1.227,3.263.357,1.162.092,2.383.292,3.654.289l3.92.116c1.336.073,2.692.011,4.049-.03l4.046-.188c1.335-.051,2.636-.275,3.9-.4s2.483-.3,3.638-.456a30.061,30.061,0,0,0,3.23-.582c1.992-.414,3.637-.819,4.792-1.073l1.807-.433-1.847.246c-1.169.177-2.847.388-4.841.713a29.452,29.452,0,0,1-3.235.417c-1.156.093-2.373.185-3.629.318-1.257.1-2.55.3-3.875.329l-4.016.122c-1.344.063-2.688.147-4.014.1l-3.891-.051c-1.264.007-2.479-.114-3.636-.15-1.156-.071-2.255-.079-3.259-.192s-1.931-.174-2.751-.237-1.528-.171-2.118-.232C1889.692,262.553,1889.023,262.448,1889.023,262.448Z" transform="translate(-1889.023 -261.299)" fill="#d2d1d1"/>
            </g>
            <path id="Trazado_50073" data-name="Trazado 50073" d="M1929.879,193.321a21.173,21.173,0,0,0,.219-2.994c0-12.649-11.132-22.9-24.861-22.9s-24.859,10.255-24.859,22.9a21.282,21.282,0,0,0,.219,2.994s.051,9.881,34.008,8.983C1914.605,202.3,1940.006,200.576,1929.879,193.321Z" transform="translate(-1880.378 -166.075)" fill="none" stroke="#bababa" stroke-miterlimit="10" stroke-width="2.957"/>
            <g id="Grupo_23952" data-name="Grupo 23952" transform="translate(19.312)">
              <path id="Trazado_50074" data-name="Trazado 50074" d="M1954,191.925c3.241-18.007-3.424-27.464-3.424-27.464-.9-1.584-4.3-1.92-4.3-1.92h-3.956c-5.2.149-3.512,2.481-3.512,2.481s7.469,8.36,7.276,27.476Z" transform="translate(-1938.362 -162.541)" fill="#e4e3e3"/>
              <g id="Grupo_23950" data-name="Grupo 23950" transform="translate(0 1.92)">
                <path id="Trazado_50075" data-name="Trazado 50075" d="M1968.785,169.5a35.3,35.3,0,0,1,2.354,3.991c.339.6.637,1.3.987,2,.3.736.657,1.489.961,2.3.322.8.627,1.637.906,2.5.314.85.544,1.74.792,2.625.278.877.428,1.787.646,2.665.192.884.318,1.766.474,2.615.141.851.2,1.684.315,2.47s.124,1.537.169,2.229c.017.693.108,1.33.093,1.893,0,.566,0,1.059,0,1.465.014.817.021,1.283.021,1.283s.061-.462.169-1.271c.049-.406.107-.9.174-1.467a17.366,17.366,0,0,0,.1-1.912c.007-.7.057-1.467-.008-2.27s-.048-1.661-.171-2.534-.207-1.782-.4-2.688c-.212-.9-.354-1.836-.629-2.737s-.513-1.811-.844-2.678c-.29-.881-.654-1.717-1.009-2.524-.327-.819-.761-1.558-1.117-2.281-.408-.7-.76-1.373-1.148-1.961a26.2,26.2,0,0,0-1.979-2.758A12.592,12.592,0,0,0,1968.785,169.5Z" transform="translate(-1968.785 -169.502)" fill="#d2d1d1"/>
              </g>
              <g id="Grupo_23951" data-name="Grupo 23951" transform="translate(12.214 1.92)">
                <path id="Trazado_50076" data-name="Trazado 50076" d="M1936.95,169.5s.214.39.537,1.088c.155.353.348.777.536,1.28.2.494.378,1.074.612,1.685.188.63.429,1.3.6,2.032.2.723.362,1.5.54,2.3.2.794.285,1.639.456,2.48.108.852.236,1.716.316,2.584.06.87.171,1.738.193,2.6s.083,1.706.075,2.526-.014,1.614-.012,2.369c-.038.753-.074,1.466-.108,2.124-.048,1.319-.175,2.414-.234,3.184s-.088,1.216-.088,1.216l.276-1.185a31.632,31.632,0,0,0,.6-3.159c.085-.662.177-1.378.273-2.136.058-.762.123-1.567.164-2.4s.016-1.7.006-2.577-.11-1.767-.163-2.658c-.095-.887-.235-1.771-.359-2.641-.177-.862-.325-1.715-.551-2.523a22.958,22.958,0,0,0-.7-2.31c-.232-.731-.53-1.4-.769-2.019a22.918,22.918,0,0,0-1.5-2.859A10.568,10.568,0,0,0,1936.95,169.5Z" transform="translate(-1936.95 -169.502)" fill="#d2d1d1"/>
              </g>
            </g>
          </g>
          <path id="Trazado_50077" data-name="Trazado 50077" d="M1996,452.475s16.83,28.057,16.83,48.245A840.106,840.106,0,0,1,2010.967,585s-11,.509-28.915-3.426l4.478-37.965s.232-21.73-6.338-37.375l-10.652-38.124Z" transform="translate(-1953.093 -372.489)" fill="#e65928"/>
          <path id="Trazado_50078" data-name="Trazado 50078" d="M1815.625,451.51l19.652,9.052s5.421,2.712,4.386,10.026l-11.122,72.256,2.134,41.481s-13.427,1.061-17.335.488c1.95-80.646,2.055-80.642,2.82-97.028A344.659,344.659,0,0,0,1815.625,451.51Z" transform="translate(-1736.63 -371.79)" fill="#e65928"/>
          <g id="Grupo_23954" data-name="Grupo 23954" transform="translate(23.987 122.61)">
            <path id="Trazado_50079" data-name="Trazado 50079" d="M1902.027,656.014c.105,5.71.191,14.228.077,24.607h17.987c.3-11.448.511-19,.693-24.607Z" transform="translate(-1866.072 -642.485)" fill="none"/>
            <path id="Trazado_50080" data-name="Trazado 50080" d="M2005.769,612.6a44.046,44.046,0,0,0-.389-5.622h-35.364l3.112,11.14c.329.781.635,1.581.929,2.389h31.913C2005.878,615.455,2005.769,612.6,2005.769,612.6Z" transform="translate(-1970.016 -606.975)" fill="#ffe800"/>
            <path id="Trazado_50081" data-name="Trazado 50081" d="M1969.738,745.209c.521,6.11.476,10.379.476,10.379l-.371,3.149h26.7c.126-4.774.207-9.305.253-13.528Z" transform="translate(-1960.764 -707.073)" fill="#ffe800"/>
            <path id="Trazado_50082" data-name="Trazado 50082" d="M1845.69,620.5l2.082-13.529h-20.146c-.18,3.9-.334,7.657-.524,13.529Z" transform="translate(-1772.391 -606.975)" fill="#ffe800"/>
            <path id="Trazado_50083" data-name="Trazado 50083" d="M1864.217,745.209h-15.493c-.1,4-.219,8.485-.345,13.528H1862.8l-.166-3.218Z" transform="translate(-1794.705 -707.073)" fill="#ffe800"/>
          </g>
        </g>
      </g>
    </g>
  </g>
</svg>
