<svg xmlns="http://www.w3.org/2000/svg" width="544.17" height="270.539" viewBox="0 0 544.17 270.539">
  <g id="Grupo_24300" data-name="Grupo 24300" transform="translate(-29.041 -49.868)">
    <path id="Trazado_52343" data-name="Trazado 52343" d="M85.078,210.908c-17.323,0-69.372,12.253-52.835,18.955,23.386,9.478,79.685,9.478,95.276,11.2S108,242,131.85,253.126c27.717,12.923,98.741,21.539,150.71,15.508,10.466-1.215,22.359-10.967,42.443-8.616,29.448,3.447,79.86,3.894,100.472-4.308,21.654-8.616-12.992-14.647,16.457-14.647,18.21,0,64.962,5.169,90.946,4.308s1.732-9.478,14.725-12.063,28.583-1.723,25.118-11.2-38.11-12.924-38.11-12.924Z" transform="translate(0 33.696)" fill="#c4946c"/>
    <path id="Trazado_52344" data-name="Trazado 52344" d="M64.773,213.376c-14.725,3.447-24.8,8.434-10.939,13.444,13.892,5.019,81.963,4.65,89.759,8.958s-2.6,5.169-6.93,10.339,61.226,18.749,105.424,17.849c49.607-1.01,33.4-15.679,63.906-15.318,32.339.383,61.6,7.659,90.516,1.777,22.08-4.491,13.858-12.062,25.984-13.786s74.489.861,90.946.861,6.064-7.754,19.056-10.339,12.126-10.339-17.323-15.508S64.773,213.376,64.773,213.376Z" transform="translate(3.848 33.811)" fill="#a07555"/>
    <path id="Trazado_52345" data-name="Trazado 52345" d="M434.417,146.64A57.253,57.253,0,0,0,417.645,136.5c4.292-3.595,10.011-11.987,10.668-13.95.769-2.3-8.855-9.19-15.4-8.808-2.691.158.844,2.634-2.694,3.447-5,1.148-12.705,1.148-15.4,0s3.465-3.064-.385-4.6-7.7-4.6-9.624-1.533c0,0,.726,15.861,7.1,21.351-8.218.457-15.535,2.554-20.72,5.61-23.387,13.786-34.647,88.745-24.253,102.531s100.475,10.339,109.136-2.585S455.2,164.734,434.417,146.64Z" transform="translate(66.413 12.665)" fill="#4f4d4d"/>
    <path id="Trazado_52346" data-name="Trazado 52346" d="M390.411,135.236c-3.5-3.092-10.931-6.517-20.385-8.684,15.117-5.532,23.848-20.611,23.848-20.611s-6.062-7.754-20.787-6.892c-4.324.253-9.528.861-21.654-1.723-10.234-2.182-6.929-5.169-1.732-6.893s-12.126-10.339-19.055-7.754c0,0-4.817,26.373,9.167,39.123a47.534,47.534,0,0,0-18.455-.7c-19.922.861-29.69,17.58-41.816,46.874s-22.519,75.821-18.188,84.437,115.2,17.231,133.386,6.031S416.064,157.865,390.411,135.236Z" transform="translate(48.923 6.838)" fill="#3a3a3a"/>
    <path id="Trazado_52347" data-name="Trazado 52347" d="M371.262,239.111c8.632-.716,49.371-.861,54.568,6.031s-19.056,15.508-36.379,15.508S360.868,239.973,371.262,239.111Z" transform="translate(71.536 39.956)" fill="#c4946c"/>
    <g id="Grupo_24274" data-name="Grupo 24274" transform="translate(365.58 193.466)">
      <g id="Grupo_24267" data-name="Grupo 24267">
        <path id="Trazado_52348" data-name="Trazado 52348" d="M352.94,193.959l13.2-20.256a1.425,1.425,0,0,0-.294-1.993l-4.839-3.121a1.443,1.443,0,0,0-1.949.546l-13.2,20.256c-5.342-1.083-11.383,1.519-14.894,6.907l-22.3,34.22c-3.078,4.725-2.193,10.736,1.98,13.427l6.61,4.262c4.172,2.691,10.051,1.042,13.13-3.683l22.3-34.221C356.194,204.915,356.114,198.367,352.94,193.959Z" transform="translate(-306.828 -168.397)" fill="#7f5538"/>
      </g>
      <g id="Grupo_24268" data-name="Grupo 24268" transform="translate(1.621 1.528)">
        <path id="Trazado_52349" data-name="Trazado 52349" d="M359.282,169.972l-13.141,20.167a14.518,14.518,0,0,0-12.264,3.489c-4,3.773-23.612,35.332-25.076,38.48s-.3,8.575,2.462,10.648,7.034,4.536,7.034,4.536-7.872-5.953-5.348-11.632,21.177-33.4,25.088-37.6,11.214-.075,12.355,3.582a13.178,13.178,0,0,1,.225,6.868,10.537,10.537,0,0,0,2.771-7.858,12.977,12.977,0,0,0-2.1-5.544c-1.347-2.234-.838-3.534.12-5.085,2.756-4.466,8.043-12.975,8.982-14.085,1.279-1.512,2.057.451,2.057.451s2.229-2.069,2.352-3.16S360.768,168.593,359.282,169.972Z" transform="translate(-308.165 -169.658)" fill="#996847"/>
      </g>
      <g id="Grupo_24269" data-name="Grupo 24269" transform="translate(4.736 22.829)">
        <path id="Trazado_52350" data-name="Trazado 52350" d="M345.133,187.582s-6.244-1.689-10.7,2.45-24.088,35.61-23.686,34.993,21.418-30.611,25.827-33.32,10.057.348,12.21,2.905,2.444,3.913,2.444,3.913S352.909,191.427,345.133,187.582Z" transform="translate(-310.737 -187.24)" fill="#b27e5b"/>
      </g>
      <g id="Grupo_24270" data-name="Grupo 24270" transform="translate(13.761 36.831)">
        <path id="Trazado_52351" data-name="Trazado 52351" d="M338.716,217.962c-4.444,6.82-11.936,9.839-16.734,6.744s-5.086-11.13-.642-17.95,11.936-9.837,16.734-6.743S343.16,211.143,338.716,217.962Z" transform="translate(-318.186 -198.798)" fill="#c6a160"/>
      </g>
      <g id="Grupo_24271" data-name="Grupo 24271" transform="translate(10.539 34.198)">
        <ellipse id="Elipse_1294" data-name="Elipse 1294" cx="13.263" cy="9.304" rx="13.263" ry="9.304" transform="translate(0 22.156) rotate(-56.641)" fill="#d3b472"/>
      </g>
      <g id="Grupo_24272" data-name="Grupo 24272" transform="translate(17.937 39.802)">
        <path id="Trazado_52352" data-name="Trazado 52352" d="M336.585,214.786c-3.012,4.622-8.356,6.5-11.935,4.188s-4.04-7.926-1.029-12.548,8.356-6.5,11.935-4.189S339.6,210.164,336.585,214.786Z" transform="translate(-321.633 -201.25)" fill="#ffab35"/>
      </g>
      <g id="Grupo_24273" data-name="Grupo 24273" transform="translate(19.144 41.979)">
        <path id="Trazado_52353" data-name="Trazado 52353" d="M324.528,218.457c-2.585-1.667-2.522-6.347.139-10.432s6.931-6.051,9.516-4.384,2.524,6.347-.139,10.432S327.115,220.124,324.528,218.457Zm9.119-13.993c-2.129-1.373-5.786.464-8.152,4.095s-2.559,7.7-.43,9.074,5.786-.464,8.153-4.095S335.777,205.837,333.647,204.464Z" transform="translate(-322.63 -203.047)" fill="#7f5538"/>
      </g>
      <path id="Trazado_52354" data-name="Trazado 52354" d="M329.986,212.095c-1.777,2.727-3.959,4.461-4.873,3.871s-.214-3.278,1.563-6.005,3.96-4.461,4.874-3.871S331.763,209.366,329.986,212.095Z" transform="translate(-303.045 -160.449)" fill="#d3b472"/>
      <path id="Trazado_52355" data-name="Trazado 52355" d="M331.391,221.085l-12.136-7.825a.326.326,0,0,1-.1-.453l1.609-2.469a.33.33,0,0,1,.454-.1l12.137,7.826a.327.327,0,0,1,.1.452l-1.61,2.47A.329.329,0,0,1,331.391,221.085Z" transform="translate(-304.231 -159.558)" fill="#7f5538"/>
    </g>
    <g id="Grupo_24275" data-name="Grupo 24275" transform="translate(335.416 158.248)">
      <path id="Trazado_52356" data-name="Trazado 52356" d="M333.341,164.533l7.326-18.783a3.87,3.87,0,0,0-2.224-5.017l-2.961-1.142a3.9,3.9,0,0,0-5.043,2.212l-7.326,18.783a12.083,12.083,0,0,1-8.087,7.356,17.547,17.547,0,0,0-11.924,10.6L282.6,231.1a9.85,9.85,0,0,0,5.66,12.767L302.61,249.4a9.933,9.933,0,0,0,12.833-5.629l20.5-52.556a17.407,17.407,0,0,0-1.617-15.825A11.989,11.989,0,0,1,333.341,164.533Z" transform="translate(-281.93 -139.327)" fill="#6f8e2b"/>
      <path id="Trazado_52357" data-name="Trazado 52357" d="M334.1,140.963s5.263.8,5.174,2.613-7.25,19.383-8.235,22.7.56,7.3,1.488,8.892,5,6.242,1.613,15.718-19.635,50.339-21.052,53.181-6.17,4.7-10.418,3.682-14.536-5.61-15.777-6.4a9.123,9.123,0,0,1-3.684-8.815c.7-4.968,8.547-23.5,8.547-23.5s-6.173,19.8-6.036,22.625,3.893,8.279,12.293,6.593c9.241-1.856,22.427-44.031,24.882-51.088,2.55-7.333-.07-11.733-3.9-13.827s-10.735-1.062-10.735-1.062a17.985,17.985,0,0,1,7.039-3.753c6.1-1.344,9.911-2.295,13.3-10.272,3.82-9,5.534-14.192,5.683-15.365A3.9,3.9,0,0,0,334.1,140.963Z" transform="translate(-281.681 -138.981)" fill="#82aa35"/>
      <path id="Trazado_52358" data-name="Trazado 52358" d="M331.914,145.294s-6.37,16.333-7.921,21.9,2.652,7.493,3.986,12.013.2,9.012-4.393,20.793l-14.934,38.291s14.364-41.591,15.073-50.56-5.453-13.811-3.616-17.723S331.914,145.294,331.914,145.294Z" transform="translate(-276.278 -138.065)" fill="#93c83d"/>
    </g>
    <path id="Trazado_52359" data-name="Trazado 52359" d="M152.55,141.84c-4.405-3.24-11.072-5.94-18.772-7.454-1.079-.212-2.182-.4-3.3-.562a28.6,28.6,0,0,0-3.913-16.969c-6.064-10.339-11.26-12.924-13.858-12.924S96.25,123.747,97.117,118.577s-7.8-3.447-12.992.861-8.662,12.924-8.662,12.924a133.072,133.072,0,0,0,17.1,7.24q-1.2.652-2.371,1.376C69.4,153.9,45.147,224.553,57.274,236.616s100.473,8.615,116.064,2.584S172.472,156.487,152.55,141.84Z" transform="translate(5.284 11.434)" fill="#4f4d4d"/>
    <path id="Trazado_52360" data-name="Trazado 52360" d="M227.934,110.7c-6.988-4.468-18-6.787-30.432-7.089,5.933-8.534,10.878-22.6,12.414-27.19l1.732-5.169s-12.992-4.308-19.922-4.308-6.062.861-6.929,5.169-31.182,9.478-32.048,6.892,0-5.169-7.795-2.584S125.9,86.766,125.034,90.212c-.7,2.767,9.787,15.535,22.466,22.242-13.668,5.558-24.633,13.656-28.717,24.1-8.747,22.372-19.058,108.577-6.931,118.917S274.713,269.263,278.743,242.5C280.935,227.96,252.19,126.216,227.934,110.7Z" transform="translate(16.343 3.613)" fill="#3a3a3a"/>
    <g id="Grupo_24276" data-name="Grupo 24276" transform="translate(206.86 71.646)">
      <path id="Trazado_52361" data-name="Trazado 52361" d="M261.137,67.844c-47.121,0-85.32,7.682-85.32,17.157V96.439c0,3.137,4.188,6.076,11.5,8.605,3.82,47.365,11.865,143.942,12.409,144.84a9.147,9.147,0,0,0-4.676,4.468l-.075.154a7.8,7.8,0,0,0,4.827,11.1,225.93,225.93,0,0,0,123.912,0,7.8,7.8,0,0,0,4.827-11.1l-.074-.154a9.113,9.113,0,0,0-5.7-4.833c.418-.78,8.373-97.11,12.193-144.475,7.309-2.53,11.5-5.469,11.5-8.605V85C346.457,75.526,308.257,67.844,261.137,67.844Z" transform="translate(-175.817 -67.844)" fill="#606060"/>
      <ellipse id="Elipse_1295" data-name="Elipse 1295" cx="72.955" cy="12.589" rx="72.955" ry="12.589" transform="translate(12.365 4.051)" fill="#4f4d4d"/>
      <path id="Trazado_52362" data-name="Trazado 52362" d="M188.575,99.314s25.348,8.261,73.573,8.261c43.282,0,64.917-5.719,64.917-5.719s-38.332,26.688-84.7,31.772S193.522,129.179,188.575,99.314Z" transform="translate(-173.119 -61.188)" fill="#4f4d4d"/>
      <path id="Trazado_52363" data-name="Trazado 52363" d="M207.657,244.092h0a6.172,6.172,0,0,1-6.525-5.815l-6.6-123.492a6.163,6.163,0,0,1,5.825-6.467h0a6.173,6.173,0,0,1,6.525,5.814l6.594,123.493A6.161,6.161,0,0,1,207.657,244.092Z" transform="translate(-171.86 -59.286)" fill="#4f4d4d"/>
      <path id="Trazado_52364" data-name="Trazado 52364" d="M222.523,246.276h0a6.169,6.169,0,0,1-6.368-5.974l-3.511-123.628a6.164,6.164,0,0,1,5.995-6.32h0a6.168,6.168,0,0,1,6.366,5.974l3.511,123.626A6.164,6.164,0,0,1,222.523,246.276Z" transform="translate(-168.028 -58.854)" fill="#4f4d4d"/>
      <rect id="Rect치ngulo_4936" data-name="Rect치ngulo 4936" width="12.365" height="135.981" rx="3.57" transform="translate(67.472 52.105)" fill="#4f4d4d"/>
      <rect id="Rect치ngulo_4937" data-name="Rect치ngulo 4937" width="12.365" height="135.981" rx="3.57" transform="translate(88.411 51.47)" fill="#4f4d4d"/>
      <path id="Trazado_52365" data-name="Trazado 52365" d="M271.841,245.232h0a6.165,6.165,0,0,1-6.009-6.308l3.233-123.635a6.17,6.17,0,0,1,6.353-5.988h0a6.164,6.164,0,0,1,6.008,6.308l-3.232,123.635A6.17,6.17,0,0,1,271.841,245.232Z" transform="translate(-156.779 -59.076)" fill="#4f4d4d"/>
      <path id="Trazado_52366" data-name="Trazado 52366" d="M288.054,244.31h0a5.549,5.549,0,0,1-5.193-5.869l7.991-128.952a5.559,5.559,0,0,1,5.924-5.186h0a5.549,5.549,0,0,1,5.192,5.869l-7.991,128.952A5.559,5.559,0,0,1,288.054,244.31Z" transform="translate(-153.179 -60.135)" fill="#4f4d4d"/>
    </g>
    <path id="Trazado_52367" data-name="Trazado 52367" d="M106.238,241.972c-6.717-2.969-26.851-6.893-38.11-2.585s3.464,12.924,17.322,16.37,27.718,6.032,29.45-.861S114.034,245.418,106.238,241.972Z" transform="translate(7.422 39.68)" fill="#c4946c"/>
    <path id="Trazado_52368" data-name="Trazado 52368" d="M112.818,252.707c-6.389,3.814,3.465,13.786,18.189,12.063s6.929-6.893,0-8.616S117.149,250.123,112.818,252.707Z" transform="translate(17.3 42.73)" fill="#c4946c"/>
    <path id="Trazado_52369" data-name="Trazado 52369" d="M366.626,253.3c-6.088-.674-18.189.861-21.654,6.031s4.331,8.616,15.591,7.754S374.422,254.165,366.626,253.3Z" transform="translate(66.644 42.995)" fill="#c4946c"/>
    <path id="Trazado_52370" data-name="Trazado 52370" d="M445.146,202.231c-6.2,1.156,11.26,7.754,20.788,4.308S459,199.645,445.146,202.231Z" transform="translate(87.732 32.034)" fill="#c4946c"/>
    <path id="Trazado_52371" data-name="Trazado 52371" d="M52.814,208.978c-4.938-4.911-25.118-3.446-22.519,3.447S57.145,213.286,52.814,208.978Z" transform="translate(0.216 33.04)" fill="#c4946c"/>
    <path id="Trazado_52372" data-name="Trazado 52372" d="M162.312,249.246s47.737,7.276,71.99,3.064,19.634-9.19,19.634-9.19S223.907,254.991,162.312,249.246Z" transform="translate(28.187 40.873)" fill="#c4946c"/>
    <path id="Trazado_52373" data-name="Trazado 52373" d="M292.914,243.209s33.877,4.978,51.587-.383,15.4-9.19,15.4-9.19S347.2,245.89,292.914,243.209Z" transform="translate(55.81 38.867)" fill="#c4946c"/>
    <path id="Trazado_52374" data-name="Trazado 52374" d="M401.272,233.3s37.343,1.531,41.578,0,4.621-6.511,8.084-8.425,11.935-1.15,11.549-4.6-12.7-4.979-12.7-4.979,9.24,2.681,7.315,4.6-8.855.384-11.549,2.681,1.54,6.128-9.625,8.042S401.272,233.3,401.272,233.3Z" transform="translate(78.727 34.989)" fill="#c4946c"/>
    <path id="Trazado_52375" data-name="Trazado 52375" d="M55.993,216.567s-5,.383-6.159,3.063,12.32,5.745,30.414,7.276,24.638,1.533,24.638,1.533-35.418-3.447-44.657-6.511S55.993,216.567,55.993,216.567Z" transform="translate(4.383 35.257)" fill="#c4946c"/>
    <g id="Grupo_24277" data-name="Grupo 24277" transform="translate(292.532 298.075)">
      <path id="Trazado_52376" data-name="Trazado 52376" d="M263.457,254.829c-3.08-.766-10.395,3.83-13.089,5.745a15.977,15.977,0,0,0-3.458,3.444,1.9,1.9,0,0,0-.04,2.217l3.5,5.06,5-1.531-.769,3.064,2.694,1.148,6.93-7.276-4.234,7.276s10.393-7.659,10.779-9.19-3.08-6.128-3.08-6.128l-7.314,3.83,5.774-5.361Z" transform="translate(-246.532 -254.744)" fill="#82ccc7"/>
      <path id="Trazado_52377" data-name="Trazado 52377" d="M262.454,255.452c-1.54-.383-7.7,2.681-10.779,4.979a12.588,12.588,0,0,0-4.043,4.6l2.887,4.4,5-1.531,3.658-3.255-2.887,4.212-.578,2.68,1.347.575,8.277-7.851-2.5,6.127s5.967-4.021,6.159-5.552-2.118-4.787-2.118-4.787l-9.046,3.83,3.85-4.6-3.081,1.533,5-4.021Z" transform="translate(-246.299 -254.601)" fill="#90ddd5"/>
    </g>
    <g id="Grupo_24278" data-name="Grupo 24278" transform="translate(318.503 303.972)">
      <path id="Trazado_52378" data-name="Trazado 52378" d="M267.969,259.736s5.583-.383,7.7.191,2.117,9,2.117,9Z" transform="translate(-267.969 -259.611)" fill="#82ccc7"/>
      <path id="Trazado_52379" data-name="Trazado 52379" d="M269.558,260.2s4.716-.287,5.583.287,1.443,4.212,1.443,4.212l-2.406-2.394,2.406,3.542.193,1.341Z" transform="translate(-267.633 -259.501)" fill="#90ddd5"/>
    </g>
    <g id="Grupo_24279" data-name="Grupo 24279" transform="translate(414.169 243.112)">
      <path id="Trazado_52380" data-name="Trazado 52380" d="M375.23,214.545l-12.127-5.17-10.394,8.042,1.155,7.467-6.93,2.872,1.732,11.489,13.859,7.468,12.7,4.6,8.662-8.042,8.084-2.872,3.465-8.616,1.155-6.893-8.084-8.042L381,219.715v-10.34Z" transform="translate(-346.934 -209.376)" fill="#edcc96"/>
      <path id="Trazado_52381" data-name="Trazado 52381" d="M360.876,211.509l-7.507,5.457,6.352,2.01.289,10.052,2.31-4.883,7.507,5.457-7.8,7.755L373,248.847l-7.218-11.489,9.528-8.042-2.887-3.159,4.908-12.063L373,216.679Z" transform="translate(-345.573 -208.924)" fill="#f7dda6"/>
      <path id="Trazado_52382" data-name="Trazado 52382" d="M376.9,219.209l4.908-2.01,5.486,5.17-5.775,2.872-.289,8.042-8.085,6.606,6.063-7.468-1.155-7.755,4.042-2.872-1.444-2.01Z" transform="translate(-341.39 -207.721)" fill="#f7dda6"/>
      <path id="Trazado_52383" data-name="Trazado 52383" d="M354.665,218.858a49.059,49.059,0,0,0,1.156,5.171l-7.218,3.158,2.021,4.884,7.8,1.723-2.022,2.872,7.219,5.457-4.331-5.457,5.486-6.893-10.106.287-1.443-2.3,5.486-2.011-.578-6.318Z" transform="translate(-346.581 -207.37)" fill="#f7dda6"/>
    </g>
    <g id="Grupo_24280" data-name="Grupo 24280" transform="translate(82.608 192.314)">
      <path id="Trazado_52384" data-name="Trazado 52384" d="M98.337,168.768l47.559,9.547,5.551,52.182a16.984,16.984,0,0,1-5.385,14.113l-8.279,7.9a1.832,1.832,0,0,1-1.65.437l-61.284-13.6a1.849,1.849,0,0,1-1.432-2.54l5.369-26.639a27.72,27.72,0,0,1,8.2-14.566l9.6-9.132Z" transform="translate(-73.256 -167.167)" fill="#d8ba8d"/>
      <path id="Trazado_52385" data-name="Trazado 52385" d="M143.468,178.594l-7.59,14.5-3.6-3.612-6.72,2.831-1.805-4.823-6.719,3.234-3.151-5.223-5.823,3.232-3.15-4.82-4.926,3.23-2.7-4.419-5.824,2.427-1.8-4.019-4.926,3.23,8.033-16.915Z" transform="translate(-70.829 -167.446)" fill="#edcc96"/>
      <path id="Trazado_52386" data-name="Trazado 52386" d="M137.569,192.6,135,244.9,78.913,232.964l36.785,4.743-.015-6.437,7.622-.822,8.029-18.926-3.147-3.211Z" transform="translate(-72.06 -162.126)" fill="#edcc96"/>
      <path id="Trazado_52387" data-name="Trazado 52387" d="M134.023,201.552s4.085,20.909,3.2,25.74a12.444,12.444,0,0,1-4.019,7.25L131.84,227.3l2.683-3.627-1.806-5.225Z" transform="translate(-60.865 -160.233)" fill="#edcc96"/>
      <path id="Trazado_52388" data-name="Trazado 52388" d="M97.413,185.372s-10.3,8.472-13.87,13.711-7.823,31.741-7.823,31.741l10.547-17.265-2.256-5.627,6.271-3.232-2.249-2.812Z" transform="translate(-72.735 -163.655)" fill="#edcc96"/>
      <path id="Trazado_52389" data-name="Trazado 52389" d="M93.383,168.606,87.132,180.69l2.911-1.616,1.579,3.618,5.825-2.026,2.476,3.816,5.375-2.425,2.7,4.217,5.824-2.829,3.151,5.022,6.944-2.832,2.029,4.622,6.72-2.831,1.574,2.007-1.577-3.616-5.825,2.226-2.028-4.22-7.168,3.034-3.151-5.223-5.6,2.628-2.7-4.418-5.375,2.627-2.476-4.42-5.151,2.627s-1.346,0-1.352-2.812,2-6.24,7.161-5.85,28.713,4.561,28.713,4.561Z" transform="translate(-70.321 -167.201)" fill="#f7dda6"/>
    </g>
    <g id="Grupo_24281" data-name="Grupo 24281" transform="translate(452.736 223.258)">
      <path id="Trazado_52390" data-name="Trazado 52390" d="M380.978,212.626l9.808,6.5-1.953,3.81a.368.368,0,0,0,.327.537l4.878.039-1.236,3.071a2.909,2.909,0,0,0,0,2.186l1.9,4.657a3.392,3.392,0,0,0,2.79,2.1,18.015,18.015,0,0,0,14.018-4.976c1.776-1.605-.087-9.077-.768-11.558a1.1,1.1,0,0,0-1.061-.809l-4.645-.038,3.62-3.235a.424.424,0,0,0-.189-.729l-2.481-.569-.972-15.388Z" transform="translate(-378.301 -191.881)" fill="#c6a160"/>
      <path id="Trazado_52391" data-name="Trazado 52391" d="M382.583,212.761s1.386,1.768,5.276,2.525S402.6,206.5,403.9,204.272a8.1,8.1,0,0,0,.831-4.9Z" transform="translate(-377.961 -191.637)" fill="#b7935a"/>
      <path id="Trazado_52392" data-name="Trazado 52392" d="M380.095,215.175s4.53,1.013,14.469-5.274c10.4-6.577,13.058-11.461,13.058-11.461l-4.919-1.432s-2.525-4.016-3.133-4.021a44,44,0,0,0-11.851,5.234c-5.384,3.347-9.441,8.281-8.9,9.314s2.223,3.712,2.223,3.712Z" transform="translate(-378.768 -192.988)" fill="#edcc96"/>
      <path id="Trazado_52393" data-name="Trazado 52393" d="M379.662,207.3l2.286,3.288s-1.548,3.318,3.083,2.629,11.179-4.816,13.826-8.489a16.767,16.767,0,0,0,2.548-6.459l-2.464-3.834a52.9,52.9,0,0,1-9.866,8.218c-6.794,4.607-8.353,1.689-3.332-2.147s7.769-4.721,7.769-4.721-7.21,3.333-10.46,6.4S379.662,207.3,379.662,207.3Z" transform="translate(-378.579 -192.682)" fill="#f7dda6"/>
      <path id="Trazado_52394" data-name="Trazado 52394" d="M382.607,209.315s3.109-.4,9.654-4.525,7.66-6.3,7.66-6.3-4.2,6.99-10.733,9.905S382.607,209.315,382.607,209.315Z" transform="translate(-377.956 -191.824)" fill="#edcc96"/>
      <path id="Trazado_52395" data-name="Trazado 52395" d="M401.942,204.731l.577,7.815,2.094.834-7.812,6.3s10.425-2.006,10.558-1.6,2.087,7.328,1.337,9.685-5.474,5.088-9.587,5.509-5.381-.678-5.381-.678,2.093.835,6.581-.764,5.6-4.225,5.526-5.86-.283-4.589-.918-5.139-11.657,1.951-12.062,1.175,9.1-7.465,8.51-7.88-5.5,2.227-6.042,1.951,5.459-3.272,5.738-3.815S401.942,204.731,401.942,204.731Z" transform="translate(-375.792 -190.504)" fill="#d3b472"/>
      <path id="Trazado_52396" data-name="Trazado 52396" d="M387.732,213.664s2.272,1.381,2.313,1.971-1.581,3.53-1.581,3.53,3.192.48,4.158-.285-2.05-.7-1.953-1.333,2.023-1.709,2.259-2.843S387.732,213.664,387.732,213.664Z" transform="translate(-376.872 -188.615)" fill="#b7935a"/>
    </g>
    <g id="Grupo_24282" data-name="Grupo 24282" transform="translate(487.139 249.466)">
      <path id="Trazado_52397" data-name="Trazado 52397" d="M407.533,229.616c-1.207-3.068.385-9.574,7.314-13.787s16.555,3.83,14.245,11.106-8.855,3.447-8.084-4.212,10.779-9.573,15.4-5.744,5,9.573,0,9.956-4.73-11.951,2.062-12.294,9.1,3.87,8.525,6.551-1.347,2.68-1.347,2.68-1.347-4.787-5.2-6.318-4.812.957-5.2,3.638,2.7,3.255,1.925.191-4.427-5.745-8.084-3.83-4.427,5.552-4.043,8.616,2.31,2.106,1.732-2.681-5.581-6.892-9.624-2.871-3.658,12.254-3.272,13.786S409.266,234.02,407.533,229.616Z" transform="translate(-407.165 -214.621)" fill="#f2982c"/>
      <path id="Trazado_52398" data-name="Trazado 52398" d="M410.011,231.819c-1.155-.957-3.272-3.158-1.732-7.946s6.339-8.665,11.068-8.808c3.175-.1,7.892,2.777,8.951,6.8s-.963,4.787-.963,4.787.771-6.414-3.656-8.329-8.277,1.531-10.395,5.648A54.348,54.348,0,0,0,410.011,231.819Z" transform="translate(-407.044 -214.527)" fill="#ffab35"/>
      <path id="Trazado_52399" data-name="Trazado 52399" d="M421.53,217.309a10.272,10.272,0,0,1,7.892-1.82,9.059,9.059,0,0,1,2.51.859c2.978,1.539,4.516,4.446,4.516,6.13a1.966,1.966,0,0,1-2.118,2.011,5.956,5.956,0,0,0-2.213-6.8c-3.753-2.681-7.508-.191-8.855.766S421.53,217.309,421.53,217.309Z" transform="translate(-404.127 -214.473)" fill="#ffab35"/>
      <path id="Trazado_52400" data-name="Trazado 52400" d="M430.03,216.9s.866-2.011,4.524-1.915,6.256,1.724,6.834,3.734a4.566,4.566,0,0,1-.193,3.351,7.684,7.684,0,0,0-4.235-5.169,5.985,5.985,0,0,0-5.871.479Z" transform="translate(-402.329 -214.544)" fill="#ffab35"/>
      <path id="Trazado_52401" data-name="Trazado 52401" d="M408.3,225.249s2.382-7.9,8.084-9.407,8.734,2.011,8.734,2.011a9.549,9.549,0,0,0-8.951-.646C411.119,219.361,408.3,225.249,408.3,225.249Z" transform="translate(-406.925 -214.442)" fill="#ffc71c"/>
      <path id="Trazado_52402" data-name="Trazado 52402" d="M422.9,216.7s3.9-2.3,7.8-.5,4.62,4.237,4.62,4.237-2.67-3.734-6.423-4.237A11.876,11.876,0,0,0,422.9,216.7Z" transform="translate(-403.837 -214.433)" fill="#ffc71c"/>
      <path id="Trazado_52403" data-name="Trazado 52403" d="M431.123,215.974s2.021-1.437,5.486-.431,4.042,3.231,4.042,3.231a10.385,10.385,0,0,0-9.527-2.8Z" transform="translate(-402.098 -214.501)" fill="#ffc71c"/>
    </g>
    <g id="Grupo_24283" data-name="Grupo 24283" transform="translate(432.114 256.351)">
      <path id="Trazado_52404" data-name="Trazado 52404" d="M385.587,226.5c-1.564,2.853-3.465,22.977-.577,26.424,2.376,2.836,11.009-.94,13.992-2.367a1.671,1.671,0,0,1,1.844.269c1.776,1.611,4.152,5.258,6.4,5.258,2.6,0,7.26-8.931,8.373-7.181,3.465,5.457,5.2,4.021,5.775,1.723s5.774,3.734,8.084,3.447c2.066-.257,8.661-21.253,5.774-28.721s-11.549,4.021-12.126,1.148-2.31-5.169-6.353-2.871c-1.585.9-5.2,5.169-7.506-.575s-8.084-1.149-10.395,1.724S389.052,220.181,385.587,226.5Z" transform="translate(-357.143 -220.303)" fill="#606060"/>
      <path id="Trazado_52405" data-name="Trazado 52405" d="M391.347,242.495s-2.022,13.787-20.789,16.085C353.354,260.685,361.9,241.346,391.347,242.495Z" transform="translate(-361.746 -215.62)" fill="#606060"/>
      <path id="Trazado_52406" data-name="Trazado 52406" d="M384.51,238.856s2.31-12.063,3.465-10.913c1.307,1.3,1.732,8.042,1.732,15.223s-1.155,8.616-1.155,8.616,10.683-9.766,12.126-9.766,4.043,6.606,6.064,4.882,7.8-12.35,8.662-11.2,2.6,12.063,4.043,9.19,2.887-3.16,3.465-1.723,5.774,6.892,7.795,2.871,4.043-16.371,2.31-20.392-9.239,1.724-9.528,3.447-1.155,12.35-1.732,7.468,0-12.35-2.309-12.637-10.395,14.36-10.683,10.339-.578-12.637-3.177-12.637-6.064,7.181-7.508,6.032-6.929-3.16-9.816-2.585S384.8,232.538,384.51,238.856Z" transform="translate(-356.931 -220.024)" fill="#777776"/>
      <path id="Trazado_52407" data-name="Trazado 52407" d="M386.34,247.255s-2.887,4.882-11.549,7.755-14.725.287-8.951-5.171,14.437-5.457,14.437-5.457-8.086,1.149-10.973,4.6,1.19,4.417,7.026,3.255C381.144,251.276,386.34,247.255,386.34,247.255Z" transform="translate(-361.36 -215.21)" fill="#777776"/>
      <path id="Trazado_52408" data-name="Trazado 52408" d="M386.179,228.072c0,.691,1.732-2.681,2.694-.766s1.925,12.637,1.925,13.977,7.506-8.616,8.661-7.276,5.583-8.425,5.775-6.127.578,11.489,3.272,9.573,8.084-10.914,9.624-9.382,1.925,12.829,3.658,12.254,1.732-8.233,3.85-10.532,4.234-.574,4.812,5.171a30.485,30.485,0,0,1,0,8.425s2.117-9,1.732-14.361-2.888-4.4-5-3.064a6.775,6.775,0,0,0-3.465,4.788c-.578,2.3-1.155,8.042-1.925,7.658s-1.732-10.339-2.118-12.446-2.118-.766-4.042,1.724-5.968,8.425-7.122,8.042-.769-10.914-2.5-12.637-6.736,5.361-7.314,5.744c-.8.531-3.08-2.49-8.47-3.447C387.582,224.922,386.179,226.348,386.179,228.072Z" transform="translate(-356.578 -219.77)" fill="#848483"/>
      <path id="Trazado_52409" data-name="Trazado 52409" d="M391.639,240s-.288,7.036-1.877,7.181-1.588-.431-2.454-1.436-4.908,2.154-7.074,3.59-2.309.718-4.186.287-3.032.574-4.331.144c-1.6-.532,1.443-6.893,5.341-7.612s4.908,1.15,6.5,0,3.031.287,4.475,1.293S391.063,242.438,391.639,240Z" transform="translate(-359.729 -216.138)" fill="#bd2b1f"/>
      <path id="Trazado_52410" data-name="Trazado 52410" d="M389.859,243.469s-1.059.574-1.636.191-2.791-1.915-3.658-1.724a25.393,25.393,0,0,0-2.5,1.054,28.38,28.38,0,0,1-3.272.957s2.021-.574,1.637-1.437-3.562-.861-5.294.48-2.887,3.541-2.694,4.4,2.213.1,3.177.191l.962.1a4.221,4.221,0,0,0-1.732-.574h-.769a1.789,1.789,0,0,1,2.021-.191c1.251.574,2.021,1.627,3.561.957s4.909-3.064,6.352-3.255,2.6.957,3.369.383A1.461,1.461,0,0,0,389.859,243.469Z" transform="translate(-359.489 -215.732)" fill="#ed2b1f"/>
    </g>
    <g id="Grupo_24284" data-name="Grupo 24284" transform="translate(38.182 244.041)">
      <path id="Trazado_52411" data-name="Trazado 52411" d="M82.762,217.087a14.486,14.486,0,0,1-12.243,6.621c-11.725.038-29.235-1.07-31.373.3-3.112,1.987-3.441,10.615-.689,12.057s31.3.7,37.845,4.521c6.018,3.515,8.528,7.241,14.725,9.041a49.722,49.722,0,0,0,11.324,1.81.273.273,0,0,0,.2-.465l-5.816-5.947,11.853-4.429a.622.622,0,0,0,.343-.311l3.584-7.43a.041.041,0,0,0-.028-.057l-3.911-.978,4.624-2.753a.442.442,0,0,0,.183-.551l-5.1-12.173a1.2,1.2,0,0,0-1.144-.738l-12.563.316,10.549-4.691a.312.312,0,0,0-.087-.6c-3.535-.409-14.5-1.393-18.2,1.593A20.161,20.161,0,0,0,82.762,217.087Z" transform="translate(-36.586 -210.143)" fill="#82aa35"/>
      <path id="Trazado_52412" data-name="Trazado 52412" d="M37.379,229.839s-.042-3.277,1.762-3.86,1.293,6.1.346,7.738-2.066-.6-2.066-.6.011,1.734,2.287,2.164,3.638.379,4.162-.915.44-2.024,1.066-2.777c1.329-1.594,28.573.668,32.09,2.189s8.025,8.344,12.4,10.917,6.429,1.44,6.429,1.44L94.735,243.9s10.627-3.513,11.111-4.426,1.73-5.4,1.73-5.4l-5.472-1.34,2.57-.5-2.963-1.271s8.25-2.991,8.351-3.943-2.656-9.71-3.209-9.961-11.313,2.673-11.313,2.673l5.681-2.488s-10.71.617-10.438-.125,7.685-4.976,7.685-4.976l-3.294.042,2.458-1.284s-7.664.236-9.641,1.5c-3.112,1.987-5.809,9.213-11.238,11.151-4.136,1.476-20.786.723-25.42.625s-9.441-.406-11.647.327S37.379,229.839,37.379,229.839Z" transform="translate(-36.418 -209.983)" fill="#93c83d"/>
      <path id="Trazado_52413" data-name="Trazado 52413" d="M95.612,237.325s-2.909,3.74-3.3,5.624,5.867,6.772,6.824,6.872,6.136-1.285,6.136-1.285l-3.516,2.136s5.128.92,6.76.127,4.068-5.545,4.148-6.306-7.477-2.513-8.8-2.842S96.287,236.432,95.612,237.325Z" transform="translate(-24.804 -204.416)" fill="#82aa35"/>
      <path id="Trazado_52414" data-name="Trazado 52414" d="M96.089,238.315c-.4.15-3.292,3.7-2.969,4.311s3.105,3.6,3.105,3.6l3.3-1.966-2.407,2.637s1.563,1.7,2.56,1.421,6.861-.825,6.861-.825l-1.771,2.126s2.831.68,3.294-.042,3.181-4.481,2.859-5.093-7.155-1.9-7.155-1.9L99.861,246.6s2.527-3.78,2.416-4.561S96.089,238.315,96.089,238.315Z" transform="translate(-24.634 -204.184)" fill="#93c83d"/>
      <path id="Trazado_52415" data-name="Trazado 52415" d="M99.882,238.372s2.652,2.394,3.418,2.474,8.815-1.007,8.875-1.579S100.6,237.1,99.882,238.372Z" transform="translate(-23.199 -204.274)" fill="#82aa35"/>
      <path id="Trazado_52416" data-name="Trazado 52416" d="M101.368,238.641s1.271,1.722,2.608,1.427,5.288-.6,4.744-.95S101.141,238.04,101.368,238.641Z" transform="translate(-22.885 -204.163)" fill="#93c83d"/>
      <path id="Trazado_52417" data-name="Trazado 52417" d="M45.008,231.581s21.45.31,27.587,2.682,8.608,6.479,14.533,9.022a30.856,30.856,0,0,0,11.154,2.51s-8.9-1.89-13.382-5.245-8.7-7.452-12.7-8.061S46.356,229.8,45.008,231.581Z" transform="translate(-34.805 -205.758)" fill="#93c83d"/>
    </g>
    <g id="Grupo_24285" data-name="Grupo 24285" transform="translate(255.981 244.563)">
      <path id="Trazado_52418" data-name="Trazado 52418" d="M329.028,226.783l-24.442.607a9.543,9.543,0,0,0-7.38,3.769c-1.848,2.445-4.378,5.208-6.343,5.148-1.35-.042-4.154-8.036-5.678-10.683a2.916,2.916,0,0,0-4.53-.648,8.77,8.77,0,0,1-4.523,2.556c-4.937.754-9.137-5.384-10.994-8.639a6.537,6.537,0,0,0-3.278-2.837l-12.968-5.145a17.407,17.407,0,0,0-18.461,8.35l-8.157-1.616a3.561,3.561,0,0,0-4.188,2.783l-1.654,8.262a3.544,3.544,0,0,0,2.8,4.166l8.156,1.615a17.32,17.32,0,0,0,13.838,14.748l15.625,3.1a3.974,3.974,0,0,1,2.685,1.959c1.018,1.806,2.567,6.182,4.737,6.051,4.537-.274,11.542-10.6,12.677-7.446,2.875,7.985,2.052,16.221,7.714,14.413,2.749-.877,8.053-7.874,8.053-7.874l28.647,5.675a6.013,6.013,0,0,0,7.074-4.7l5.32-26.572A5.985,5.985,0,0,0,329.028,226.783Z" transform="translate(-216.362 -210.574)" fill="#82ccc7"/>
      <path id="Trazado_52419" data-name="Trazado 52419" d="M220.835,219.013l9.742,2.32s1.205-4.056,6.563-7.29a15.612,15.612,0,0,1,10.266-2.262l12.105,4.916a5.454,5.454,0,0,1,1.942,1.686c6.425,6.823,6.472,18.157,8.4,18.538,4.153.823,9.882-10.148,12.3-10.45s3.787,14.417,7.712,14.413c2.454,0,5.729-4.874,7.841-8.529a7.98,7.98,0,0,1,6.823-3.994l22.658-.233a3.7,3.7,0,0,1,3.7,4.354l-1.668,9.206a8.01,8.01,0,0,1-8.539,6.532c-9.234-.739-21.349-2.633-25.295-1.558-3.322.9-7.767,11.347-10.337,8.5-2.135-2.368-5.419-8.468-6.469-10.466-.243-.464-.72-.94-1.233-.821-2.726.631-10.512,9.512-11.931,7.4-1.512-2.252-4.234-8.258-6.123-8.632s-15.249,1.665-25.6-5.461c-3.825-2.633-5.369-10.435-5.369-10.435l-8.986-2.17Z" transform="translate(-215.734 -210.347)" fill="#90ddd5"/>
      <path id="Trazado_52420" data-name="Trazado 52420" d="M241.882,213.247c1.208-.151,9.968,3.146,12.538,6s7.412,15.915,8.17,19.97,10.868-5.266,13.205-9.1,3.937,13.666,9.072,13.511,8.447-10.821,12.446-13.153,24.839-.546,24.839-.546-20.158.693-23.327,2.8-11.841,14.053-14.709,16.61-7.183-13.138-8.919-12.309S261.769,249.2,261.012,247.1s-4.092-18.772-9.308-26.052S241.882,213.247,241.882,213.247Z" transform="translate(-210.964 -210.009)" fill="#98eae0"/>
    </g>
    <g id="Grupo_24286" data-name="Grupo 24286" transform="translate(374.784 273.014)">
      <path id="Trazado_52421" data-name="Trazado 52421" d="M320.221,235.174s-5.39,4.978-5.774,11.489,4.234,11.489,12.319,11.106,11.935-4.212,11.935-4.212l-5-1.915,4.234-6.127-5-.766v-4.6l-2.309.767-1.156-4.6S326,232.11,320.221,235.174Z" transform="translate(-314.425 -234.057)" fill="#ceca9b"/>
      <path id="Trazado_52422" data-name="Trazado 52422" d="M344.838,234.979s7.315,4.212,9.624,11.106-11.933,9.573-13.858,9.573h-1.925s-.771-4.978-.385-6.127,3.85-2.3,3.85-2.3l-1.925-2.68,3.465-.767s-2.31-1.914-2.31-3.445S344.838,234.979,344.838,234.979Z" transform="translate(-309.399 -233.863)" fill="#ceca9b"/>
      <path id="Trazado_52423" data-name="Trazado 52423" d="M320.4,236.273a17.724,17.724,0,0,0-4.909,9.478c-.866,5.744,3.754,7.468,8.084,7.468a25.359,25.359,0,0,0,8.086-1.437l-.29-4.021-2.309-3.158-3.465,1.149,1.732-2.872-.578-3.734-3.177-.287.29-3.16S320.98,235.411,320.4,236.273Z" transform="translate(-314.221 -233.72)" fill="#e6e4b4"/>
      <path id="Trazado_52424" data-name="Trazado 52424" d="M345.019,237.113s6.352,3.734,6.929,8.329-10.971,6.319-10.971,6.319l.29-1.724,4.619-2.872-.578-2.3,1.732-1.437-2.021-2.3Z" transform="translate(-308.809 -233.411)" fill="#e6e4b4"/>
    </g>
    <g id="Grupo_24287" data-name="Grupo 24287" transform="translate(164.764 209.278)">
      <path id="Trazado_52425" data-name="Trazado 52425" d="M176.472,244.211l-35.4-6.758,11.26-15.509-7.8-17.232,6.063-22.4,10.394,6.031,7.8-6.893,6.929,11.2,4.331-6.893,25.118,16.37L196.5,216.774l10.569,9.083Z" transform="translate(-141.07 -181.448)" fill="#c6a160"/>
      <path id="Trazado_52426" data-name="Trazado 52426" d="M169.485,224.851l6.93,3.447,5.775-9.957,8.469-1.532,8.854-14.935-8.854-6.127h-5.39L182.959,190l-4.62-1.532-5,6.51-6.545-10.34-8.469,6.51-8.085-4.6,8.855,7.659,6.16-6.127,5.39,11.871,8.854-6.893,1.925,5.744,9.239.766,3.85,3.83-5.141,10.108-8.718,2.529-4.235,8.808Z" transform="translate(-139.131 -180.773)" fill="#b7935a"/>
      <path id="Trazado_52427" data-name="Trazado 52427" d="M150.273,189.7l-3.85,12.254,10.009,19.913-6.545,13.02,19.249,4.978,18.479-7.276,9.239-8.425-12.319-1.149-4.62,6.51-12.319,4.6-7.7-4.978-.385-9.957-10.779-18Z" transform="translate(-139.937 -179.704)" fill="#b7935a"/>
    </g>
    <g id="Grupo_24288" data-name="Grupo 24288" transform="translate(148.637 241.196)">
      <path id="Trazado_52428" data-name="Trazado 52428" d="M152.07,214.828a16.849,16.849,0,0,1,5.68-5.95,6.177,6.177,0,0,1,8.792,2.091l.294.975s-1.8-2.367-6.926-1.267a10.209,10.209,0,0,0-6.964,4.924Z" transform="translate(-122.616 -207.795)" fill="#7f5538"/>
      <path id="Trazado_52429" data-name="Trazado 52429" d="M164.217,209.789a4.866,4.866,0,0,0-3.814-1.7c-2.754-.136-6.606,4.355-5.687,3.8S160.392,208.648,164.217,209.789Z" transform="translate(-122.086 -207.733)" fill="#996847"/>
      <path id="Trazado_52430" data-name="Trazado 52430" d="M151.863,248.316c-5.418,2.286-23.376-9.588-23.669-15.435,4.65,1.994,12.462-1.195,14.963-5.134s2.078-13.618-.307-16.686c5.311-2.243,22.668,9.936,22.956,15.667-5.122.2-12.389,1.917-14.863,5.873S145.241,240.8,151.863,248.316Z" transform="translate(-127.666 -207.161)" fill="#ceca9b"/>
      <path id="Trazado_52431" data-name="Trazado 52431" d="M140.023,211.02a22.841,22.841,0,0,1,10.61-.617c3.756.778,3.158,4,5.626,4.412,2.637.436,4.321,1.145,5.911,5.041a17.668,17.668,0,0,1,1.377,7.187s-3.283-.918-4.955-1.508-1.3-2.62-3.4-3.252-4.387-.25-7.486-2.182S140.023,211.02,140.023,211.02Z" transform="translate(-125.164 -207.323)" fill="#ed2b1f"/>
      <path id="Trazado_52432" data-name="Trazado 52432" d="M127.758,227.634a21.663,21.663,0,0,0,2.4,9.176c2.3,3.92,9.11,8.617,13.618,9.394s9.409-1.591,9.409-1.591-3.036-3.475-4.28-4.025-1.857.424-3.223-.653-1.977-1.911-3.221-2.461-4.019-.471-5.506-2.077-1.465-2.722-2.933-3.637-2.427-.836-3.569-1.547A15.656,15.656,0,0,1,127.758,227.634Z" transform="translate(-127.758 -203.599)" fill="#ed2b1f"/>
      <path id="Trazado_52433" data-name="Trazado 52433" d="M142.827,215.858a43,43,0,0,1-.705,9.051c-.861,3.53,2.241,1.85,4.019.473s2.081-.058,1.385,1.768,3,.287,5.163-.623,3.41-2.167,3.023-2.635-.16-1.908-1.283-1.93-3.8,1.7-6.285.6c-1.125-.5-1.757-2.555-2.728-3.96A12.768,12.768,0,0,0,142.827,215.858Z" transform="translate(-124.751 -206.089)" fill="#e6e4b4"/>
      <path id="Trazado_52434" data-name="Trazado 52434" d="M141.979,226.6A14.435,14.435,0,0,1,136,230.331c-3.654,1.111-.2.323.017,2.5s1.281,3.736,3.22,2.461,4.616-3,4.185-1.233a4.912,4.912,0,0,0,.933,4.65c1.1,1.138.939-.771,1.268-2.373a24.164,24.164,0,0,1,2.579-6.979c1.329-2.108.35-2.719-2.427-.835s-3.226,1.153-2.264-.733S142.654,225.894,141.979,226.6Z" transform="translate(-126.369 -203.909)" fill="#e6e4b4"/>
      <path id="Trazado_52435" data-name="Trazado 52435" d="M153.726,214.763c-1.637-.834-.548-3.278-3.954-3.821s-7.508-.161-8.152.68,2.534,4.632,3.269,5.088,1.826.348,2.253,1.291.141,2.121,3.628,2.715S155.7,215.77,153.726,214.763Z" transform="translate(-124.844 -207.182)" fill="#fb4a3f"/>
      <path id="Trazado_52436" data-name="Trazado 52436" d="M153.431,214.971c1.113-1.4,3.427.33,4.823,2.441s2.439,6.946,1.837,7.36-3.264-.227-3.855-1.273-1.351-4.344-1.912-4.355-.6,1.318-1.644,1.347S152.89,215.651,153.431,214.971Z" transform="translate(-122.572 -206.383)" fill="#fb4a3f"/>
      <path id="Trazado_52437" data-name="Trazado 52437" d="M129.04,230.1c-.538-.556.738,5.318,1.96,6.984s1.448.225,2.5.54.2,2.385,2.037,3.078,5.093-2.136,5.258-2.937-2.061-.155-4.16-1.69-2.107-3.687-3.351-4.235S129.865,230.957,129.04,230.1Z" transform="translate(-127.514 -203.084)" fill="#fb4a3f"/>
      <path id="Trazado_52438" data-name="Trazado 52438" d="M141.074,236.713c-1.1.016-5.064,3.169-4.851,4.094s3.346.277,4.008,1.03-.471,1.288,2.559,1.708,6.448-.5,6.938-1.1-2.129-2.57-2.965-2.865-3.307,1.1-3.765.025S143.022,236.685,141.074,236.713Z" transform="translate(-125.969 -201.678)" fill="#fb4a3f"/>
    </g>
    <path id="Trazado_52439" data-name="Trazado 52439" d="M172.888,243.227S193.956,247,193.956,220.3c0-27.786-31.182-24.986-38.978-18.094s10.395,13.786,25.986-.861,10.393-32.741-3.465-36.188c-9.05-2.25-13.858,6.893-13.858,6.893s12.126-7.755,17.323,5.169-2.6,26.709-12.993,28.433-7.795-3.447,2.6-4.308,18.189,1.723,18.189,16.37S183,238.587,172.888,243.227Z" transform="translate(26.242 24.308)" fill="#6f8e2b"/>
    <g id="Grupo_24289" data-name="Grupo 24289" transform="translate(177.792 230.048)">
      <path id="Trazado_52440" data-name="Trazado 52440" d="M253.926,237.05c-8.077-.614-19.26,6.758-27.336-1.843a21.41,21.41,0,0,1-3.49-5.119,65.607,65.607,0,0,1,.858-16.915,6.322,6.322,0,0,1,2.234-3.82l8.766-7.16a.879.879,0,0,0-.143-1.461c-1.272-.676-3.983-2.7-6.362-1.159L221.19,204.7a8.842,8.842,0,0,1-5.374,1.559,15.882,15.882,0,0,0-4.759.682c-6.028,1.7-11.759,8.424-18.845,17.092a52.879,52.879,0,0,1-15.23,10.589c-12.15,5.188-18.777,3.276-18.777,3.276s4.8,7.313,15.757,5.121a34.96,34.96,0,0,1-21.928,4.472s3.962,12.8,27.336,9.216c10.613-1.627,20.443-10.087,27.839-20.7a38.281,38.281,0,0,0-1.123,10.255c.622,12.9,10.562,17.816,16.154,22.731a18.638,18.638,0,0,1,6.213,11.059s5.592-9.215,4.349-17.2a60.817,60.817,0,0,0-3.636-12.1,39.8,39.8,0,0,0,19.168-3.877c12.425-6.144,15.533-1.843,15.533-1.843A11.153,11.153,0,0,0,253.926,237.05Zm-33.522-24.8.068.047-.127.086Z" transform="translate(-151.779 -198.505)" fill="#ffab35"/>
      <path id="Trazado_52441" data-name="Trazado 52441" d="M232.3,201.226s-2.693-1.843-3.728-1.433-10.149,7.168-11.185,7.373-6.137-.912-11.391,2.457c-7.664,4.916-21.332,26.011-31.274,33.178a31.627,31.627,0,0,1-14.889,6.055c-.912.1-.872,1.016-.252,1.685,2.508,2.705,7.419,4.924,20.734,1.886,16.154-3.687,29.2-26.011,29.2-26.011a33.953,33.953,0,0,0-2.9,18.842c1.449,10.649,9.413,14.055,15.118,18.841,6.835,5.735,8.077,4.71,7.456-1.228s-8.284-15.361-9.733-26.624.622-24.577,1.863-27.035S232.3,201.226,232.3,201.226Z" transform="translate(-150.278 -198.352)" fill="#ffc71c"/>
      <path id="Trazado_52442" data-name="Trazado 52442" d="M183.089,225.985s-7.871,4.506-13.462,6.144a27.086,27.086,0,0,1-7.664,1.433c-1.242.2,1.657,3.891,8.285,2.663S183.089,225.985,183.089,225.985Z" transform="translate(-149.739 -192.799)" fill="#ffc71c"/>
      <path id="Trazado_52443" data-name="Trazado 52443" d="M211.149,227.506a12.843,12.843,0,0,0,10.976,7.168c8.285.614,13.255-2.458,18.847-2.253s7.457,3.277,4.764,3.482-5.385,1.638-10.148,3.277-17.693,5.706-20.3,1.843A27.014,27.014,0,0,1,211.149,227.506Z" transform="translate(-139.276 -192.478)" fill="#ffc71c"/>
      <path id="Trazado_52444" data-name="Trazado 52444" d="M215.213,207.835a16.523,16.523,0,0,0-11.185.82c-5.384,2.662-17.6,19.865-24.853,27.033s-5.8,10.035.414,8.806c7.517-1.487,14.367-8.053,20.3-14.95C206.928,221.353,211.9,210.294,215.213,207.835Z" transform="translate(-147.068 -196.769)" fill="#ffd04d"/>
      <path id="Trazado_52445" data-name="Trazado 52445" d="M210.22,210.047a115.491,115.491,0,0,0-1.042,21.356,69.1,69.1,0,0,0,2.9,17.613c.829,3.277-10.843,2.384-12.012-8.6C198.408,224.85,210.22,210.047,210.22,210.047Z" transform="translate(-141.654 -196.17)" fill="#ffd04d"/>
      <path id="Trazado_52446" data-name="Trazado 52446" d="M177.519,229.027s-6.835,3.277-9.734,3.687-.622,2.663,3.313,1.434S177.519,229.027,177.519,229.027Z" transform="translate(-148.725 -192.156)" fill="#ffd04d"/>
      <path id="Trazado_52447" data-name="Trazado 52447" d="M213.713,232.239s3.935,3.277,10.77,2.663,14.912-3.277,16.154-1.433-14.5,7.987-20.089,6.144A10.79,10.79,0,0,1,213.713,232.239Z" transform="translate(-138.734 -191.477)" fill="#ffd04d"/>
      <path id="Trazado_52448" data-name="Trazado 52448" d="M211.833,202.492s3.728-4.1,6.005-3.891,7.042,2.457,6.007,3.687-6.627,4.1-6.627,4.1,3.077-2.107.413-3.687C215.561,201.467,211.833,202.492,211.833,202.492Z" transform="translate(-139.132 -198.593)" fill="#d38424"/>
      <path id="Trazado_52449" data-name="Trazado 52449" d="M173.575,248.911a29.079,29.079,0,0,1-13.877-1.434c-6.824-2.371-8.615-7.3-7.62-8.362s2.651-.035,7.62-.24l4.971-.2a48.266,48.266,0,0,1-8.7,1.434C151.829,240.31,160.113,248.707,173.575,248.911Z" transform="translate(-151.824 -190.126)" fill="#d38424"/>
      <path id="Trazado_52450" data-name="Trazado 52450" d="M196.646,235.282s-1.45,9.627,4.349,15.77,11.185,9.83,14.5,15.565,2.692,8.806,3.935,7.372a22.706,22.706,0,0,0,4.764-13.926c-.207-6.758-2.279-10.035-2.279-10.035s2.9,6.553,0,12.9-8.284-1.433-10.769-3.891-6.214-8.6-8.906-9.625S196.646,243.884,196.646,235.282Z" transform="translate(-142.378 -190.833)" fill="#d38424"/>
      <path id="Trazado_52451" data-name="Trazado 52451" d="M219.526,243.95s7.248,1.228,12.634-2.047a25.926,25.926,0,0,1,13.462-4.1c3.313,0,3.971.649,3.971.649A9.7,9.7,0,0,0,245,231.662c-4.142-2.457-7.042-1.228-7.042-1.228a21.509,21.509,0,0,1,4.971,1.433c3.108,1.23,3.315,4.3-1.035,5.12s-10.138,3.478-11.806,4.1S228.017,242.722,219.526,243.95Z" transform="translate(-137.505 -191.923)" fill="#d38424"/>
      <path id="Trazado_52452" data-name="Trazado 52452" d="M172.292,229.535a55.535,55.535,0,0,1-10.976,1.638c-4.556,0-5.385-1.638-5.385-.409s2.693,4.71,7.456,5.939a14.57,14.57,0,0,0,8.078,0,15.348,15.348,0,0,1-8.285-1.433c-3.935-2.047-3.313-2.663.207-3.072S169.6,231.378,172.292,229.535Z" transform="translate(-150.955 -192.049)" fill="#d38424"/>
    </g>
    <g id="Grupo_24290" data-name="Grupo 24290" transform="translate(182.241 285.237)">
      <path id="Trazado_52453" data-name="Trazado 52453" d="M156.576,259.149s58.695,3.128,64.03,2.607,11.434-11.472,16.009-9.385,0,7.3,0,7.3,6.86,1.043,6.86,9.385-5.717,8.865-8.385,6.778a30.553,30.553,0,0,1-4.955-5.214l-73.94-4.171Z" transform="translate(-155.348 -242.463)" fill="#ceca9b"/>
      <path id="Trazado_52454" data-name="Trazado 52454" d="M216.18,259.269s-7.623,2.085-12.2,2.085-25.536-15.121-28.966-16.164a28.643,28.643,0,0,0-7.242-1.043l1.525,3.65s-4.575-1.564-9.148,3.129-6.15,15.351-3.048,22.42c3.43,7.821,12.958,6.257,15.244,4.693s7.619-5.508,19.819-5.214c11.371.273,15.064.3,17.533,1.042l10.672-1.564-5.717-5.214S216.18,261.354,216.18,259.269Z" transform="translate(-155.495 -244.147)" fill="#7f5538"/>
      <path id="Trazado_52455" data-name="Trazado 52455" d="M169.681,278.781a6.9,6.9,0,0,0,2.011-.829c2.287-1.565,8.381-4.985,20.582-4.693,10.035.241,13.5.176,16.008.7-3.455-2.624-11.054-4.346-11.054-4.346s8.386,1.043,11.434-1.564-4.954-2.607-4.954-2.607,4.789-2.034,6.1-5.388c-1.662.183-4.823.521-6.606.521-4.573,0-25.409-14.425-28.84-15.468a21.373,21.373,0,0,0-2.259-.543c-.835,1.517,2.259,5.757,2.259,5.757s-5.335,1.043-9.147,7.821,2.668,7.821,2.668,7.821-.38,5.214,1.144,5.735,6.479-.521,6.479-.521S171.183,275.267,169.681,278.781Z" transform="translate(-153.694 -244.06)" fill="#c6a160"/>
      <path id="Trazado_52456" data-name="Trazado 52456" d="M172.311,245.687s-2.668-.869-3.177-.521,1.016,3.128,1.016,3.128a11.538,11.538,0,0,0-7.114,1.216c-3.177,1.912-3.049,3.65-2.287,3.65H162.4s-1.4,1.912-2.541,3.65a17.656,17.656,0,0,0-1.778,3.649l2.541-1.564a9.869,9.869,0,0,0-1.4,4.346c0,2.085,4.954,2.955,4.954,2.955l-1.524,1.216a4.55,4.55,0,0,0,3.3.7,4.06,4.06,0,0,0,2.541-1.218,4.792,4.792,0,0,1-4.32-4.344c-.635-4.171,3.811-8.865,5.59-10.6a11.255,11.255,0,0,1,3.939-2.434A12.3,12.3,0,0,1,172.311,245.687Z" transform="translate(-154.948 -243.949)" fill="#996847"/>
      <path id="Trazado_52457" data-name="Trazado 52457" d="M205.59,257.776a5.531,5.531,0,0,0-2.542.87c-.762.7-2.922,2.955-2.922,2.955s3.049,1.042,2.542,3.3-3.558,2.607-3.049,2.607,7.368-.173,6.734-.7a28.908,28.908,0,0,1-2.287-2.607Z" transform="translate(-146.175 -241.264)" fill="#996847"/>
      <path id="Trazado_52458" data-name="Trazado 52458" d="M206.856,260.748s-.762.869-6.861.348a28.26,28.26,0,0,1-9.274-2.086s5.208.522,3.684-.869-15.627-9.733-18.04-11.124-2.541-1.042-1.524,1.218,4.319,4.692,4.319,4.692-3.939-1.564-7.115-.173-2.159,2.606-.762,2.78,3.177.521,3.177.521-5.463.174-7.623,2.434-.127,4.519,3.3,4.519,9.4-.87,18.8,0,15.753,4.867,17.024,4.692.127-.7-1.271-1.564a41.075,41.075,0,0,0-3.684-1.912S206.6,262.66,206.856,260.748Z" transform="translate(-153.285 -243.714)" fill="#d3b472"/>
      <path id="Trazado_52459" data-name="Trazado 52459" d="M173.5,263.439a20.277,20.277,0,0,1,12.832-3.65c7.876.348,11.307,4,11.307,4S185.186,258.4,173.5,263.439Z" transform="translate(-151.688 -240.843)" fill="#d3b472"/>
      <path id="Trazado_52460" data-name="Trazado 52460" d="M175.385,265.2s7.623-3.3,12.7-1.912a25.412,25.412,0,0,1,8.639,4.344S180.975,263.983,175.385,265.2Z" transform="translate(-151.289 -240.171)" fill="#d3b472"/>
      <path id="Trazado_52461" data-name="Trazado 52461" d="M205.731,262.515s4.955.694,6.479-.174,6.861-5.91,9.274-7.647,4.7-1.564,5.209,0-.762,4-1.524,4.171a37.741,37.741,0,0,0-3.685,1.564,8.563,8.563,0,0,1,6.1.869c3.431,1.738,5.335,6.778,3.3,10.429s-9.148-3.824-9.91-4.346-9.147-.173-11.434-.521S204.715,263.383,205.731,262.515Z" transform="translate(-144.919 -242.179)" fill="#e6e4b4"/>
    </g>
    <path id="Trazado_52462" data-name="Trazado 52462" d="M195.685,60.966A7.6,7.6,0,0,1,203,54.457c4.042,0,5.389.957,5.389.957a5.544,5.544,0,0,1,5-.957c2.7.957,2.888,2.68,2.888,2.68l12.126,15.318a8.324,8.324,0,0,1,6.737-3.063,21.972,21.972,0,0,1,6.737.766,6.934,6.934,0,0,1,4.043-5.171,7.97,7.97,0,0,1,5.581,0l26.949-.766a6.406,6.406,0,0,1,3.08-2.3,6.615,6.615,0,0,1,4.619,0,7.9,7.9,0,0,1,7.7-4.212c5.581.383,6.93,4.6,6.93,4.6l17.131,9.573s1.54-2.681,5.775-1.149,4.812,5.361,2.887,8.233-88.16,15.51-108.948,13.02S195.3,64.221,195.685,60.966Z" transform="translate(35.236 0.914)" fill="#c4946c"/>
    <path id="Trazado_52463" data-name="Trazado 52463" d="M332.131,82.24s.578-5.745-5.774-7.181-10.973,4.308-10.973,4.308L294.019,69.89a15.071,15.071,0,0,0-14.052-6.128,26.455,26.455,0,0,0-14.82,6.415s-8.374-4.308-13.283-1.724-2.309,6.893-2.309,6.893a9.981,9.981,0,0,0-7.508,2.2,9.833,9.833,0,0,0-2.257,3.334c-3.446-3.552-9.291-1.228-9.291-1.228L234.252,69.6s.288-6.606-2.31-8.9-6.352-.574-6.352-.574-4.619-7.181-14.148-3.734-12.415,16.371-12.415,16.371-12.127.287-13.86,6.893,4.043,8.616,7.027,11.3c0,0,40.9,10.819,66.312,9.669s63.81-9.19,63.81-9.19,13.858-3.447,13.57-6.893S332.131,82.24,332.131,82.24Z" transform="translate(32.954 1.181)" fill="#a07555"/>
    <path id="Trazado_52464" data-name="Trazado 52464" d="M231.426,77a6.348,6.348,0,0,1,2.887-3.446,6.085,6.085,0,0,1,4.043-.958S233.158,73.935,231.426,77Z" transform="translate(42.805 4.796)" fill="#c4946c"/>
    <path id="Trazado_52465" data-name="Trazado 52465" d="M205.21,58.829s2.118-2.681,7.122-2.681a9.276,9.276,0,0,1,7.506,4.021A13.051,13.051,0,0,0,205.21,58.829Z" transform="translate(37.26 1.328)" fill="#c4946c"/>
    <path id="Trazado_52466" data-name="Trazado 52466" d="M266.38,63.263a9.745,9.745,0,0,1,8.662,4.6c3.465,5.169,2.31,7.659,2.31,7.659S275.62,65.944,266.38,63.263Z" transform="translate(50.198 2.829)" fill="#c4946c"/>
    <path id="Trazado_52467" data-name="Trazado 52467" d="M298,72.694s2.694-1.914,5.968.958a7.561,7.561,0,0,1,2.887,6.127s3.08-.957,3.465.766-2.068,3.047-2.068,3.047,1.49-1.706.528-2.473-2.888.191-2.888.191S305.7,72.5,298,72.694Z" transform="translate(56.885 4.696)" fill="#c4946c"/>
    <g id="Grupo_24299" data-name="Grupo 24299" transform="translate(191.653 49.868)">
      <g id="Grupo_24291" data-name="Grupo 24291" transform="translate(125.115)">
        <path id="Trazado_52468" data-name="Trazado 52468" d="M270.063,76.156c-1.58-6.81,8.854-17.616,21.943-15.7s16.939,20.3,13.089,23.359C302.806,85.636,271.217,81.134,270.063,76.156Z" transform="translate(-265.825 -47.677)" fill="#82ccc7"/>
        <path id="Trazado_52469" data-name="Trazado 52469" d="M273.469,73.376s5.774,5.744-1.925,5.744c-4.389,0-6.159,10.34-4.234,12.254s21.944,2.681,32.337,0,5.39-6.511,3.08-7.276.385-4.212,1.925-5.744S273.469,73.376,273.469,73.376Z" transform="translate(-266.537 -44.896)" fill="#82ccc7"/>
        <path id="Trazado_52470" data-name="Trazado 52470" d="M294.548,69.225l-11.332-2.219,2.156-10.9L296.7,58.328Z" transform="translate(-263.01 -48.548)" fill="#82ccc7"/>
        <path id="Trazado_52471" data-name="Trazado 52471" d="M296.633,61.623,284.855,59.71a1.15,1.15,0,0,1-.953-1.319l1.241-7.559a1.154,1.154,0,0,1,1.327-.949L298.247,51.8a1.15,1.15,0,0,1,.953,1.319l-1.241,7.559A1.154,1.154,0,0,1,296.633,61.623Z" transform="translate(-262.868 -49.868)" fill="#2a6984"/>
        <path id="Trazado_52472" data-name="Trazado 52472" d="M284.731,57.374s.722-4.451,1.3-6.318c.288-.933,11.742.957,11.935,1.914S297,58.906,297,58.906s.385-4.212-.385-4.6-1.54,1.914-5.389,1.531S285.342,54.837,284.731,57.374Z" transform="translate(-262.69 -49.67)" fill="#347a93"/>
        <path id="Trazado_52473" data-name="Trazado 52473" d="M295.534,63.166s-5.2-.191-7.7-1.723S277.826,62.4,274.361,67s-4.043,8.616-.77,10.149,8.662-.191,11.357,1.723,8.855,3.447,12.512,4.021a13.9,13.9,0,0,0,5.583,0,67.5,67.5,0,0,1-10.009-1.914c-3.465-1.15-4.043-3.83-5.968-5.362s-3.85.575-5.2-1.148-.769-3.447-5.2-2.106,3.081-5.554,5.775-7.276,2.887-.191,4.812,0S291.491,63.166,295.534,63.166Z" transform="translate(-265.504 -47.516)" fill="#90ddd5"/>
        <path id="Trazado_52474" data-name="Trazado 52474" d="M275.342,73.692a4.031,4.031,0,0,1,1.54,3.638c-.193,2.488-1.732,2.488-4.428,2.871a4.53,4.53,0,0,0-3.656,3.83,24.848,24.848,0,0,0-.193,3.255,31.674,31.674,0,0,1,12.511,1.34c5.968,2.107,9.047,1.915,9.432,1.724s-3.849-1.915-5.774-2.872,2.31.574,8.084.957,8.277-1.34,8.277-1.34-3.465.766-10.009-.383-12.32-4.212-15.207-4.6.771-.574,1.732-2.3S278.422,73.883,275.342,73.692Z" transform="translate(-266.1 -44.83)" fill="#90ddd5"/>
      </g>
      <g id="Grupo_24292" data-name="Grupo 24292" transform="translate(0 5.885)">
        <path id="Trazado_52475" data-name="Trazado 52475" d="M175.2,65.947l-10.394,2.3-1.54,19.913,7.315-7.276,6.545.766,20.019-7.276-3.08-18.382Z" transform="translate(-163.265 -54.459)" fill="#ddba87"/>
        <path id="Trazado_52476" data-name="Trazado 52476" d="M224.207,96.084l-7.315-28.338h-8.084s7.865-4.485,6.545-5.361a60.336,60.336,0,0,0-6.545-2.681l-15.014-4.978L164.536,68.512l15.014,7.276-.385,2.3,11.164-1.533L186.865,80l6.929,4.212,2.7,6.893Z" transform="translate(-162.996 -54.726)" fill="#edcc96"/>
        <path id="Trazado_52477" data-name="Trazado 52477" d="M192.92,55.99,168.667,67.862l11.164,5.361.77,2.681L191,74.755l-7.7-.766V70.925l-7.7-3.064,17.324-9.191,14.629,4.978L198.7,71.691l-1.966,7.053-6.119.606,8.084.766,1.54-6.127,10.394-2.3,3.465,10.34-3.465,2.3,8.469,3.829-4.62-18.382-9.239-1.532,6.545-5.361Z" transform="translate(-162.122 -54.459)" fill="#f7dda6"/>
      </g>
      <g id="Grupo_24293" data-name="Grupo 24293" transform="translate(81.615 6.278)">
        <path id="Trazado_52478" data-name="Trazado 52478" d="M230.632,99.179l6.93-22.211,6.93-2.3-3.08-5.361,1.925-9.957L269.9,58.2l3.08,4.978-3.465,18.382-4.235,3.064,2.695,4.978.409,5.122-27.742,6.367Z" transform="translate(-230.632 -54.383)" fill="#c6a160"/>
        <path id="Trazado_52479" data-name="Trazado 52479" d="M243.66,60.784l.345-4.815a.6.6,0,0,1,.59-.556L265.8,55.05a.6.6,0,0,1,.611.555l.344,4.8Z" transform="translate(-227.876 -55.05)" fill="#c6a160"/>
        <path id="Trazado_52480" data-name="Trazado 52480" d="M243.4,61.048l8.084,3.83,17.324-2.3-1.54,14.552-1.155-10.34-13.474,1.149-1.155,8.425-7.315,3.446,5.775,6.51-5.39,7.276,1.925-6.893-8.854-8.425,7.7-3.063-3.08-6.893Z" transform="translate(-229.153 -53.781)" fill="#d3b472"/>
        <path id="Trazado_52481" data-name="Trazado 52481" d="M262.267,76.853l-5,3.83,3.08,4.212-10.009-6.127Z" transform="translate(-226.465 -50.439)" fill="#d3b472"/>
        <path id="Trazado_52482" data-name="Trazado 52482" d="M245.169,59.336V58.044a1.584,1.584,0,0,1,1.588-1.58h17.179Z" transform="translate(-227.557 -54.751)" fill="#d3b472"/>
      </g>
      <g id="Grupo_24294" data-name="Grupo 24294" transform="translate(69.184 32.195)">
        <path id="Trazado_52483" data-name="Trazado 52483" d="M237.71,84.406c-.122-1.158-1.612-1.9-3.662-2.3a.8.8,0,0,1-.649-.758l-.087-2.4a2.31,2.31,0,0,0-2.7-2.5l-3.733.062a2.33,2.33,0,0,0-2.372,2.75l.086,2.373a.8.8,0,0,1-.6.806c-1.786.454-3.088,1.124-3.32,1.969-.684,2.494,0,8.617,0,8.617,4.331,4.882,18.189,2.871,18.189,2.871S238.288,89.864,237.71,84.406Z" transform="translate(-220.371 -76.443)" fill="#ceca9b"/>
        <path id="Trazado_52484" data-name="Trazado 52484" d="M234.251,81.713s2.31.287,2.6,2.01.722,8.329.722,8.329a58.375,58.375,0,0,0-1.3-6.175c-1.156-2.01-4.621-1.293-5.775-.718-3.747,1.865-2.309,4.308-2.743,5.171s-6.5-.574-6.64-2.3-.145-4.021.288-4.739,3.175-1.436,3.175-1.436-1.3,1.149,2.022,1.867S236.417,83.867,234.251,81.713Z" transform="translate(-220.232 -75.328)" fill="#e6e4b4"/>
        <path id="Trazado_52485" data-name="Trazado 52485" d="M224.137,78.571v3.017c0,.79,2.31,1.579,5.053,1.579s3.681-.933,3.248-1.22-.434-3.3-.434-3.3A12.219,12.219,0,0,1,224.137,78.571Z" transform="translate(-219.574 -75.992)" fill="#e6e4b4"/>
        <path id="Trazado_52486" data-name="Trazado 52486" d="M224.733,82.093a9.368,9.368,0,0,0,4.764.79c2.888-.216,3.177-.933,3.177-.933s.433,1.291-3.032,1.579S224.733,82.093,224.733,82.093Z" transform="translate(-219.448 -75.278)" fill="#e6e4b4"/>
        <path id="Trazado_52487" data-name="Trazado 52487" d="M231.059,78.463a12.878,12.878,0,0,1-4.692.073c-2.671-.431-2.166-1.293-.29-1.651a15.332,15.332,0,0,1,4.115-.073s-1.949.073-2.093.647S229.759,78.392,231.059,78.463Z" transform="translate(-219.494 -76.387)" fill="#e6e4b4"/>
      </g>
      <g id="Grupo_24295" data-name="Grupo 24295" transform="translate(28.183 37.557)">
        <path id="Trazado_52488" data-name="Trazado 52488" d="M191.219,82.96s-13.858,6.892,6.064,14.647c8.106,3.155,14.725,12.923,14.725,28.433s6.064,11.2,7.795,24.986,6.064,19.817,6.93-4.308,6.929-27.571,8.661-18.955,12.993-4.308,13.858-16.37,12.127-13.786,30.315-13.786,27.717-6.032,27.717-6.032-16.456-7.754-30.314-3.446-30.315,6.892-43.309,3.446S202.48,76.067,191.219,82.96Z" transform="translate(-186.528 -80.869)" fill="#bd2b1f"/>
        <path id="Trazado_52489" data-name="Trazado 52489" d="M298.178,90.45c-1.924-1.531-12.7-3.447-20.019-1.531s-25.408,6.127-39.267,6.893-19.248-1.533-19.248-1.533,9.624.766,11.934-.383-23.1-10.723-30.028-10.723-11.549,3.83-5,8.809,13.089,13.786,14.629,19.147,3.465-.766,2.694-4.6a19.484,19.484,0,0,0-1.924-5.744s4.234,1.914,3.08,12.254-1.925,17.615-.771,20.3,4.619,6.893,5.775,12.637,3.465-.383,3.465-7.659,1.924-17.232,5.774-18.764,5.39.766,5.39.766-2.31-3.447-5.775-3.064-4.234,1.914-4.234,1.914,3.08-6.127,8.084-3.446,7.315,7.658,9.239,3.446,1.54-10.339,5.775-16.85,15.4-6.509,21.944-6.892S302.212,93.661,298.178,90.45Z" transform="translate(-185.076 -80.381)" fill="#ed2b1f"/>
        <path id="Trazado_52490" data-name="Trazado 52490" d="M215.061,139.914s.578,6.318,1.925,8.233,1.925-5.554,1.925-5.554-.193,3.064-1.541,2.872S215.061,139.914,215.061,139.914Z" transform="translate(-180.493 -68.38)" fill="#ed2b1f"/>
        <path id="Trazado_52491" data-name="Trazado 52491" d="M227.136,117.313s0,4.6,2.118,4.6,3.658-2.872,3.658-2.872S229.254,122.291,227.136,117.313Z" transform="translate(-177.939 -73.161)" fill="#ed2b1f"/>
        <path id="Trazado_52492" data-name="Trazado 52492" d="M206.958,107.83a29.065,29.065,0,0,1,1.347,8.425c.193,5.361-.385,9.19.578,11.68a18.631,18.631,0,0,0,1.925,3.83,18.758,18.758,0,0,1-1.541-8.425C209.46,118.362,209.076,109.361,206.958,107.83Z" transform="translate(-182.207 -75.166)" fill="#ed2b1f"/>
        <path id="Trazado_52493" data-name="Trazado 52493" d="M190.881,83.491s-3.658,1.914-3.465,4.978,4.812,5.169,4.812,5.169S187.031,90,190.881,83.491Z" transform="translate(-186.341 -80.314)" fill="#ed2b1f"/>
      </g>
      <g id="Grupo_24297" data-name="Grupo 24297" transform="translate(42.61 10.893)">
        <g id="Grupo_24296" data-name="Grupo 24296">
          <path id="Trazado_52494" data-name="Trazado 52494" d="M222.748,65.893a16.849,16.849,0,0,1,5.68-5.95,6.177,6.177,0,0,1,8.792,2.092l.294.974s-1.8-2.366-6.926-1.267a10.209,10.209,0,0,0-6.964,4.924Z" transform="translate(-193.294 -58.86)" fill="#7f5538"/>
          <path id="Trazado_52495" data-name="Trazado 52495" d="M234.895,60.854a4.866,4.866,0,0,0-3.814-1.7c-2.754-.136-6.606,4.355-5.687,3.8S231.07,59.713,234.895,60.854Z" transform="translate(-192.764 -58.798)" fill="#996847"/>
          <path id="Trazado_52496" data-name="Trazado 52496" d="M222.541,99.381c-5.418,2.287-23.377-9.587-23.669-15.435,4.65,2,12.462-1.195,14.963-5.133s2.078-13.62-.307-16.687c5.311-2.241,22.668,9.936,22.954,15.667-5.121.2-12.388,1.918-14.862,5.875S215.919,91.864,222.541,99.381Z" transform="translate(-198.344 -58.226)" fill="#ceca9b"/>
          <path id="Trazado_52497" data-name="Trazado 52497" d="M210.7,62.084a22.85,22.85,0,0,1,10.61-.615c3.756.777,3.158,4,5.626,4.411,2.637.437,4.321,1.146,5.911,5.041a17.671,17.671,0,0,1,1.378,7.187s-3.283-.917-4.955-1.508-1.3-2.619-3.4-3.252-4.386-.248-7.485-2.181S210.7,62.084,210.7,62.084Z" transform="translate(-195.842 -58.388)" fill="#93c83d"/>
          <path id="Trazado_52498" data-name="Trazado 52498" d="M198.436,78.7a21.671,21.671,0,0,0,2.4,9.177c2.3,3.92,9.11,8.617,13.618,9.394s9.407-1.592,9.407-1.592-3.035-3.475-4.279-4.023-1.857.424-3.223-.654-1.977-1.911-3.221-2.459-4.019-.472-5.506-2.078-1.465-2.721-2.933-3.637-2.427-.835-3.569-1.547A15.608,15.608,0,0,1,198.436,78.7Z" transform="translate(-198.436 -54.664)" fill="#93c83d"/>
          <path id="Trazado_52499" data-name="Trazado 52499" d="M213.5,66.924a43,43,0,0,1-.705,9.051c-.861,3.53,2.241,1.85,4.019.471s2.081-.058,1.385,1.768,3,.288,5.163-.623,3.41-2.167,3.023-2.634-.161-1.908-1.283-1.93-3.8,1.7-6.285.6c-1.125-.5-1.757-2.555-2.728-3.962A12.744,12.744,0,0,0,213.5,66.924Z" transform="translate(-195.429 -57.154)" fill="#e6e4b4"/>
          <path id="Trazado_52500" data-name="Trazado 52500" d="M212.657,77.669a14.439,14.439,0,0,1-5.984,3.727c-3.653,1.112-.2.325.018,2.5s1.281,3.736,3.22,2.459,4.615-3,4.185-1.232a4.906,4.906,0,0,0,.933,4.649c1.1,1.138.939-.771,1.267-2.373a24.2,24.2,0,0,1,2.581-6.978c1.329-2.109.35-2.72-2.427-.836s-3.226,1.153-2.264-.733S213.332,76.959,212.657,77.669Z" transform="translate(-197.047 -54.974)" fill="#e6e4b4"/>
          <path id="Trazado_52501" data-name="Trazado 52501" d="M224.4,65.828c-1.637-.834-.548-3.278-3.954-3.82s-7.508-.162-8.152.68,2.534,4.63,3.269,5.088,1.826.346,2.253,1.291.139,2.121,3.628,2.714S226.382,66.836,224.4,65.828Z" transform="translate(-195.522 -58.247)" fill="#abd855"/>
          <path id="Trazado_52502" data-name="Trazado 52502" d="M224.109,66.037c1.112-1.4,3.427.328,4.823,2.441s2.439,6.944,1.837,7.36-3.264-.228-3.855-1.273-1.351-4.346-1.912-4.357-.6,1.319-1.644,1.348S223.568,66.716,224.109,66.037Z" transform="translate(-193.25 -57.448)" fill="#abd855"/>
          <path id="Trazado_52503" data-name="Trazado 52503" d="M199.718,81.169c-.538-.556.738,5.318,1.96,6.984s1.448.225,2.5.542.2,2.385,2.037,3.077,5.093-2.135,5.258-2.937-2.061-.154-4.16-1.689S205.2,83.46,203.96,82.91,200.543,82.024,199.718,81.169Z" transform="translate(-198.192 -54.149)" fill="#abd855"/>
          <path id="Trazado_52504" data-name="Trazado 52504" d="M211.752,87.778c-1.1.016-5.064,3.17-4.851,4.094s3.345.279,4.008,1.03-.471,1.289,2.559,1.708,6.448-.5,6.938-1.1-2.129-2.57-2.965-2.865-3.307,1.1-3.765.025S213.7,87.75,211.752,87.778Z" transform="translate(-196.647 -52.743)" fill="#abd855"/>
        </g>
        <path id="Trazado_52505" data-name="Trazado 52505" d="M213.71,81.33s-.006-7.6,2.885-6.528S216.309,79.606,213.71,81.33Z" transform="translate(-195.206 -55.51)" fill="#7f5538"/>
        <path id="Trazado_52506" data-name="Trazado 52506" d="M214.346,79.139s0-2.968,1.155-3.83S216.656,76.267,214.346,79.139Z" transform="translate(-195.071 -55.426)" fill="#996847"/>
      </g>
      <g id="Grupo_24298" data-name="Grupo 24298" transform="translate(96.437 43.415)">
        <path id="Trazado_52507" data-name="Trazado 52507" d="M242.866,91.831s6.466-7.393,16.554-5.936c11.933,1.724,16.938,14.553,11.741,30.062-3.164,9.445-17.516,12.063-17.9,6.7s19.442-7.084,22.906,1.724-10.2,18-13.089,13.594c-1.983-3.026,9.24-7.851,12.705-.957s-5.39,13.4-8.086,14.17-5.774-1.915-5.774-1.915,7.315-2.681,10.009-8.425-1.732-6.893-3.465-6.319-1.54,1.915.385,1.15,5.967-5.362,3.465-10.34-10.78-6.318-12.705-4.978.193,2.488,3.272.574,9.625-13.211,4.043-24.317c-5.2-10.34-17.9-5.361-17.9-5.361Z" transform="translate(-242.866 -85.704)" fill="#f2982c"/>
        <path id="Trazado_52508" data-name="Trazado 52508" d="M245.646,89.675A16.551,16.551,0,0,1,260.228,86.8c8.373,2.441,11.982,8.9,11.693,18.095s-4.331,13.786-3.609,10.77,2.743-14.648-1.588-21.685S251.132,86.947,245.646,89.675Z" transform="translate(-242.278 -85.607)" fill="#ffab35"/>
        <path id="Trazado_52509" data-name="Trazado 52509" d="M257.9,113.243s-5.052.574-5.918,2.872,3.031,3.59,6.784,2.3,4.475-2.441,4.475-2.441-5.486,2.011-7.795.861S257.9,113.243,257.9,113.243Z" transform="translate(-240.964 -79.88)" fill="#ffab35"/>
        <path id="Trazado_52510" data-name="Trazado 52510" d="M265.189,113.954s5.918,1.58,5.918,6.606-2.743,7.324-3.175,7.611,2.6-3.3,1.588-7.468A13.486,13.486,0,0,0,265.189,113.954Z" transform="translate(-238.145 -79.729)" fill="#ffab35"/>
        <path id="Trazado_52511" data-name="Trazado 52511" d="M262.816,126.282s-2.31,1.006-2.743,2.154,2.165,1.867,4.186,1.006l2.022-.861S261.228,129.442,262.816,126.282Z" transform="translate(-239.237 -77.122)" fill="#ffab35"/>
        <path id="Trazado_52512" data-name="Trazado 52512" d="M270.408,127.23s3.177,3.015.722,7.9-6.5,6.749-8.373,6.318a13.141,13.141,0,0,1-2.454-.717S271.564,136.133,270.408,127.23Z" transform="translate(-239.178 -76.921)" fill="#ffab35"/>
        <path id="Trazado_52513" data-name="Trazado 52513" d="M250.293,86.747s7.8-2.441,13.932,2.083a16.162,16.162,0,0,1,6.5,11.2s-4.187-8.545-9.384-11.416A18.763,18.763,0,0,0,250.293,86.747Z" transform="translate(-241.295 -85.623)" fill="#ffc71c"/>
        <path id="Trazado_52514" data-name="Trazado 52514" d="M265.189,113.954s3.97,1.006,5.486,4.165-.217,6.678-.217,6.678.722-4.237-1.155-7.181A8.678,8.678,0,0,0,265.189,113.954Z" transform="translate(-238.145 -79.729)" fill="#ffc71c"/>
        <path id="Trazado_52515" data-name="Trazado 52515" d="M269.362,127.23s3.177,2.011,1.3,6.893a11.721,11.721,0,0,1-5.414,6.462s4.331-3.662,4.836-7.9S269.362,127.23,269.362,127.23Z" transform="translate(-238.132 -76.921)" fill="#ffc71c"/>
      </g>
    </g>
    <path id="Trazado_52516" data-name="Trazado 52516" d="M229.819,63.015a2.5,2.5,0,0,0-.577,2.872c.432.574,2.887,1.436,3.609.574S231.264,62.009,229.819,63.015Z" transform="translate(42.294 2.743)" fill="#c4946c"/>
    <path id="Trazado_52517" data-name="Trazado 52517" d="M232.088,62.561a1.52,1.52,0,0,0,.722,2.01c.722.144,1.877-.287,1.444-1.293S232.521,61.987,232.088,62.561Z" transform="translate(42.912 2.623)" fill="#c4946c"/>
    <path id="Trazado_52518" data-name="Trazado 52518" d="M239.68,56.109c-.722,0-1.444,1.58-1.3,2.154s1.732,1.58,2.31,1.148S240.545,56.109,239.68,56.109Z" transform="translate(44.272 1.32)" fill="#c4946c"/>
    <path id="Trazado_52519" data-name="Trazado 52519" d="M241.293,56.624c-.46.572-.432,1.58.144,1.58s2.021-1.149,2.021-1.149S241.871,55.906,241.293,56.624Z" transform="translate(44.824 1.379)" fill="#c4946c"/>
    <path id="Trazado_52520" data-name="Trazado 52520" d="M266.015,56.47c-.878.25-.722,2.442-.29,3.017s2.31.861,2.743-.431S267.026,56.183,266.015,56.47Z" transform="translate(49.986 1.389)" fill="#c4946c"/>
    <path id="Trazado_52521" data-name="Trazado 52521" d="M269.781,56.822c-.849-.168-1.444,1.867-.722,2.3s1.877-.144,2.309-1.15S270.5,56.966,269.781,56.822Z" transform="translate(50.696 1.469)" fill="#c4946c"/>
    <path id="Trazado_52522" data-name="Trazado 52522" d="M125.768,87.948s7.508-8.616,13.86-9.19.578,4.021,8.084,4.6,19.634-2.871,19.634-2.871-13.282,4.6-16.747,6.318,5.775,19.531,5.775,19.531S143.669,89.1,140.782,85.077,125.768,87.948,125.768,87.948Z" transform="translate(20.458 6.1)" fill="#444443"/>
    <path id="Trazado_52523" data-name="Trazado 52523" d="M331.911,114.824s-4.043-15.51-4.043-18.382,5.2,2.3,16.17,3.447,17.323-1.148,23.1.574,8.084,6.893,1.155,12.638-9.817,6.318-9.817,6.318,9.817-6.893,8.084-12.063-12.127-.574-19.634-2.872-12.127-5.169-13.86-2.871S331.911,114.824,331.911,114.824Z" transform="translate(63.202 9.669)" fill="#444443"/>
    <path id="Trazado_52524" data-name="Trazado 52524" d="M187.894,110.74s-6.93-6.509-12.32-5.744-16.169,22.977-16.169,22.977,8.084-14.553,6.545-18-15.4-1.531-18.864.383a34.418,34.418,0,0,0-6.545,4.979s6.16-5.362,3.85-6.511-15.4,5.361-20.4,13.786-5.774,16.851-1.925,22.594a13.647,13.647,0,0,0,9.625,6.128s3.849-12.638,14.244-15.7a27.925,27.925,0,0,1,18.479.766l-5.775-3.83s6.93-5.745,20.019-4.6,18.864,4.978,18.864,4.978,1.155-18-.771-21.445S187.894,110.74,187.894,110.74Z" transform="translate(19.159 11.646)" fill="#444443"/>
    <path id="Trazado_52525" data-name="Trazado 52525" d="M127.583,147.14c.59-2.642-9.625-8.042-11.935-5.361S126.044,154.033,127.583,147.14Z" transform="translate(18.258 19.285)" fill="#444443"/>
    <path id="Trazado_52526" data-name="Trazado 52526" d="M132.836,144.88c-1.479-1.765-5,3.064-3.85,4.978S134.761,147.178,132.836,144.88Z" transform="translate(21.09 20.014)" fill="#444443"/>
    <path id="Trazado_52527" data-name="Trazado 52527" d="M310.946,116.5c3.443-.855,18.479-1.531,21.173,1.15s-.385,9.19-.385,9.19,4.235-6.893,9.624-6.127,23.1,21.062,23.1,21.062-8.47-10.723-10.009-14.553,6.929-4.212,14.629-1.148,13.474,9.573,17.323,19.531-.769,14.551-2.694,15.318-8.084-2.681-18.864-4.6-20.4,2.681-20.4,2.681,6.929-4.978,15.013-5.744-10.393-17.616-23.868-18.382-16.169,1.148-16.169,1.148l1.54,6.893s-3.465-8.042-8.084-9.956S309.406,116.88,310.946,116.5Z" transform="translate(59.336 13.932)" fill="#444443"/>
    <path id="Trazado_52528" data-name="Trazado 52528" d="M365.279,153.668c3.834-.339,14.245,3.063,16.169,8.042s-9.624,7.276-17.708,7.276S347.956,155.2,365.279,153.668Z" transform="translate(68.908 21.949)" fill="#444443"/>
    <path id="Trazado_52529" data-name="Trazado 52529" d="M375.125,167.987c-2.641-1.752-10.009.766-10.395,4.6S378.59,170.285,375.125,167.987Z" transform="translate(70.997 24.862)" fill="#444443"/>
    <path id="Trazado_52530" data-name="Trazado 52530" d="M86.75,136.652s-10.971-3.734-12.415-5.457,3.465-8.617,8.951-12.063,8.662-1.15,7.508,2.01,4.619,0,9.239-5.169,6.641-10.053,10.105-9.479,6.064,4.6,6.064,4.6-4.908-2.872-6.93-2.011-3.753,6.606-9.239,10.914,6.641,16.658,6.641,16.658S89.637,128.61,87.9,126.6s-.577-4.6-4.042-3.446-5.486,2.871-5.2,6.031S86.75,136.652,86.75,136.652Z" transform="translate(9.526 11.967)" fill="#5b5a5a"/>
    <path id="Trazado_52531" data-name="Trazado 52531" d="M72.391,158.019c-.7-2.8,6.93-14.935,12.415-19.531s12.993-7.181,13.283-4.021-2.6,11.2-.578,8.616,4.331-7.755,7.218-7.755,5.2,8.616,6.64,7.755.29-6.606,2.31-6.606,5.486,2.585,5.486,4.6-3.753,21.255-4.908,21.255-7.508-10.34-16.169-11.489-13.283,1.148-12.417,1.723,3.754-.287,4.043,2.011S73.547,162.614,72.391,158.019Z" transform="translate(9.159 17.598)" fill="#5b5a5a"/>
    <path id="Trazado_52532" data-name="Trazado 52532" d="M80.635,158.924c-2.887-2.01-9.24-3.16-11.549,2.872s14.148,5.744,19.345,2.3S80.635,158.924,80.635,158.924Z" transform="translate(8.423 22.724)" fill="#5b5a5a"/>
    <path id="Trazado_52533" data-name="Trazado 52533" d="M74.577,167.131c-2.92-1.694-5.2-1.437-6.93.861S78.041,169.141,74.577,167.131Z" transform="translate(8.129 24.57)" fill="#5b5a5a"/>
    <path id="Trazado_52534" data-name="Trazado 52534" d="M382.683,116.542s1.732,1.724,10.395,2.011,13.282.574,12.7-1.723,7.218.574,10.106,2.3-.578,6.319-1.732,8.042-4.621,5.745-4.621,5.745,5.487-6.893,4.331-10.34-5.774-4.308-6.64-3.16-4.62,15.51-4.62,15.51.288-12.063-1.444-13.211-11.838-2.585-12.7-.287.288,9.478,0,8.616S382.683,116.542,382.683,116.542Z" transform="translate(74.796 13.982)" fill="#5b5a5a"/>
    <path id="Trazado_52535" data-name="Trazado 52535" d="M376.492,132c.922-2.293,11.549-3.447,15.879,0s3.177,19.243,3.754,16.084-.29-13.211,3.753-13.211,13.86,10.626,12.127,8.042-4.909-9.192.577-7.181,16.169,8.9,21.078,19.243-3.753,15.8-9.817,18.094-7.218-.574-4.908-2.01,8.373-3.16,8.373-3.16-5.775-3.16-13.57,0-4.621,6.319-7.8,7.468-16.169.287-18.767-7.755,8.661-11.489,8.661-11.489a29.279,29.279,0,0,0-7.218,1.148C384.576,158.42,375.914,133.431,376.492,132Z" transform="translate(73.481 16.91)" fill="#5b5a5a"/>
    <path id="Trazado_52536" data-name="Trazado 52536" d="M431.148,164.71c-4.1-2.285-12.993.287-17.324,7.755s7.8,12.637,15.592,12.35S438.366,168.731,431.148,164.71Z" transform="translate(81.19 24.119)" fill="#5b5a5a"/>
    <path id="Trazado_52537" data-name="Trazado 52537" d="M412.192,168.892c-3.564-2.836-7.506-2.01-8.951,2.011s1.732,6.892,4.619,5.744S415.079,171.19,412.192,168.892Z" transform="translate(79.068 24.819)" fill="#5b5a5a"/>
  </g>
</svg>
