<svg xmlns="http://www.w3.org/2000/svg" width="189.512" height="221.162" viewBox="0 0 189.512 221.162">
  <g id="Grupo_25377" data-name="Grupo 25377" transform="translate(-130.719 -105.705)">
    <g id="Grupo_25370" data-name="Grupo 25370" transform="translate(130.719 105.705)">
      <rect id="Rectángulo_5339" data-name="Rectángulo 5339" width="120.325" height="177.609" rx="10.736" transform="translate(0 5.226)" fill="#191821" opacity="0.7" style="mix-blend-mode: overlay;isolation: isolate"/>
      <g id="Grupo_25369" data-name="Grupo 25369" transform="translate(5.662)">
        <rect id="Rectángulo_5340" data-name="Rectángulo 5340" width="120.325" height="177.609" rx="10.736" fill="#583bf7"/>
        <rect id="Rectángulo_5341" data-name="Rectángulo 5341" width="49.112" height="10.298" transform="translate(36.299 1.452)" fill="#7689f4"/>
        <rect id="Rectángulo_5342" data-name="Rectángulo 5342" width="110.25" height="156.596" transform="translate(5.038 13.529)" fill="#fff"/>
        <rect id="Rectángulo_5343" data-name="Rectángulo 5343" width="49.112" height="1.165" transform="translate(36.299 6.443)" fill="#4336c1" opacity="0.65" style="mix-blend-mode: overlay;isolation: isolate"/>
        <g id="Grupo_25356" data-name="Grupo 25356" transform="translate(32.484 5.645)">
          <rect id="Rectángulo_5344" data-name="Rectángulo 5344" width="56.744" height="12.718" rx="6.359" transform="translate(0 0.584)" fill="none" stroke="#eaebfb" stroke-miterlimit="10" stroke-width="2.064"/>
          <rect id="Rectángulo_5345" data-name="Rectángulo 5345" width="49.113" height="1.165" transform="translate(3.553)" fill="#4336c1" opacity="0.42"/>
        </g>
        <g id="Grupo_25358" data-name="Grupo 25358" transform="translate(20.758 65.446)">
          <rect id="Rectángulo_5346" data-name="Rectángulo 5346" width="19.975" height="1.974" transform="translate(0 0)" fill="#7689f4"/>
          <g id="Grupo_25357" data-name="Grupo 25357" transform="translate(0 5.415)">
            <rect id="Rectángulo_5347" data-name="Rectángulo 5347" width="54.944" height="1.974" fill="#eaebfb"/>
            <rect id="Rectángulo_5348" data-name="Rectángulo 5348" width="54.944" height="1.974" transform="translate(0 4.301)" fill="#eaebfb"/>
            <rect id="Rectángulo_5349" data-name="Rectángulo 5349" width="31.614" height="1.974" transform="translate(0 8.601)" fill="#eaebfb"/>
          </g>
        </g>
        <g id="Grupo_25362" data-name="Grupo 25362" transform="translate(20.758 38.034)">
          <g id="Grupo_25360" data-name="Grupo 25360">
            <rect id="Rectángulo_5350" data-name="Rectángulo 5350" width="19.975" height="1.974" fill="#7689f4"/>
            <g id="Grupo_25359" data-name="Grupo 25359" transform="translate(0 5.994)">
              <rect id="Rectángulo_5351" data-name="Rectángulo 5351" width="54.944" height="1.974" fill="#eaebfb"/>
              <rect id="Rectángulo_5352" data-name="Rectángulo 5352" width="54.944" height="1.974" transform="translate(0 4.301)" fill="#eaebfb"/>
              <rect id="Rectángulo_5353" data-name="Rectángulo 5353" width="31.614" height="1.974" transform="translate(0 8.601)" fill="#eaebfb"/>
            </g>
          </g>
          <g id="Grupo_25361" data-name="Grupo 25361" transform="translate(58.33 0.289)">
            <path id="Trazado_55126" data-name="Trazado 55126" d="M292.369,187.418l2.978,3.331,5.923-6.382" transform="translate(-286.449 -178.569)" fill="none" stroke="#f70835" stroke-miterlimit="10" stroke-width="1.032"/>
            <rect id="Rectángulo_5354" data-name="Rectángulo 5354" width="18.893" height="18.893" fill="none" stroke="#eaebfb" stroke-miterlimit="10" stroke-width="1.032"/>
          </g>
        </g>
        <g id="Grupo_25363" data-name="Grupo 25363" transform="translate(78.885 65.735)">
          <path id="Trazado_55127" data-name="Trazado 55127" d="M291.283,236.017l2.978,3.331,5.923-6.382" transform="translate(-285.769 -227.32)" fill="none" stroke="#f70835" stroke-miterlimit="10" stroke-width="1.032"/>
          <rect id="Rectángulo_5355" data-name="Rectángulo 5355" width="18.893" height="18.893" fill="none" stroke="#eaebfb" stroke-miterlimit="10" stroke-width="1.032"/>
        </g>
        <g id="Grupo_25366" data-name="Grupo 25366" transform="translate(24.999 131.725)">
          <g id="Grupo_25364" data-name="Grupo 25364" transform="translate(0 15.237)">
            <rect id="Rectángulo_5356" data-name="Rectángulo 5356" width="66.126" height="5.305" fill="#eaebfb"/>
            <rect id="Rectángulo_5357" data-name="Rectángulo 5357" width="43.463" height="5.305" transform="translate(22.663)" fill="#7689f4"/>
          </g>
          <g id="Grupo_25365" data-name="Grupo 25365">
            <rect id="Rectángulo_5358" data-name="Rectángulo 5358" width="66.126" height="5.305" fill="#eaebfb"/>
            <rect id="Rectángulo_5359" data-name="Rectángulo 5359" width="20.893" height="5.305" transform="translate(45.234)" fill="#7689f4"/>
          </g>
        </g>
        <g id="Grupo_25368" data-name="Grupo 25368" transform="translate(25 104.561)">
          <g id="Grupo_25367" data-name="Grupo 25367">
            <path id="Trazado_55128" data-name="Trazado 55128" d="M190.486,292.121l1.576,3.194,3.525.512-2.551,2.486.6,3.511-3.153-1.658-3.153,1.658.6-3.511-2.551-2.486,3.525-.512Z" transform="translate(-185.384 -292.121)" fill="#f70835"/>
            <path id="Trazado_55129" data-name="Trazado 55129" d="M215.735,292.121l1.577,3.194,3.525.512-2.551,2.486.6,3.511-3.153-1.658-3.153,1.658.6-3.511-2.551-2.486,3.525-.512Z" transform="translate(-196.471 -292.121)" fill="#f70835"/>
            <path id="Trazado_55130" data-name="Trazado 55130" d="M240.984,292.121l1.576,3.194,3.525.512-2.551,2.486.6,3.511-3.153-1.658-3.153,1.658.6-3.511-2.551-2.486,3.525-.512Z" transform="translate(-207.558 -292.121)" fill="#f70835"/>
            <path id="Trazado_55131" data-name="Trazado 55131" d="M266.233,292.121l1.577,3.194,3.525.512-2.551,2.486.6,3.511-3.153-1.658-3.153,1.658.6-3.511-2.551-2.486,3.525-.512Z" transform="translate(-218.645 -292.121)" fill="#eaebfb"/>
            <path id="Trazado_55132" data-name="Trazado 55132" d="M291.482,292.121l1.577,3.194,3.525.512-2.551,2.486.6,3.511-3.153-1.658-3.153,1.658.6-3.511-2.551-2.486,3.525-.512Z" transform="translate(-229.731 -292.121)" fill="#eaebfb"/>
          </g>
        </g>
      </g>
    </g>
    <g id="Grupo_25376" data-name="Grupo 25376" transform="translate(206.797 150.515)">
      <path id="Trazado_55133" data-name="Trazado 55133" d="M352.542,297.744l-3.627,2.176-10.068-28.135c-.058-.164-.122-.323-.183-.484l-10.247-31.947a22.483,22.483,0,0,0-11.2-13.214,22.919,22.919,0,0,0-2.748-1.189L356.6,194.221l-3.146-4.314-3.146-4.313L300.6,221.852l-7.921-2.249a7.292,7.292,0,0,0-7.352,2.607l-9.217,12.56a6.328,6.328,0,0,0-1.189,4.469,6.337,6.337,0,0,0-1.456,2.4l-1.549,1.13-.005.01-3.633,6.67L266.4,252.9a.458.458,0,0,0,.468.643l3.847-.724,7.484-1.409,1.882-1.373h3.1l-3.037.974a6.365,6.365,0,0,0,.282,12.219,6.347,6.347,0,0,0,4.511,7.7,6.363,6.363,0,0,0,7.687,7.743l13.534,1.613a18.752,18.752,0,0,0,.739,2.76l12.4,34.65-2.5,1.5,8.9,42.756,50.163,0ZM302.206,237.88a6.332,6.332,0,0,0-2.693-.6h-1.942l2.988-2.18.828.236Z" transform="translate(-266.353 -185.594)" fill="#191821" style="mix-blend-mode: overlay;isolation: isolate"/>
      <g id="Grupo_25375" data-name="Grupo 25375" transform="translate(3.927 0)">
        <path id="Trazado_55134" data-name="Trazado 55134" d="M393.378,404.9V376.407l-16.622-46.448c-3.181-9.029-12.582-13.976-20.955-11.026l-1.583.558c-8.373,2.95-12.6,12.7-9.415,21.727L367.594,404.9Z" transform="translate(-304.262 -243.768)" fill="#e9b99b"/>
        <path id="Trazado_55135" data-name="Trazado 55135" d="M335.522,326.754l-25.187-3-8.9-27.741,22.78-7.308Z" transform="translate(-285.685 -230.869)" fill="#e09973"/>
        <path id="Trazado_55136" data-name="Trazado 55136" d="M296.411,313.392a6.378,6.378,0,0,1-1.94-12.45l4.12-1.321a6.375,6.375,0,0,1,3.894,12.141l-4.119,1.322A6.392,6.392,0,0,1,296.411,313.392Z" transform="translate(-280.682 -235.529)" fill="#e9b99b"/>
        <path id="Trazado_55137" data-name="Trazado 55137" d="M304.461,327.117a6.376,6.376,0,0,1-1.952-12.448l4.12-1.321a6.376,6.376,0,0,1,3.894,12.142l-4.119,1.322A6.369,6.369,0,0,1,304.461,327.117Z" transform="translate(-284.212 -241.556)" fill="#e9b99b"/>
        <path id="Trazado_55138" data-name="Trazado 55138" d="M312.506,340.845a6.376,6.376,0,0,1-1.953-12.447l4.12-1.321a6.376,6.376,0,0,1,3.894,12.142l-4.119,1.322A6.364,6.364,0,0,1,312.506,340.845Z" transform="translate(-287.744 -247.585)" fill="#e9b99b"/>
        <g id="Grupo_25371" data-name="Grupo 25371" transform="translate(8.519 33.767)">
          <path id="Trazado_55139" data-name="Trazado 55139" d="M294.9,271.544a6.377,6.377,0,0,1-5.127-10.148l9.216-12.56a6.376,6.376,0,0,1,10.281,7.544l-9.216,12.56a6.333,6.333,0,0,1-4.173,2.53A6.445,6.445,0,0,1,294.9,271.544Z" transform="translate(-288.542 -245.986)" fill="#e9b99b"/>
          <path id="Trazado_55140" data-name="Trazado 55140" d="M331.075,263.908a6.414,6.414,0,0,1-1.75-.245L310.449,258.3a6.376,6.376,0,0,1,3.482-12.267l18.876,5.359a6.375,6.375,0,0,1,4.392,7.874h0a6.384,6.384,0,0,1-6.124,4.638Z" transform="translate(-296.126 -245.795)" fill="#e9b99b"/>
          <path id="Trazado_55141" data-name="Trazado 55141" d="M348.744,313.27,330.073,255.06l1.787-.573a22.631,22.631,0,0,1,28.462,14.638l10.886,33.937a2.863,2.863,0,0,1-1.849,3.595Z" transform="translate(-306.778 -249.132)" fill="#e9b99b"/>
        </g>
        <g id="Grupo_25372" data-name="Grupo 25372">
          <path id="Trazado_55142" data-name="Trazado 55142" d="M277.823,303.821c-.179-.484-1.157-.6-1.491-1.043l-2.8,2.041a.427.427,0,0,0,.413.176l3.848-.724A.643.643,0,0,0,277.823,303.821Z" transform="translate(-273.433 -237.049)" fill="#f70835"/>
          <path id="Trazado_55143" data-name="Trazado 55143" d="M276.244,301.3c-.326-.448-.135-1.43-.544-1.75a.631.631,0,0,0-.424-.111l-1.876,3.444a.432.432,0,0,0,.055.467l2.8-2.041Z" transform="translate(-273.354 -235.584)" fill="#af0404"/>
          <path id="Trazado_55144" data-name="Trazado 55144" d="M364.81,189.907l-3.146-4.313-78.4,57.179a15.683,15.683,0,0,1,3.893,3.769Z" transform="translate(-277.707 -185.594)" fill="#b6b6b7"/>
          <path id="Trazado_55145" data-name="Trazado 55145" d="M292.6,254.782,371,197.6l-3.146-4.314-77.65,56.635A15.752,15.752,0,0,1,292.6,254.782Z" transform="translate(-280.754 -188.971)" fill="#ddd"/>
          <path id="Trazado_55146" data-name="Trazado 55146" d="M285.076,294.255l-6.554,4.781c.334.439,1.313.559,1.491,1.043a.643.643,0,0,1-.029.449l7.484-1.409A15.752,15.752,0,0,0,285.076,294.255Z" transform="translate(-275.623 -233.307)" fill="#ddd"/>
          <path id="Trazado_55147" data-name="Trazado 55147" d="M280.414,287.545l-3.633,6.67a.631.631,0,0,1,.424.111c.409.32.217,1.3.544,1.75l.009.01,6.554-4.781a15.684,15.684,0,0,0-3.893-3.769l-.005.01Z" transform="translate(-274.859 -230.356)" fill="#b6b6b7"/>
        </g>
        <g id="Grupo_25374" data-name="Grupo 25374" transform="translate(6.78 51.681)">
          <path id="Trazado_55148" data-name="Trazado 55148" d="M354.765,320.952a15,15,0,0,1-9.317-3.238l-8.087-6.361a22.187,22.187,0,0,1-3.718-31.121l.807-1.026,30.829,24.249a8.348,8.348,0,0,1,1.4,11.722h0a15.024,15.024,0,0,1-10.091,5.666A15.478,15.478,0,0,1,354.765,320.952Z" transform="translate(-304.528 -278.38)" fill="#e9b99b"/>
          <g id="Grupo_25373" data-name="Grupo 25373">
            <path id="Trazado_55149" data-name="Trazado 55149" d="M323.557,283.469h0l-8.56,0,4.536-3.623,5.9,1.676.817,2.548A6.331,6.331,0,0,0,323.557,283.469Z" transform="translate(-298.418 -278.663)" fill="#46668c" opacity="0.3" style="mix-blend-mode: multiply;isolation: isolate"/>
            <path id="Trazado_55150" data-name="Trazado 55150" d="M291.817,290.492a6.375,6.375,0,0,1,0-12.75l20.005-.007h0a6.383,6.383,0,0,1,6.376,6.372h0a6.383,6.383,0,0,1-6.371,6.38l-10.266.006Z" transform="translate(-285.442 -277.734)" fill="#e9b99b"/>
            <path id="Trazado_55151" data-name="Trazado 55151" d="M295.719,280.074h-1.767a4.8,4.8,0,0,0-4.852,4.609,4.684,4.684,0,0,0,4.684,4.759h1.936a1.123,1.123,0,0,0,1.123-1.123V281.2A1.123,1.123,0,0,0,295.719,280.074Z" transform="translate(-287.048 -278.762)" fill="#f4ded3"/>
          </g>
        </g>
        <path id="Trazado_55152" data-name="Trazado 55152" d="M363.29,406.986l35.744-21.446,23.318,64.2-50.163,0Z" transform="translate(-312.845 -273.39)" fill="#ed5845"/>
      </g>
    </g>
  </g>
</svg>
