<svg xmlns="http://www.w3.org/2000/svg" width="166.605" height="190.833" viewBox="0 0 166.605 190.833">
  <g id="Grupo_25693" data-name="Grupo 25693" transform="translate(-346.595 1.962)">
    <g id="Layer_4" data-name="Layer 4" transform="translate(346.595 -1.962)">
      <g id="Grupo_25684" data-name="Grupo 25684">
        <g id="Grupo_25658" data-name="Grupo 25658" transform="translate(0 126.791)">
          <path id="Trazado_55625" data-name="Trazado 55625" d="M513.2,124.292H346.6V64.265H477.182Z" transform="translate(-346.595 -62.733)" fill="#40271f"/>
          <path id="Trazado_55626" data-name="Trazado 55626" d="M365.293,127.508H346.6L378.043,65l.417-.223a10.935,10.935,0,0,1,10.657.192l.052.031Z" transform="translate(-346.595 -63.466)" fill="#853f27"/>
          <path id="Trazado_55627" data-name="Trazado 55627" d="M379.369,127.516h-18.7l20.4-62.51.331-.184a10.794,10.794,0,0,1,10.273-.093l.521.277Z" transform="translate(-333.397 -63.475)" fill="#853f27"/>
          <path id="Trazado_55628" data-name="Trazado 55628" d="M393.444,127.514h-18.7L384.1,65l.19-.109a10.793,10.793,0,0,1,10.285-.227l.653.335Z" transform="translate(-320.2 -63.473)" fill="#853f27"/>
          <path id="Trazado_55629" data-name="Trazado 55629" d="M408.334,127.515h-18.7l-1.684-62.51.2-.112a10.783,10.783,0,0,1,10.283-.219l.645.331Z" transform="translate(-307.818 -63.473)" fill="#853f27"/>
          <path id="Trazado_55630" data-name="Trazado 55630" d="M427.753,127.513h-18.7L396.327,65l.052-.029a10.787,10.787,0,0,1,10.3-.357l.771.386Z" transform="translate(-299.965 -63.471)" fill="#853f27"/>
          <path id="Trazado_55631" data-name="Trazado 55631" d="M447.172,127.512h-18.7L404.7,65l.058-.035a10.792,10.792,0,0,1,10.3-.347l.763.382Z" transform="translate(-292.111 -63.471)" fill="#853f27"/>
        </g>
        <g id="Grupo_25659" data-name="Grupo 25659" transform="translate(79.171)">
          <circle id="Elipse_1439" data-name="Elipse 1439" cx="21.173" cy="21.173" r="21.173" transform="translate(9.955 13.551) rotate(-4.858)" fill="#ff8d00"/>
          <circle id="Elipse_1440" data-name="Elipse 1440" cx="17.71" cy="17.71" r="17.71" transform="translate(15.135 15.25)" fill="#fab700"/>
          <path id="Trazado_55632" data-name="Trazado 55632" d="M404.7-1.305l-1.384,8.022a.791.791,0,0,0,.779.926h2.7a.79.79,0,0,0,.779-.918L406.256-1.3A.79.79,0,0,0,404.7-1.305Z" transform="translate(-372.595 1.962)" fill="#fab700"/>
          <path id="Trazado_55633" data-name="Trazado 55633" d="M419.292,3.033l-6.65,4.695a.788.788,0,0,0-.1,1.2l1.909,1.91a.791.791,0,0,0,1.2-.1l4.741-6.605A.791.791,0,0,0,419.292,3.033Z" transform="translate(-364.153 6.502)" fill="#fab700"/>
          <path id="Trazado_55634" data-name="Trazado 55634" d="M425.41,15.281,417.386,13.9a.79.79,0,0,0-.924.779v2.7a.79.79,0,0,0,.918.779l8.024-1.318A.79.79,0,0,0,425.41,15.281Z" transform="translate(-360.257 16.821)" fill="#fab700"/>
          <path id="Trazado_55635" data-name="Trazado 55635" d="M415.694,23.225a.792.792,0,0,0-1.205-.1l-1.911,1.91a.793.793,0,0,0,.1,1.2l6.605,4.741a.791.791,0,0,0,1.106-1.1Z" transform="translate(-364.114 25.264)" fill="#fab700"/>
          <path id="Trazado_55636" data-name="Trazado 55636" d="M406.851,27.045h-2.7a.79.79,0,0,0-.779.918l1.318,8.024a.791.791,0,0,0,1.56.006l1.382-8.024A.79.79,0,0,0,406.851,27.045Z" transform="translate(-372.541 29.16)" fill="#fab700"/>
          <path id="Trazado_55637" data-name="Trazado 55637" d="M398.412,23.163a.791.791,0,0,0-1.2.1l-4.741,6.605a.79.79,0,0,0,1.1,1.106l6.652-4.695a.79.79,0,0,0,.1-1.205Z" transform="translate(-382.899 25.303)" fill="#fab700"/>
          <path id="Trazado_55638" data-name="Trazado 55638" d="M396.14,13.954l-8.022,1.318a.79.79,0,0,0-.008,1.558l8.022,1.383a.79.79,0,0,0,.924-.779v-2.7A.789.789,0,0,0,396.14,13.954Z" transform="translate(-387.455 16.875)" fill="#fab700"/>
          <path id="Trazado_55639" data-name="Trazado 55639" d="M393.557,3.052a.791.791,0,0,0-1.108,1.1l4.695,6.65a.79.79,0,0,0,1.205.1l1.909-1.909a.791.791,0,0,0-.1-1.2Z" transform="translate(-382.915 6.518)" fill="#fab700"/>
        </g>
        <path id="Trazado_55640" data-name="Trazado 55640" d="M389.193,25.709a10.224,10.224,0,0,0-20.339-.015h-.76a7.423,7.423,0,0,0-7.423,7.425v.149a7.424,7.424,0,0,0,7.423,7.425h20.938a7.425,7.425,0,0,0,7.425-7.425v-.149A7.415,7.415,0,0,0,389.193,25.709Z" transform="translate(-333.397 19.3)" fill="#89f7ff"/>
        <g id="Grupo_25660" data-name="Grupo 25660" transform="translate(8.018 172.048)">
          <path id="Trazado_55641" data-name="Trazado 55641" d="M364.69,93.81H350.733a6.978,6.978,0,1,1,13.957,0Z" transform="translate(-350.733 -86.831)" fill="#71c700"/>
        </g>
        <g id="Grupo_25661" data-name="Grupo 25661" transform="translate(14.493 157.707)">
          <path id="Trazado_55642" data-name="Trazado 55642" d="M367.375,86.08h-13.3a6.65,6.65,0,1,1,13.3,0Z" transform="translate(-354.075 -79.43)" fill="#71c700"/>
        </g>
        <g id="Grupo_25662" data-name="Grupo 25662" transform="translate(21.599 144.756)">
          <path id="Trazado_55643" data-name="Trazado 55643" d="M369.54,78.646h-11.8a5.9,5.9,0,1,1,11.8,0Z" transform="translate(-357.742 -72.746)" fill="#71c700"/>
        </g>
        <g id="Grupo_25663" data-name="Grupo 25663" transform="translate(27.499 132.487)">
          <path id="Trazado_55644" data-name="Trazado 55644" d="M371.673,71.857H360.787a5.443,5.443,0,1,1,10.886,0Z" transform="translate(-360.787 -66.414)" fill="#71c700"/>
        </g>
        <g id="Grupo_25664" data-name="Grupo 25664" transform="translate(133.38 172.048)">
          <path id="Trazado_55645" data-name="Trazado 55645" d="M415.432,93.81h13.959a6.979,6.979,0,1,0-13.959,0Z" transform="translate(-415.432 -86.831)" fill="#71c700"/>
        </g>
        <g id="Grupo_25665" data-name="Grupo 25665" transform="translate(127.564 157.707)">
          <path id="Trazado_55646" data-name="Trazado 55646" d="M412.43,86.08h13.3a6.649,6.649,0,1,0-13.3,0Z" transform="translate(-412.43 -79.43)" fill="#71c700"/>
        </g>
        <g id="Grupo_25666" data-name="Grupo 25666" transform="translate(121.958 144.756)">
          <path id="Trazado_55647" data-name="Trazado 55647" d="M409.537,78.646h11.8a5.9,5.9,0,1,0-11.8,0Z" transform="translate(-409.537 -72.746)" fill="#71c700"/>
        </g>
        <g id="Grupo_25667" data-name="Grupo 25667" transform="translate(116.972 132.487)">
          <path id="Trazado_55648" data-name="Trazado 55648" d="M406.964,71.857H417.85a5.443,5.443,0,0,0-10.886,0Z" transform="translate(-406.964 -66.414)" fill="#71c700"/>
        </g>
        <g id="Grupo_25668" data-name="Grupo 25668" transform="translate(107.999 172.048)">
          <path id="Trazado_55649" data-name="Trazado 55649" d="M402.333,93.81h13.959a6.979,6.979,0,1,0-13.959,0Z" transform="translate(-402.333 -86.831)" fill="#71c700"/>
        </g>
        <g id="Grupo_25669" data-name="Grupo 25669" transform="translate(104.897 157.707)">
          <path id="Trazado_55650" data-name="Trazado 55650" d="M400.732,86.08h13.3a6.649,6.649,0,1,0-13.3,0Z" transform="translate(-400.732 -79.43)" fill="#71c700"/>
        </g>
        <g id="Grupo_25670" data-name="Grupo 25670" transform="translate(101.475 144.756)">
          <path id="Trazado_55651" data-name="Trazado 55651" d="M398.966,78.646h11.8a5.9,5.9,0,1,0-11.8,0Z" transform="translate(-398.966 -72.746)" fill="#71c700"/>
        </g>
        <g id="Grupo_25671" data-name="Grupo 25671" transform="translate(99.088 132.487)">
          <path id="Trazado_55652" data-name="Trazado 55652" d="M397.734,71.857H408.62a5.443,5.443,0,1,0-10.886,0Z" transform="translate(-397.734 -66.414)" fill="#71c700"/>
        </g>
        <g id="Grupo_25672" data-name="Grupo 25672" transform="translate(83.345 172.048)">
          <path id="Trazado_55653" data-name="Trazado 55653" d="M389.609,93.81h13.959a6.979,6.979,0,1,0-13.959,0Z" transform="translate(-389.609 -86.831)" fill="#71c700"/>
        </g>
        <g id="Grupo_25673" data-name="Grupo 25673" transform="translate(81.936 157.707)">
          <path id="Trazado_55654" data-name="Trazado 55654" d="M388.882,86.08h13.3a6.649,6.649,0,1,0-13.3,0Z" transform="translate(-388.882 -79.43)" fill="#71c700"/>
        </g>
        <g id="Grupo_25674" data-name="Grupo 25674" transform="translate(81.628 144.756)">
          <path id="Trazado_55655" data-name="Trazado 55655" d="M388.723,78.646h11.8a5.9,5.9,0,1,0-11.8,0Z" transform="translate(-388.723 -72.746)" fill="#71c700"/>
        </g>
        <g id="Grupo_25675" data-name="Grupo 25675" transform="translate(81.179 132.487)">
          <path id="Trazado_55656" data-name="Trazado 55656" d="M388.491,71.857h10.886a5.443,5.443,0,0,0-10.886,0Z" transform="translate(-388.491 -66.414)" fill="#71c700"/>
        </g>
        <g id="Grupo_25676" data-name="Grupo 25676" transform="translate(57.809 172.048)">
          <path id="Trazado_55657" data-name="Trazado 55657" d="M376.43,93.81h13.959a6.979,6.979,0,0,0-13.959,0Z" transform="translate(-376.43 -86.831)" fill="#71c700"/>
        </g>
        <g id="Grupo_25677" data-name="Grupo 25677" transform="translate(60.074 157.707)">
          <path id="Trazado_55658" data-name="Trazado 55658" d="M377.6,86.08h13.3a6.649,6.649,0,1,0-13.3,0Z" transform="translate(-377.599 -79.43)" fill="#71c700"/>
        </g>
        <g id="Grupo_25678" data-name="Grupo 25678" transform="translate(61.576 144.756)">
          <path id="Trazado_55659" data-name="Trazado 55659" d="M378.374,78.646h11.8a5.9,5.9,0,1,0-11.8,0Z" transform="translate(-378.374 -72.746)" fill="#71c700"/>
        </g>
        <g id="Grupo_25679" data-name="Grupo 25679" transform="translate(63.06 132.487)">
          <path id="Trazado_55660" data-name="Trazado 55660" d="M379.14,71.857h10.886a5.443,5.443,0,1,0-10.886,0Z" transform="translate(-379.14 -66.414)" fill="#71c700"/>
        </g>
        <g id="Grupo_25680" data-name="Grupo 25680" transform="translate(32.942 172.048)">
          <path id="Trazado_55661" data-name="Trazado 55661" d="M363.6,93.81h13.959a6.979,6.979,0,0,0-13.959,0Z" transform="translate(-363.596 -86.831)" fill="#71c700"/>
        </g>
        <g id="Grupo_25681" data-name="Grupo 25681" transform="translate(37.311 157.707)">
          <path id="Trazado_55662" data-name="Trazado 55662" d="M365.851,86.08h13.3a6.649,6.649,0,1,0-13.3,0Z" transform="translate(-365.851 -79.43)" fill="#71c700"/>
        </g>
        <g id="Grupo_25682" data-name="Grupo 25682" transform="translate(41.258 144.756)">
          <path id="Trazado_55663" data-name="Trazado 55663" d="M367.888,78.646h11.8a5.9,5.9,0,1,0-11.8,0Z" transform="translate(-367.888 -72.746)" fill="#71c700"/>
        </g>
        <g id="Grupo_25683" data-name="Grupo 25683" transform="translate(45.166 132.487)">
          <path id="Trazado_55664" data-name="Trazado 55664" d="M369.905,71.857h10.886a5.443,5.443,0,1,0-10.886,0Z" transform="translate(-369.905 -66.414)" fill="#71c700"/>
        </g>
      </g>
    </g>
    <g id="Layer_9" data-name="Layer 9" transform="translate(346.596 46.159)">
      <g id="Grupo_25691" data-name="Grupo 25691" transform="translate(0.148 37.336)">
        <path id="Trazado_55665" data-name="Trazado 55665" d="M382.234,48.659c0,2.986-3.949,5.406-8.818,5.406s-8.818-2.42-8.818-5.406,3.947-5.408,8.818-5.408S382.234,45.671,382.234,48.659Z" transform="translate(-329.864 -41.102)" fill="#6b3320"/>
        <path id="Trazado_55666" data-name="Trazado 55666" d="M398.067,48.659c0,2.986-3.949,5.406-8.818,5.406s-8.82-2.42-8.82-5.406,3.949-5.408,8.82-5.408S398.067,45.671,398.067,48.659Z" transform="translate(-315.021 -41.102)" fill="#6b3320"/>
        <path id="Trazado_55667" data-name="Trazado 55667" d="M390.142,48.659c0,2.986-3.949,5.406-8.82,5.406s-8.818-2.42-8.818-5.406,3.949-5.408,8.818-5.408S390.142,45.671,390.142,48.659Z" transform="translate(-322.451 -41.102)" fill="#6b3320"/>
        <path id="Trazado_55668" data-name="Trazado 55668" d="M386.144,49.871c0,2.986-3.949,5.406-8.818,5.406s-8.82-2.42-8.82-5.406,3.949-5.408,8.82-5.408S386.144,46.883,386.144,49.871Z" transform="translate(-326.2 -39.966)" fill="#853f27"/>
        <path id="Trazado_55669" data-name="Trazado 55669" d="M393.8,49.871c0,2.986-3.947,5.406-8.818,5.406s-8.818-2.42-8.818-5.406,3.949-5.408,8.818-5.408S393.8,46.883,393.8,49.871Z" transform="translate(-319.017 -39.966)" fill="#b35534"/>
        <g id="Grupo_25686" data-name="Grupo 25686" transform="translate(10.285 8.651)">
          <rect id="Rectángulo_5361" data-name="Rectángulo 5361" width="69.488" height="5.413" transform="translate(0 17.716)" fill="#242424"/>
          <rect id="Rectángulo_5362" data-name="Rectángulo 5362" width="51.345" height="17.716" transform="translate(22.965)" fill="#ff8d00"/>
          <rect id="Rectángulo_5363" data-name="Rectángulo 5363" width="51.345" height="2.851" transform="translate(22.965 14.379)" fill="#ffae0d"/>
          <rect id="Rectángulo_5364" data-name="Rectángulo 5364" width="51.345" height="3.367" transform="translate(22.965 7.257)" fill="#ffae0d"/>
          <rect id="Rectángulo_5365" data-name="Rectángulo 5365" width="51.345" height="3.367" transform="translate(22.965 0.608)" fill="#ffae0d"/>
          <g id="Grupo_25685" data-name="Grupo 25685" transform="translate(45.173 19.675)">
            <circle id="Elipse_1441" data-name="Elipse 1441" cx="6.367" cy="6.367" r="6.367" fill="#0a0a0a"/>
            <circle id="Elipse_1442" data-name="Elipse 1442" cx="4.112" cy="4.112" r="4.112" transform="translate(2.255 2.255)" fill="#b3b3b3"/>
            <circle id="Elipse_1443" data-name="Elipse 1443" cx="2.913" cy="2.913" r="2.913" transform="translate(3.454 3.454)" fill="#575757"/>
          </g>
          <path id="Trazado_55670" data-name="Trazado 55670" d="M391.681,63.914l1.821-.721-3.1-7.843H376.275l-2.889,7.866,1.839.675,2.418-6.582h11.425Z" transform="translate(-331.909 -38.409)" fill="#575757"/>
          <rect id="Rectángulo_5366" data-name="Rectángulo 5366" width="1.414" height="11.421" transform="translate(21.551 6.295)" fill="#0a0a0a"/>
        </g>
        <g id="Grupo_25690" data-name="Grupo 25690">
          <g id="Grupo_25687" data-name="Grupo 25687" transform="translate(13.06 28.326)">
            <circle id="Elipse_1444" data-name="Elipse 1444" cx="6.367" cy="6.367" r="6.367" fill="#0a0a0a"/>
            <circle id="Elipse_1445" data-name="Elipse 1445" cx="4.112" cy="4.112" r="4.112" transform="translate(2.255 2.255)" fill="#b3b3b3"/>
            <circle id="Elipse_1446" data-name="Elipse 1446" cx="2.913" cy="2.913" r="2.913" transform="translate(3.454 3.454)" fill="#575757"/>
          </g>
          <g id="Grupo_25688" data-name="Grupo 25688">
            <path id="Trazado_55671" data-name="Trazado 55671" d="M359.016,42.142h18.938V76.264h-3.8l-2.244-7.078c-.922.01-6.367.118-6.367.118l-5.98-.227-1.523,7.187H347.262V53.9A11.755,11.755,0,0,1,359.016,42.142Z" transform="translate(-346.119 -42.142)" fill="#598114"/>
            <path id="Trazado_55672" data-name="Trazado 55672" d="M349.129,52.761l14.121-.016a.349.349,0,0,0,.351-.349V43.546a.351.351,0,0,0-.351-.351H356.8a8.046,8.046,0,0,0-8.024,8.024V52.41A.351.351,0,0,0,349.129,52.761Z" transform="translate(-344.697 -41.155)" fill="#3a83b0"/>
            <rect id="Rectángulo_5367" data-name="Rectángulo 5367" width="3.301" height="1.015" rx="0.259" transform="translate(15.601 13.931)" fill="#700909"/>
            <ellipse id="Elipse_1447" data-name="Elipse 1447" cx="1.332" cy="0.691" rx="1.332" ry="0.691" transform="translate(25.336 19.704)" fill="#ff7b00"/>
            <rect id="Rectángulo_5368" data-name="Rectángulo 5368" width="8.51" height="9.566" rx="0.321" transform="translate(21.081 2.04)" fill="#990b0b"/>
            <path id="Trazado_55673" data-name="Trazado 55673" d="M347.406,62.77h7.741c.316,0,.653-.461.734-.734l2.172-5.551a.735.735,0,0,0-.734-.734h-9.913a.734.734,0,0,0-.734.734v5.551A.734.734,0,0,0,347.406,62.77Z" transform="translate(-346.672 -29.383)" fill="#0a0a0a"/>
          </g>
          <g id="Grupo_25689" data-name="Grupo 25689" transform="translate(2.469 19.039)">
            <path id="Trazado_55674" data-name="Trazado 55674" d="M347.946,55.1c0,1.73.808,3.133,1.806,3.133s1.806-1.4,1.806-3.133-.808-3.133-1.806-3.133S347.946,53.371,347.946,55.1Z" transform="translate(-347.946 -51.968)" fill="#540606"/>
            <path id="Trazado_55675" data-name="Trazado 55675" d="M348.044,54.78c0,1.364.636,2.47,1.422,2.47s1.424-1.106,1.424-2.47-.637-2.469-1.424-2.469S348.044,53.417,348.044,54.78Z" transform="translate(-347.854 -51.646)" fill="#ebd7a5"/>
          </g>
          <path id="Trazado_55676" data-name="Trazado 55676" d="M370,63.914l1.821-.721-3.1-7.843H354.59L351.7,63.216l1.839.675,2.418-6.582h11.425Z" transform="translate(-341.956 -29.758)" fill="#575757"/>
        </g>
        <rect id="Rectángulo_5369" data-name="Rectángulo 5369" width="0.9" height="14.778" transform="translate(84.594 11.589)" fill="#522d00"/>
      </g>
      <g id="Grupo_25692" data-name="Grupo 25692">
        <rect id="Rectángulo_5370" data-name="Rectángulo 5370" width="129.163" height="4.412" transform="translate(0 77.567)" fill="#662b13"/>
        <path id="Trazado_55677" data-name="Trazado 55677" d="M448.037,49.737,431.808,32.107l-21.546-7.528-20.427,7.528L372.487,49.737v49.1h75.55Z" transform="translate(-322.319 -21.273)" fill="#ff1414"/>
        <rect id="Rectángulo_5371" data-name="Rectángulo 5371" width="1.586" height="25.542" transform="translate(87.15 2.53)" fill="#f2f2f2"/>
        <rect id="Rectángulo_5372" data-name="Rectángulo 5372" width="29.138" height="1.586" transform="matrix(0.785, -0.619, 0.619, 0.785, 87.452, 27.45)" fill="#f2f2f2"/>
        <rect id="Rectángulo_5373" data-name="Rectángulo 5373" width="1.586" height="29.138" transform="matrix(0.619, -0.785, 0.785, 0.619, 64.879, 10.646)" fill="#f2f2f2"/>
        <rect id="Rectángulo_5374" data-name="Rectángulo 5374" width="75.55" height="2.244" transform="translate(50.168 26.664)" fill="#f2f2f2"/>
        <path id="Trazado_55678" data-name="Trazado 55678" d="M372.487,59.39l17.349-17.629,20.427-7.528,21.546,7.528L448.037,59.39V49.737L431.808,32.107l-21.546-7.528-20.427,7.528L372.487,49.737Z" transform="translate(-322.319 -21.273)" opacity="0.35"/>
        <path id="Trazado_55679" data-name="Trazado 55679" d="M371.694,55.517l-2.411-2.337,21.284-21.946,22.685-8.361,23.913,8.356,20.27,22.218-2.455,2.291-19.7-21.613-21.994-7.685-20.838,7.68Z" transform="translate(-325.323 -22.873)" fill="#fab700"/>
        <rect id="Rectángulo_5375" data-name="Rectángulo 5375" width="34.837" height="29.6" transform="translate(70.617 47.967)" fill="#f2f2f2"/>
        <rect id="Rectángulo_5376" data-name="Rectángulo 5376" width="31.081" height="27.907" transform="translate(72.495 49.66)" fill="#582a1a"/>
        <path id="Trazado_55680" data-name="Trazado 55680" d="M413.415,76.41l-29.4-26.4V48.5h1.675l29.406,26.4v1.5Z" transform="translate(-311.515 1.158)" fill="#3b1c11"/>
        <path id="Trazado_55681" data-name="Trazado 55681" d="M384.01,74.734,413.586,48.5h1.5v1.675L385.513,76.41h-1.5Z" transform="translate(-311.515 1.158)" fill="#3b1c11"/>
        <rect id="Rectángulo_5377" data-name="Rectángulo 5377" width="0.653" height="27.907" transform="translate(87.709 49.66)" fill="#1c0d08"/>
      </g>
    </g>
  </g>
</svg>
