<svg xmlns="http://www.w3.org/2000/svg" width="280.005" height="284.562" viewBox="0 0 280.005 284.562">
  <g id="Grupo_25305" data-name="Grupo 25305" transform="translate(-39.115 -8.519)">
    <g id="Grupo_25304" data-name="Grupo 25304" transform="translate(39.115 8.519)">
      <path id="Trazado_54888" data-name="Trazado 54888" d="M319.119,150.182c-.905,43.564-16.7,79.728-48.777,108.4a134.733,134.733,0,0,1-62.6,31.579,108.73,108.73,0,0,1-18.987,2.607c-5.885.206-11.8.5-17.662.158a134.455,134.455,0,0,1-67.987-22.629c-29.441-19.674-48.924-46.706-58.71-80.72a144.86,144.86,0,0,1-5.1-45.8A142.916,142.916,0,0,1,103.673,31.033a136.981,136.981,0,0,1,47.9-19.737,133.814,133.814,0,0,1,33.35-2.632,135.541,135.541,0,0,1,75.723,26.7c26.385,19.462,43.971,45.125,53.009,76.634a125.428,125.428,0,0,1,4.47,23.615C318.575,140.679,318.825,145.769,319.119,150.182ZM96.889,55.759a5.044,5.044,0,0,0-.494.292q-.413.347-.807.71a127.306,127.306,0,0,0-41.1,88.962,124.942,124.942,0,0,0,.445,15.984A134.825,134.825,0,0,0,57.4,178.545,124.022,124.022,0,0,0,88.481,237.86q34.032,36.238,83.748,39.674c.693.048,1.059-.162,1.117-.876.323-3.8.706-7.6.968-11.407.189-2.739.248-5.488.326-8.233a112.185,112.185,0,0,0-.567-18.836,11.23,11.23,0,0,0-6.967-9.412c-1.1-.468-2.212-.891-3.329-1.306a23.949,23.949,0,0,1-12.533-10.393c-5.131-8.588-5.81-18.007-5.033-27.7.17-2.121.807-4.173-.065-6.421q-23.771-61.2-47.4-122.452C98.151,58.956,97.54,57.414,96.889,55.759ZM261.329,55.7c-.233.534-.422.92-.576,1.319Q255.067,71.7,249.391,86.385q-18.809,48.6-37.605,97.212a4.183,4.183,0,0,0-.307,1.939,60.622,60.622,0,0,1-.242,20.071c-1.237,6.076-3.587,11.611-7.986,16.133a27.123,27.123,0,0,1-10.876,6.463c-3.8,1.325-6.784,3.65-7.79,7.729a36.823,36.823,0,0,0-1.027,7.295c-.17,4.257-.225,8.53-.044,12.783.286,6.795.8,13.579,1.222,20.367.046.762.26,1.264,1.231,1.151,3.514-.4,7.045-.657,10.548-1.126a116.82,116.82,0,0,0,32.094-9.162c48.458-21.529,78.384-71.4,74.868-124.567a127.358,127.358,0,0,0-41.067-86.065C262.1,56.32,261.762,56.064,261.329,55.7Zm-82.61-31.7a129.645,129.645,0,0,0-19.441,1.653,122.764,122.764,0,0,0-34.826,11.206c-.87.428-1.048.8-.63,1.706Q142.8,79.885,161.788,121.2a26.482,26.482,0,0,0,4.228,6.31,51.408,51.408,0,0,0,5.959,5.322,16.1,16.1,0,0,1,5.919,9.926c.216,1.252.271,2.531.491,3.783.057.332.456.607.7.907.231-.319.586-.609.666-.962a17.753,17.753,0,0,0,.3-2.365,15.084,15.084,0,0,1,4.648-9.933c1.269-1.206,2.636-2.31,4.005-3.4a26.159,26.159,0,0,0,7.725-9.586q18.913-41.282,37.84-82.562c.414-.9.372-1.309-.611-1.8A123.466,123.466,0,0,0,178.719,24.008Zm-70.56,22.506c-2.6,2.012-4.967,3.892-7.391,5.69a1.523,1.523,0,0,0-.555,2.176q17.237,41.477,34.4,82.98,9.134,22.041,18.29,44.072a25.913,25.913,0,0,0,10.949,12.722c2.025,1.191,4.064,2.357,6.074,3.571a14.94,14.94,0,0,1,7.181,9.84c.405,1.821.7,3.665,1.017,5.5.107.632.443,1,1.035.8a1.46,1.46,0,0,0,.842-.878c.26-1.117.37-2.271.55-3.407a16.3,16.3,0,0,1,8.63-12.47c1.191-.645,2.334-1.376,3.527-2.014A28.205,28.205,0,0,0,205.7,180.37q25.746-62.293,51.59-124.548c1.143-2.76,1.153-2.781-1.239-4.644-1.966-1.533-3.972-3.014-6.089-4.617-.424,1.012-.767,1.806-1.088,2.607q-21.071,52.6-42.125,105.2a6.745,6.745,0,0,0-.513,2.174A53.186,53.186,0,0,1,203.588,172c-4.035,11.55-11.527,19.542-23.587,22.783a3.6,3.6,0,0,1-1.741.048,31.744,31.744,0,0,1-18.767-12.9c-4.7-6.751-6.835-14.362-7.425-22.487a16.718,16.718,0,0,0-.687-4.915q-20.038-50.308-40.218-100.562C110.2,51.567,109.235,49.179,108.159,46.513Zm129.709-7.372c-.66,1.5-1.288,2.9-1.9,4.316q-17.924,41.313-35.826,82.637a5.387,5.387,0,0,0-.464,2.39c.315,4.787.456,9.605-.783,14.247-2.682,10.061-9.553,16.127-19.256,19.246a2.985,2.985,0,0,1-1.6-.095,25.838,25.838,0,0,1-8.486-4.262c-5.11-3.837-8.992-8.578-10.374-14.976a45.751,45.751,0,0,1-.739-13.3,6.321,6.321,0,0,0-.294-2.9Q139.5,83.362,120.766,40.317c-.166-.382-.378-.746-.647-1.269-2.739,1.676-5.327,3.314-7.971,4.852-.96.559-1.065,1.054-.622,2.067q22.879,52.167,45.7,104.364a24.073,24.073,0,0,0,7.19,9.538c2.352,1.836,4.825,3.516,7.267,5.232a13.387,13.387,0,0,1,5.364,7.391c.483,1.674.777,3.4,1.227,5.087a1.137,1.137,0,0,0,.765.729c.26.01.634-.4.781-.7a5.076,5.076,0,0,0,.248-1.281c.832-4.9,2.775-9.116,7.209-11.827.983-.6,1.905-1.306,2.871-1.937a29.228,29.228,0,0,0,11.187-13.167q17.479-40.211,35.129-80.346c3.382-7.725,6.742-15.457,10.157-23.165.4-.9.38-1.388-.527-1.909-2.38-1.365-4.7-2.827-7.059-4.243C238.7,39.529,238.341,39.378,237.868,39.141Z" transform="translate(-39.115 -8.519)" fill="#3e8ede"/>
      <path id="Trazado_54889" data-name="Trazado 54889" d="M55.354,109.841v-1.355q0-27.079-.027-54.154c0-1.214.313-1.542,1.521-1.537q15.9.066,31.8,0c1.128,0,1.521.275,1.483,1.458-.088,2.7-.029,5.406-.029,8.307H88.626c-6.454,0-12.911.025-19.365-.025-1.1-.008-1.422.307-1.4,1.405.061,3.98.023,7.963.023,12.09h21.4v9.9H67.915v23.911Z" transform="translate(-21.275 40.202)" fill="#3e8ede"/>
      <path id="Trazado_54890" data-name="Trazado 54890" d="M89.842,139.817c-1.166-.676-2.279-1.275-3.325-1.97a1.186,1.186,0,0,1-.326-.991c.2-1.252.464-2.5.76-3.73a1.526,1.526,0,0,0-.731-1.88c-2.722-1.867-5.406-3.8-8.03-5.8a1.491,1.491,0,0,0-2.081-.095c-.977.678-2.06,1.208-3.054,1.867a1.065,1.065,0,0,1-1.563-.1c-.79-.771-1.649-1.468-2.592-2.3,1.25-.725,2.371-1.382,3.5-2.029,5.868-3.365,11.747-6.713,17.6-10.1a1.553,1.553,0,0,1,2.01.067c2.583,1.922,2.552,1.88,1.951,5.058-1.351,7.139-2.64,14.291-3.955,21.436C89.983,139.39,89.926,139.531,89.842,139.817Zm-9.6-16.99,7.656,5.539,2.264-11.178-.309-.16Z" transform="translate(-6.338 105.733)" fill="#3e8ede"/>
      <path id="Trazado_54891" data-name="Trazado 54891" d="M73.9,111.208,70.815,113l-4.459-8.738-9.187,4.789-1.926-3.869L75.93,94.216l6.742,12.84-2.989,1.777-4.822-9.086c-1.653.874-3.277,1.7-4.85,2.611-.172.1-.185.781-.038,1.08,1.084,2.214,2.229,4.4,3.352,6.593C73.5,110.378,73.672,110.735,73.9,111.208Z" transform="translate(-21.367 85.781)" fill="#3e8ede"/>
      <path id="Trazado_54892" data-name="Trazado 54892" d="M106.306,123.662a18.9,18.9,0,0,1-.75,2.476,1.255,1.255,0,0,1-1.107.393c-1.817-.41-3.613-.918-5.417-1.39l-1.39-.363L91.11,143.7l-3.995-1.407c.145-.466.263-.865.4-1.26,1.882-5.526,3.743-11.059,5.671-16.568.326-.93.16-1.292-.756-1.655-2.136-.844-4.22-1.827-6.461-2.817l1.275-3.134C93.616,119.13,99.908,121.377,106.306,123.662Z" transform="translate(12.44 110.693)" fill="#3e8ede"/>
      <path id="Trazado_54893" data-name="Trazado 54893" d="M80.867,104.509l2.749,3.373c-5.986,5.091-11.922,10.136-17.971,15.28-.5-.576-.962-1.1-1.414-1.634-.437-.517-.859-1.042-1.4-1.693C68.834,114.736,74.795,109.67,80.867,104.509Z" transform="translate(-13.013 97.107)" fill="#3e8ede"/>
      <path id="Trazado_54894" data-name="Trazado 54894" d="M136.6,82.265c-.061-6.358.777-12.157,3.434-17.551,4.253-8.633,11.382-12.512,20.871-12.373,12.121.179,19.487,7.595,22.119,18.723,2.163,9.149,1.911,18.271-1.846,27.032-3.092,7.208-8.534,11.815-16.366,12.966C151.658,113,141.853,107.117,138.089,93.9A39.614,39.614,0,0,1,136.6,82.265Zm34.471-.3c-.25-2.768-.368-5.558-.783-8.3a17.664,17.664,0,0,0-3.514-8.872,8.079,8.079,0,0,0-12.749.053,18.127,18.127,0,0,0-2.869,6.076,46.635,46.635,0,0,0-.7,18.817,19.327,19.327,0,0,0,3.1,8.675,8.156,8.156,0,0,0,13.209.489,16.464,16.464,0,0,0,2.4-4.482C170.671,90.419,170.9,86.2,171.072,81.963Z" transform="translate(68.146 39.699)" fill="#3e8ede"/>
      <path id="Trazado_54895" data-name="Trazado 54895" d="M156.771,118.51l-12.72-11.3,2.529-3.064c5.925,5.375,11.783,10.691,17.738,16.091-.962,1.153-1.832,2.283-2.81,3.3a1.542,1.542,0,0,1-1.26.109c-5.532-1.6-11.052-3.241-16.578-4.867a3.147,3.147,0,0,0-1.613-.124l12.006,12.743-2.968,2.735c-5.568-5.749-11.075-11.434-16.715-17.261,1.218-1.115,2.346-2.212,3.56-3.205.244-.2.84-.086,1.231.029,5.3,1.563,10.586,3.153,15.877,4.73.508.151,1.029.26,1.544.389Z" transform="translate(65.712 96.712)" fill="#3e8ede"/>
      <path id="Trazado_54896" data-name="Trazado 54896" d="M150.993,129.2l-3.4,2.441c-1.229-.943-2.474-1.855-3.665-2.833a1.272,1.272,0,0,0-1.771-.092c-2.544,1.628-5.125,3.2-7.748,4.7a1.32,1.32,0,0,0-.727,1.642c.221,1.17.408,2.344.62,3.516a1.091,1.091,0,0,1-.691,1.424c-.941.38-1.842.865-2.852,1.351-.607-4.425-1.2-8.664-1.766-12.9-.523-3.9-1.038-7.792-1.5-11.695a1.4,1.4,0,0,1,.475-1.1c2.558-1.743,2.573-1.731,5.024.092q8.519,6.345,17.036,12.7C150.3,128.644,150.577,128.871,150.993,129.2ZM131.512,119.2l-.26.189c.554,3.564,1.111,7.129,1.712,10.991l7.259-4.438Z" transform="translate(58.122 107.935)" fill="#3e8ede"/>
      <path id="Trazado_54897" data-name="Trazado 54897" d="M123.881,134.44l2.672,8.8-3.89,1.056c-2.325-7.662-4.625-15.245-6.984-23.018,3.808-.987,7.3-2.909,11.319-2.613,3.587.263,6.163,3.6,6.06,7.727-.076,3.083-1.85,4.995-4.444,6.234C127.124,133.341,125.523,133.82,123.881,134.44Zm-3.3-10.771,2.26,7.387a39.91,39.91,0,0,0,4.673-2.138,3.261,3.261,0,0,0,1.206-3.934,3.3,3.3,0,0,0-2.846-2.4A9.467,9.467,0,0,0,120.583,123.669Z" transform="translate(45.135 112.656)" fill="#3e8ede"/>
      <path id="Trazado_54898" data-name="Trazado 54898" d="M150.062,88.722l3.109,1.621c-.775,1.422-1.573,2.7-2.176,4.064a5.457,5.457,0,0,0-.42,2.43,2.456,2.456,0,0,0,3.737,2.035,10.665,10.665,0,0,0,1.861-1.477c1.151-1.042,2.205-2.2,3.413-3.163a6.666,6.666,0,0,1,7.61-.685,6.428,6.428,0,0,1,3.713,6.289,14.058,14.058,0,0,1-3.386,8.756l-3.373-1.579c.607-.851,1.178-1.6,1.693-2.382a7.021,7.021,0,0,0,1.336-4.484,3.167,3.167,0,0,0-4.942-2.554,17.465,17.465,0,0,0-2.331,2.033c-.783.735-1.5,1.542-2.308,2.252a6,6,0,0,1-7.064,1.059,6.185,6.185,0,0,1-3.65-6.3A13.883,13.883,0,0,1,150.062,88.722Z" transform="translate(79.462 79.736)" fill="#3e8ede"/>
      <path id="Trazado_54899" data-name="Trazado 54899" d="M165.758,110.48l-1.989,3.5c-6.9-4.064-13.709-8.068-20.657-12.157l2.1-3.457Z" transform="translate(75.322 90.349)" fill="#3e8ede"/>
      <path id="Trazado_54900" data-name="Trazado 54900" d="M94.137,80.132c1.727-6.116,3.394-12.037,5.07-17.956q5.35-18.919,10.691-37.843c.239-.857.546-1.237,1.506-1.229,4.94.048,9.88.032,14.82.013.729,0,1.126.158,1.344.966q7.511,27.709,15.085,55.406c.04.149.076.3.155.611-.428.042-.8.109-1.166.109-3.625.008-7.253-.032-10.878.029-.935.017-1.231-.382-1.424-1.172-.859-3.51-1.779-7-2.617-10.519-.191-.8-.5-1.1-1.351-1.094q-7.171.06-14.344,0a1.266,1.266,0,0,0-1.464,1.128c-.933,3.493-1.941,6.963-2.878,10.454a1.336,1.336,0,0,1-1.54,1.206c-3.266-.063-6.534-.023-9.8-.027C95,80.212,94.647,80.166,94.137,80.132Zm29.911-22.256c-.044-.378-.048-.536-.082-.689q-1.884-8.793-3.776-17.586c-.443-2.056-.895-4.113-1.39-6.156-.063-.265-.407-.626-.634-.636s-.521.334-.687.588a2.412,2.412,0,0,0-.225.8q-2.013,9.19-4.022,18.38c-.376,1.729-.725,3.464-1.109,5.3Z" transform="translate(21.431 7.532)" fill="#3e8ede"/>
      <path id="Trazado_54901" data-name="Trazado 54901" d="M111.5,49.62c1.416,1.794,2.854,3.485,4.148,5.28,2.9,4.02,5.471,8.236,6.549,13.146.92,4.2.578,8.307-2.1,11.827-2.745,3.606-6.492,5.339-11.014,4.243-4.722-1.143-7.57-4.362-8.582-9.1-.937-4.394.08-8.513,2-12.476a54.858,54.858,0,0,1,8.328-12.323A8.647,8.647,0,0,1,111.5,49.62Z" transform="translate(28.042 36.708)" fill="#3e8ede"/>
    </g>
  </g>
</svg>
